<svg xmlns="http://www.w3.org/2000/svg" width="36" height="36" viewBox="0 0 36 36" fill="none"><rect x="0.25" y="0.25" width="35.5" height="35.5" fill="white"/><path fill-rule="evenodd" clip-rule="evenodd" d="M12.4012 6.52033C12.468 6.47853 12.5534 6.50326 12.592 6.57557L13.6834 8.61896C14.6281 7.69686 15.9043 7.07682 17.3323 6.92798H18.667C20.0945 7.07677 21.3704 7.69654 22.315 8.61821L23.4062 6.57555C23.4448 6.50325 23.5303 6.47853 23.5971 6.52033C23.6639 6.56214 23.6867 6.65464 23.6481 6.72694L22.5234 8.83229C23.4221 9.80426 23.9718 11.0687 23.9897 12.4536H12.0096C12.0275 11.069 12.5769 9.8049 13.475 8.8331L12.3501 6.72693C12.3115 6.65462 12.3344 6.56212 12.4012 6.52033ZM15.5292 10.6121C15.9091 10.611 16.2156 10.2853 16.2146 9.88481V9.88099C16.2132 9.48015 15.9049 9.15635 15.5253 9.15749C15.1458 9.15863 14.8389 9.48434 14.84 9.88481V9.88862C14.8414 10.2895 15.1494 10.6133 15.5292 10.6121ZM20.6591 10.6121C21.0389 10.611 21.3455 10.2853 21.3444 9.88481V9.88099C21.343 9.48015 21.0347 9.15635 20.6552 9.15749C20.2757 9.15863 19.9688 9.48434 19.9698 9.88481V9.88862C19.9712 10.2895 20.2792 10.6133 20.6591 10.6121Z" fill="#0F0039"/><path d="M19.6678 24.3736H16.3324V28.0644C16.3324 28.8577 15.7376 29.4999 15.0039 29.4999C14.2703 29.4999 13.6755 28.8573 13.6755 28.0644V24.3736H13.6105C12.6982 24.3736 11.9632 23.565 11.9632 22.562V13.2312L11.9713 13.066V13.0664H24.0313L24.0373 22.562C24.0373 23.565 23.3026 24.3736 22.3899 24.3736H22.3247V28.0644C22.3247 28.8577 21.7299 29.5 20.9962 29.5C20.2626 29.5 19.6678 28.8574 19.6678 28.0644V24.3736Z" fill="#0F0039"/><path d="M11.1569 15.3324C11.1569 14.5395 10.5621 13.8968 9.82845 13.8968C9.09445 13.8968 8.5 14.5391 8.5 15.3324V21.4904C8.5 22.2833 9.09481 22.9259 9.82845 22.9259C10.5621 22.9259 11.1569 22.2837 11.1569 21.4904V15.3324Z" fill="#0F0039"/><path d="M27.5 15.3324C27.5 14.5395 26.9052 13.8968 26.1716 13.8968C25.8196 13.8968 25.482 14.048 25.2329 14.3171C24.9839 14.5863 24.8437 14.9514 24.8431 15.3324V21.4904C24.8431 22.2833 25.4379 22.9259 26.1716 22.9259C26.9052 22.9259 27.5 22.2837 27.5 21.4904V15.3324Z" fill="#0F0039"/><rect x="0.25" y="0.25" width="35.5" height="35.5" stroke="#282B2F" stroke-width="0.5"/></svg>