<svg xmlns="http://www.w3.org/2000/svg" width="60" height="60" viewBox="0 0 60 60" fill="none"><rect x="0.25" y="0.25" width="59.5" height="59.5" fill="white"/><path d="M29.9325 7L9 14.7576L12.3077 43.637L29.955 53.8524L47.6936 43.5001L51 14.6207L29.9325 7Z" fill="#0F0039"/><path d="M48.9128 16.2877L29.8867 9.45557V51.4096L45.8327 42.1157L48.9128 16.2877Z" fill="#0F0039"/><path d="M11.3535 16.4128L14.1887 42.2408L29.8896 51.4096V9.45557L11.3535 16.4128Z" fill="#0F0039"/><path d="M35.1212 31.7898L29.8708 34.37H24.3755L21.7804 41.2048L16.9551 41.2996L29.8971 10.98L35.1474 31.7924L35.1212 31.7898ZM34.6149 30.4918L29.9183 20.7004L26.0656 30.3102H29.8833L34.6149 30.4787V30.4918Z" fill="white"/><path d="M29.8828 10.98L29.9178 20.7017L34.2893 30.3312H29.8928L29.8828 34.3634L35.9619 34.37L38.8033 41.2996L43.4224 41.3891L29.8828 10.98Z" fill="white"/><rect x="0.25" y="0.25" width="59.5" height="59.5" stroke="#282B2F" stroke-width="0.5"/></svg>