<svg xmlns="http://www.w3.org/2000/svg" width="36" height="36" viewBox="0 0 36 36" fill="none"><rect x="0.25" y="0.25" width="35.5" height="35.5" fill="white"/><path d="M19.1557 8.5018C20.5667 6.50959 22.5268 6.5 22.5268 6.5C22.5268 6.5 22.8183 8.37257 21.4173 10.1765C19.9211 12.1027 18.2207 11.7871 18.2207 11.7871C18.2207 11.7871 17.9013 10.2724 19.1557 8.50065V8.5018ZM18.4002 13.0998C19.1263 13.0998 20.4726 12.031 22.2253 12.031C25.2427 12.031 26.4295 14.3312 26.4295 14.3312C26.4295 14.3312 24.1081 15.6028 24.1081 18.6887C24.1081 22.1697 27 23.3692 27 23.3692C27 23.3692 24.9784 29.4655 22.2478 29.4655C20.9938 29.4655 20.0187 28.5605 18.6971 28.5605C17.3504 28.5605 16.0145 29.5 15.1435 29.5C12.6501 29.4988 9.5 23.7159 9.5 19.0669C9.5 14.4934 12.1665 12.0939 14.6674 12.0939C16.2935 12.0939 17.555 13.0987 18.4002 13.0987V13.0998Z" fill="#0F0039"/><rect x="0.25" y="0.25" width="35.5" height="35.5" stroke="#282B2F" stroke-width="0.5"/></svg>