<svg xmlns="http://www.w3.org/2000/svg" width="60" height="60" viewBox="0 0 60 60" fill="none"><rect x="0.25" y="0.25" width="59.5" height="59.5" fill="white"/><path d="M32.3113 11.0036C35.1334 7.01917 39.0536 7 39.0536 7C39.0536 7 39.6367 10.7451 36.8346 14.353C33.8422 18.2055 30.4413 17.5743 30.4413 17.5743C30.4413 17.5743 29.8025 14.5447 32.3113 11.0013V11.0036ZM30.8005 20.1996C32.2526 20.1996 34.9453 18.0621 38.4506 18.0621C44.4854 18.0621 46.859 22.6624 46.859 22.6624C46.859 22.6624 42.2163 25.2056 42.2163 31.3775C42.2163 38.3393 48 40.7384 48 40.7384C48 40.7384 43.9567 52.931 38.4956 52.931C35.9876 52.931 34.0375 51.1209 31.3942 51.1209C28.7009 51.1209 26.029 53 24.287 53C19.3002 52.9977 13 41.4317 13 32.1337C13 22.9868 18.3331 18.1878 23.3349 18.1878C26.5869 18.1878 29.11 20.1973 30.8005 20.1973V20.1996Z" fill="#0F0039"/><rect x="0.25" y="0.25" width="59.5" height="59.5" stroke="#282B2F" stroke-width="0.5"/></svg>