<svg xmlns="http://www.w3.org/2000/svg" width="150" height="42" viewBox="0 0 150 42" fill="none"><path d="M6.39454 20.1825L15.6805 2H11.1699C9.76016 2 8.47377 2.78975 7.82235 4.04512C1.2769 16.8555 3.85301 14.9915 6.39454 20.1825Z" fill="#090C52"></path><path d="M7.81723 4.05811C4.11599 11.2991 3.8495 14.9747 6.39102 20.1673L11.025 29.6541H5.55536C4.73451 29.6541 3.98932 29.1885 3.634 28.4613L0.362097 21.7797C-0.133047 20.7728 -0.118242 19.5931 0.393352 18.5862L7.81723 4.05811Z" fill="#4992FF"></path><path d="M18.6055 21.8175L9.31949 40H13.8301C15.2398 40 16.5262 39.2103 17.1776 37.9549C23.7231 25.1445 21.147 27.0085 18.6055 21.8175Z" fill="#090C52"></path><path d="M17.1828 37.9419C20.884 30.7009 21.1505 27.0253 18.609 21.8327L13.975 12.3459H19.4446C20.2655 12.3459 21.0107 12.8115 21.366 13.5387L24.6379 20.2203C25.133 21.2272 25.1182 22.4069 24.6066 23.4138L17.1828 37.9419Z" fill="#4992FF"></path><path d="M41.6918 31C39.7525 31 38.1209 30.5878 36.797 29.7634C35.4731 28.9211 34.5408 27.7832 34 26.3495L37.3005 24.4946C38.065 26.4122 39.5661 27.371 41.8037 27.371C42.8852 27.371 43.6777 27.1828 44.1811 26.8065C44.6846 26.4301 44.9363 25.9552 44.9363 25.3817C44.9363 24.7186 44.6287 24.2079 44.0133 23.8495C43.398 23.4731 42.2978 23.0699 40.7128 22.6398C39.8364 22.3889 39.0906 22.138 38.4752 21.8871C37.8785 21.6362 37.2725 21.3047 36.6572 20.8925C36.0605 20.4624 35.6036 19.9247 35.2866 19.2796C34.9696 18.6344 34.8111 17.8817 34.8111 17.0215C34.8111 15.319 35.4358 13.966 36.6851 12.9624C37.9531 11.9409 39.4728 11.4301 41.2443 11.4301C42.8292 11.4301 44.2184 11.8065 45.4118 12.5591C46.6239 13.2939 47.5655 14.3244 48.2368 15.6505L44.9923 17.4516C44.2091 15.8387 42.9598 15.0323 41.2443 15.0323C40.4425 15.0323 39.8085 15.2115 39.3423 15.5699C38.8948 15.9104 38.671 16.3584 38.671 16.914C38.671 17.5054 38.9227 17.9892 39.4262 18.3656C39.9483 18.724 40.9366 19.1183 42.391 19.5484C42.9877 19.7276 43.4353 19.871 43.7336 19.9785C44.0506 20.0681 44.4702 20.2204 44.9923 20.4355C45.533 20.6326 45.9432 20.8208 46.2229 21C46.5213 21.1792 46.8569 21.4211 47.2299 21.7258C47.6028 22.0305 47.8825 22.3441 48.069 22.6667C48.2741 22.9892 48.4419 23.3835 48.5724 23.8495C48.7216 24.2975 48.7962 24.7903 48.7962 25.328C48.7962 27.0663 48.1342 28.4462 46.8103 29.4677C45.505 30.4892 43.7989 31 41.6918 31Z" fill="#1C1B1A"></path><path d="M63.4436 28.957C62.0078 30.319 60.255 31 58.1852 31C56.1154 31 54.3626 30.319 52.9268 28.957C51.5097 27.5771 50.8011 25.8925 50.8011 23.9032C50.8011 21.914 51.5097 20.2384 52.9268 18.8763C54.3626 17.4964 56.1154 16.8065 58.1852 16.8065C60.255 16.8065 62.0078 17.4964 63.4436 18.8763C64.8794 20.2384 65.5973 21.914 65.5973 23.9032C65.5973 25.8925 64.8794 27.5771 63.4436 28.957ZM55.4721 26.5645C56.1993 27.2634 57.1037 27.6129 58.1852 27.6129C59.2667 27.6129 60.1711 27.2634 60.8983 26.5645C61.6255 25.8656 61.9891 24.9785 61.9891 23.9032C61.9891 22.828 61.6255 21.9409 60.8983 21.2419C60.1711 20.543 59.2667 20.1935 58.1852 20.1935C57.1037 20.1935 56.1993 20.543 55.4721 21.2419C54.7635 21.9409 54.4092 22.828 54.4092 23.9032C54.4092 24.9785 54.7635 25.8656 55.4721 26.5645Z" fill="#1C1B1A"></path><path d="M68.1356 30.6237V11H71.7437V30.6237H68.1356Z" fill="#1C1B1A"></path><path d="M94.4295 20.5161V21.9677C94.4295 24.6559 93.5344 26.8333 91.7443 28.5C89.9542 30.1667 87.6421 31 84.8077 31C81.787 31 79.279 30.0591 77.2838 28.1774C75.3072 26.2778 74.3189 23.966 74.3189 21.2419C74.3189 18.5 75.2979 16.1792 77.2558 14.2796C79.2324 12.3799 81.6751 11.4301 84.584 11.4301C86.4114 11.4301 88.0802 11.8333 89.5906 12.6398C91.101 13.4283 92.2758 14.4857 93.1149 15.8118L89.8144 17.6398C89.3482 16.8692 88.6397 16.2419 87.6887 15.7581C86.7563 15.2742 85.7121 15.0323 84.556 15.0323C82.6913 15.0323 81.153 15.6237 79.9409 16.8065C78.7475 17.9713 78.1509 19.4498 78.1509 21.2419C78.1509 23.0161 78.7569 24.4857 79.9689 25.6505C81.1996 26.7975 82.8219 27.371 84.8357 27.371C86.3275 27.371 87.5581 27.0573 88.5278 26.4301C89.516 25.7849 90.1873 24.9068 90.5416 23.7957H84.612V20.5161H94.4295Z" fill="#1C1B1A"></path><path d="M106.374 17.1828H109.982V30.6237H106.374V29.1183C105.497 30.3728 104.108 31 102.206 31C100.677 31 99.4092 30.5072 98.4023 29.5215C97.414 28.5358 96.9199 27.1738 96.9199 25.4355V17.1828H100.528V25.0054C100.528 25.9014 100.78 26.5914 101.283 27.0753C101.787 27.5412 102.458 27.7742 103.297 27.7742C104.229 27.7742 104.975 27.4964 105.535 26.9409C106.094 26.3853 106.374 25.552 106.374 24.4409V17.1828Z" fill="#1C1B1A"></path><path d="M116.895 19.4946C117.23 18.6344 117.78 17.9892 118.545 17.5591C119.328 17.129 120.195 16.914 121.146 16.914V20.7849C120.046 20.6595 119.058 20.8746 118.181 21.4301C117.324 21.9857 116.895 22.9086 116.895 24.1989V30.6237H113.287V17.1828H116.895V19.4946Z" fill="#1C1B1A"></path><path d="M132.487 17.1828H136.095V30.6237H132.487V29.1183C131.61 30.3728 130.221 31 128.319 31C126.79 31 125.522 30.5072 124.515 29.5215C123.527 28.5358 123.033 27.1738 123.033 25.4355V17.1828H126.641V25.0054C126.641 25.9014 126.893 26.5914 127.396 27.0753C127.899 27.5412 128.571 27.7742 129.41 27.7742C130.342 27.7742 131.088 27.4964 131.647 26.9409C132.207 26.3853 132.487 25.552 132.487 24.4409V17.1828Z" fill="#1C1B1A"></path><path d="M143.791 27.371H150V30.6237H138.952V28.3118L144.854 20.4355H139.231V17.1828H149.72V19.4946L143.791 27.371Z" fill="#1C1B1A"></path></svg>