<svg xmlns="http://www.w3.org/2000/svg" width="60" height="60" viewBox="0 0 60 60" fill="none"><rect x="0.25" y="0.25" width="59.5" height="59.5" fill="white"/><path d="M40 37V40C40 41.2 39.2 42 38 42C36.8 42 36 41.2 36 40V37H24V40C24 41.2 23.2 42 22 42C20.8 42 20 41.2 20 40V37H16C14.6 37 13.2 36.6 12 36V44C12 47.4 14.6 50 18 50H42C45.4 50 48 47.4 48 44V36C46.8 36.6 45.4 37 44 37H40ZM48 18H40V16C40 12.6 37.4 10 34 10H26C22.6 10 20 12.6 20 16V18H12C10.8 18 10 18.8 10 20V28C10 31.4 12.6 34 16 34H44C47.4 34 50 31.4 50 28V20C50 18.8 49.2 18 48 18ZM36 18H24V16C24 14.8 24.8 14 26 14H34C35.2 14 36 14.8 36 16V18Z" fill="#0F0039"/><rect x="0.25" y="0.25" width="59.5" height="59.5" stroke="#282B2F" stroke-width="0.5"/></svg>