<svg xmlns="http://www.w3.org/2000/svg" width="61" height="60" viewBox="0 0 61 60" fill="none"><rect x="0.75" y="0.25" width="59.5" height="59.5" fill="white"/><path fill-rule="evenodd" clip-rule="evenodd" d="M19.3023 7.04065C19.4359 6.95706 19.6069 7.00652 19.6841 7.15113L21.8668 11.2379C23.7561 9.39371 26.3086 8.15364 29.1645 7.85596H31.8341C34.6891 8.15354 37.2408 9.39309 39.13 11.2364L41.3124 7.1511C41.3897 7.0065 41.5606 6.95706 41.6942 7.04067C41.8278 7.12428 41.8735 7.30929 41.7962 7.45389L39.5468 11.6646C41.3441 13.6085 42.4435 16.1375 42.4793 18.9072H18.5193C18.555 16.138 19.6537 13.6098 21.45 11.6662L19.2003 7.45386C19.123 7.30925 19.1687 7.12425 19.3023 7.04065ZM25.5584 15.2243C26.3182 15.222 26.9313 14.5705 26.9292 13.7696V13.762C26.9264 12.9603 26.3097 12.3127 25.5507 12.315C24.7917 12.3173 24.1778 12.9687 24.18 13.7696V13.7772C24.1828 14.5789 24.7987 15.2265 25.5584 15.2243ZM35.8182 15.2243C36.5779 15.222 37.191 14.5705 37.1889 13.7696V13.762C37.1861 12.9603 36.5694 12.3127 35.8104 12.315C35.0514 12.3173 34.4376 12.9687 34.4397 13.7696V13.7772C34.4425 14.5789 35.0584 15.2265 35.8182 15.2243Z" fill="#0F0039"/><path d="M33.8356 42.7472H27.1648V50.1287C27.1648 51.7153 25.9752 52.9999 24.5079 52.9999C23.0406 52.9999 21.851 51.7146 21.851 50.1287V42.7472H21.721C19.8965 42.7472 18.4263 41.1301 18.4263 39.124V20.4624L18.4426 20.1321V20.1328H42.5625L42.5745 39.124C42.5745 41.1301 41.1051 42.7472 39.2798 42.7472H39.1494V50.1289C39.1494 51.7155 37.9598 53 36.4925 53C35.0252 53 33.8356 51.7147 33.8356 50.1289V42.7472Z" fill="#0F0039"/><path d="M16.8138 24.6647C16.8138 23.0789 15.6242 21.7936 14.1569 21.7936C12.6889 21.7936 11.5 23.0781 11.5 24.6647V36.9807C11.5 38.5665 12.6896 39.8518 14.1569 39.8518C15.6242 39.8518 16.8138 38.5673 16.8138 36.9807V24.6647Z" fill="#0F0039"/><path d="M49.5 24.6647C49.5 23.0789 48.3104 21.7936 46.8431 21.7936C46.1392 21.7936 45.464 22.096 44.9659 22.6343C44.4677 23.1726 44.1873 23.9028 44.1862 24.6647V36.9807C44.1862 38.5665 45.3758 39.8518 46.8431 39.8518C48.3104 39.8518 49.5 38.5673 49.5 36.9807V24.6647Z" fill="#0F0039"/><rect x="0.75" y="0.25" width="59.5" height="59.5" stroke="#282B2F" stroke-width="0.5"/></svg>