<svg xmlns="http://www.w3.org/2000/svg" width="36" height="36" viewBox="0 0 36 36" fill="none"><rect x="0.25" y="0.25" width="35.5" height="35.5" fill="white"/><path d="M27.4092 14.6401C27.4092 14.6401 27.4092 14.6401 27.4092 14.5901C26.7046 12.6663 25.4261 11.0054 23.7467 9.83199C22.0673 8.65857 20.068 8.0293 18.0192 8.0293C15.9705 8.0293 13.9712 8.65857 12.2917 9.83199C10.6123 11.0054 9.33382 12.6663 8.62922 14.5901C8.62922 14.5901 8.62922 14.5901 8.62922 14.6401C7.84234 16.811 7.84234 19.1892 8.62922 21.3601C8.62922 21.3601 8.62922 21.3601 8.62922 21.4101C9.33382 23.3339 10.6123 24.9948 12.2917 26.1683C13.9712 27.3417 15.9705 27.971 18.0192 27.971C20.068 27.971 22.0673 27.3417 23.7467 26.1683C25.4261 24.9948 26.7046 23.3339 27.4092 21.4101C27.4092 21.4101 27.4092 21.4101 27.4092 21.3601C28.1961 19.1892 28.1961 16.811 27.4092 14.6401ZM10.2592 20.0001C9.91245 18.6893 9.91245 17.3109 10.2592 16.0001H12.1192C11.9593 17.3287 11.9593 18.6716 12.1192 20.0001H10.2592ZM11.0792 22.0001H12.4792C12.7139 22.892 13.0494 23.7542 13.4792 24.5701C12.4985 23.9021 11.6787 23.0242 11.0792 22.0001ZM12.4792 14.0001H11.0792C11.6701 12.9792 12.4794 12.1016 13.4492 11.4301C13.0298 12.2474 12.7044 13.1095 12.4792 14.0001ZM16.9992 25.7001C15.771 24.7988 14.9084 23.4854 14.5692 22.0001H16.9992V25.7001ZM16.9992 20.0001H14.1392C13.9526 18.6733 13.9526 17.3269 14.1392 16.0001H16.9992V20.0001ZM16.9992 14.0001H14.5692C14.9084 12.5149 15.771 11.2014 16.9992 10.3001V14.0001ZM24.9192 14.0001H23.5192C23.2845 13.1083 22.949 12.2461 22.5192 11.4301C23.4999 12.0982 24.3197 12.9761 24.9192 14.0001ZM18.9992 10.3001C20.2275 11.2014 21.0901 12.5149 21.4292 14.0001H18.9992V10.3001ZM18.9992 25.7001V22.0001H21.4292C21.0901 23.4854 20.2275 24.7988 18.9992 25.7001ZM21.8592 20.0001H18.9992V16.0001H21.8592C22.0458 17.3269 22.0458 18.6733 21.8592 20.0001ZM22.5492 24.5701C22.979 23.7542 23.3145 22.892 23.5492 22.0001H24.9492C24.3497 23.0242 23.5299 23.9021 22.5492 24.5701ZM25.7392 20.0001H23.8792C23.9605 19.3366 24.0006 18.6686 23.9992 18.0001C24.0003 17.3316 23.9602 16.6637 23.8792 16.0001H25.7392C26.086 17.3109 26.086 18.6893 25.7392 20.0001Z" fill="#0F0039"/><rect x="0.25" y="0.25" width="35.5" height="35.5" stroke="#282B2F" stroke-width="0.5"/></svg>