<svg xmlns="http://www.w3.org/2000/svg" width="36" height="36" viewBox="0 0 36 36" fill="none"><rect x="0.25" y="0.25" width="35.5" height="35.5" fill="white"/><path d="M7 26C7 27.7 8.3 29 10 29H26C27.7 29 29 27.7 29 26V15H7V26ZM26 7H10C8.3 7 7 8.3 7 10V13H29V10C29 8.3 27.7 7 26 7ZM10 11C9.4 11 9 10.6 9 10C9 9.4 9.4 9 10 9C10.6 9 11 9.4 11 10C11 10.6 10.6 11 10 11ZM14 11C13.4 11 13 10.6 13 10C13 9.4 13.4 9 14 9C14.6 9 15 9.4 15 10C15 10.6 14.6 11 14 11ZM18 11C17.4 11 17 10.6 17 10C17 9.4 17.4 9 18 9C18.6 9 19 9.4 19 10C19 10.6 18.6 11 18 11Z" fill="#0F0039"/><rect x="0.25" y="0.25" width="35.5" height="35.5" stroke="#282B2F" stroke-width="0.5"/></svg>