<svg xmlns="http://www.w3.org/2000/svg" width="60" height="60" viewBox="0 0 60 60" fill="none"><rect x="0.25" y="0.25" width="59.5" height="59.5" fill="white"/><path d="M8 46C8 49.4 10.6 52 14 52H46C49.4 52 52 49.4 52 46V24H8V46ZM46 8H14C10.6 8 8 10.6 8 14V20H52V14C52 10.6 49.4 8 46 8ZM14 16C12.8 16 12 15.2 12 14C12 12.8 12.8 12 14 12C15.2 12 16 12.8 16 14C16 15.2 15.2 16 14 16ZM22 16C20.8 16 20 15.2 20 14C20 12.8 20.8 12 22 12C23.2 12 24 12.8 24 14C24 15.2 23.2 16 22 16ZM30 16C28.8 16 28 15.2 28 14C28 12.8 28.8 12 30 12C31.2 12 32 12.8 32 14C32 15.2 31.2 16 30 16Z" fill="#0F0039"/><rect x="0.25" y="0.25" width="59.5" height="59.5" stroke="#282B2F" stroke-width="0.5"/></svg>