<svg xmlns="http://www.w3.org/2000/svg" width="36" height="36" viewBox="0 0 36 36" fill="none"><rect x="0.25" y="0.25" width="35.5" height="35.5" fill="white"/><path d="M12.4764 21.6951L9 17.9992L20.2879 6H27.2398L12.4764 21.6951ZM27.2398 17.0729H20.2879L17.6837 19.8413L21.1598 23.5372" fill="#0F0039"/><path d="M17.6836 27.2316L20.2877 30.0001H27.2396L21.1597 23.5371" fill="#0F0039"/><path d="M14.2148 23.5387L17.6858 19.8477L21.1568 23.538L17.6858 27.2291L14.2148 23.5387Z" fill="#0F0039"/><path d="M17.6875 27.229L21.1585 23.5386L21.643 24.0537L18.172 27.7444L17.6875 27.229Z" fill="url(#paint0_linear_11502_42755)"/><path d="M17.6836 27.2317L22.8419 25.3371L21.1597 23.5361" fill="url(#paint1_linear_11502_42755)"/><rect x="0.25" y="0.25" width="35.5" height="35.5" stroke="#282B2F" stroke-width="0.5"/><defs><linearGradient id="paint0_linear_11502_42755" x1="19.4236" y1="25.3874" x2="19.9374" y2="25.8627" gradientUnits="userSpaceOnUse"><stop offset="0.2" stop-opacity="0.15"/><stop offset="0.85" stop-color="#616161" stop-opacity="0.01"/></linearGradient><linearGradient id="paint1_linear_11502_42755" x1="17.6848" y1="25.384" x2="22.8431" y2="25.384" gradientUnits="userSpaceOnUse"><stop offset="0.2" stop-opacity="0.55"/><stop offset="0.85" stop-color="#616161" stop-opacity="0.01"/></linearGradient></defs></svg>