<svg xmlns="http://www.w3.org/2000/svg" width="60" height="60" viewBox="0 0 60 60" fill="none"><rect x="0.25" y="0.25" width="59.5" height="59.5" fill="white"/><path d="M22.2886 28.9674L34.0182 6H28.3206C26.5399 6 24.915 6.99758 24.0921 8.58331C15.8242 24.7648 19.0782 22.4104 22.2886 28.9674Z" fill="#0F0039"/><path d="M24.0854 8.59961C19.4101 17.7461 19.0735 22.389 22.2838 28.9481L28.1372 40.9315H21.2282C20.1914 40.9315 19.2501 40.3433 18.8013 39.4247L14.6683 30.9848C14.0429 29.7129 14.0616 28.2228 14.7078 26.9509L24.0854 8.59961Z" fill="#0F0039"/><path d="M37.7134 31.0326L25.9837 54H31.6813C33.4621 54 35.087 53.0024 35.9098 51.4167C44.1778 35.2352 40.9237 37.5896 37.7134 31.0326Z" fill="#0F0039"/><path d="M35.9166 51.4004C40.5919 42.2539 40.9285 37.611 37.7181 31.0519L31.8647 19.0685H38.7737C39.8106 19.0685 40.7519 19.6567 41.2007 20.5753L45.3336 29.0152C45.9591 30.2871 45.9404 31.7772 45.2941 33.0491L35.9166 51.4004Z" fill="#0F0039"/><rect x="0.25" y="0.25" width="59.5" height="59.5" stroke="#282B2F" stroke-width="0.5"/></svg>