<svg xmlns="http://www.w3.org/2000/svg" width="60" height="60" viewBox="0 0 60 60" fill="none"><rect x="0.25" y="0.25" width="59.5" height="59.5" fill="white"/><path d="M18.9529 37.3902L12 29.9985L34.5757 6H48.4795L18.9529 37.3902ZM48.4795 28.1457H34.5757L29.3675 33.6827L36.3197 41.0744" fill="#0F0039"/><path d="M29.3672 48.4632L34.5754 54.0002H48.4793L36.3194 41.0742" fill="#0F0039"/><path d="M22.4297 41.0779L29.3717 33.6958L36.3137 41.0766L29.3717 48.4587L22.4297 41.0779Z" fill="#0F0039"/><path d="M29.373 48.4579L36.315 41.0771L37.284 42.1074L30.342 49.4889L29.373 48.4579Z" fill="url(#paint0_linear_8379_21988)"/><path d="M29.3672 48.4628L39.6839 44.6737L36.3194 41.0718" fill="url(#paint1_linear_8379_21988)"/><rect x="0.25" y="0.25" width="59.5" height="59.5" stroke="#282B2F" stroke-width="0.5"/><defs><linearGradient id="paint0_linear_8379_21988" x1="32.8453" y1="44.7748" x2="33.8728" y2="45.7255" gradientUnits="userSpaceOnUse"><stop offset="0.2" stop-opacity="0.15"/><stop offset="0.85" stop-color="#616161" stop-opacity="0.01"/></linearGradient><linearGradient id="paint1_linear_8379_21988" x1="29.3696" y1="44.7675" x2="39.6861" y2="44.7675" gradientUnits="userSpaceOnUse"><stop offset="0.2" stop-opacity="0.55"/><stop offset="0.85" stop-color="#616161" stop-opacity="0.01"/></linearGradient></defs></svg>