<svg width="21" height="32" viewBox="0 0 21 32" fill="none" xmlns="http://www.w3.org/2000/svg">
<path d="M8.82837 30.0236L8.97468 29.9273C10.4559 29.0131 11.5998 27.8998 12.8105 26.7203L13.1011 26.4381C13.5433 26.0095 13.9868 25.5908 14.4283 25.1759C16.4357 23.2857 18.3324 21.5001 19.7173 19.0291C19.8097 18.864 19.9157 18.6936 20.0262 18.518C20.4261 17.8769 20.8793 17.1506 20.9554 16.2929C20.9665 16.1746 20.971 16.0549 20.971 15.9385C20.971 13.4597 18.6985 11.5163 17.0403 10.0973L16.84 9.92502C15.457 8.73832 13.9634 7.65696 12.5192 6.61274C11.722 6.03663 10.9254 5.45985 10.1437 4.86488C9.53512 4.40059 8.94664 3.8778 8.3764 3.37257C7.91473 2.96357 7.4524 2.55325 6.97252 2.16441C6.72347 1.96284 6.47964 1.73005 6.23254 1.49596C5.22011 0.534907 3.83314 -0.78125 2.12623 0.593418C1.62749 0.995276 0 2.43367 0 4.08648C0 4.65154 0.189216 5.17238 0.563108 5.63277C1.51052 6.80256 3.10683 7.81244 4.51461 8.70252C4.87615 8.93075 5.22013 9.14924 5.53095 9.35602C7.06619 10.3788 8.36282 11.5538 9.89927 12.9857C10.3167 13.3746 10.7739 13.714 11.2167 14.0418C11.5437 14.283 11.8695 14.5255 12.1777 14.7863L12.3429 14.9254C12.7714 15.285 13.0139 15.497 13.0139 15.6628C13.0139 15.7513 12.9645 15.9314 12.7298 16.2838C12.4937 16.6369 11.9748 17.0127 11.4722 17.3762C11.0665 17.6701 10.6471 17.9738 10.3421 18.2918C9.97664 18.6722 9.63981 19.0812 9.30428 19.4915C8.93299 19.9447 8.58187 20.3713 8.19106 20.7627C7.6403 21.3135 7.01477 21.8031 6.35214 22.3207C5.73701 22.8019 5.10107 23.2987 4.51123 23.8618C3.9026 24.4444 3.30112 25.0082 2.63918 25.5115C1.56368 26.3282 1.11046 27.219 1.29967 28.1169C1.56563 29.355 3.46636 31.0945 4.21344 31.612C5.66414 32.6121 7.05364 31.4598 8.07006 30.6191C8.33275 30.4 8.58636 30.1893 8.82825 30.0235L8.82837 30.0236Z" fill="black"/>
</svg>