<svg xmlns="http://www.w3.org/2000/svg" width="60" height="60" viewBox="0 0 60 60" fill="none"><rect x="0.25" y="0.25" width="59.5" height="59.5" fill="white"/><path d="M30 10C19 10 10 19 10 30C10 41 19 50 30 50C41 50 50 41 50 30C50 19 41 10 30 10ZM32 38C32 39.2 31.2 40 30 40C28.8 40 28 39.2 28 38V30C28 28.8 28.8 28 30 28C31.2 28 32 28.8 32 30V38ZM30 24C28.8 24 28 23.2 28 22C28 20.8 28.8 20 30 20C31.2 20 32 20.8 32 22C32 23.2 31.2 24 30 24Z" fill="#0F0039"/><rect x="0.25" y="0.25" width="59.5" height="59.5" stroke="#282B2F" stroke-width="0.5"/></svg>