<svg xmlns="http://www.w3.org/2000/svg" width="60" height="60" viewBox="0 0 60 60" fill="none"><rect x="0.25" y="0.25" width="59.5" height="59.5" fill="white"/><g clip-path="url(#clip0_8419_26538)"><path d="M28.4153 6.60753C29.6003 5.92923 31.1438 5.92617 32.3278 6.60753C38.2844 9.97332 44.2429 13.3338 50.1985 16.7017C51.3186 17.3326 52.0679 18.5793 52.0565 19.87V40.1199C52.0648 41.464 51.2415 42.7405 50.0597 43.3571C44.1227 46.7044 38.1888 50.0557 32.2528 53.4029C31.0432 54.0945 29.4688 54.0412 28.297 53.293C26.5171 52.2611 24.7341 51.2344 22.954 50.2036C22.5903 49.9868 22.1802 49.8142 21.9234 49.4615C22.1505 49.1554 22.5564 49.1173 22.8863 48.9837C23.6293 48.7474 24.3116 48.3682 24.9942 48.0002C25.1668 47.8821 25.3775 47.9274 25.543 48.0331C27.065 48.9057 28.5736 49.8038 30.1008 50.6681C30.4265 50.8562 30.7564 50.6065 31.0349 50.4513C36.8609 47.1585 42.6941 43.8782 48.5191 40.5844C48.735 40.4806 48.8543 40.2514 48.8368 40.015C48.8408 33.335 48.8378 26.6538 48.8388 19.9738C48.8635 19.7056 48.7082 19.4589 48.4657 19.3491C42.5493 16.0172 36.6359 12.6802 30.7205 9.34744C30.618 9.27698 30.4966 9.23918 30.3722 9.239C30.2479 9.23882 30.1263 9.27626 30.0236 9.34642C24.1082 12.6802 18.1959 16.0203 12.2805 19.352C12.0388 19.462 11.8766 19.7046 11.9053 19.9738C11.9064 26.6538 11.9053 33.335 11.9053 40.016C11.8951 40.1314 11.9204 40.2471 11.9779 40.3476C12.0355 40.4482 12.1224 40.5286 12.2271 40.5783C13.8056 41.4734 15.3862 42.3623 16.9658 43.2543C17.8556 43.7333 18.9482 44.0179 19.9287 43.6509C20.7939 43.3406 21.4003 42.4577 21.3838 41.5391C21.392 34.8981 21.3797 28.256 21.3899 21.616C21.3683 21.3212 21.648 21.0777 21.9346 21.1054C22.6931 21.1003 23.4526 21.0952 24.211 21.1074C24.5276 21.1003 24.7455 21.4177 24.7064 21.7148C24.7033 28.3978 24.7145 35.0811 24.7013 41.7641C24.7033 43.5452 23.9716 45.4833 22.3241 46.3548C20.2945 47.4062 17.7859 47.1832 15.7808 46.175C14.0449 45.3086 12.3884 44.2862 10.6834 43.358C9.49854 42.7447 8.67931 41.4632 8.68765 40.12V19.87C8.67522 18.5526 9.45428 17.2833 10.6093 16.6615C16.5453 13.3115 22.4803 9.95902 28.4153 6.60753Z" fill="#0F0039"/><path d="M33.5981 20.6363C36.1871 20.4697 38.9587 20.5376 41.2884 21.813C43.0921 22.7904 44.0921 24.8416 44.1239 26.8455C44.0736 27.1158 43.791 27.2649 43.533 27.2464C42.7818 27.2453 42.0305 27.2566 41.2793 27.2413C40.9607 27.2535 40.7755 26.9597 40.7355 26.678C40.5197 25.7192 39.9968 24.7696 39.0943 24.3071C37.709 23.6135 36.1027 23.6484 34.592 23.6629C33.4892 23.7214 32.3033 23.8169 31.369 24.4654C30.6518 24.9567 30.4339 25.9483 30.6899 26.747C30.9313 27.3204 31.5932 27.5054 32.1348 27.676C35.2548 28.492 38.561 28.4108 41.6215 29.4847C42.8885 29.9224 44.128 30.7735 44.5617 32.1001C45.129 33.8782 44.8804 36.0035 43.6153 37.4309C42.5895 38.6055 41.0953 39.2448 39.6051 39.5921C37.6227 40.0341 35.5653 40.0453 33.552 39.8491C31.6589 39.6333 29.6889 39.1359 28.2274 37.846C26.9777 36.7609 26.3673 35.0702 26.4279 33.4384C26.4424 33.1628 26.7168 32.9706 26.9808 32.9933C27.7372 32.9871 28.4936 32.9851 29.2501 32.9943C29.5522 32.9727 29.7762 33.2338 29.7917 33.5185C29.9313 34.4321 30.2746 35.3909 31.0712 35.9325C32.6085 36.9243 34.5376 36.8564 36.2979 36.8841C37.7563 36.8195 39.3934 36.7999 40.5835 35.836C41.2114 35.2862 41.3975 34.3664 41.2278 33.575C41.0439 32.907 40.345 32.5956 39.7449 32.3921C36.6649 31.4178 33.3217 31.7713 30.2715 30.6695C29.0332 30.2319 27.8358 29.4045 27.36 28.1323C26.6962 26.3318 27.0004 24.1047 28.398 22.7255C29.7607 21.3536 31.7278 20.8253 33.5981 20.6361V20.6363Z" fill="#0F0039"/></g><rect x="0.25" y="0.25" width="59.5" height="59.5" stroke="#282B2F" stroke-width="0.5"/><defs><clipPath id="clip0_8419_26538"><rect width="43.584" height="48" fill="white" transform="translate(8.20703 6)"/></clipPath></defs></svg>