<svg width="21" height="32" viewBox="0 0 21 32" fill="none" xmlns="http://www.w3.org/2000/svg">
<path d="M12.1716 30.0236L12.0253 29.9273C10.5441 29.0131 9.4002 27.8998 8.18951 26.7203L7.89885 26.4381C7.45669 26.0095 7.01322 25.5908 6.57169 25.1759C4.56431 23.2857 2.66763 21.5001 1.28266 19.0291C1.19033 18.864 1.08434 18.6936 0.973791 18.518C0.573896 17.8769 0.120668 17.1506 0.0445938 16.2929C0.0335407 16.1746 0.0289879 16.0549 0.0289879 15.9385C0.0289879 13.4597 2.30154 11.5163 3.95968 10.0973L4.15995 9.92502C5.54303 8.73832 7.0366 7.65696 8.48083 6.61274C9.27804 6.03663 10.0746 5.45985 10.8563 4.86488C11.4649 4.40059 12.0534 3.8778 12.6236 3.37257C13.0853 2.96357 13.5476 2.55325 14.0275 2.16441C14.2765 1.96284 14.5204 1.73005 14.7675 1.49596C15.7799 0.534907 17.1669 -0.78125 18.8738 0.593418C19.3725 0.995276 21 2.43367 21 4.08648C21 4.65154 20.8108 5.17238 20.4369 5.63277C19.4895 6.80256 17.8932 7.81244 16.4854 8.70252C16.1238 8.93075 15.7799 9.14924 15.4691 9.35602C13.9338 10.3788 12.6372 11.5538 11.1007 12.9857C10.6833 13.3746 10.2261 13.714 9.78332 14.0418C9.45626 14.283 9.13047 14.5255 8.82226 14.7863L8.6571 14.9254C8.22859 15.285 7.98606 15.497 7.98606 15.6628C7.98606 15.7513 8.03548 15.9314 8.27021 16.2838C8.50625 16.6369 9.02515 17.0127 9.52779 17.3762C9.93354 17.6701 10.3529 17.9738 10.6579 18.2918C11.0234 18.6722 11.3602 19.0812 11.6957 19.4915C12.067 19.9447 12.4181 20.3713 12.8089 20.7627C13.3597 21.3135 13.9852 21.8031 14.6479 22.3207C15.263 22.8019 15.8989 23.2987 16.4888 23.8618C17.0974 24.4444 17.6989 25.0082 18.3608 25.5115C19.4363 26.3282 19.8895 27.219 19.7003 28.1169C19.4344 29.355 17.5336 31.0945 16.7866 31.612C15.3359 32.6121 13.9464 31.4598 12.9299 30.6191C12.6672 30.4 12.4136 30.1893 12.1718 30.0235L12.1716 30.0236Z" fill="black"/>
</svg>