<svg xmlns="http://www.w3.org/2000/svg" width="60" height="60" viewBox="0 0 60 60" fill="none"><rect x="0.25" y="0.25" width="59.5" height="59.5" fill="white"/><path fill-rule="evenodd" clip-rule="evenodd" d="M8 12C8 9.79086 9.79086 8 12 8H44C46.2092 8 48 9.79086 48 12V20C48 21.1046 47.1046 22 46 22H38C33.5818 22 30 25.5817 30 30V46C30 47.1046 29.1046 48 28 48H18C16.8954 48 16 47.1046 16 46C16 44.8954 16.8954 44 18 44H26V40H12C9.79086 40 8 38.2092 8 36V12ZM38 26C35.7908 26 34 27.7908 34 30V48C34 50.2092 35.7908 52 38 52H48C50.2092 52 52 50.2092 52 48V30C52 27.7908 50.2092 26 48 26H38Z" fill="#0F0039"/><rect x="0.25" y="0.25" width="59.5" height="59.5" stroke="#282B2F" stroke-width="0.5"/></svg>