<svg xmlns="http://www.w3.org/2000/svg" width="60" height="60" viewBox="0 0 60 60" fill="none"><rect x="0.25" y="0.25" width="59.5" height="59.5" fill="white"/><path d="M43.7257 43.5752V10.5002C43.7257 8.2502 42.2257 6.8252 40.0507 6.8252H20.0257C18.0007 6.8252 16.2007 8.3252 16.2757 10.5752V49.5002C16.2757 51.6752 18.0007 53.2502 20.0257 53.1752H39.9757C42.0007 53.1752 43.8007 51.8252 43.8007 49.3502C43.7257 47.4752 43.7257 45.5252 43.7257 43.5752ZM30.0757 51.7502C28.8757 51.7502 27.9007 50.7002 27.9007 49.5002C27.9007 48.3002 28.8757 47.3252 30.0757 47.3252C31.2757 47.3252 32.2507 48.3002 32.2507 49.5002C32.2507 50.7752 31.2757 51.7502 30.0757 51.7502ZM41.2507 45.9752H18.9007V11.9252H41.2507V45.9752Z" fill="#0F0039"/><rect x="0.25" y="0.25" width="59.5" height="59.5" stroke="#282B2F" stroke-width="0.5"/></svg>