<svg xmlns="http://www.w3.org/2000/svg" width="36" height="36" viewBox="0 0 36 36" fill="none"><rect x="0.25" y="0.25" width="35.5" height="35.5" fill="white"/><path d="M24.8629 24.7876V8.2501C24.8629 7.1251 24.1129 6.4126 23.0254 6.4126H13.0129C12.0004 6.4126 11.1004 7.1626 11.1379 8.2876V27.7501C11.1379 28.8376 12.0004 29.6251 13.0129 29.5876H22.9879C24.0003 29.5876 24.9004 28.9126 24.9004 27.6751C24.8629 26.7376 24.8629 25.7626 24.8629 24.7876ZM18.0379 28.8751C17.4378 28.8751 16.9504 28.3501 16.9504 27.7501C16.9504 27.1501 17.4378 26.6626 18.0379 26.6626C18.6379 26.6626 19.1254 27.1501 19.1254 27.7501C19.1254 28.3876 18.6379 28.8751 18.0379 28.8751ZM23.6253 25.9876H12.4504V8.9626H23.6253V25.9876Z" fill="#0F0039"/><path d="M17.4533 24.1251H18.5558C18.9758 24.1251 19.2471 23.7284 19.1683 23.2443L18.9889 22.1885H17.0202L16.8408 23.2443C16.7621 23.6993 17.0596 24.1251 17.4533 24.1251Z" fill="#0F0039" stroke="#0F0039" stroke-width="0.65625" stroke-linecap="round" stroke-linejoin="round"/><path d="M18.989 22.1826L19.7459 21.2843C20.1702 20.7826 20.1877 20.4326 19.8509 19.8667L18.5165 17.6093C18.2365 17.1368 17.7771 17.1368 17.4971 17.6093L16.1627 19.8667C15.8259 20.4326 15.8259 20.8001 16.2677 21.2843L17.0246 22.1826" fill="#0F0039"/><path d="M18.989 22.1826L19.7459 21.2843C20.1702 20.7826 20.1877 20.4326 19.8509 19.8667L18.5165 17.6093C18.2365 17.1368 17.7771 17.1368 17.4971 17.6093L16.1627 19.8667C15.8259 20.4326 15.8259 20.8001 16.2677 21.2843L17.0246 22.1826" stroke="#0F0039" stroke-width="0.65625" stroke-linecap="round" stroke-linejoin="round"/><path d="M18.0039 17.4868V18.9627" stroke="white" stroke-width="0.65625" stroke-linecap="round" stroke-linejoin="round"/><path d="M18.2285 13.9165H17.791C17.5504 13.9165 17.3535 13.654 17.3535 13.3332V12.7498C17.3535 12.429 17.5504 12.1665 17.791 12.1665H18.2285C18.4691 12.1665 18.666 12.429 18.666 12.7498V13.3332C18.666 13.654 18.4691 13.9165 18.2285 13.9165Z" fill="#0F0039" stroke="#0F0039" stroke-width="0.65625" stroke-linecap="round" stroke-linejoin="round"/><path d="M14.1816 19.2657H14.6191C14.8598 19.2657 15.0566 19.0032 15.0566 18.6823V18.099C15.0566 17.7782 14.8598 17.5156 14.6191 17.5156H14.1816C13.941 17.5156 13.7441 17.7782 13.7441 18.099V18.6823C13.7441 19.0032 13.941 19.2657 14.1816 19.2657Z" fill="#0F0039" stroke="#0F0039" stroke-width="0.65625" stroke-linecap="round" stroke-linejoin="round"/><path d="M21.8203 19.2657H21.3828C21.1422 19.2657 20.9453 19.0032 20.9453 18.6823V18.099C20.9453 17.7782 21.1422 17.5156 21.3828 17.5156H21.8203C22.0609 17.5156 22.2578 17.7782 22.2578 18.099V18.6823C22.2578 19.0032 22.0609 19.2657 21.8203 19.2657Z" fill="#0F0039" stroke="#0F0039" stroke-width="0.65625" stroke-linecap="round" stroke-linejoin="round"/><path d="M17.3545 13.0767C15.6876 13.3392 14.3926 15.2233 14.3926 17.5158" stroke="#0F0039" stroke-width="0.65625" stroke-linecap="round" stroke-linejoin="round"/><path d="M21.6104 17.5158C21.6104 15.2292 20.3241 13.3508 18.666 13.0767" stroke="#0F0039" stroke-width="0.65625" stroke-linecap="round" stroke-linejoin="round"/><rect x="0.25" y="0.25" width="35.5" height="35.5" stroke="#282B2F" stroke-width="0.5"/></svg>