<svg xmlns="http://www.w3.org/2000/svg" width="61" height="60" viewBox="0 0 61 60" fill="none"><rect x="0.75" y="0.25" width="59.5" height="59.5" fill="white"/><path d="M42.7249 9.32887C26.8494 -0.0056963 6.67667 11.3953 6.50115 29.8014C6.32975 47.7748 25.3508 59.3838 41.1906 51.473L23.8963 26.0284L23.8963 41.7781C23.8963 43.5232 20.557 43.5232 20.557 41.7781V20.6644C20.557 19.2792 23.1302 19.1655 23.8594 20.3697L43.5715 50.1162C58.3794 40.5783 58.1794 18.4159 42.7249 9.32887ZM40.4978 39.1356L37.1479 34.0191V20.0117C37.1479 18.7055 40.4978 18.7055 40.4978 20.0117V39.1356Z" fill="#0F0039"/><rect x="0.75" y="0.25" width="59.5" height="59.5" stroke="#282B2F" stroke-width="0.5"/></svg>