<svg xmlns="http://www.w3.org/2000/svg" width="36" height="36" viewBox="0 0 36 36" fill="none"><rect x="0.25" y="0.25" width="35.5" height="35.5" fill="white"/><path d="M25.2904 8.25H10.707C9.87823 8.25 9.08337 8.57924 8.49732 9.16529C7.91127 9.75134 7.58203 10.5462 7.58203 11.375V19.7083C7.58203 20.5371 7.91127 21.332 8.49732 21.918C9.08337 22.5041 9.87823 22.8333 10.707 22.8333H16.957V24.9167H12.7904C12.5141 24.9167 12.2491 25.0264 12.0538 25.2218C11.8584 25.4171 11.7487 25.6821 11.7487 25.9583C11.7487 26.2346 11.8584 26.4996 12.0538 26.6949C12.2491 26.8903 12.5141 27 12.7904 27H23.207C23.4833 27 23.7483 26.8903 23.9436 26.6949C24.139 26.4996 24.2487 26.2346 24.2487 25.9583C24.2487 25.6821 24.139 25.4171 23.9436 25.2218C23.7483 25.0264 23.4833 24.9167 23.207 24.9167H19.0404V22.8333H25.2904C26.1192 22.8333 26.914 22.5041 27.5001 21.918C28.0861 21.332 28.4154 20.5371 28.4154 19.7083V11.375C28.4154 10.5462 28.0861 9.75134 27.5001 9.16529C26.914 8.57924 26.1192 8.25 25.2904 8.25ZM26.332 19.7083C26.332 19.9846 26.2223 20.2496 26.0269 20.4449C25.8316 20.6403 25.5666 20.75 25.2904 20.75H10.707C10.4308 20.75 10.1658 20.6403 9.97046 20.4449C9.77511 20.2496 9.66536 19.9846 9.66536 19.7083V11.375C9.66536 11.0987 9.77511 10.8338 9.97046 10.6384C10.1658 10.4431 10.4308 10.3333 10.707 10.3333H25.2904C25.5666 10.3333 25.8316 10.4431 26.0269 10.6384C26.2223 10.8338 26.332 11.0987 26.332 11.375V19.7083Z" fill="#0F0039"/><path d="M17.532 19.6874H18.477C18.837 19.6874 19.0695 19.4324 19.002 19.1211L18.8482 18.4424H17.1607L17.007 19.1211C16.9395 19.4136 17.1945 19.6874 17.532 19.6874Z" fill="#0F0039" stroke="#0F0039" stroke-width="0.5625" stroke-linecap="round" stroke-linejoin="round"/><path d="M18.8477 18.4388L19.4965 17.8613C19.8602 17.5388 19.8752 17.3138 19.5865 16.95L18.4427 15.4988C18.2027 15.1951 17.809 15.1951 17.569 15.4988L16.4252 16.95C16.1365 17.3138 16.1365 17.5501 16.5152 17.8613L17.164 18.4388" fill="#0F0039"/><path d="M18.8477 18.4388L19.4965 17.8613C19.8602 17.5388 19.8752 17.3138 19.5865 16.95L18.4427 15.4988C18.2027 15.1951 17.809 15.1951 17.569 15.4988L16.4252 16.95C16.1365 17.3138 16.1365 17.5501 16.5152 17.8613L17.164 18.4388" stroke="#0F0039" stroke-width="0.5625" stroke-linecap="round" stroke-linejoin="round"/><path d="M18.0039 15.4199V16.3687" stroke="white" stroke-width="0.5625" stroke-linecap="round" stroke-linejoin="round"/><path d="M18.1953 13.125H17.8203C17.6141 13.125 17.4453 12.9563 17.4453 12.75V12.375C17.4453 12.1687 17.6141 12 17.8203 12H18.1953C18.4016 12 18.5703 12.1687 18.5703 12.375V12.75C18.5703 12.9563 18.4016 13.125 18.1953 13.125Z" fill="#0F0039" stroke="#0F0039" stroke-width="0.5625" stroke-linecap="round" stroke-linejoin="round"/><path d="M14.7266 16.5635H15.1016C15.3078 16.5635 15.4766 16.3947 15.4766 16.1885V15.8135C15.4766 15.6072 15.3078 15.4385 15.1016 15.4385H14.7266C14.5203 15.4385 14.3516 15.6072 14.3516 15.8135V16.1885C14.3516 16.3947 14.5203 16.5635 14.7266 16.5635Z" fill="#0F0039" stroke="#0F0039" stroke-width="0.5625" stroke-linecap="round" stroke-linejoin="round"/><path d="M21.2734 16.5635H20.8984C20.6922 16.5635 20.5234 16.3947 20.5234 16.1885V15.8135C20.5234 15.6072 20.6922 15.4385 20.8984 15.4385H21.2734C21.4797 15.4385 21.6484 15.6072 21.6484 15.8135V16.1885C21.6484 16.3947 21.4797 16.5635 21.2734 16.5635Z" fill="#0F0039" stroke="#0F0039" stroke-width="0.5625" stroke-linecap="round" stroke-linejoin="round"/><path d="M17.445 12.585C16.0163 12.7537 14.9062 13.965 14.9062 15.4387" stroke="#0F0039" stroke-width="0.5625" stroke-linecap="round" stroke-linejoin="round"/><path d="M21.0941 15.4387C21.0941 13.9687 19.9916 12.7612 18.5703 12.585" stroke="#0F0039" stroke-width="0.5625" stroke-linecap="round" stroke-linejoin="round"/><rect x="0.25" y="0.25" width="35.5" height="35.5" stroke="#282B2F" stroke-width="0.5"/></svg>