<svg xmlns="http://www.w3.org/2000/svg" width="60" height="60" viewBox="0 0 60 60" fill="none"><rect x="0.25" y="0.25" width="59.5" height="59.5" fill="white"/><path d="M27.5006 51.0002H32.5406C34.4606 51.0002 35.7006 49.6402 35.3406 47.9802L34.5206 44.3604H25.5206L24.7007 47.9802C24.3407 49.5402 25.7006 51.0002 27.5006 51.0002Z" fill="#0F0039" stroke="#0F0039" stroke-width="1.5" stroke-linecap="round" stroke-linejoin="round"/><path d="M34.5211 44.3404L37.9811 41.2603C39.9211 39.5403 40.0011 38.3402 38.4611 36.4002L32.3611 28.6603C31.0811 27.0403 28.9811 27.0403 27.7011 28.6603L21.6011 36.4002C20.0611 38.3402 20.0611 39.6003 22.0811 41.2603L25.5411 44.3404" fill="#0F0039"/><path d="M34.5211 44.3404L37.9811 41.2603C39.9211 39.5403 40.0011 38.3402 38.4611 36.4002L32.3611 28.6603C31.0811 27.0403 28.9811 27.0403 27.7011 28.6603L21.6011 36.4002C20.0611 38.3402 20.0611 39.6003 22.0811 41.2603L25.5411 44.3404" stroke="#0F0039" stroke-width="1.5" stroke-linecap="round" stroke-linejoin="round"/><path d="M30.0195 28.2402V33.3003" stroke="white" stroke-width="1.5" stroke-linecap="round" stroke-linejoin="round"/><path d="M31.0391 16H29.0391C27.9391 16 27.0391 15.1 27.0391 14V12C27.0391 10.9 27.9391 10 29.0391 10H31.0391C32.1391 10 33.0391 10.9 33.0391 12V14C33.0391 15.1 32.1391 16 31.0391 16Z" fill="#0F0039" stroke="#0F0039" stroke-width="1.5" stroke-linecap="round" stroke-linejoin="round"/><path d="M12.5391 34.34H14.5391C15.6391 34.34 16.5391 33.44 16.5391 32.34V30.34C16.5391 29.24 15.6391 28.3398 14.5391 28.3398H12.5391C11.4391 28.3398 10.5391 29.24 10.5391 30.34V32.34C10.5391 33.44 11.4391 34.34 12.5391 34.34Z" fill="#0F0039" stroke="#0F0039" stroke-width="1.5" stroke-linecap="round" stroke-linejoin="round"/><path d="M47.459 34.34H45.459C44.359 34.34 43.459 33.44 43.459 32.34V30.34C43.459 29.24 44.359 28.3398 45.459 28.3398H47.459C48.559 28.3398 49.459 29.24 49.459 30.34V32.34C49.459 33.44 48.559 34.34 47.459 34.34Z" fill="#0F0039" stroke="#0F0039" stroke-width="1.5" stroke-linecap="round" stroke-linejoin="round"/><path d="M27.04 13.1201C19.42 14.0201 13.5 20.4801 13.5 28.3401" stroke="#0F0039" stroke-width="1.5" stroke-linecap="round" stroke-linejoin="round"/><path d="M46.4991 28.3401C46.4991 20.5001 40.6191 14.0601 33.0391 13.1201" stroke="#0F0039" stroke-width="1.5" stroke-linecap="round" stroke-linejoin="round"/><rect x="0.25" y="0.25" width="59.5" height="59.5" stroke="#282B2F" stroke-width="0.5"/></svg>