<svg xmlns="http://www.w3.org/2000/svg" width="60" height="60" viewBox="0 0 60 60" fill="none"><rect x="0.25" y="0.25" width="59.5" height="59.5" fill="white"/><path d="M26.4706 19.6704V19.5653C26.4706 16.5204 24.0104 14.0004 20.9093 14C17.8074 14 15.3477 16.4153 15.3477 19.4602C15.3477 22.5054 17.8078 24.9203 20.9093 24.9203C23.4761 24.9203 25.6151 23.2405 26.2568 20.9304C26.31 20.7207 26.3367 20.5111 26.3634 20.3015C26.3902 20.0912 26.4169 19.8808 26.4706 19.6704Z" fill="#0F0039"/><path d="M35.6688 29.015C39.7443 29.015 43.0485 25.7715 43.0485 21.77C43.0485 17.7688 39.7443 14.5249 35.6688 14.5249C31.5932 14.5249 28.2891 17.7688 28.2891 21.77C28.2891 25.7715 31.5932 29.015 35.6688 29.015Z" fill="#0F0039"/><path d="M21.3359 42.4558C30.4272 47.2859 40.0529 47.0757 49.9994 42.4558C49.9994 36.4706 46.5769 31.3254 41.7637 28.8054C40.1594 30.1705 38.0205 31.0104 35.6674 31.0104C33.3143 31.0104 31.1754 30.1705 29.5711 28.8054C24.6516 31.221 21.3359 36.4707 21.3359 42.4558Z" fill="#0F0039"/><path d="M28.0754 27.336C24.0113 29.541 21.0166 33.5309 19.8402 38.0461C16.4175 37.9409 13.2089 36.9959 10 35.3158C10 30.8007 12.5669 26.8107 16.2033 25.026C17.4868 26.0762 19.0911 26.7062 20.8024 26.7062C22.5138 26.7062 24.2248 26.0762 25.4015 25.026C26.0432 25.341 26.6849 25.7612 27.2195 26.1809C27.3788 26.3897 27.5118 26.5725 27.6447 26.7551C27.7792 26.94 27.914 27.1247 28.0754 27.336Z" fill="#0F0039"/><rect x="0.25" y="0.25" width="59.5" height="59.5" stroke="#282B2F" stroke-width="0.5"/></svg>