<svg xmlns="http://www.w3.org/2000/svg" width="60" height="60" viewBox="0 0 60 60" fill="none"><rect x="0.25" y="0.25" width="59.5" height="59.5" fill="white"/><path d="M32.9878 16.0441C32.3385 15.9211 31.6669 16.0578 31.1172 16.425C30.5675 16.7919 30.1839 17.36 30.0486 18.007L25.0489 43.0054C24.918 43.6555 25.0514 44.3313 25.4197 44.8826C25.788 45.4342 26.3608 45.8165 27.0118 45.9445C27.1739 45.978 27.339 45.9942 27.5048 45.9934C28.0821 45.9925 28.6415 45.7916 29.0873 45.4247C29.5332 45.0581 29.8385 44.5483 29.9509 43.982L34.9506 18.9835C35.0817 18.3334 34.9481 17.6579 34.5798 17.1063C34.2115 16.5547 33.6387 16.1724 32.9877 16.0444L32.9878 16.0441Z" fill="#0F0039"/><path d="M20.3521 21.5759C19.8426 21.1529 19.1861 20.9486 18.5265 21.0081C17.8669 21.0675 17.2575 21.3859 16.8317 21.8934L10.5823 29.3927C10.2062 29.8416 10 30.4086 10 30.9942C10 31.5799 10.2062 32.1469 10.5823 32.5955L16.8317 40.0955C17.2553 40.6083 17.8658 40.9314 18.5281 40.993C19.1905 41.0544 19.8501 40.8494 20.3607 40.4233C20.8716 39.997 21.1913 39.3848 21.2491 38.7219C21.3071 38.0592 21.0984 37.4007 20.6693 36.8924L15.7528 30.9945L20.6693 25.0964C21.094 24.5875 21.2991 23.9307 21.2396 23.2706C21.1802 22.6104 20.861 22.0011 20.3521 21.5761L20.3521 21.5759Z" fill="#0F0039"/><path d="M43.1683 21.8937L49.4177 29.393L49.4177 29.3928C49.7938 29.8417 50 30.4087 50 30.9943C50 31.58 49.7938 32.147 49.4177 32.5956L43.168 40.0956C42.7444 40.6087 42.134 40.9318 41.4716 40.9932C40.8092 41.0548 40.1496 40.8497 39.639 40.4234C39.1284 39.9971 38.8086 39.3849 38.7506 38.7223C38.6929 38.0596 38.9016 37.4011 39.3307 36.8928L44.2472 30.9947L39.3307 25.0965C38.9016 24.5882 38.6929 23.9297 38.7509 23.2671C38.8087 22.6044 39.1284 21.992 39.6393 21.5659C40.1499 21.1396 40.8095 20.9345 41.4719 20.9962C42.1342 21.0575 42.7447 21.3806 43.1683 21.8937Z" fill="#0F0039"/><rect x="0.25" y="0.25" width="59.5" height="59.5" stroke="#282B2F" stroke-width="0.5"/></svg>