<svg xmlns="http://www.w3.org/2000/svg" width="61" height="60" viewBox="0 0 61 60" fill="none"><rect x="0.75" y="0.25" width="59.5" height="59.5" fill="white"/><path d="M45.3267 22.2601L43.8453 21.7583L44.0739 20.6727C45.1948 14.8232 44.462 10.1109 41.9586 8.55971C39.5586 7.07216 35.6331 8.62414 31.6693 12.3313C31.2786 12.6975 30.8966 13.0743 30.5236 13.4613C30.2741 13.2035 30.0201 12.9515 29.7616 12.7042C25.6082 8.73931 21.4421 7.06894 18.9425 8.62494C16.5447 10.1165 15.8344 14.5469 16.8445 20.0904C16.9449 20.6394 17.0584 21.1857 17.1846 21.7285C16.5957 21.9081 16.0262 22.099 15.4815 22.3044C10.6111 24.1294 7.5 26.9901 7.5 29.9579C7.5 33.0224 10.8396 36.0965 15.9131 37.9602C16.3244 38.1106 16.7391 38.25 17.1569 38.3782C17.022 38.9629 16.9007 39.5516 16.7958 40.1436C15.8337 45.5912 16.586 49.9161 18.9687 51.3988C21.4384 52.929 25.585 51.3561 29.6215 47.5636C29.9407 47.264 30.2606 46.9459 30.5805 46.6132C30.9845 47.032 31.3993 47.4386 31.8244 47.8326C35.7342 51.4568 39.5961 52.9097 41.9848 51.423C44.4523 49.8871 45.2548 45.2409 44.2132 39.5879C44.1312 39.145 44.0393 38.7043 43.9375 38.2662C44.2297 38.1736 44.5144 38.0786 44.7932 37.9787C50.0682 36.1006 53.5 33.0643 53.5 29.9571C53.5 26.9788 50.2893 24.0988 45.3199 22.2601H45.3267Z" fill="#0F0039"/><path d="M44.1827 35.9723L43.4109 36.2324C42.8287 34.2512 42.0427 32.1443 41.0806 29.9665C41.9985 27.8403 42.7538 25.7624 43.3195 23.7933L44.687 24.2572C48.9445 25.8325 51.5415 28.1617 51.5415 29.956C51.5415 31.868 48.7369 34.3494 44.1835 35.9723H44.1827ZM42.293 39.9968C42.7531 42.4967 42.819 44.7485 42.514 46.5236C42.2398 48.1102 41.6898 49.1693 41.0154 49.5937C39.5655 50.4957 36.465 49.3231 33.1209 46.2304C32.7372 45.876 32.3513 45.5056 31.9639 45.0964C33.2602 43.5726 34.5565 41.8008 35.8206 39.8333C38.0445 39.6214 40.1462 39.2743 42.0517 38.8008C42.1454 39.2075 42.2285 39.6061 42.3005 39.9968H42.293ZM23.1837 49.4374C21.76 49.9754 20.6391 49.9907 19.9572 49.5679C18.5058 48.6683 17.9027 45.1947 18.7254 40.5372C18.8231 39.9865 18.9351 39.4389 19.0611 38.895C20.9456 39.3428 23.0323 39.6657 25.2607 39.8598C26.5345 41.7928 27.8668 43.5549 29.2095 45.1045C28.924 45.4013 28.6317 45.6905 28.3329 45.9719C26.548 47.6495 24.7587 48.839 23.1829 49.4374H23.1837ZM16.5472 35.9594C14.3038 35.1355 12.4508 34.0643 11.1822 32.8957C10.0411 31.8455 9.46484 30.8017 9.46484 29.956C9.46484 28.1552 11.9622 25.8583 16.1283 24.2974C16.6513 24.1025 17.1796 23.9237 17.7116 23.7618C18.2871 25.7753 19.0423 27.879 19.9542 30.0076C19.0311 32.1676 18.2653 34.3051 17.6839 36.3419C17.3024 36.2247 16.9236 36.0974 16.5479 35.9602L16.5472 35.9594ZM18.7726 19.6826C17.9079 14.9324 18.4819 11.3501 19.9265 10.4513C21.4656 9.49289 24.8689 10.8596 28.4565 14.2825C28.6904 14.5064 28.9205 14.7349 29.1466 14.9679C27.8098 16.5102 26.4896 18.2667 25.2278 20.1811C23.0638 20.397 20.9928 20.7433 19.0888 21.2064C18.9715 20.7014 18.8661 20.1933 18.7726 19.6826ZM38.6184 24.9498C38.1687 24.1146 37.7023 23.29 37.2195 22.4765C38.6881 22.6754 40.0938 22.9404 41.4156 23.2657C41.0184 24.6317 40.5239 26.0604 39.9432 27.5238C39.5181 26.6567 39.0769 25.7988 38.6199 24.9506L38.6184 24.9498ZM30.526 16.4772C31.4252 17.5322 32.3393 18.7113 33.2332 19.9902C31.4217 19.8981 29.6072 19.8976 27.7956 19.9886C28.6895 18.7218 29.6052 17.5443 30.526 16.4772V16.4772ZM22.3797 24.9659C21.9284 25.8073 21.4955 26.6599 21.0812 27.523C20.5087 26.0636 20.0194 24.6292 19.62 23.244C20.9328 22.9283 22.3325 22.6706 23.7914 22.474C23.3028 23.2923 22.8323 24.1235 22.3812 24.9651L22.3797 24.9659ZM23.8393 37.5903C22.4152 37.4241 20.9999 37.1795 19.5991 36.8574C20.0052 35.448 20.4982 33.9822 21.0977 32.4922C21.5135 33.3564 21.9489 34.2093 22.4014 35.0509C22.8641 35.9096 23.3458 36.7563 23.8461 37.5903H23.8393ZM30.586 43.5847C29.6546 42.5039 28.7255 41.3095 27.8181 40.0249C28.6993 40.062 29.5969 40.0813 30.5096 40.0813C31.4477 40.0813 32.3753 40.0588 33.2872 40.0153C32.4442 41.2545 31.5426 42.4464 30.586 43.5863V43.5847ZM39.9597 32.4076C40.5741 33.9137 41.0934 35.3714 41.5047 36.7567C40.171 37.0837 38.7308 37.347 37.2128 37.5428C37.699 36.7142 38.1699 35.8754 38.6252 35.0267C39.0882 34.165 39.5318 33.2903 39.9589 32.4068L39.9597 32.4076ZM36.9228 33.9725C36.2258 35.2739 35.4896 36.5505 34.7154 37.8005C33.3501 37.9052 31.94 37.9591 30.5021 37.9591C29.1126 37.9601 27.7234 37.9128 26.3367 37.8174C25.5425 36.5704 24.7924 35.2917 24.0881 33.9838C23.387 32.6829 22.7322 31.3538 22.1249 29.9995C22.7306 28.6447 23.3834 27.3149 24.0821 26.0129C24.7805 24.7108 25.5246 23.4377 26.3128 22.1962C27.681 22.085 29.0837 22.0351 30.5013 22.0351C31.925 22.0351 33.3307 22.0939 34.6974 22.2058C35.4766 23.4461 36.2169 24.7146 36.9138 26.0105C37.6151 27.3096 38.276 28.6328 38.8972 29.9786C38.2828 31.3373 37.6234 32.6726 36.9205 33.9813L36.9228 33.9725ZM40.9765 10.3828C42.517 11.338 43.1165 15.1894 42.1484 20.2407C42.0847 20.5709 42.0157 20.8971 41.9416 21.2233C40.0331 20.7497 37.9598 20.3978 35.7973 20.1787C34.5333 18.2442 33.2235 16.4844 31.901 14.9614C32.2457 14.6046 32.5978 14.2567 32.959 13.9185C36.3556 10.7412 39.5303 9.48644 40.9765 10.3828Z" fill="white"/><path d="M30.5029 25.5415C32.7718 25.5415 34.6113 27.5187 34.6113 29.9574C34.6113 32.3961 32.7718 34.3733 30.5029 34.3733C28.2341 34.3733 26.3945 32.3961 26.3945 29.9574C26.3945 27.5187 28.2341 25.5415 30.5029 25.5415Z" fill="#0F0039"/><rect x="0.75" y="0.25" width="59.5" height="59.5" stroke="#282B2F" stroke-width="0.5"/></svg>