<svg xmlns="http://www.w3.org/2000/svg" width="61" height="60" viewBox="0 0 61 60" fill="none"><rect x="0.75" y="0.25" width="59.5" height="59.5" fill="white"/><path d="M50.1001 25.5898C50.1001 22.9735 46.8237 20.494 41.8003 18.9564C42.9596 13.8365 42.4444 9.76302 40.1741 8.45887C39.6508 8.15296 39.0391 8.00805 38.3709 8.00805V9.80327C38.7412 9.80327 39.0391 9.87573 39.2886 10.0126C40.3834 10.6405 40.8585 13.0314 40.488 16.1066C40.3996 16.8634 40.2547 17.6603 40.0776 18.4734C38.4996 18.087 36.7769 17.7891 34.9656 17.5959C33.8789 16.1066 32.7518 14.7542 31.6167 13.5708C34.2411 11.1316 36.7045 9.79521 38.379 9.79521V8C36.165 8 33.267 9.57786 30.3368 12.3149C27.4064 9.59395 24.5083 8.0322 22.2946 8.0322V9.82741C23.9609 9.82741 26.4323 11.1557 29.0567 13.5788C27.9297 14.7622 26.8026 16.1066 25.7319 17.5959C23.9125 17.7891 22.1898 18.087 20.612 18.4815C20.4267 17.6764 20.2899 16.8955 20.1933 16.1469C19.8151 13.0717 20.2818 10.6807 21.3688 10.0448C21.6101 9.89987 21.9241 9.83547 22.2946 9.83547V8.04025C21.6182 8.04025 21.0064 8.18516 20.4752 8.49107C18.213 9.79521 17.7059 13.8606 18.8731 18.9645C13.8658 20.5101 10.6055 22.9816 10.6055 25.5898C10.6055 28.2063 13.8819 30.6858 18.9053 32.2232C17.746 37.3433 18.2612 41.4166 20.5315 42.7208C21.0548 43.0267 21.6665 43.1716 22.3428 43.1716C24.5566 43.1716 27.4548 41.5938 30.385 38.8567C33.3153 41.5777 36.2134 43.1395 38.4272 43.1395C39.1034 43.1395 39.7152 42.9946 40.2466 42.6886C42.5087 41.3844 43.0159 37.319 41.8485 32.2153C46.8397 30.6777 50.1001 28.1982 50.1001 25.5898ZM39.6187 20.2203C39.3208 21.2589 38.9505 22.3294 38.5318 23.4001C38.2019 22.7562 37.8557 22.1121 37.4773 21.4681C37.107 20.8241 36.7124 20.1962 36.318 19.5844C37.4611 19.7534 38.564 19.9627 39.6187 20.2203ZM35.9315 28.7938C35.3037 29.8807 34.6598 30.9111 33.9916 31.8692C32.792 31.9737 31.5765 32.0301 30.3528 32.0301C29.1372 32.0301 27.9216 31.9737 26.7302 31.8771C26.062 30.919 25.4098 29.8968 24.782 28.8179C24.1701 27.7634 23.6148 26.6927 23.1075 25.6141C23.6067 24.5353 24.1701 23.4565 24.774 22.402C25.4019 21.3152 26.0458 20.2847 26.714 19.3267C27.9136 19.2221 29.1291 19.1657 30.3528 19.1657C31.5684 19.1657 32.784 19.2221 33.9754 19.3187C34.6436 20.2767 35.2957 21.299 35.9236 22.3778C36.5355 23.4323 37.0908 24.5031 37.5981 25.5819C37.0908 26.6605 36.5355 27.7393 35.9315 28.7938ZM38.5318 27.7474C38.9544 28.7965 39.3252 29.8658 39.6429 30.9513C38.5882 31.2089 37.4773 31.4263 36.3261 31.5954C36.7205 30.9756 37.1149 30.3396 37.4854 29.6874C37.8557 29.0435 38.2019 28.3913 38.5318 27.7474ZM30.3688 36.3371C29.6201 35.5641 28.8715 34.7027 28.1309 33.7609C28.8555 33.7931 29.596 33.8172 30.3447 33.8172C31.1015 33.8172 31.8501 33.8012 32.5828 33.7609C31.8918 34.6589 31.1527 35.5189 30.3688 36.3371ZM24.3795 31.5954C23.2364 31.4263 22.1334 31.217 21.0789 30.9594C21.3767 29.9209 21.7471 28.8502 22.1657 27.7795C22.4958 28.4235 22.842 29.0676 23.2202 29.7115C23.5986 30.3556 23.985 30.9835 24.3795 31.5954ZM30.3287 14.8427C31.0773 15.6156 31.826 16.4769 32.5666 17.4188C31.842 17.3866 31.1015 17.3625 30.3528 17.3625C29.596 17.3625 28.8474 17.3786 28.1149 17.4188C28.8058 16.5209 29.5449 15.6609 30.3287 14.8427ZM24.3714 19.5844C23.9769 20.2042 23.5825 20.8402 23.2123 21.4922C22.842 22.1363 22.4958 22.7803 22.1657 23.4242C21.743 22.3751 21.3723 21.3059 21.0548 20.2203C22.1093 19.9708 23.2202 19.7534 24.3714 19.5844ZM17.0859 29.6633C14.2362 28.4477 12.3926 26.8538 12.3926 25.5898C12.3926 24.3259 14.2362 22.724 17.0859 21.5165C17.7782 21.2186 18.535 20.9529 19.3159 20.7033C19.7747 22.2812 20.3785 23.9234 21.1272 25.606C20.3866 27.2805 19.7908 28.9146 19.34 30.4845C18.5431 30.2348 17.7863 29.9612 17.0859 29.6633ZM21.417 41.1671C20.3222 40.5393 19.8471 38.1483 20.2176 35.073C20.3061 34.3164 20.4509 33.5193 20.628 32.7062C22.206 33.0927 23.9287 33.3906 25.74 33.5838C26.8267 35.073 27.9538 36.4254 29.0889 37.6088C26.4645 40.0482 24.0011 41.3844 22.3266 41.3844C21.9644 41.3765 21.6586 41.3039 21.417 41.1671ZM40.5123 35.0329C40.8905 38.108 40.4238 40.4989 39.3368 41.1349C39.0954 41.2798 38.7815 41.3443 38.411 41.3443C36.7447 41.3443 34.2733 40.016 31.6489 37.5928C32.7759 36.4094 33.903 35.0651 34.9737 33.5757C36.7931 33.3825 38.5158 33.0846 40.0936 32.6902C40.2788 33.5033 40.4237 34.2842 40.5123 35.0329ZM43.6116 29.6633C42.9193 29.9612 42.1625 30.2269 41.3816 30.4764C40.9227 28.8986 40.319 27.2563 39.5703 25.5738C40.3111 23.8993 40.9067 22.2651 41.3575 20.6953C42.1546 20.9448 42.9112 21.2186 43.6197 21.5165C46.4695 22.7319 48.313 24.3259 48.313 25.5898C48.3049 26.8538 46.4614 28.4558 43.6116 29.6633Z" fill="#0F0039"/><path d="M30.3456 29.2686C32.3776 29.2686 34.0247 27.6215 34.0247 25.5896C34.0247 23.5578 32.3776 21.9106 30.3456 21.9106C28.3139 21.9106 26.6667 23.5578 26.6667 25.5896C26.6667 27.6215 28.3139 29.2686 30.3456 29.2686ZM12.3998 49.5058H11.1853V51.5973H10.5V46.427H12.2116C12.7939 46.427 13.2414 46.5597 13.5539 46.8249C13.8687 47.0898 14.0262 47.4758 14.0262 47.9823C14.0262 48.3044 13.9386 48.5848 13.7634 48.8241C13.5906 49.0631 13.3491 49.2419 13.039 49.3601L14.2534 51.5547V51.5973H13.5219L12.3998 49.5058ZM11.1853 48.9483H12.2329C12.5714 48.9483 12.8401 48.8606 13.039 48.6855C13.2402 48.5103 13.3408 48.2759 13.3408 47.9823C13.3408 47.6628 13.2449 47.4178 13.0532 47.2473C12.8638 47.0769 12.5892 46.9905 12.2293 46.9881H11.1853V48.9483ZM16.4764 51.6684C15.9556 51.6684 15.5318 51.498 15.2051 51.157C14.8784 50.8137 14.7151 50.3556 14.7151 49.7828V49.662C14.7151 49.2809 14.7873 48.9413 14.9317 48.643C15.0784 48.3422 15.282 48.1078 15.5424 47.9399C15.8052 47.7694 16.0893 47.6841 16.3947 47.6841C16.8942 47.6841 17.2825 47.8486 17.5594 48.1776C17.8364 48.5067 17.9749 48.9778 17.9749 49.5909V49.8644H15.372C15.3815 50.2433 15.4916 50.5498 15.7022 50.7842C15.9153 51.0161 16.1852 51.1322 16.5119 51.1322C16.7439 51.1322 16.9403 51.0848 17.1013 50.9902C17.2624 50.8955 17.4031 50.77 17.5239 50.6138L17.9252 50.9263C17.6031 51.4209 17.1203 51.6684 16.4764 51.6684ZM16.3947 48.2239C16.1296 48.2239 15.907 48.3209 15.7271 48.515C15.5472 48.7069 15.4359 48.9767 15.3933 49.3247H17.318V49.275C17.2991 48.9413 17.2091 48.6831 17.0482 48.5008C16.887 48.3163 16.6692 48.2239 16.3947 48.2239ZM21.1105 51.5973C21.0725 51.5216 21.0417 51.3867 21.0181 51.1925C20.7127 51.5097 20.3481 51.6684 19.9244 51.6684C19.5456 51.6684 19.2344 51.5619 18.9905 51.3487C18.7491 51.1333 18.6283 50.8611 18.6283 50.532C18.6283 50.132 18.7799 49.8219 19.0828 49.6017C19.3881 49.379 19.8167 49.2678 20.3683 49.2678H21.0075V48.9661C21.0075 48.7364 20.9388 48.5541 20.8016 48.4192C20.6642 48.2819 20.4617 48.2133 20.1942 48.2133C19.9598 48.2133 19.7635 48.2723 19.6049 48.3908C19.4463 48.5091 19.3669 48.6523 19.3669 48.8205H18.7064C18.7064 48.6288 18.7739 48.4441 18.9088 48.2664C19.0461 48.0866 19.2308 47.9445 19.4628 47.8403C19.6972 47.7363 19.9539 47.6841 20.2333 47.6841C20.6761 47.6841 21.0228 47.7953 21.2738 48.018C21.5247 48.2381 21.6548 48.5424 21.6644 48.9305V50.6989C21.6644 51.0517 21.7094 51.3322 21.7994 51.5405V51.5973H21.1105ZM20.0203 51.0967C20.2263 51.0967 20.4216 51.0434 20.6063 50.9369C20.7908 50.8303 20.9245 50.6919 21.0075 50.5214V49.7331H20.4925C19.6877 49.7331 19.2852 49.9686 19.2852 50.4397C19.2852 50.6456 19.3539 50.8067 19.4911 50.9227C19.6284 51.0386 19.8049 51.0967 20.0203 51.0967ZM24.2353 51.1322C24.4697 51.1322 24.6745 51.0611 24.8497 50.9191C25.0248 50.777 25.1219 50.5995 25.1408 50.3864H25.7624C25.7505 50.6066 25.6747 50.8161 25.535 51.015C25.3953 51.2139 25.2083 51.3725 24.9739 51.4908C24.7419 51.6092 24.4958 51.6684 24.2353 51.6684C23.7122 51.6684 23.2955 51.4944 22.9853 51.1464C22.6777 50.7959 22.5238 50.3178 22.5238 49.7117V49.6017C22.5238 49.2277 22.5923 48.895 22.7297 48.6039C22.867 48.3127 23.0634 48.0866 23.3192 47.9256C23.5772 47.7645 23.8814 47.6841 24.2317 47.6841C24.6627 47.6841 25.0202 47.8131 25.3042 48.0713C25.5906 48.3292 25.7433 48.6642 25.7624 49.0761H25.1408C25.1219 48.8275 25.0272 48.6239 24.8567 48.4653C24.6888 48.3044 24.4803 48.2239 24.2317 48.2239C23.898 48.2239 23.6388 48.3445 23.4541 48.5861C23.2719 48.8252 23.1806 49.172 23.1806 49.6266V49.7508C23.1806 50.1934 23.2719 50.5344 23.4541 50.7734C23.6364 51.0127 23.8969 51.1322 24.2353 51.1322ZM27.3922 46.8249V47.7552H28.1095V48.263H27.3922V50.6456C27.3922 50.7995 27.4242 50.9155 27.4881 50.9936C27.552 51.0694 27.6609 51.1073 27.8149 51.1073C27.8905 51.1073 27.9947 51.0931 28.1272 51.0647V51.5973C27.9544 51.6447 27.7864 51.6684 27.623 51.6684C27.3295 51.6684 27.1081 51.5795 26.9589 51.402C26.8098 51.2245 26.7353 50.9723 26.7353 50.6456V48.263H26.0356V47.7552H26.7353V46.8249H27.3922ZM34.7606 51.5973H34.0751L31.4723 47.6131V51.5973H30.787V46.427H31.4723L34.0823 50.4291V46.427H34.7606V51.5973ZM38.2406 51.5973C38.2026 51.5216 38.1719 51.3867 38.1483 51.1925C37.8428 51.5097 37.4783 51.6684 37.0545 51.6684C36.6758 51.6684 36.3644 51.5619 36.1206 51.3487C35.8792 51.1333 35.7584 50.8611 35.7584 50.532C35.7584 50.132 35.9098 49.8219 36.213 49.6017C36.5183 49.379 36.9469 49.2678 37.4984 49.2678H38.1376V48.9661C38.1376 48.7364 38.0689 48.5541 37.9315 48.4192C37.7944 48.2819 37.5919 48.2133 37.3244 48.2133C37.09 48.2133 36.8936 48.2723 36.735 48.3908C36.5764 48.5091 36.497 48.6523 36.497 48.8205H35.8366C35.8366 48.6288 35.9041 48.4441 36.0389 48.2664C36.1762 48.0866 36.3609 47.9445 36.593 47.8403C36.8273 47.7363 37.084 47.6841 37.3634 47.6841C37.8061 47.6841 38.1529 47.7953 38.4039 48.018C38.6548 48.2381 38.785 48.5424 38.7945 48.9305V50.6989C38.7945 51.0517 38.8395 51.3322 38.9295 51.5405V51.5973H38.2406ZM37.1505 51.0967C37.3564 51.0967 37.5517 51.0434 37.7364 50.9369C37.9209 50.8303 38.0547 50.6919 38.1376 50.5214V49.7331H37.6226C36.8178 49.7331 36.4153 49.9686 36.4153 50.4397C36.4153 50.6456 36.4841 50.8067 36.6212 50.9227C36.7586 51.0386 36.935 51.0967 37.1505 51.0967ZM40.7156 46.8249V47.7552H41.4329V48.263H40.7156V50.6456C40.7156 50.7995 40.7476 50.9155 40.8115 50.9936C40.8755 51.0694 40.9844 51.1073 41.1383 51.1073C41.2139 51.1073 41.3181 51.0931 41.4508 51.0647V51.5973C41.2778 51.6447 41.1098 51.6684 40.9464 51.6684C40.653 51.6684 40.4315 51.5795 40.2823 51.402C40.1333 51.2245 40.0587 50.9723 40.0587 50.6456V48.263H39.3592V47.7552H40.0587V46.8249H40.7156ZM42.9173 51.5973H42.2603V47.7552H42.9173V51.5973ZM42.207 46.7359C42.207 46.6295 42.239 46.5395 42.3029 46.4661C42.3692 46.3926 42.4662 46.3561 42.594 46.3561C42.722 46.3561 42.819 46.3926 42.8853 46.4661C42.9515 46.5395 42.9846 46.6295 42.9846 46.7359C42.9846 46.8425 42.9515 46.9312 42.8853 47.0023C42.819 47.0733 42.722 47.1089 42.594 47.1089C42.4662 47.1089 42.3692 47.0733 42.3029 47.0023C42.239 46.9312 42.207 46.8425 42.207 46.7359ZM45.2397 50.7061L46.1912 47.7552H46.8625L45.4847 51.5973H44.9839L43.592 47.7552H44.2631L45.2397 50.7061ZM49.0392 51.6684C48.5184 51.6684 48.0947 51.498 47.7679 51.157C47.4412 50.8137 47.2779 50.3556 47.2779 49.7828V49.662C47.2779 49.2809 47.3501 48.9413 47.4945 48.643C47.6412 48.3422 47.8448 48.1078 48.1053 47.9399C48.3681 47.7694 48.6521 47.6841 48.9575 47.6841C49.457 47.6841 49.8453 47.8486 50.1223 48.1776C50.3992 48.5067 50.5378 48.9778 50.5378 49.5909V49.8644H47.9348C47.9443 50.2433 48.0543 50.5498 48.2651 50.7842C48.4781 51.0161 48.7481 51.1322 49.0746 51.1322C49.3067 51.1322 49.5033 51.0848 49.6642 50.9902C49.8251 50.8955 49.9661 50.77 50.0868 50.6138L50.4881 50.9263C50.1661 51.4209 49.6831 51.6684 49.0392 51.6684ZM48.9575 48.2239C48.6925 48.2239 48.4698 48.3209 48.29 48.515C48.11 48.7069 47.9987 48.9767 47.9562 49.3247H49.8807V49.275C49.8618 48.9413 49.7718 48.6831 49.6109 48.5008C49.45 48.3163 49.2321 48.2239 48.9575 48.2239Z" fill="#0F0039"/><rect x="0.75" y="0.25" width="59.5" height="59.5" stroke="#282B2F" stroke-width="0.5"/></svg>