<svg xmlns="http://www.w3.org/2000/svg" width="60" height="60" viewBox="0 0 60 60" fill="none"><rect x="0.25" y="0.25" width="59.5" height="59.5" fill="white"/><path fill-rule="evenodd" clip-rule="evenodd" d="M47.5795 10.0042C48.9125 9.9208 50.0792 11.0872 49.9958 12.4205C49.5794 21.7531 45.9127 30.0856 39.9133 36.2515C41.1632 40.751 40.9132 47.2503 34.4973 50C33.914 47.9168 32.8307 45.4171 31.1643 42.9173C30.9977 43.0008 30.8309 43.0839 30.6643 43.1673C29.8313 43.6673 28.748 43.5007 27.998 42.7508L17.2492 32.002C16.5827 31.3355 16.3327 30.2522 16.8327 29.3357C16.8744 29.2525 16.916 29.1692 16.9576 29.0858C16.9993 29.0025 17.0409 28.9191 17.0827 28.8357C14.5829 27.1691 12.0832 26.086 10 25.5027C12.4997 19.1699 19.249 18.8368 23.7485 20.0867C29.9143 14.0872 38.2469 10.4207 47.5795 10.0042ZM42.6636 17.3368C40.7469 15.4205 37.7473 15.4205 35.8309 17.3368C33.9977 19.1698 33.9143 22.2529 35.8309 24.1695C37.7475 26.0859 40.7472 26.0859 42.6636 24.1695C44.5799 22.2529 44.5799 19.2532 42.6636 17.3368ZM15.4987 47.1668C13.9157 47.4167 12.5824 46.0837 12.8324 44.5005L12.8322 44.5008C13.3322 40.9175 14.9986 37.7512 17.4149 35.3346L24.6641 42.5838C22.2479 45.0004 19.0817 46.6668 15.4987 47.1668Z" fill="#0F0039"/><rect x="0.25" y="0.25" width="59.5" height="59.5" stroke="#282B2F" stroke-width="0.5"/></svg>