<svg xmlns="http://www.w3.org/2000/svg" width="37" height="36" viewBox="0 0 37 36" fill="none"><rect x="0.75" y="0.25" width="35.5" height="35.5" fill="white"/><g clip-path="url(#clip0_11690_40140_1)"><path d="M17.7077 6.30376C18.3002 5.96462 19.0719 5.96308 19.6639 6.30376C22.6422 7.98666 25.6214 9.66691 28.5992 11.3508C29.1593 11.6663 29.534 12.2896 29.5282 12.935V23.0599C29.5324 23.732 29.1208 24.3702 28.5299 24.6786C25.5614 26.3522 22.5944 28.0278 19.6264 29.7015C19.0216 30.0473 18.2344 30.0206 17.6485 29.6465C16.7585 29.1306 15.8671 28.6172 14.977 28.1018C14.7951 27.9934 14.5901 27.9071 14.4617 27.7307C14.5752 27.5777 14.7782 27.5587 14.9431 27.4918C15.3146 27.3737 15.6558 27.1841 15.9971 27.0001C16.0834 26.941 16.1888 26.9637 16.2715 27.0165C17.0325 27.4529 17.7868 27.9019 18.5504 28.3341C18.7133 28.4281 18.8782 28.3033 19.0174 28.2256C21.9305 26.5793 24.8471 24.9391 27.7596 23.2922C27.8675 23.2403 27.9271 23.1257 27.9184 23.0075C27.9204 19.6675 27.9189 16.3269 27.9194 12.9869C27.9317 12.8528 27.8541 12.7295 27.7328 12.6746C24.7746 11.0086 21.818 9.34011 18.8602 7.67372C18.809 7.63849 18.7483 7.61959 18.6861 7.6195C18.6239 7.61941 18.5632 7.63813 18.5118 7.67321C15.5541 9.34011 12.598 11.0101 9.64025 12.676C9.5194 12.731 9.43829 12.8523 9.45267 12.9869C9.45318 16.3269 9.45267 19.6675 9.45267 23.008C9.44755 23.0657 9.46021 23.1236 9.48897 23.1738C9.51773 23.2241 9.5612 23.2643 9.61353 23.2891C10.4028 23.7367 11.1931 24.1811 11.9829 24.6272C12.4278 24.8667 12.9741 25.009 13.4643 24.8255C13.8969 24.6703 14.2002 24.2289 14.1919 23.7696C14.196 20.449 14.1899 17.128 14.195 13.808C14.1842 13.6606 14.324 13.5388 14.4673 13.5527C14.8465 13.5501 15.2263 13.5476 15.6055 13.5537C15.7638 13.5501 15.8728 13.7089 15.8532 13.8574C15.8517 17.1989 15.8573 20.5405 15.8506 23.8821C15.8517 24.7726 15.4858 25.7416 14.662 26.1774C13.6472 26.7031 12.3929 26.5916 11.3904 26.0875C10.5225 25.6543 9.69421 25.1431 8.8417 24.679C8.24927 24.3724 7.83965 23.7316 7.84382 23.06V12.935C7.83761 12.2763 8.22714 11.6416 8.80467 11.3307C11.7727 9.65576 14.7402 7.97951 17.7077 6.30376Z" fill="#0F0039"/><path d="M20.2981 13.3182C21.5926 13.2348 22.9784 13.2688 24.1432 13.9065C25.0451 14.3952 25.5451 15.4208 25.561 16.4228C25.5358 16.5579 25.3945 16.6325 25.2655 16.6232C24.8899 16.6227 24.5143 16.6283 24.1387 16.6206C23.9794 16.6268 23.8868 16.4799 23.8668 16.339C23.7589 15.8596 23.4974 15.3848 23.0462 15.1536C22.3535 14.8068 21.5504 14.8242 20.795 14.8314C20.2436 14.8607 19.6507 14.9085 19.1835 15.2327C18.8249 15.4783 18.716 15.9742 18.844 16.3735C18.9647 16.6602 19.2956 16.7527 19.5664 16.838C21.1264 17.246 22.7795 17.2054 24.3098 17.7423C24.9433 17.9612 25.563 18.3868 25.7799 19.0501C26.0635 19.9391 25.9392 21.0017 25.3067 21.7154C24.7938 22.3028 24.0467 22.6224 23.3016 22.796C22.3104 23.0171 21.2817 23.0227 20.275 22.9245C19.3285 22.8166 18.3435 22.5679 17.6127 21.923C16.9879 21.3805 16.6827 20.5351 16.713 19.7192C16.7202 19.5814 16.8574 19.4853 16.9894 19.4966C17.3676 19.4936 17.7458 19.4925 18.1241 19.4971C18.2751 19.4863 18.3871 19.6169 18.3949 19.7593C18.4647 20.216 18.6363 20.6954 19.0346 20.9662C19.8033 21.4622 20.7678 21.4282 21.648 21.4421C22.3772 21.4097 23.1957 21.3999 23.7908 20.918C24.1047 20.6431 24.1978 20.1832 24.1129 19.7875C24.021 19.4535 23.6715 19.2978 23.3715 19.196C21.8315 18.7089 20.1599 18.8856 18.6348 18.3348C18.0156 18.1159 17.4169 17.7022 17.179 17.0662C16.8471 16.1659 16.9992 15.0524 17.698 14.3628C18.3794 13.6768 19.3629 13.4126 20.2981 13.3181V13.3182Z" fill="#0F0039"/></g><rect x="0.75" y="0.25" width="35.5" height="35.5" stroke="#282B2F" stroke-width="0.5"/><defs><clipPath id="clip0_11690_40140_1"><rect width="21.792" height="24" fill="white" transform="translate(7.60352 6)"/></clipPath></defs></svg>