<svg width="166" height="94" viewBox="0 0 166 94" fill="none" xmlns="http://www.w3.org/2000/svg">
<path d="M53 17H113V77H53V17Z" fill="#F7DF1E"/>
<path d="M68.7764 67.1401L73.3664 64.3601C74.2524 65.9301 75.0584 67.2601 76.9914 67.2601C78.8444 67.2601 80.0114 66.5351 80.0114 63.7161V44.5461H85.6494V63.7961C85.6494 69.6361 82.2264 72.2941 77.2314 72.2941C72.7214 72.2941 70.1014 69.9581 68.7734 67.1391L68.7764 67.1401ZM88.7114 66.5351L93.3014 63.8771C94.5114 65.8511 96.0814 67.3011 98.8594 67.3011C101.195 67.3011 102.685 66.1331 102.685 64.5211C102.685 62.5881 101.155 61.9031 98.5774 60.7761L97.1674 60.1711C93.0994 58.4411 90.4014 56.2651 90.4014 51.6731C90.4014 47.4431 93.6234 44.2231 98.6584 44.2231C102.243 44.2231 104.82 45.4731 106.673 48.7331L102.273 51.5531C101.306 49.8211 100.259 49.1371 98.6484 49.1371C96.9984 49.1371 95.9484 50.1841 95.9484 51.5531C95.9484 53.2431 96.9954 53.9301 99.4124 54.9771L100.812 55.5811C105.605 57.6351 108.302 59.7291 108.302 64.4411C108.302 69.5161 104.315 72.2951 98.9584 72.2951C93.7224 72.2951 90.3384 69.7981 88.6884 66.5351" fill="black"/>
</svg>
