<svg width="166" height="94" viewBox="0 0 166 94" fill="none" xmlns="http://www.w3.org/2000/svg">
<path d="M95.995 18.22C99.94 13.025 105.42 13 105.42 13C105.42 13 106.235 17.883 102.318 22.587C98.135 27.61 93.381 26.787 93.381 26.787C93.381 26.787 92.488 22.837 95.995 18.217V18.22ZM93.883 30.21C95.913 30.21 99.677 27.423 104.577 27.423C113.013 27.423 116.331 33.421 116.331 33.421C116.331 33.421 109.841 36.737 109.841 44.784C109.841 53.861 117.926 56.989 117.926 56.989C117.926 56.989 112.274 72.886 104.64 72.886C101.134 72.886 98.408 70.526 94.713 70.526C90.948 70.526 87.213 72.976 84.778 72.976C77.807 72.973 69 57.893 69 45.77C69 33.844 76.455 27.587 83.447 27.587C87.993 27.587 91.52 30.207 93.883 30.207V30.21Z" fill="#999999"/>
</svg>
