<svg width="166" height="96" viewBox="0 0 166 96" fill="none" xmlns="http://www.w3.org/2000/svg">
<path d="M31.9766 70.3752H35.3216V57.0522L40.5456 68.6682C41.1376 70.0642 41.9856 70.5822 43.6336 70.5822C45.2816 70.5822 46.0786 70.0642 46.6956 68.6682L51.8936 57.0522V70.3752H55.2636V57.0522C55.2636 55.7592 54.7486 55.1372 53.6676 54.8002C51.1206 54.0242 49.4216 54.6972 48.6496 56.4302L43.5296 67.9172L38.6006 56.4302C37.8546 54.6972 36.1306 54.0252 33.5566 54.8002C32.5016 55.1362 31.9866 55.7582 31.9866 57.0522L31.9856 70.3752H31.9766ZM58.0436 59.5352H61.4136V66.8572C61.3886 67.2702 61.5436 68.2022 63.3696 68.2272H70.6776V59.4832H74.0476V71.4602C74.0476 74.4102 70.4196 75.0562 68.7206 75.0822H58.1206V72.8322H68.7476C70.9096 72.5992 70.6516 71.5122 70.6516 71.1502V70.2702H63.5236C60.2036 70.2442 58.0686 68.7702 58.0436 67.0882V59.5342V59.5352ZM130.351 51.0492C128.293 50.9972 126.697 51.2042 125.359 51.7742C124.974 51.9302 124.355 51.9302 124.305 52.4212C124.511 52.6272 124.535 52.9642 124.705 53.2492C125.005 53.7672 125.555 54.4642 126.043 54.8272L127.69 56.0272C128.694 56.6472 129.826 57.0102 130.803 57.6312C131.369 57.9932 131.935 58.4592 132.501 58.8482C132.784 59.0552 132.964 59.3922 133.325 59.5212V59.4432C133.145 59.2112 133.093 58.8752 132.925 58.6152L132.152 57.8652C131.399 56.8615 130.496 55.98 129.475 55.2522C128.651 54.6822 126.85 53.9072 126.515 52.9492L126.465 52.8972C127.03 52.8452 127.7 52.6372 128.24 52.4822C129.115 52.2502 129.913 52.3022 130.813 52.0692L132.049 51.7072V51.4742C131.586 51.0082 131.251 50.3872 130.763 49.9482C129.451 48.8102 128.009 47.6982 126.517 46.7662C125.719 46.2492 124.69 45.9122 123.842 45.4732C123.542 45.3182 123.018 45.2402 122.838 44.9812C122.374 44.4112 122.118 43.6612 121.783 42.9892L119.683 38.4892C119.22 37.4892 118.936 36.4712 118.371 35.5392C115.721 31.1412 112.838 28.4762 108.411 25.8632C107.459 25.3202 106.327 25.0872 105.117 24.8032L103.187 24.6992C102.775 24.5192 102.363 24.0262 102.003 23.7932C100.536 22.8632 96.7526 20.8432 95.6726 23.5082C94.9776 25.1902 96.7026 26.8452 97.2926 27.7082C97.7306 28.3032 98.2966 28.9762 98.6056 29.6482C98.7856 30.0882 98.8356 30.5542 99.0056 31.0182C99.4056 32.1562 99.8036 33.4242 100.344 34.4852C100.627 35.0282 100.944 35.5982 101.296 36.0892C101.502 36.3742 101.862 36.5032 101.939 36.9692C101.579 37.4872 101.554 38.2632 101.339 38.9092C100.412 41.8332 100.773 45.4542 102.085 47.6012C102.497 48.2482 103.485 49.6712 104.788 49.1272C105.946 48.6612 105.688 47.1872 106.023 45.8932C106.101 45.5932 106.049 45.3762 106.203 45.1692V45.2212L107.258 47.3682C108.056 48.6362 109.446 49.9552 110.604 50.8352C111.221 51.3012 111.71 52.1032 112.482 52.3872V52.3002H112.432C112.277 52.0682 112.046 51.9642 111.84 51.7832C111.377 51.3172 110.862 50.7482 110.502 50.2312C109.422 48.7832 108.47 47.1782 107.622 45.5232C107.21 44.7212 106.849 43.8412 106.516 43.0402C106.36 42.7402 106.36 42.2642 106.104 42.1102C105.718 42.6802 105.152 43.1702 104.868 43.8702C104.368 44.9822 104.328 46.3532 104.148 47.7762C104.044 47.8022 104.096 47.7762 104.044 47.8282C103.222 47.6222 102.938 46.7682 102.629 46.0432C101.857 44.2062 101.729 41.2572 102.397 39.1352C102.577 38.5922 103.35 36.8852 103.041 36.3672C102.885 35.8752 102.371 35.5912 102.088 35.2032C101.753 34.7112 101.394 34.0912 101.162 33.5482C100.545 32.0982 100.236 30.4952 99.5666 29.0462C99.2666 28.3732 98.7166 27.6762 98.2796 27.0542C97.7796 26.3542 97.2516 25.8542 96.8646 25.0362C96.7346 24.7512 96.5646 24.2862 96.7616 23.9762C96.8116 23.7692 96.9166 23.6912 97.1216 23.6402C97.4566 23.3552 98.4086 23.7182 98.7436 23.8732C99.6956 24.2612 100.494 24.6232 101.291 25.1662C101.651 25.4262 102.038 25.9162 102.491 26.0462H103.031C103.855 26.2262 104.781 26.0982 105.551 26.3302C106.915 26.7702 108.151 27.4172 109.257 28.1152C112.627 30.2622 115.407 33.3152 117.285 36.9632C117.585 37.5582 117.722 38.1012 118.005 38.7232C118.545 39.9912 119.205 41.2832 119.755 42.5262C120.295 43.7422 120.81 44.9842 121.582 45.9932C121.968 46.5362 123.512 46.8202 124.207 47.1052C124.722 47.3382 125.519 47.5452 125.983 47.8292C126.857 48.3722 127.733 48.9932 128.556 49.5892C128.956 49.8892 130.254 50.5452 130.331 51.0622L130.351 51.0492ZM104.104 28.5692C103.667 28.5692 103.358 28.6212 103.05 28.6992V28.7512H103.1C103.306 29.1652 103.666 29.4512 103.924 29.8112L104.516 31.0532L104.566 31.0012C104.926 30.7412 105.106 30.3282 105.106 29.7072C104.951 29.5272 104.926 29.3452 104.806 29.1642C104.651 28.9042 104.306 28.7762 104.11 28.5692H104.104Z" fill="#00678C"/>
<path d="M76.6221 70.3748H86.2971C87.4291 70.3748 88.5111 70.1428 89.3851 69.7278C90.8521 69.0548 91.5471 68.1498 91.5471 66.9598V64.4768C91.5471 63.5198 90.7491 62.6138 89.1551 61.9938C88.3311 61.6938 87.3021 61.5018 86.2981 61.5018H82.2331C80.8691 61.5018 80.2261 61.0868 80.0451 60.1818C80.0201 60.0788 80.0201 59.9748 80.0201 59.8818V58.3548C80.0201 58.2768 80.0201 58.1748 80.0451 58.0708C80.2251 57.3708 80.5851 57.1908 81.7691 57.0608H91.6761V54.8088H82.2561C80.8921 54.8088 80.1721 54.8868 79.5291 55.0938C77.5471 55.7138 76.6721 56.6978 76.6721 58.4298V60.3968C76.6721 61.9228 78.3701 63.2168 81.2521 63.5268C81.5621 63.5528 81.8951 63.5528 82.2301 63.5528H85.7041C85.8341 63.5528 85.9611 63.5528 86.0641 63.5788C87.1191 63.6818 87.5841 63.8628 87.8911 64.2488C88.0971 64.4558 88.1491 64.6368 88.1491 64.8708V66.8368C88.1491 67.0688 87.9941 67.3808 87.6861 67.6388C87.3781 67.8968 86.8861 68.0788 86.2441 68.1048C86.1141 68.1048 86.0391 68.1308 85.9091 68.1308H76.6211V70.3808L76.6221 70.3748ZM112.492 66.4688C112.492 68.7718 114.216 70.0648 117.665 70.3238L118.643 70.3738H127.393V68.1238H118.567C116.61 68.1238 115.864 67.6318 115.864 66.4418V54.7998H112.492L112.493 66.4678L112.492 66.4688ZM93.6921 66.5718V58.5518C93.6921 56.5078 95.1321 55.2648 97.9381 54.8778L98.8381 54.8258H105.218C105.553 54.8258 105.836 54.8518 106.171 54.8778C108.976 55.2648 110.391 56.5078 110.391 58.5518V66.5718C110.391 68.2268 109.801 69.1078 108.409 69.7018L111.703 72.7018H107.818L105.141 70.2718L102.438 70.4268H98.8361C98.2461 70.4268 97.5761 70.3498 96.8801 70.1688C94.7461 69.5728 93.6801 68.4348 93.6801 66.5718H93.6921ZM97.3201 66.3918C97.3201 66.4948 97.3721 66.5978 97.3981 66.7278C97.5781 67.6578 98.4521 68.1758 99.7901 68.1758H102.827L100.047 65.6398H103.932L106.376 67.8648C106.84 67.6048 107.123 67.2428 107.226 66.7778C107.252 66.6748 107.252 66.5458 107.252 66.4418V58.7598C107.252 58.6568 107.252 58.5538 107.226 58.4598C107.046 57.5798 106.172 57.0898 104.859 57.0898H99.7891C98.2961 57.0898 97.3191 57.7368 97.3191 58.7698V66.4028L97.3201 66.3918ZM128.946 70.4018H129.436V68.5138H130.079V68.1258H128.279V68.5138H128.949V70.4018H128.946ZM132.676 70.4018H133.139V68.1258H132.445L131.879 69.6788L131.262 68.1258H130.592V70.4018H131.029V68.6698H131.055L131.698 70.4028H132.033L132.676 68.6698V70.4028V70.4018Z" fill="#CE8B2C"/>
</svg>
