<svg width="166" height="94" viewBox="0 0 166 94" fill="none" xmlns="http://www.w3.org/2000/svg">
<path d="M93.4165 43.775H88.2305V44.322C89.8525 44.322 90.1135 44.668 90.1135 46.722V50.4C90.1135 52.444 89.8535 52.82 88.2305 52.82C86.9845 52.647 86.1445 51.985 84.9855 50.718L83.6525 49.278C85.4485 48.961 86.4045 47.838 86.4045 46.571C86.4045 44.988 85.0445 43.778 82.4945 43.778H77.3945V44.325C79.0165 44.325 79.2775 44.671 79.2775 46.725V50.4C79.2775 52.444 79.0175 52.82 77.3945 52.82V53.367H83.1605V52.82C81.5385 52.82 81.2775 52.445 81.2775 50.4V49.364H81.7695L84.9865 53.366H93.4185C97.5615 53.366 99.3585 51.178 99.3585 48.556C99.3585 45.934 97.5615 43.776 93.4185 43.776L93.4165 43.775ZM81.2765 48.468V44.638H82.4645C83.7685 44.638 84.3475 45.531 84.3475 46.568C84.3475 47.576 83.7675 48.468 82.4645 48.468H81.2765ZM93.5035 52.471H93.3005C92.2575 52.471 92.1125 52.211 92.1125 50.888V44.638H93.5025C96.5165 44.638 97.0665 46.826 97.0665 48.525C97.0665 50.281 96.5165 52.47 93.5025 52.47L93.5035 52.471ZM61.2555 49.534L63.2555 43.659C63.8355 41.959 63.5755 41.471 61.7205 41.471V40.895H67.1675V41.471C65.3425 41.471 64.9075 41.903 64.1835 44.005L60.8805 53.853H60.5045L57.5495 44.84L54.5365 53.853H54.1595L50.9435 44.005C50.2475 41.903 49.7835 41.471 48.1035 41.471V40.895H54.5355V41.471C52.8355 41.471 52.3625 41.874 52.9705 43.659L54.9105 49.534L57.8365 40.894H58.3865L61.2565 49.534H61.2555ZM71.1055 53.738C67.9185 53.738 65.3105 51.406 65.3105 48.555C65.3105 45.733 67.9185 43.4 71.1055 43.4C74.2925 43.4 76.9005 45.732 76.9005 48.555C76.9005 51.405 74.2925 53.738 71.1055 53.738ZM71.1055 44.293C68.4405 44.293 67.5125 46.683 67.5125 48.553C67.5125 50.453 68.4395 52.815 71.1055 52.815C73.8005 52.815 74.7275 50.455 74.7275 48.553C74.7275 46.681 73.8005 44.293 71.1055 44.293Z" fill="#00749A"/>
<path d="M106.512 52.8001V53.3761H99.877V52.8001C101.817 52.8001 102.177 52.3001 102.177 49.4301V44.8231C102.177 41.9431 101.829 41.4831 99.877 41.4831V40.9071H105.875C108.859 40.9071 110.511 42.4331 110.511 44.4771C110.511 46.4641 108.859 48.0191 105.875 48.0191H104.223V49.4191C104.223 52.2991 104.571 52.7891 106.523 52.7891L106.512 52.8001ZM105.874 41.9441H104.222V46.9441H105.874C107.497 46.9441 108.25 45.8211 108.25 44.4681C108.25 43.0861 107.497 41.9341 105.874 41.9341V41.9441ZM130.416 50.6701L130.271 51.1881C130.011 52.1381 129.691 52.4841 127.634 52.4841H127.228C125.722 52.4841 125.461 52.1381 125.461 50.0841V48.7501C127.721 48.7501 127.895 48.9501 127.895 50.4501H128.445V46.1501H127.895C127.895 47.6471 127.721 47.8501 125.461 47.8501V44.6301H127.054C129.112 44.6301 129.43 44.9761 129.691 45.9261L129.836 46.4731H130.299L130.096 43.7661H121.576V44.3131C123.198 44.3131 123.459 44.6591 123.459 46.7131V50.4001C123.459 52.2701 123.239 52.7401 121.959 52.8001C120.743 52.6151 119.909 51.9561 118.766 50.7081L117.433 49.2681C119.229 48.9511 120.186 47.8281 120.186 46.5611C120.186 44.9781 118.824 43.7681 116.286 43.7681H111.186V44.3151C112.808 44.3151 113.069 44.6611 113.069 46.7151V50.4001C113.069 52.4441 112.809 52.8201 111.186 52.8201V53.3671H116.952V52.8201C115.33 52.8201 115.069 52.4451 115.069 50.4001V49.3641H115.562L118.778 53.3661H130.686L130.86 50.6601H130.425L130.416 50.6701ZM115.06 48.4701V44.6401H116.248C117.552 44.6401 118.132 45.5331 118.132 46.5701C118.132 47.5781 117.552 48.4701 116.248 48.4701H115.06ZM136.298 53.7401C135.138 53.7401 134.125 53.1351 133.69 52.7601C133.545 52.9041 133.284 53.3361 133.227 53.7401H132.677V49.7661H133.257C133.489 51.6661 134.821 52.7901 136.531 52.7901C137.458 52.7901 138.211 52.2721 138.211 51.4081C138.211 50.6581 137.545 50.0831 136.357 49.5361L134.705 48.7591C133.545 48.2111 132.677 47.2611 132.677 45.9941C132.677 44.6121 133.981 43.4311 135.777 43.4311C136.733 43.4311 137.544 43.7771 138.037 44.1811C138.182 44.0661 138.337 43.7491 138.414 43.4031H138.964V46.8001H138.364C138.161 45.4461 137.408 44.3231 135.872 44.3231C135.072 44.3231 134.307 44.7831 134.307 45.5031C134.307 46.2531 134.915 46.6551 136.307 47.2881L137.9 48.0651C139.3 48.7271 139.84 49.7931 139.84 50.6571C139.84 52.4711 138.246 53.7371 136.305 53.7371L136.298 53.7401ZM145.222 53.7401C144.062 53.7401 143.049 53.1351 142.614 52.7601C142.469 52.9041 142.208 53.3361 142.151 53.7401H141.601V49.7661H142.181C142.413 51.6661 143.745 52.7901 145.455 52.7901C146.382 52.7901 147.135 52.2721 147.135 51.4081C147.135 50.6581 146.469 50.0831 145.28 49.5361L143.628 48.7591C142.468 48.2111 141.6 47.2611 141.6 45.9941C141.6 44.6121 142.904 43.4311 144.7 43.4311C145.656 43.4311 146.467 43.7771 146.96 44.1811C147.105 44.0661 147.26 43.7491 147.336 43.4031H147.886V46.8001H147.278C147.075 45.4461 146.322 44.3231 144.786 44.3231C143.986 44.3231 143.221 44.7831 143.221 45.5031C143.221 46.2531 143.821 46.6551 145.221 47.2881L146.814 48.0651C148.214 48.7271 148.754 49.7931 148.754 50.6571C148.754 52.4711 147.16 53.7371 145.219 53.7371L145.222 53.7401ZM19.125 46.9361C19.125 51.9801 22.075 56.3391 26.352 58.4061L20.235 41.7501C19.5021 43.3807 19.1238 45.1483 19.125 46.9361ZM40.605 46.2931C40.605 44.7181 40.035 43.6271 39.548 42.7781C38.898 41.7281 38.288 40.8381 38.288 39.7901C38.288 38.6201 39.182 37.5281 40.441 37.5281C40.498 37.5281 40.541 37.5351 40.607 37.5381C38.2398 35.3806 35.1508 34.1873 31.948 34.1931C29.8265 34.19 27.7373 34.7132 25.8675 35.7156C23.9977 36.718 22.4057 38.1685 21.234 39.9371L22.059 39.9521C23.399 39.9521 25.476 39.7901 25.476 39.7901C26.176 39.7501 26.249 40.7581 25.558 40.8401C25.558 40.8401 24.863 40.9201 24.09 40.9601L28.76 54.7641L31.566 46.4001L29.568 40.9601C28.868 40.9201 28.223 40.8401 28.223 40.8401C27.523 40.8001 27.623 39.7401 28.303 39.7901C28.303 39.7901 30.421 39.9521 31.681 39.9521C33.021 39.9521 35.098 39.7901 35.098 39.7901C35.79 39.7501 35.871 40.7581 35.18 40.8401C35.18 40.8401 34.484 40.9201 33.712 40.9601L38.346 54.6601L39.626 50.4121C40.181 48.6491 40.602 47.3821 40.602 46.2921L40.605 46.2931ZM32.172 48.0501L28.324 59.1501C29.5008 59.4945 30.7208 59.6693 31.947 59.6691C33.397 59.6691 34.847 59.4251 36.205 58.9471C36.169 58.8911 36.139 58.8331 36.105 58.7711L32.162 48.0511L32.172 48.0501ZM43.2 40.8201C43.2583 41.2543 43.287 41.692 43.286 42.1301C43.286 43.4231 43.043 44.8771 42.311 46.6951L38.394 57.9501C42.206 55.7501 44.77 51.6361 44.77 46.9341C44.773 44.7971 44.233 42.6941 43.2 40.8201ZM31.948 32.0801C23.706 32.0801 17 38.7451 17 46.9361C17 55.1271 23.706 61.7921 31.948 61.7921C40.19 61.7921 46.896 55.1281 46.896 46.9361C46.896 38.7441 40.2 32.0801 31.947 32.0801H31.948ZM31.948 61.1101C24.084 61.1101 17.686 54.7501 17.686 46.9351C17.686 39.1201 24.084 32.7621 31.948 32.7621C39.812 32.7621 46.208 39.1201 46.208 46.9351C46.208 54.7501 39.8 61.1001 31.947 61.1001L31.948 61.1101Z" fill="#00749A"/>
</svg>
