<svg width="166" height="94" viewBox="0 0 166 94" fill="none" xmlns="http://www.w3.org/2000/svg">
<path d="M105.028 37.272H99.4C99.272 37.272 99.144 37.4 99.144 37.528V40.792C99.144 40.92 99.272 41.048 99.4 41.048H105.038C105.166 41.048 105.294 40.92 105.294 40.792V37.528C105.358 37.4 105.23 37.272 105.038 37.272H105.028ZM104.964 42.136H94.072C93.9928 42.147 93.9172 42.1757 93.8507 42.22C93.7842 42.2643 93.7286 42.3231 93.688 42.392L92.214 47.96L90.548 42.264C90.484 42.136 90.356 42.008 90.164 42.008H85.934C85.8548 42.019 85.7792 42.0477 85.7127 42.092C85.6462 42.1363 85.5906 42.1951 85.55 42.264L83.948 47.576L83.884 47.832L83.82 47.704L83.18 45.08L82.475 42.456C82.411 42.328 82.283 42.2 82.091 42.2H73.57V37.592C73.57 37.464 73.378 37.272 73.186 37.336L67.802 39C67.61 39.064 67.546 39.128 67.546 39.256V42.136H66.146C66.018 42.136 65.89 42.264 65.89 42.392V46.488C65.89 46.616 66.018 46.744 66.146 46.744H67.546V51.736C67.546 55.256 69.468 56.92 72.992 56.92C74.466 56.92 75.875 56.6 76.836 56.088V51.864C76.836 51.672 76.644 51.608 76.516 51.608C75.939 51.864 75.491 51.928 74.978 51.928C74.018 51.928 73.504 51.544 73.504 50.456V46.808H76.579C76.707 46.808 76.835 46.68 76.835 46.552V43.096L80.872 56.472C80.936 56.6 81.064 56.728 81.256 56.728H85.741C85.8202 56.717 85.8958 56.6883 85.9623 56.644C86.0288 56.5997 86.0844 56.5409 86.125 56.472L88.047 50.52L89.007 53.592L89.904 56.408C89.968 56.536 90.096 56.664 90.288 56.664H94.773C94.8522 56.653 94.9278 56.6243 94.9943 56.58C95.0608 56.5357 95.1164 56.4769 95.157 56.408L99.257 42.968V56.408C99.257 56.536 99.385 56.664 99.513 56.664H104.959C105.087 56.664 105.215 56.536 105.215 56.408V42.456C105.215 42.264 105.087 42.136 104.959 42.136H104.964ZM112.14 37.272H106.694C106.566 37.272 106.438 37.4 106.438 37.528V56.408C106.438 56.536 106.566 56.664 106.694 56.664H112.14C112.268 56.664 112.396 56.536 112.396 56.408V37.528C112.396 37.4 112.268 37.272 112.14 37.272ZM119.38 37.272H113.742C113.614 37.272 113.486 37.4 113.486 37.528V40.792C113.486 40.92 113.614 41.048 113.742 41.048H119.38C119.508 41.048 119.636 40.92 119.636 40.792V37.528C119.7 37.4 119.572 37.272 119.38 37.272ZM119.316 42.136H113.87C113.742 42.136 113.614 42.264 113.614 42.392V56.408C113.614 56.536 113.742 56.664 113.87 56.664H119.316C119.444 56.664 119.572 56.536 119.572 56.408V42.456C119.572 42.264 119.444 42.136 119.316 42.136ZM128.35 41.816C123.545 41.816 120.15 45.336 120.15 49.432V49.496C120.15 53.592 123.546 57.048 128.287 57.048C133.092 57.048 136.487 53.528 136.487 49.432V49.368C136.487 45.272 133.091 41.816 128.35 41.816ZM130.657 49.432C130.657 50.84 129.697 51.928 128.35 51.928C127.003 51.928 125.98 50.776 125.98 49.368V49.304C125.98 47.896 126.94 46.808 128.287 46.808C129.634 46.808 130.657 47.96 130.657 49.432ZM46.018 31C37.176 31 30 38.168 30 47C30 55.832 37.176 63 46.018 63C54.86 63 62.036 55.832 62.036 47C62.036 38.168 54.86 31 46.018 31ZM46.018 58.776C39.483 58.776 34.228 53.528 34.228 47C34.228 40.472 39.482 35.224 46.018 35.224C52.554 35.224 57.807 40.472 57.807 47C57.807 53.528 52.553 58.776 46.017 58.776H46.018Z" fill="#F12E45"/>
<path d="M49.9902 46.3601C51.8304 46.3601 53.3222 44.8701 53.3222 43.0321C53.3222 41.1941 51.8304 39.7041 49.9902 39.7041C48.15 39.7041 46.6582 41.1941 46.6582 43.0321C46.6582 44.8701 48.15 46.3601 49.9902 46.3601Z" fill="#F12E45"/>
<path d="M49.9902 54.2961C51.8304 54.2961 53.3222 52.8061 53.3222 50.9681C53.3222 49.1301 51.8304 47.6401 49.9902 47.6401C48.15 47.6401 46.6582 49.1301 46.6582 50.9681C46.6582 52.8061 48.15 54.2961 49.9902 54.2961Z" fill="#F12E45"/>
<path d="M42.0468 54.2961C43.8871 54.2961 45.3788 52.8061 45.3788 50.9681C45.3788 49.1301 43.8871 47.6401 42.0468 47.6401C40.2066 47.6401 38.7148 49.1301 38.7148 50.9681C38.7148 52.8061 40.2066 54.2961 42.0468 54.2961Z" fill="#F12E45"/>
<path d="M42.0468 46.3601C43.8871 46.3601 45.3788 44.8701 45.3788 43.0321C45.3788 41.1941 43.8871 39.7041 42.0468 39.7041C40.2066 39.7041 38.7148 41.1941 38.7148 43.0321C38.7148 44.8701 40.2066 46.3601 42.0468 46.3601Z" fill="#F12E45"/>
</svg>
