<svg width="166" height="96" viewBox="0 0 166 96" fill="none" xmlns="http://www.w3.org/2000/svg">
<path d="M74.668 50.545H82.73L78.467 43.645L70.644 56.139H67.084L76.6 41.12C77.014 40.514 77.703 40.147 78.468 40.147C79.208 40.147 79.898 40.501 80.298 41.094L89.851 56.127H86.291L84.611 53.335H76.45L74.67 50.543L74.668 50.545ZM111.653 53.337V40.3H108.633V54.613C108.633 54.81 108.672 55.0051 108.747 55.1871C108.822 55.3692 108.933 55.5346 109.072 55.674C109.36 55.964 109.749 56.129 110.175 56.129H123.955L125.735 53.337H111.655H111.653ZM61.667 51C64.601 51 66.983 48.613 66.983 45.656C66.983 42.699 64.6 40.3 61.667 40.3H48.45V56.13H51.47V43.092H61.467C62.871 43.092 63.999 44.242 63.999 45.657C63.999 47.072 62.871 48.221 61.467 48.221L52.949 48.209L61.969 56.129H66.357L60.288 51H61.668H61.667ZM29.857 56.13C25.52 56.13 22 52.59 22 48.22C22 43.85 25.52 40.3 29.856 40.3H38.986C43.324 40.3 46.84 43.85 46.84 48.22C46.84 52.59 43.323 56.128 38.985 56.128H29.855L29.857 56.13ZM38.785 53.338C41.585 53.338 43.87 51.051 43.87 48.222C43.87 45.393 41.594 43.092 38.785 43.092H30.059C27.249 43.092 24.974 45.392 24.974 48.222C24.974 51.052 27.251 53.338 30.059 53.338H38.785ZM96.158 56.13C91.82 56.13 88.298 52.593 88.298 48.222C88.298 43.851 91.821 40.302 96.158 40.302H107.003L105.235 43.094H96.359C93.551 43.094 91.259 45.394 91.259 48.224C91.259 51.054 93.541 53.34 96.359 53.34H107.254L105.474 56.132H96.159L96.158 56.13ZM133.106 53.338C130.786 53.338 128.818 51.772 128.206 49.611H141.119L142.899 46.819H128.205C128.807 44.671 130.775 43.093 133.105 43.093H141.969L143.761 40.301H132.904C128.566 40.301 125.044 43.851 125.044 48.221C125.044 52.591 128.567 56.129 132.904 56.129H142.219L143.999 53.337H133.104L133.106 53.338Z" fill="#EA1B22"/>
</svg>
