<svg width="166" height="96" viewBox="0 0 166 96" fill="none" xmlns="http://www.w3.org/2000/svg">
<path d="M115.257 64.1298C111.521 66.0828 92.17 74.0598 88.05 76.2148C83.93 78.3698 81.64 78.3478 78.387 76.7878C75.134 75.2278 54.54 66.8868 50.83 65.1098C48.975 64.2198 48 63.4698 48 62.7618V55.6668C48 55.6668 74.81 49.8138 79.14 48.2668C83.47 46.7198 84.97 46.6538 88.653 48.0068C92.336 49.3598 114.36 53.3348 118 54.6718L117.998 61.6668C117.999 62.3668 117.158 63.1368 115.258 64.1308" fill="#912626"/>
<path d="M115.255 57.078C111.519 59.03 92.1695 67.01 88.0495 69.162C83.9295 71.314 81.6415 71.295 78.3865 69.735C75.1315 68.175 54.5385 59.833 50.8295 58.055C47.1205 56.277 47.0425 55.053 50.6865 53.622L79.1395 42.577C83.4675 41.02 84.9695 40.964 88.6525 42.317C92.3355 43.67 111.572 51.347 115.212 52.684C118.852 54.021 118.993 55.124 115.257 57.077" fill="#C6302B"/>
<path d="M115.257 52.6501C111.521 54.6031 92.17 62.5801 88.05 64.7361C83.93 66.8921 81.64 66.8681 78.387 65.3081C75.134 63.7481 54.54 55.4071 50.83 53.6301C48.975 52.7401 48 51.9901 48 51.2821V44.1861C48 44.1861 74.81 38.3341 79.14 36.7861C83.47 35.2381 84.97 35.1721 88.653 36.5261C92.336 37.8801 114.36 41.8531 118 43.1901L117.998 50.1861C117.999 50.8861 117.158 51.6561 115.258 52.6501" fill="#912626"/>
<path d="M115.255 45.597C111.52 47.549 92.1685 55.527 88.0495 57.682C83.9305 59.837 81.6415 59.814 78.3865 58.254C75.1315 56.694 54.5385 48.352 50.8295 46.574C47.1205 44.796 47.0425 43.572 50.6865 42.141L79.1395 31.097C83.4675 29.54 84.9695 29.484 88.6525 30.837C92.3355 32.19 111.572 39.867 115.212 41.204C118.852 42.541 118.993 43.644 115.257 45.597" fill="#C6302B"/>
<path d="M115.257 40.7438C111.521 42.6958 92.17 50.6738 88.05 52.8298C83.93 54.9858 81.64 54.9618 78.387 53.4018C75.134 51.8418 54.54 43.4998 50.83 41.7228C48.976 40.8328 48 40.0828 48 39.3758V32.2798C48 32.2798 74.81 26.4278 79.14 24.8698C83.47 23.3118 84.97 23.2568 88.653 24.6098C92.336 25.9628 114.36 29.9478 118 31.2848L117.998 38.2798C117.999 38.9798 117.158 39.7498 115.258 40.7438" fill="#912626"/>
<path d="M115.256 33.6902C111.521 35.6422 92.169 43.6202 88.05 45.7752C83.931 47.9302 81.642 47.9072 78.387 46.3482C75.132 44.7892 54.54 36.4472 50.83 34.6702C47.12 32.8932 47.043 31.6682 50.686 30.2372L79.14 19.1922C83.468 17.6352 84.97 17.5792 88.653 18.9322C92.336 20.2852 111.573 27.9622 115.213 29.3002C118.853 30.6382 118.993 31.7402 115.258 33.6922" fill="#C6302B"/>
<path d="M91.5533 26.7902L85.5353 27.4172L84.1883 30.6672L82.0123 27.0392L75.0623 26.4132L80.2473 24.5382L78.6913 21.6582L83.5463 23.5622L88.1233 22.0592L86.8863 25.0352L91.5533 26.7872V26.7902ZM83.8293 42.5602L72.5963 37.8902L88.6913 35.4132L83.8283 42.5632L83.8293 42.5602ZM68.2563 28.5962C73.0063 28.5962 76.8583 30.0932 76.8583 31.9402C76.8583 33.7872 73.0083 35.2842 68.2563 35.2842C63.5043 35.2842 59.6543 33.7872 59.6543 31.9402C59.6543 30.0932 63.5043 28.5962 68.2563 28.5962Z" fill="white"/>
<path d="M98.668 27.6778L108.193 31.4528L98.676 35.2228L98.668 27.6768" fill="#621B1C"/>
<path d="M88.1289 31.8582L98.6669 27.6782L98.6749 35.2242L97.6419 35.6292L88.1289 31.8592" fill="#9A2928"/>
</svg>
