<svg width="166" height="94" viewBox="0 0 166 94" fill="none" xmlns="http://www.w3.org/2000/svg">
<path d="M94.2211 35.0917L100.132 29.1808L100.525 26.6929C89.755 16.8974 72.6338 18.0095 62.9222 29.0099C60.2245 32.0643 58.2253 35.874 57.1582 39.8096L59.2744 39.5098L71.0961 37.5615L72.0073 36.6293C77.2648 30.8533 86.1581 30.077 92.2278 34.9898L94.2211 35.0917Z" fill="#EA4335"/>
<path d="M108.556 39.6327C107.198 34.6301 104.407 30.131 100.529 26.6899L92.2318 34.9868C95.7358 37.8493 97.7291 42.1596 97.6451 46.6826V48.1544C101.722 48.1544 105.028 51.4605 105.028 55.537C105.028 59.6134 101.722 62.8387 97.6451 62.8387H82.8589L81.4082 64.4153V73.2726L82.8589 74.6634H97.6451C108.25 74.7473 116.915 66.2977 116.999 55.6928C117.05 49.2634 113.879 43.2356 108.556 39.6327Z" fill="#4285F4"/>
<path d="M68.0901 74.6634H82.8583V62.8416H68.0901C67.044 62.8416 66.0129 62.6138 65.0627 62.1792L62.9675 62.8206L57.0146 68.7315L56.4961 70.7428C59.8352 73.2636 63.9087 74.6814 68.0901 74.6634Z" fill="#34A853"/>
<path d="M68.0908 36.3146C57.483 36.3775 48.9374 45.028 49.0003 55.6358C49.0363 61.5587 51.8029 67.1339 56.4968 70.7458L65.0634 62.1792C61.3466 60.5006 59.6951 56.1274 61.3736 52.4106C63.0522 48.6939 67.4254 47.0423 71.1422 48.7208C72.7787 49.4612 74.0916 50.7711 74.832 52.4106L83.3985 43.8441C79.7537 39.0782 74.0886 36.2936 68.0908 36.3146Z" fill="#FBBC05"/>
</svg>
