<svg width="166" height="94" viewBox="0 0 166 94" fill="none" xmlns="http://www.w3.org/2000/svg">
<path opacity="0.2" d="M85.9743 21.2331L109.764 45.023C111.407 46.6655 111.407 49.3286 109.764 50.9712L85.9743 74.7611C84.3317 76.4036 81.6686 76.4036 80.0261 74.7611L56.2362 50.9712C54.5936 49.3286 54.5936 46.6655 56.2362 45.023L80.0261 21.2331C81.6686 19.5905 84.3317 19.5905 85.9743 21.2331Z" fill="black"/>
<path d="M85.9743 20.2431L109.764 44.033C111.407 45.6755 111.407 48.3386 109.764 49.9812L85.9743 73.7711C84.3317 75.4136 81.6686 75.4136 80.0261 73.7711L56.2362 49.9812C54.5936 48.3386 54.5936 45.6755 56.2362 44.033L80.0261 20.2431C81.6686 18.6005 84.3317 18.6005 85.9743 20.2431Z" fill="#66B744"/>
<path opacity="0.2" d="M83.0007 19C82.4482 18.9995 81.9012 19.1083 81.3909 19.3201C80.8807 19.5319 80.4174 19.8425 80.0277 20.234L56.2347 44.027C55.786 44.4749 55.4457 45.0193 55.2396 45.6188C55.0335 46.2183 54.9672 46.857 55.0457 47.486C55.1524 46.5554 55.5716 45.6886 56.2347 45.027L80.0277 21.234C80.4171 20.842 80.8802 20.5309 81.3904 20.3186C81.9005 20.1063 82.4476 19.997 83.0002 19.997C83.5527 19.997 84.0998 20.1063 84.61 20.3186C85.1201 20.5309 85.5832 20.842 85.9727 21.234L109.766 45.027C110.429 45.6886 110.848 46.5554 110.955 47.486C111.033 46.857 110.967 46.2183 110.761 45.6188C110.555 45.0193 110.214 44.4749 109.766 44.027L85.9737 20.234C85.5839 19.8425 85.1206 19.5319 84.6104 19.3201C84.1002 19.1083 83.5531 18.9995 83.0007 19Z" fill="white"/>
<path opacity="0.2" d="M83.0002 27C77.8702 27 73.7502 28.19 70.7832 30.5C70.7192 30.55 70.6662 30.607 70.6032 30.658L68.8862 32.375C67.1592 34.528 66.2862 37.207 66.4862 39.805C67.0002 46.65 73.8282 52 83.0002 52C89.2282 52 91.4782 55.19 91.6132 56.83C91.6812 57.65 91.5232 58.306 90.3932 59.182C89.2632 60.058 86.9272 61 83.0002 61C77.5242 61 70.9842 57.527 70.9842 57.527C70.4595 57.2181 69.8712 57.0331 69.2641 56.986C68.657 56.9389 68.0472 57.0311 67.4812 57.2554C66.9151 57.4798 66.4077 57.8304 65.9977 58.2805C65.5877 58.7307 65.2859 59.2685 65.1152 59.853L72.0972 66.835C75.0022 67.933 78.8662 69 83.0002 69C88.0632 69 92.1262 67.86 95.0942 65.645L97.4422 63.297C99.0062 61.197 99.7902 58.647 99.5872 56.174C99.0202 49.315 92.1722 44 83.0002 44C76.7722 44 74.5902 40.85 74.4632 39.195C74.4002 38.368 74.5632 37.691 75.6992 36.815C76.8352 35.939 79.1302 35 83.0002 35C88.4762 35 95.0162 38.473 95.0162 38.473C95.541 38.7819 96.1293 38.9669 96.7364 39.014C97.3434 39.0611 97.9532 38.9689 98.5193 38.7446C99.0854 38.5202 99.5927 38.1696 100.003 37.7195C100.413 37.2693 100.715 36.7315 100.885 36.147L93.9032 29.165C90.9982 28.067 87.1342 27 83.0002 27Z" fill="black"/>
<path fill-rule="evenodd" clip-rule="evenodd" d="M83.0002 26C77.8702 26 73.7502 27.19 70.7832 29.5C70.7192 29.55 70.6662 29.607 70.6032 29.658L68.8862 31.375C67.1592 33.528 66.2862 36.207 66.4862 38.805C67.0002 45.65 73.8282 51 83.0002 51C89.2282 51 91.4782 54.19 91.6132 55.83C91.6812 56.65 91.5232 57.306 90.3932 58.182C89.2632 59.058 86.9272 60 83.0002 60C77.5242 60 70.9842 56.527 70.9842 56.527C70.4595 56.2181 69.8712 56.0331 69.2641 55.986C68.657 55.9389 68.0472 56.0311 67.4812 56.2554C66.9151 56.4798 66.4077 56.8304 65.9977 57.2805C65.5877 57.7307 65.2859 58.2685 65.1152 58.853L72.0972 65.835C75.0022 66.933 78.8662 68 83.0002 68C88.0632 68 92.1262 66.86 95.0942 64.645L97.4422 62.297C99.0062 60.197 99.7902 57.647 99.5872 55.174C99.0202 48.315 92.1722 43 83.0002 43C76.7722 43 74.5902 39.85 74.4632 38.195C74.4002 37.368 74.5632 36.691 75.6992 35.815C76.8352 34.939 79.1302 34 83.0002 34C88.4762 34 95.0162 37.473 95.0162 37.473C95.541 37.7819 96.1293 37.9669 96.7364 38.014C97.3434 38.0611 97.9532 37.9689 98.5193 37.7446C99.0854 37.5202 99.5927 37.1696 100.003 36.7195C100.413 36.2693 100.715 35.7315 100.885 35.147L93.9032 28.165C90.9982 27.067 87.1342 26 83.0002 26Z" fill="white"/>
</svg>
