<svg width="166" height="96" viewBox="0 0 166 96" fill="none" xmlns="http://www.w3.org/2000/svg">
<path d="M90.4494 76.0238H91.1174L102.014 70.5438L102.194 70.2858V26.5558L102.014 26.2958L91.1174 20.8218H90.4414L90.4494 76.0218" fill="#5294CF"/>
<path d="M76.27 76.0238H75.593L64.705 70.5438L64.485 70.1618L64.373 26.7778L64.706 26.2958L75.594 20.8218H76.279L76.271 76.0218" fill="#1F5B98"/>
<path d="M75.6094 20.8232H91.1054V76.0232H75.6094V20.8232Z" fill="#2D72B8"/>
<path d="M107.72 47.1828L107.352 47.1009L102.094 46.6079L102.016 46.6479L91.109 46.2079H75.61L64.703 46.6479V38.2859L64.693 38.2919L64.703 38.2679L75.61 35.7279H91.107L102.014 38.2679L106.014 40.4109V39.0329L107.709 38.8469L107.534 38.5028L102.169 34.6459L102.006 34.6989L91.108 31.2999H75.61L64.703 34.6979V26.2979L59 33.0159V38.8839L59.044 38.8519L60.694 39.0319V40.4379L59 41.3498V47.1879L59.044 47.1828L60.694 47.2069V49.6569L59.27 49.6768L59 49.6509V55.4909L60.695 56.4069V57.8288L59.071 58.0089L59.001 57.9549V63.8218L64.705 70.5419V62.1418L75.612 65.5399H91.109L102.049 62.1319L102.194 62.1959L107.489 58.3959L107.721 58.0159L106.026 57.8279V56.4398L105.804 56.3498L102.18 58.3139L102.05 58.5899L91.11 61.1159V61.1189H75.61V61.1159L64.704 58.5799V50.1869L75.611 50.6239V50.6339H91.108L102.015 50.1859L102.263 50.3008L107.359 49.8609L107.719 49.6838L106.024 49.6599V47.2099L107.719 47.1859" fill="#1A476F"/>
<path d="M102.016 62.1449V70.5449L107.72 63.8249V57.9969L102.05 62.1349L102.017 62.1449H102.016ZM102.017 58.5969L102.05 58.5889L107.72 55.5219V49.6579L102.016 50.1859V58.5959L102.017 58.5969ZM102.049 38.2729L102.016 38.2649V46.6449L107.72 47.1809V41.3209L102.05 38.2739L102.049 38.2729ZM102.05 34.7299L107.72 38.8449V33.0149L102.016 26.2949V34.6949L102.049 34.7049V34.7249" fill="#2D72B8"/>
</svg>
