<svg width="166" height="94" viewBox="0 0 166 94" fill="none" xmlns="http://www.w3.org/2000/svg">
<path d="M98.0739 28.6701L96.5559 28.1941L96.7909 27.1641C97.9409 21.6181 97.1889 17.1501 94.6229 15.6791C92.1629 14.2691 88.1399 15.7391 84.0769 19.2551C83.6769 19.6021 83.2849 19.9591 82.9029 20.3251C82.647 20.081 82.3866 19.8416 82.1219 19.6071C77.8639 15.8471 73.5949 14.2631 71.0219 15.7371C68.5639 17.1521 67.8359 21.3521 68.8719 26.6071C68.9749 27.1271 69.0919 27.6451 69.2219 28.1601C68.635 28.3251 68.0531 28.5072 67.4769 28.7061C62.4849 30.4361 59.2969 33.1491 59.2969 35.9631C59.2969 38.8691 62.7199 41.7831 67.9199 43.5511C68.3419 43.6941 68.7669 43.8261 69.1949 43.9471C69.0549 44.5011 68.9319 45.0601 68.8249 45.6211C67.8389 50.7861 68.6089 54.8871 71.0599 56.2931C73.5919 57.7451 77.8399 56.2531 81.9779 52.6561C82.3049 52.3721 82.6329 52.0701 82.9619 51.7541C83.3759 52.1511 83.8019 52.5371 84.2369 52.9101C88.2449 56.3401 92.2029 57.7241 94.6519 56.3141C97.1819 54.8581 98.0019 50.4521 96.9359 45.0921C96.8517 44.6722 96.7573 44.2544 96.6529 43.8391C96.9467 43.7533 97.2391 43.6626 97.5299 43.5671C102.936 41.7871 106.453 38.9071 106.453 35.9621C106.453 33.1381 103.163 30.4081 98.0689 28.6641L98.0739 28.6701Z" fill="#53C1DE"/>
<path d="M96.9004 41.6698L96.1084 41.9158C95.5114 40.0358 94.7064 38.0398 93.7204 35.9758C94.6604 33.9608 95.4354 31.9888 96.0154 30.1228L97.4174 30.5628C101.781 32.0558 104.443 34.2648 104.443 35.9668C104.443 37.7798 101.568 40.1328 96.9014 41.6708L96.9004 41.6698ZM94.9634 45.4858C95.4354 47.8558 95.5034 49.9988 95.1904 51.6738C94.9104 53.1788 94.3444 54.1838 93.6464 54.5838C92.1604 55.4388 88.9824 54.3278 85.5544 51.3938L84.3684 50.3188C85.6984 48.8738 87.0254 47.1938 88.3214 45.3288C90.6014 45.1288 92.7554 44.7988 94.7084 44.3488L94.9634 45.4828V45.4858ZM75.3774 54.4358C73.9254 54.9358 72.7694 54.9598 72.0704 54.5598C70.5824 53.7068 69.9644 50.4138 70.8084 45.9968L71.1524 44.4398C73.0824 44.8648 75.2224 45.1698 77.5074 45.3548C78.8124 47.1798 80.1774 48.8578 81.5554 50.3278L80.6574 51.1508C78.8274 52.7508 76.9944 53.8688 75.3774 54.4368V54.4358ZM68.5764 41.6598C66.2764 40.8798 64.3784 39.8628 63.0764 38.7548C61.9064 37.7588 61.3164 36.7698 61.3164 35.9678C61.3164 34.2608 63.8764 32.0828 68.1464 30.6028L69.7694 30.0948C70.3694 32.0028 71.1334 33.9988 72.0674 36.0168C71.1214 38.0648 70.3374 40.0918 69.7404 42.0228L68.5764 41.6608V41.6598ZM70.8564 26.2268C69.9704 21.7228 70.5584 18.3268 72.0394 17.4738C73.6174 16.5658 77.1054 17.8608 80.7824 21.1068L81.4894 21.7568C80.1194 23.2198 78.7654 24.8848 77.4724 26.6998C75.2544 26.9038 73.1324 27.2328 71.1794 27.6718L70.8554 26.2268H70.8564ZM91.1964 31.2208L89.7624 28.8758L94.0624 29.6228C93.6564 30.9178 93.1494 32.2728 92.5524 33.6608L91.1954 31.2208H91.1964ZM82.9014 23.1868C83.8314 24.1868 84.7614 25.3048 85.6764 26.5168L80.1034 26.5158L82.9014 23.1858V23.1868ZM74.5534 31.2338L73.2234 33.6588L71.7254 29.6018L76.0004 28.8718L74.5544 31.2338H74.5534ZM76.0434 43.2038L71.6974 42.5088C72.1384 41.1048 72.6483 39.7235 73.2254 38.3698L74.5624 40.7958L76.0424 43.2038H76.0434ZM82.9584 48.8868C82.0034 47.8628 81.0514 46.7298 80.1214 45.5108L82.8814 45.5638L85.7284 45.5008L82.9604 48.8868H82.9584ZM92.5734 38.2868L94.1574 42.4118C92.7904 42.7118 91.3144 42.9718 89.7574 43.1578L91.2054 40.7718L92.5734 38.2878V38.2868ZM89.4604 39.7708L87.1984 43.4008L82.8804 43.5508C81.4134 43.5508 79.9854 43.5058 78.6104 43.4168L76.3054 39.7818L74.2934 36.0038L76.2994 32.2238L78.5854 28.6038L82.8794 28.4438L87.1814 28.6058L89.4534 32.2128L91.4864 35.9748L89.4604 39.7698V39.7708ZM93.6164 17.4028C95.1964 18.3088 95.8094 21.9598 94.8164 26.7488L94.6044 27.6808C92.6484 27.2308 90.5244 26.8978 88.2994 26.6808C87.0034 24.8458 85.6614 23.1778 84.3134 21.7338L85.3974 20.7438C88.8774 17.7308 92.1324 16.5418 93.6154 17.3918L93.6164 17.4028Z" fill="white"/>
<path d="M82.8809 31.7798C83.9945 31.7769 85.0636 32.2163 85.8533 33.0015C86.643 33.7866 87.0885 34.8532 87.0919 35.9668C87.0919 37.0836 86.6483 38.1547 85.8586 38.9444C85.0688 39.7341 83.9977 40.1778 82.8809 40.1778C81.7641 40.1778 80.693 39.7341 79.9033 38.9444C79.1136 38.1547 78.6699 37.0836 78.6699 35.9668C78.6734 34.8532 79.1189 33.7866 79.9086 33.0015C80.6982 32.2163 81.7674 31.7769 82.8809 31.7798Z" fill="#53C1DE"/>
<path d="M85.71 68.9058L85.722 79.0658C85.725 79.5788 85.612 79.7618 85.064 79.7408C83.998 79.6988 83.997 79.7308 83.997 78.6688L83.984 67.1638C83.981 66.6498 84.156 66.5938 84.624 66.5238C85.951 66.3318 86.644 66.8478 87.234 68.0558C88.709 71.0798 90.362 74.0188 91.944 76.9908C92.01 77.1138 92.094 77.2268 92.274 77.5088V76.7288L92.264 67.2588C92.26 66.7358 92.34 66.5008 92.948 66.5308C93.981 66.5838 93.983 66.5408 93.983 67.5858L94 79.0998C94.004 79.6438 93.823 79.6938 93.33 79.7638C92 79.9508 91.324 79.4308 90.74 78.2238C89.298 75.2538 87.67 72.3738 86.112 69.4598C86.017 69.2818 85.977 69.0598 85.712 68.9158L85.71 68.9058ZM103.507 78.4258C102.337 79.9138 100.835 80.1918 99.157 79.8558C97.969 79.6188 97.093 78.6758 96.92 77.5288C96.692 76.0118 97.176 74.7908 98.273 74.1518C99.085 73.6778 99.988 73.5378 100.909 73.5088C101.675 73.4848 102.442 73.4888 103.209 73.5048C103.509 73.5108 103.606 73.4028 103.597 73.0988C103.567 72.1088 102.832 71.2988 101.713 71.0848C100.481 70.8478 99.295 71.0498 98.165 71.5448C97.695 71.7508 97.597 71.7188 97.558 71.1728C97.506 70.4578 97.788 70.1828 98.442 70.0068C99.608 69.6948 100.775 69.5468 101.975 69.6908C103.839 69.9148 105.089 71.1958 105.187 73.2108C105.287 75.2608 105.222 77.3178 105.239 79.3728C105.241 79.6528 105.137 79.7558 104.866 79.7298C104.469 79.6918 103.982 79.8918 103.693 79.6398C103.404 79.3878 103.703 78.8798 103.508 78.4258H103.507ZM100.57 78.6058C102.38 78.7118 103.694 77.1558 103.6 75.0738C103.59 74.8678 103.523 74.7638 103.302 74.7658C102.112 74.7828 100.916 74.6858 99.749 75.0158C99.129 75.1928 98.707 75.5578 98.561 76.2088C98.246 77.6068 99.061 78.5718 100.571 78.6038L100.57 78.6058ZM139.562 77.7258C139.615 79.5498 139.862 79.1718 138.26 79.6758C137.24 79.9958 136.17 80.0758 135.1 79.9398C131.952 79.5398 130.553 77.1298 130.82 74.2248C130.99 72.3828 131.706 70.8228 133.505 70.0688C136.51 68.8108 140.215 70.0488 139.988 74.8268C139.968 75.2468 139.708 75.1668 139.468 75.1668C137.36 75.1698 135.252 75.1918 133.145 75.1538C132.549 75.1438 132.481 75.3588 132.567 75.8538C132.852 77.4938 134.007 78.5078 135.677 78.5938C137.029 78.6638 138.287 78.3438 139.559 77.7258H139.562ZM135.425 73.9098V73.8998H137.591C138.399 73.8988 138.458 73.8218 138.261 73.0348C137.924 71.6888 136.797 70.8718 135.441 70.9908C133.841 71.1308 132.715 72.1568 132.583 73.5638C132.553 73.8758 132.69 73.9138 132.943 73.9118L135.427 73.9088L135.425 73.9098ZM124.442 78.1038L127.216 70.6268C127.436 70.0038 127.733 69.7248 128.396 69.8368C128.643 69.8788 128.904 69.8438 129.256 69.8438L128.106 72.8988L125.723 79.2508C125.595 79.5978 125.448 79.7408 125.051 79.7428C123.326 79.7438 123.329 79.7578 122.726 78.1548L119.83 70.5048C119.643 70.0198 119.63 69.7998 120.267 69.8348C121.565 69.9028 121.225 69.6278 121.682 70.8148L124.198 77.5148C124.256 77.6708 124.328 77.8228 124.443 78.0968L124.442 78.1038ZM110.218 74.4038C110.265 75.2388 110.128 76.2588 110.288 77.2688C110.418 78.0908 110.668 78.3068 111.511 78.3488C112.063 78.3768 112.617 78.3668 113.171 78.3688C113.831 78.3728 113.517 78.8718 113.571 79.1638C113.613 79.4398 113.671 79.7708 113.171 79.7438C112.323 79.6978 111.471 79.7918 110.625 79.6238C109.403 79.3838 108.812 78.7758 108.678 77.5238C108.475 75.6438 108.598 73.7578 108.596 71.8738C108.596 71.2898 108.492 70.9868 107.844 71.1038C107.304 71.2008 107.394 70.8078 107.404 70.5038C107.414 70.1998 107.254 69.7438 107.848 69.8438C108.504 69.9518 108.644 69.6508 108.59 69.0688C108.542 68.5438 108.592 68.0108 108.576 67.4818C108.566 67.1638 108.668 67.0418 109.009 67.0258C110.229 66.9688 110.227 66.9558 110.227 68.1458C110.227 68.5478 110.252 68.9528 110.22 69.3528C110.188 69.7528 110.357 69.8578 110.735 69.8468C111.522 69.8238 112.311 69.8688 113.097 69.8308C113.657 69.8038 113.574 70.1488 113.585 70.4878C113.595 70.8508 113.612 71.1478 113.077 71.1178C112.292 71.0748 111.502 71.1278 110.715 71.0978C110.31 71.0828 110.209 71.2278 110.219 71.5978C110.243 72.4658 110.227 73.3338 110.227 74.3808L110.218 74.4038ZM117.363 74.7778L117.375 79.1548C117.385 79.6268 117.265 79.7668 116.78 79.7518C115.726 79.7198 115.725 79.7478 115.724 78.6638L115.708 70.5468C115.702 69.9968 115.841 69.7518 116.413 69.8488C116.537 69.8688 116.67 69.8668 116.795 69.8488C117.232 69.7858 117.382 69.9438 117.373 70.3988C117.343 71.8588 117.363 73.3168 117.363 74.7758V74.7778ZM117.363 67.0158C117.364 68.0628 116.979 68.4128 115.983 68.0318C115.383 67.8018 115.821 67.1018 115.739 66.6238C115.705 66.4238 115.567 66.0638 115.982 66.0278C116.362 65.9958 116.747 66.0218 117.129 66.0198C117.337 66.0188 117.365 66.1558 117.364 66.3168V67.0148L117.363 67.0158ZM33.446 73.5488C35.503 75.1188 36.004 77.6018 37.366 79.7388C36.672 79.7388 36.131 79.7358 35.591 79.7398C35.301 79.7418 35.275 79.4968 35.185 79.3198L33.555 76.0898C32.912 74.7338 31.898 74.0918 30.362 74.1568C28.802 74.2228 28.802 74.1708 28.802 75.6998V79.2568C28.812 79.6588 28.679 79.7468 28.296 79.7498C27.003 79.7558 27.003 79.7698 27.003 78.4628L27 67.1428C26.998 66.6728 27.1 66.5228 27.598 66.5368C29.108 66.5828 30.62 66.4938 32.128 66.6328C34.758 66.8748 36.216 69.1328 35.361 71.6098C35.045 72.5278 34.611 72.9658 33.445 73.5368L33.446 73.5488ZM28.8 70.3598L28.797 72.3298C28.793 72.5868 28.862 72.7268 29.152 72.7138C30.042 72.6738 30.939 72.7938 31.827 72.6288C32.997 72.4118 33.631 71.6638 33.657 70.4658C33.687 69.1688 33.151 68.4108 31.961 68.1358C30.996 67.9128 30.011 68.0718 29.035 68.0358C28.771 68.0258 28.801 68.2258 28.8 68.3918V70.3618V70.3598ZM55.995 78.3178C54.851 79.8578 53.365 80.1958 51.683 79.8758C50.223 79.5978 49.385 78.5798 49.273 77.0758C49.161 75.5718 49.901 74.3808 51.267 73.8758C51.8866 73.6484 52.5393 73.5244 53.199 73.5088C53.837 73.4908 54.476 73.4988 55.114 73.4988C56.111 73.4978 56.244 73.3058 55.849 72.3788C55.531 71.6288 54.914 71.2488 54.145 71.0908C52.935 70.8408 51.78 71.0678 50.648 71.4958C50.455 71.5688 50.288 71.7278 50.058 71.6878C50.043 71.6428 50.018 71.6048 50.018 71.5658C50.048 70.0558 49.716 70.3858 51.225 69.9258C52.235 69.6178 53.273 69.5788 54.319 69.6858C56.039 69.8598 57.276 70.9598 57.526 72.7088C57.846 74.9388 57.609 77.1908 57.669 79.4328C57.675 79.6528 57.579 79.7328 57.366 79.7298C57.3447 79.7285 57.3233 79.7289 57.302 79.7308C56.075 79.8358 56.075 79.8358 55.995 78.3208V78.3178ZM54.537 74.7638C53.771 74.7588 53.007 74.7808 52.263 74.9858C51.256 75.2638 50.823 75.9178 50.92 76.9778C51 77.8598 51.66 78.4898 52.605 78.5878C54.411 78.7728 55.657 77.7808 55.977 75.9048C56.171 74.7688 56.177 74.7648 55.047 74.7648H54.547L54.537 74.7638ZM46.789 77.7918C46.864 79.5738 47.061 79.1738 45.556 79.6518C44.513 79.9818 43.426 80.0718 42.336 79.9348C39.146 79.5348 37.791 77.0778 38.053 74.2348C38.227 72.3408 38.985 70.7648 40.849 70.0248C42.464 69.3828 44.121 69.3688 45.574 70.4848C47.016 71.5918 47.264 73.1848 47.216 74.8848C47.206 75.2808 46.919 75.1708 46.713 75.1718C44.606 75.1778 42.498 75.1958 40.393 75.1618C39.823 75.1518 39.71 75.3348 39.799 75.8518C40.079 77.4848 41.239 78.5168 42.903 78.5998C44.0324 78.6565 45.1598 78.453 46.198 78.0048C46.388 77.9248 46.56 77.7748 46.788 77.8008L46.789 77.7918ZM42.632 73.9088V73.8998H44.862C45.618 73.8988 45.666 73.8398 45.515 73.1198C45.228 71.7558 44.069 70.8798 42.697 70.9898C41.085 71.1168 39.863 72.2328 39.797 73.6028C39.783 73.9498 39.992 73.9088 40.202 73.9088H42.622H42.632ZM70.982 74.4238C70.982 73.3738 70.962 72.5038 70.992 71.6378C71.007 71.2228 70.886 71.0678 70.46 71.0978C70.253 71.1128 69.916 71.2438 69.845 70.9598C69.765 70.6438 69.785 70.2798 69.861 69.9578C69.911 69.7498 70.201 69.8258 70.374 69.8498C70.902 69.9238 71.024 69.6898 70.992 69.2098C70.954 68.6098 70.995 68.0248 70.978 67.4328C70.968 67.1288 71.085 67.0448 71.383 67.0288C72.633 66.9608 72.62 66.9488 72.639 68.1718C72.647 68.7138 72.394 69.4338 72.761 69.7468C73.073 70.0128 73.774 69.8298 74.303 69.8408C74.601 69.8468 74.899 69.8418 75.196 69.8418C75.954 69.8428 76.16 70.1358 75.976 70.8848C75.904 71.1748 75.703 71.1028 75.531 71.1048C74.723 71.1128 73.914 71.1228 73.106 71.1018C72.756 71.0918 72.623 71.1878 72.626 71.5598L72.649 76.8928C72.667 78.0108 72.994 78.3098 74.115 78.3478C74.5828 78.3657 75.0511 78.368 75.519 78.3548C75.829 78.3448 75.971 78.4148 75.984 78.7688C76.019 79.7288 76.038 79.7308 75.064 79.7268C74.364 79.7238 73.664 79.7508 72.967 79.6068C71.859 79.3798 71.311 78.8398 71.102 77.7228C70.886 76.5668 71.032 75.3998 70.984 74.4228L70.982 74.4238ZM68.164 71.7298C67.337 71.3318 66.564 71.0958 65.764 71.0028C63.984 70.7968 62.571 71.7698 62.17 73.5088C61.967 74.3888 61.972 75.2748 62.18 76.1528C62.617 77.9958 64.22 78.9248 66.27 78.5358C66.774 78.4398 67.266 78.3018 67.72 78.0638C68.11 77.8598 68.167 77.9988 68.17 78.3718C68.182 79.4218 68.194 79.4318 67.19 79.7118C66.29 79.9658 65.35 80.0718 64.412 79.9318C62.147 79.5948 60.66 78.0838 60.388 75.8178C60.261 74.7628 60.285 73.7058 60.638 72.6798C61.313 70.7098 63.044 69.5838 65.356 69.6228C66.082 69.6348 66.79 69.7558 67.49 69.9578C67.98 70.0978 68.272 70.3178 68.17 70.8828C68.126 71.1278 68.162 71.3878 68.162 71.7288L68.164 71.7298Z" fill="#4DB4CF"/>
</svg>
