<svg width="166" height="94" viewBox="0 0 166 94" fill="none" xmlns="http://www.w3.org/2000/svg">
<path d="M117.563 42.4999C115.893 42.4999 116.068 44.5479 115.999 46.7339H118.781C118.781 44.2699 118.781 42.4999 117.564 42.4999H117.563ZM116 50.2999C116 52.2779 116.973 52.6599 118.608 52.6599C120.486 52.6599 123.024 52.1039 124.008 51.9299V56.7299C123.243 57.0079 120.913 57.6669 118.608 57.6669C114.47 57.6669 109.428 57.0069 109.428 48.1919C109.428 40.4179 113.392 38.5779 117.565 38.5779C121.842 38.5779 124.937 40.7649 124.937 48.1219V50.2999H116ZM99.6878 43.4279C99.3058 43.4279 98.5408 43.7399 98.1238 43.9839V52.8679C98.4368 52.9729 98.9938 53.0419 99.2368 53.0419C100.385 53.0419 101.08 52.0699 101.08 48.0099C101.08 43.8799 100.766 43.4279 99.6898 43.4279H99.6878ZM100.453 57.6579C99.6178 57.6579 98.7488 57.4149 98.1228 57.2759V63.9059H91.5158V38.9159H96.8708L97.8448 40.0609C98.8528 39.1589 100.279 38.5689 101.775 38.5689C104.487 38.5689 107.685 39.3319 107.685 48.0089C107.685 57.5089 102.885 57.6589 100.452 57.6589L100.453 57.6579ZM85.4298 36.6599C83.5868 36.6599 82.1618 35.1679 82.1618 33.3629C82.1618 31.5579 83.5878 30.0659 85.4298 30.0659C87.2718 30.0659 88.6998 31.5579 88.6998 33.3629C88.6998 35.1679 87.2738 36.6599 85.4298 36.6599ZM82.1248 57.2999V38.9149H88.7318V57.2999H82.1248ZM78.1248 44.0769C77.0818 44.0769 76.2818 44.4939 75.9348 44.7019V57.2999H69.3278V38.9149H74.5778L75.5518 40.6849C75.9338 39.5399 76.9778 38.5679 78.5078 38.5679C79.5508 38.5679 80.2478 38.7759 80.5578 38.9499V44.4329C79.8978 44.2599 79.0278 44.0869 78.1238 44.0869L78.1248 44.0769ZM65.5698 52.6599C65.9868 52.6599 67.4478 52.4519 67.9338 52.3819V57.0669C66.9258 57.3099 64.6998 57.6669 63.2398 57.6669C61.3618 57.6669 57.8398 57.4589 57.8398 52.3669V43.1349H55.4058V38.9349H57.8398L58.6748 34.7699L64.4468 33.3819V38.9349H67.9238L67.0538 43.1349H64.4458V51.1869C64.4458 52.4369 64.8278 52.6789 65.5578 52.6789L65.5698 52.6599ZM48.4938 44.2259C48.4938 44.9559 48.9808 45.1979 50.1278 45.7179L50.8238 46.0309C52.4578 46.7609 54.7178 47.9409 54.7178 51.4109C54.7178 56.9639 50.5798 57.6579 47.6238 57.6579C45.7108 57.6579 43.6938 57.2079 42.3378 56.7909V52.0359C43.5198 52.3489 45.5718 52.8339 46.4758 52.8339C47.4838 52.8339 48.2488 52.6959 48.2488 51.7939C48.2488 51.0999 47.7618 50.7879 46.6838 50.3019L45.8488 49.9199C44.2838 49.1899 42.0488 47.9419 42.0488 44.5749C42.0488 39.6469 45.9088 38.5709 49.1428 38.5709C51.5768 38.5709 53.1768 39.1259 54.0108 39.4389V44.0549C53.0368 43.7429 51.0558 43.3249 49.8728 43.3249C49.0728 43.3249 48.4828 43.5329 48.4828 44.2269L48.4938 44.2259Z" fill="#359AD5"/>
</svg>
