<svg width="166" height="94" viewBox="0 0 166 94" fill="none" xmlns="http://www.w3.org/2000/svg">
<path d="M58.7793 55.053V40.715H60.6343L69.4083 52.265V40.715H71.1623V55.053H69.2993L60.5263 43.403V55.053H58.7793ZM85.3993 54.5C84.2433 54.942 82.9963 55.162 81.6593 55.162C76.4663 55.162 73.8593 52.662 73.8593 47.692C73.8593 42.98 76.3663 40.622 81.3793 40.622C82.8173 40.622 84.1543 40.822 85.3793 41.225V42.829C84.1433 42.361 82.8723 42.127 81.5793 42.127C77.6793 42.127 75.7153 43.982 75.7153 47.691C75.7153 51.668 77.6393 53.657 81.4903 53.657C82.1043 53.657 82.7863 53.577 83.5353 53.415V48.543H85.3993V54.498V54.5ZM88.3593 49.528V40.726H90.2133V49.528C90.2133 52.282 91.5833 53.661 94.3253 53.661C97.0673 53.661 98.4253 52.281 98.4253 49.528V40.726H100.299V49.528C100.299 53.286 98.3113 55.164 94.3343 55.164C90.3573 55.164 88.3683 53.286 88.3683 49.528H88.3593ZM105.452 40.725V53.55H112.952V55.054H103.599V40.716H105.453L105.452 40.725ZM115.629 55.063H113.704L120.832 38.833L127.962 55.063H125.907L124.051 50.551H119.311L119.811 49.049H123.411L120.734 42.551L115.629 55.063ZM129.916 55.063V40.715H136.032C138.759 40.715 140.132 41.862 140.132 44.155C140.132 46.021 138.8 47.4 136.132 48.295L141.055 55.053H138.599L134.039 48.607V47.395C136.779 46.96 138.139 45.907 138.139 44.237C138.139 42.914 137.377 42.251 135.854 42.251H131.762V55.055H129.907L129.916 55.063ZM147.994 40.725V50.932C147.994 53.686 146.374 55.062 143.13 55.062V53.55C145.135 53.55 146.138 52.674 146.138 50.923V40.715H147.993L147.994 40.725ZM151.304 54.56V52.855C152.809 53.39 154.432 53.658 156.177 53.658C158.643 53.658 159.877 52.755 159.877 50.958C159.877 49.423 158.977 48.653 157.149 48.653H155.304C152.304 48.653 150.802 47.35 150.802 44.753C150.802 42.013 152.725 40.641 156.569 40.641C158.239 40.641 159.794 40.843 161.231 41.244V42.948C159.793 42.413 158.239 42.145 156.569 42.145C153.962 42.145 152.669 43.015 152.669 44.752C152.669 46.288 153.551 47.057 155.314 47.057H157.159C160.213 47.057 161.741 48.361 161.741 50.957C161.741 53.765 159.891 55.169 156.186 55.169C154.442 55.169 152.818 54.967 151.314 54.566L151.304 54.56Z" fill="#CCCCCC"/>
<path d="M59.25 54.584V40.247H61.104L69.877 51.797V40.247H71.632V54.584H69.777L61.003 42.934V54.584H59.25ZM85.87 54.024C84.714 54.466 83.467 54.686 82.13 54.686C76.937 54.686 74.33 52.186 74.33 47.216C74.33 42.504 76.837 40.146 81.85 40.146C83.287 40.146 84.624 40.346 85.85 40.749V42.353C84.614 41.885 83.343 41.651 82.05 41.651C78.15 41.651 76.185 43.506 76.185 47.215C76.185 51.192 78.11 53.181 81.96 53.181C82.574 53.181 83.257 53.101 84.006 52.941V48.069H85.86V54.025L85.87 54.024ZM88.828 49.051V40.248H90.682V49.051C90.682 51.805 92.052 53.181 94.782 53.181C97.512 53.181 98.882 51.804 98.882 49.051V40.248H100.737V49.051C100.737 52.808 98.749 54.686 94.772 54.686C90.795 54.686 88.807 52.809 88.807 49.051H88.828ZM105.922 40.247V53.08H113.422V54.584H104.068V40.246H105.922V40.247ZM116.1 54.584H114.175L121.305 38.354L128.433 54.584H126.377L124.523 50.072H119.781L120.293 48.568H123.893L121.217 42.07L116.1 54.584ZM130.386 54.584V40.247H136.501C139.229 40.247 140.601 41.393 140.601 43.687C140.601 45.552 139.269 46.933 136.601 47.827L141.524 54.585H139.077L134.517 48.139V46.925C137.257 46.489 138.617 45.438 138.617 43.765C138.617 42.442 137.854 41.78 136.33 41.78H132.23V54.583H130.375L130.386 54.584Z" fill="black"/>
<path d="M148.465 40.246V50.453C148.465 53.207 146.845 54.583 143.602 54.583V53.08C145.607 53.08 146.61 52.203 146.61 50.453V40.246H148.465ZM151.773 54.082V52.378C153.278 52.912 154.901 53.181 156.646 53.181C159.112 53.181 160.346 52.278 160.346 50.473C160.346 48.937 159.446 48.168 157.619 48.168H155.773C152.773 48.168 151.271 46.865 151.271 44.268C151.271 41.528 153.193 40.168 157.037 40.168C158.707 40.168 160.262 40.37 161.699 40.771V42.476C160.261 41.941 158.707 41.673 157.037 41.673C154.43 41.673 153.137 42.543 153.137 44.28C153.137 45.817 154.017 46.585 155.782 46.585H157.628C160.681 46.585 162.21 47.889 162.21 50.485C162.21 53.293 160.36 54.697 156.655 54.697C154.911 54.697 153.287 54.495 151.782 54.095L151.773 54.082Z" fill="#A6120D"/>
<path d="M39.745 29.2051L23 35.0981L25.646 57.0361L39.763 64.7961L53.953 56.9321L56.598 34.9941L39.745 29.2051Z" fill="#B3B3B3"/>
<path d="M54.927 36.2598L39.707 31.0698V62.9398L52.463 55.8798L54.927 36.2598Z" fill="#A6120D"/>
<path d="M24.8809 36.3548L27.1489 55.9748L39.7089 62.9398V31.0698L24.8809 36.3548Z" fill="#DD1B16"/>
<path d="M43.8953 48.037L39.6953 49.997H35.2993L33.2233 55.189L29.3633 55.261L39.7163 32.229L43.9163 48.039L43.8953 48.037ZM43.4903 47.051L39.7333 39.613L36.6513 46.913H39.7053L43.4903 47.041V47.051Z" fill="#F2F2F2"/>
<path d="M39.7051 32.228L39.7331 39.613L43.2301 46.928H39.7131L39.7051 49.991L44.5681 49.996L46.8411 55.26L50.5361 55.328L39.7051 32.228Z" fill="#B3B3B3"/>
</svg>
