<svg width="166" height="96" viewBox="0 0 166 96" fill="none" xmlns="http://www.w3.org/2000/svg">
<path d="M139.04 44.5299C138.923 44.5529 138.806 44.8129 138.806 44.9539L138.759 50.0919C138.759 50.1389 138.829 50.2319 138.899 50.2319L140.819 50.2789C141.827 50.2789 142.412 50.1389 142.741 49.9969C143.584 49.5729 143.983 48.6529 143.983 47.6399C143.983 45.3539 142.39 44.4819 140.023 44.4819C139.859 44.4589 139.391 44.4589 139.039 44.5289L139.04 44.5299ZM145.086 55.0649C145.086 52.7319 143.376 51.4349 140.283 51.4349C140.143 51.4349 139.158 51.4119 138.923 51.4579C138.853 51.4819 138.759 51.5279 138.759 51.5999L138.806 56.9729C138.853 57.4209 139.181 58.0569 139.579 58.2459C139.999 58.4819 140.961 58.5289 141.617 58.5289C143.467 58.5289 145.085 57.4919 145.085 55.0649H145.086ZM134.261 43.2349L137.001 43.3049L141.734 43.2579C143.772 43.2579 146.584 43.9879 146.584 47.0519C146.584 48.5599 145.53 49.7519 144.147 50.3519C144.077 50.3749 144.077 50.4219 144.147 50.4459C146.115 50.9409 147.849 52.1659 147.849 54.4759C147.849 56.7389 146.443 58.1759 144.405 59.0719C143.163 59.6139 141.617 59.8019 140.047 59.8019C138.852 59.8019 135.642 59.6619 133.861 59.7079C133.674 59.6379 134.025 58.7879 134.189 58.6479C134.611 58.6239 134.939 58.6009 135.384 58.4579C136.017 58.2929 136.087 58.1049 136.181 57.1379L136.228 51.3179V45.5899C136.205 44.8599 135.948 44.6239 135.431 44.4819L133.837 44.2469C133.72 44.1289 134.117 43.3269 134.259 43.2339L134.261 43.2349ZM120.741 57.8949C121.304 58.3419 122.405 58.5309 123.389 58.5309C124.654 58.5309 125.919 58.2959 127.139 57.1879C128.381 56.0579 129.249 54.3129 129.249 51.5319C129.249 48.8689 128.242 46.6999 126.179 45.4279C125.007 44.6979 123.509 44.3909 121.774 44.3909C121.259 44.3909 120.767 44.4139 120.462 44.5559C120.392 44.6029 120.228 44.8159 120.228 44.9329C120.181 45.4029 120.181 49.0329 120.181 51.1549L120.228 56.7649C120.228 57.1189 120.392 57.6609 120.743 57.8949H120.741ZM115.421 43.2349L118.397 43.3049L123.717 43.2349C126.06 43.2349 128.027 43.8709 129.434 45.0729C131.134 46.5579 132.034 48.6079 132.034 51.1059C132.034 54.6659 130.417 56.7159 128.8 57.8939C127.184 59.0959 125.075 59.8039 122.076 59.8039C120.483 59.8039 117.741 59.7569 115.468 59.7339H115.445C115.328 59.5219 115.632 58.6969 115.82 58.6739C116.43 58.6039 116.593 58.5799 116.898 58.4619C117.39 58.2719 117.484 58.0139 117.554 57.1419L117.601 51.3439L117.577 45.6879C117.507 44.8629 117.157 44.6509 116.452 44.5099L114.976 44.2749C114.882 44.1099 115.304 43.3789 115.421 43.2379V43.2349Z" fill="#8E714E"/>
<path d="M87.0705 58.8133C86.4846 58.7433 86.0635 58.6483 85.5475 58.4133C85.4775 58.3663 85.3596 58.1303 85.3596 58.0363L85.3125 53.2763C85.3125 52.0033 85.1025 50.8963 84.5625 50.1183C84.2646 49.6735 83.8594 49.3108 83.3844 49.0637C82.9094 48.8166 82.3799 48.693 81.8446 48.7043C80.8146 48.7043 79.4315 49.4113 78.2825 50.4013C78.2595 50.4243 78.0726 50.5913 78.0956 50.3313C78.0956 50.0713 78.1426 49.5533 78.1656 49.2013C78.1895 48.8713 78.0015 48.7063 78.0015 48.7063C77.2515 49.0833 75.1436 49.5783 74.3696 49.6483C73.8076 49.7663 73.6665 50.3083 74.2525 50.4983H74.2756C74.9076 50.6863 75.3295 50.8983 75.6575 51.1113C75.8915 51.2993 75.8675 51.5593 75.8675 51.7713L75.8205 57.7343C75.7976 58.3243 75.6335 58.5343 75.2105 58.6293L75.2576 58.6063L74.2736 58.7943C74.1336 58.9343 74.1336 59.6903 74.2736 59.8543L77.0155 59.7843L79.7555 59.8543C79.9195 59.6663 79.9655 58.9583 79.8726 58.7943C79.4276 58.7713 79.0995 58.7243 78.7945 58.6293C78.3725 58.5353 78.2546 58.3233 78.2316 57.8293L78.1855 52.1493C78.1855 51.6543 78.3255 51.4193 78.4655 51.2773C79.0055 50.8073 79.8715 50.4773 80.6455 50.4773C81.3955 50.4773 81.8876 50.7133 82.2626 51.0193C82.7775 51.4433 82.9426 52.0563 83.0126 52.5043C83.1296 53.5173 83.0826 55.5213 83.0826 57.2643C83.0826 58.2073 83.0126 58.4423 82.6626 58.5603C82.4986 58.6303 82.0765 58.7253 81.5845 58.7723C81.4205 58.9373 81.4675 59.6683 81.5845 59.8323L84.2326 59.7623L86.9976 59.8323C87.1146 59.6923 87.1616 59.0073 87.0676 58.8183L87.0705 58.8133ZM93.5705 49.8103C92.3285 49.8103 91.5555 50.7763 91.5555 52.2843C91.5555 53.8163 92.2355 55.5843 94.1555 55.5843C94.4835 55.5843 95.0926 55.4443 95.3736 55.1143C95.8186 54.6903 96.1236 53.8413 96.1236 52.9463C96.1236 50.9903 95.1636 49.8123 93.5695 49.8123L93.5705 49.8103ZM93.4065 60.2273C92.9385 60.2273 92.6096 60.3673 92.3996 60.4873C91.4156 61.1233 90.9696 61.7373 90.9696 62.4673C90.9696 63.1503 91.2276 63.6923 91.7896 64.1643C92.4696 64.7543 93.4065 65.0363 94.6015 65.0363C97.0015 65.0363 98.0455 63.7403 98.0455 62.4663C98.0455 61.5703 97.6005 60.9813 96.6855 60.6513C96.0295 60.3683 94.8355 60.2273 93.4055 60.2273H93.4065ZM93.5705 66.3553C92.1405 66.3553 91.1105 66.0493 90.2206 65.3553C89.3535 64.6953 88.9785 63.7053 88.9785 63.0223C88.9785 62.8343 89.0255 62.3153 89.4485 61.8443C89.7055 61.5613 90.2685 61.0193 91.6045 60.1003C91.6515 60.0773 91.6746 60.0533 91.6746 60.0063C91.6746 59.9593 91.6276 59.9123 91.5806 59.8893C90.4806 59.4653 90.1505 58.7813 90.0575 58.4043V58.3573C90.0345 58.2173 89.9875 58.0743 90.1975 57.9333L90.8535 57.5093L91.9315 56.8023C91.9785 56.7553 91.9785 56.7083 91.9785 56.6623C91.9785 56.6163 91.9316 56.5683 91.8846 56.5443C90.2446 56.0023 89.4246 54.7763 89.4246 52.9383C89.4246 51.7363 89.9646 50.6523 90.9246 49.9683C91.5806 49.4503 93.2205 48.8133 94.2985 48.8133H94.3685C95.4685 48.8363 96.0686 49.0733 96.9455 49.3793C97.4156 49.5443 97.8596 49.6143 98.4686 49.6143C99.3826 49.6143 99.7806 49.3313 100.109 49.0023C100.133 49.0493 100.179 49.1673 100.203 49.4723C100.22 49.8571 100.113 50.2372 99.8976 50.5563C99.7106 50.8163 99.2875 51.0043 98.8675 51.0043H98.7505L98.1405 50.9103L98.0475 50.9573C98.0245 51.0043 98.0476 51.0513 98.0705 51.1223L98.0946 51.1693C98.1416 51.3813 98.2346 52.0173 98.2346 52.1823C98.2346 54.1153 97.4615 54.9623 96.6415 55.5993C95.8445 56.1893 94.9416 56.5653 93.9016 56.6593C93.8786 56.6593 93.7845 56.6593 93.5735 56.6823C93.4565 56.6823 93.2935 56.7063 93.2685 56.7063H93.2456C93.0586 56.7533 92.5895 56.9893 92.5895 57.3893C92.5895 57.7423 92.7995 58.1673 93.8075 58.2393L94.4635 58.2863C95.7995 58.3803 97.4636 58.4983 98.2355 58.7563C98.7551 58.9407 99.2038 59.283 99.5189 59.7353C99.834 60.1876 99.9996 60.7271 99.9925 61.2783C99.9925 63.0223 98.7506 64.6483 96.6886 65.6623C95.711 66.1112 94.6482 66.3444 93.5725 66.3463L93.5705 66.3553ZM106.926 49.9283C106.434 49.9283 105.989 50.0453 105.661 50.2813C104.747 50.8473 104.279 51.9783 104.279 53.6283C104.279 56.7163 105.825 58.8843 108.029 58.8843C108.685 58.8843 109.201 58.6943 109.646 58.3183C110.326 57.7523 110.676 56.6213 110.676 55.0423C110.676 51.9783 109.153 49.9283 106.926 49.9283ZM107.348 60.0153C103.365 60.0153 101.935 57.0693 101.935 54.3123C101.935 52.3793 102.708 50.8953 104.255 49.8343C105.355 49.1513 106.669 48.7743 107.84 48.7743C110.886 48.7743 113.018 50.9663 113.018 54.1243C113.018 56.2693 112.175 57.9643 110.558 59.0023C109.785 59.5203 108.448 60.0153 107.358 60.0153H107.348ZM65.5855 49.9283C65.0935 49.9283 64.6485 50.0463 64.3205 50.2813C63.4065 50.8473 62.9385 51.9783 62.9385 53.6283C62.9385 56.7163 64.4846 58.8843 66.6886 58.8843C67.3446 58.8843 67.8605 58.6943 68.3055 58.3183C68.9855 57.7523 69.3355 56.6213 69.3355 55.0423C69.3355 51.9783 67.8355 49.9283 65.5855 49.9283ZM66.0076 60.0153C62.0246 60.0153 60.5946 57.0693 60.5946 54.3123C60.5946 52.3793 61.3675 50.8953 62.9146 49.8343C64.0146 49.1513 65.3286 48.7743 66.4995 48.7743C69.5455 48.7743 71.6776 50.9663 71.6776 54.1243C71.6776 56.2693 70.8346 57.9643 69.2176 59.0023C68.4676 59.5203 67.1325 60.0153 66.0175 60.0153H66.0076ZM39.2255 59.7793C39.1785 59.7093 39.1315 59.4963 39.1555 59.2373C39.1518 59.1159 39.1757 58.9952 39.2255 58.8843C39.7175 58.8143 39.9756 58.7423 40.2556 58.6723C40.7256 58.5543 40.9116 58.2953 40.9356 57.7063L40.9825 51.7063C40.9825 51.4943 40.9825 51.2363 40.7245 51.0463C40.3495 50.8113 39.9046 50.5993 39.3186 50.4333C39.1086 50.3633 38.9686 50.2453 38.9906 50.1033C38.9906 49.9633 39.1306 49.7973 39.4356 49.7493C40.2086 49.6793 42.2236 49.1843 43.0206 48.8293C43.0676 48.8763 43.1376 49.0193 43.1376 49.2063L43.1145 49.4663L43.0676 50.3383C43.0676 50.4323 43.1616 50.5033 43.2546 50.5033C43.3016 50.5033 43.3486 50.4803 43.3946 50.4563C44.8946 49.2783 46.2525 48.8533 46.9545 48.8533C48.1025 48.8533 48.9946 49.3953 49.6726 50.5263C49.7196 50.5963 49.7665 50.6203 49.8365 50.6203C49.8835 50.6203 49.9536 50.5973 49.9766 50.5503C51.3596 49.4903 52.7415 48.8533 53.6565 48.8533C55.8365 48.8533 57.1245 50.4793 57.1245 53.2373L57.1016 55.9373L57.0785 58.0573C57.0785 58.1743 57.2425 58.5523 57.4986 58.6223C57.8265 58.7873 58.2716 58.8583 58.8586 58.9523H58.8815C58.9286 59.1173 58.8346 59.7303 58.7416 59.8483C58.6016 59.8483 58.3895 59.8483 58.1555 59.8253L56.3755 59.7783L53.4455 59.8483C53.3996 59.6603 53.3756 59.0943 53.4455 58.9523C53.8675 58.8823 54.0785 58.8123 54.3355 58.7403C54.8055 58.6003 54.9215 58.3863 54.9455 57.7743L54.9006 52.5903C54.7606 51.6473 54.0576 50.5403 52.5006 50.5403C51.9145 50.5403 51.0005 50.7763 50.1005 51.4603C50.0535 51.5073 50.0066 51.6253 50.0066 51.6963V51.7203C50.1006 52.2153 50.1005 52.7803 50.1005 53.6533V57.9893C50.1005 58.5093 50.4055 58.6253 50.6625 58.7193L51.0126 58.7893L51.7626 58.9543C51.8096 59.0483 51.8095 59.3543 51.7395 59.6143C51.7155 59.7543 51.6696 59.8263 51.6456 59.8503L48.8336 59.8033L47.3575 59.8273L46.3036 59.8503C46.2796 59.8033 46.2336 59.6383 46.2336 59.3803C46.2336 59.1683 46.2805 59.0033 46.3275 58.9563C46.4445 58.9333 46.5375 58.9093 46.6555 58.9093L47.4055 58.7693C47.8055 58.6513 47.9455 58.4393 47.9675 57.9213C48.0375 56.7433 48.1076 53.3713 47.9446 52.5243C47.6646 51.1573 46.8905 50.4743 45.6485 50.4743C44.9225 50.4743 44.0086 50.8273 43.2486 51.3943C43.1316 51.4883 43.0385 51.7243 43.0385 51.9363V53.3263L43.0616 58.0633C43.0856 58.3453 43.1785 58.6763 43.7175 58.7933C43.8345 58.8163 44.0225 58.8633 44.2575 58.8873L44.6775 58.9573C44.7245 59.0973 44.7015 59.6643 44.6075 59.8533C44.3735 59.8533 44.0926 59.8303 43.7636 59.8303L41.9366 59.7833L40.0616 59.8303C39.7336 59.7833 39.4756 59.7833 39.1946 59.7833L39.2255 59.7793Z" fill="#442D22"/>
<path d="M26.9005 65.4352L25.9405 65.1052C25.9405 65.1052 26.0575 60.1802 24.3005 59.8252C23.1305 58.4582 24.4885 1.84822 28.7055 59.6352C28.7055 59.6352 27.2525 60.3652 26.9955 61.6152C26.7155 62.8412 26.9015 65.4332 26.9015 65.4332L26.9005 65.4352Z" fill="white"/>
<path d="M26.9005 65.4352L25.9405 65.1052C25.9405 65.1052 26.0575 60.1802 24.3005 59.8252C23.1305 58.4582 24.4885 1.84822 28.7055 59.6352C28.7055 59.6352 27.2525 60.3652 26.9955 61.6152C26.7155 62.8412 26.9015 65.4332 26.9015 65.4332L26.9005 65.4352Z" fill="#A6A385"/>
<path d="M27.4155 60.6753C27.4155 60.6753 35.8275 55.1133 33.8585 43.5413C31.9605 35.1283 27.4855 32.3713 26.9935 31.3113C26.4535 30.5573 25.9395 29.2373 25.9395 29.2373L26.2915 52.6393C26.2915 52.6633 25.5655 59.8043 27.4165 60.6763" fill="white"/>
<path d="M27.4155 60.6753C27.4155 60.6753 35.8275 55.1133 33.8585 43.5413C31.9605 35.1283 27.4855 32.3713 26.9935 31.3113C26.4535 30.5573 25.9395 29.2373 25.9395 29.2373L26.2915 52.6393C26.2915 52.6633 25.5655 59.8043 27.4165 60.6763" fill="#499D4A"/>
<path d="M25.448 60.9801C25.448 60.9801 17.552 55.5601 18.02 46.0151C18.465 36.4701 24.042 31.7801 25.12 30.9321C25.823 30.1781 25.846 29.8951 25.893 29.1421C26.385 30.2021 26.291 45.0021 26.361 46.7471C26.571 53.4641 25.986 59.7101 25.447 60.9821L25.448 60.9801Z" fill="white"/>
<path d="M25.448 60.9801C25.448 60.9801 17.552 55.5601 18.02 46.0151C18.465 36.4701 24.042 31.7801 25.12 30.9321C25.823 30.1781 25.846 29.8951 25.893 29.1421C26.385 30.2021 26.291 45.0021 26.361 46.7471C26.571 53.4641 25.986 59.7101 25.447 60.9821L25.448 60.9801Z" fill="#58AA50"/>
</svg>
