<svg width="166" height="94" viewBox="0 0 166 94" fill="none" xmlns="http://www.w3.org/2000/svg">
<path d="M74.5005 53.2358C76.5825 53.2358 78.2705 54.9208 78.2705 56.9998V73.1468C78.2705 75.2268 76.5825 76.9108 74.5005 76.9108C72.4185 76.9108 70.7305 75.2258 70.7305 73.1468V56.9998C70.7305 54.9198 72.4185 53.2358 74.5005 53.2358Z" fill="#A4C639"/>
<path d="M65.8921 33.8223L65.8691 34.2553V58.7203C65.8691 61.3503 67.9551 63.4703 70.5441 63.4703H95.4591C98.0491 63.4703 100.134 61.3503 100.134 58.7203L100.117 33.8233H65.8921V33.8223Z" fill="#A4C639"/>
<path d="M91.506 53.236C93.588 53.236 95.276 54.921 95.276 57V73.147C95.276 75.227 93.588 76.911 91.506 76.911C89.424 76.911 87.736 75.226 87.736 73.147V57C87.736 54.92 89.424 53.236 91.506 53.236ZM59.813 36C61.895 36 63.583 37.685 63.583 39.764V55.91C63.583 57.99 61.895 59.674 59.813 59.674C57.731 59.674 56.043 57.989 56.043 55.91V39.764C56.043 37.684 57.73 36 59.813 36ZM106.193 36C108.275 36 109.963 37.685 109.963 39.764V55.91C109.963 57.99 108.275 59.674 106.193 59.674C104.111 59.674 102.423 57.989 102.423 55.91V39.764C102.425 38.7652 102.822 37.8078 103.529 37.1021C104.236 36.3964 105.194 36 106.193 36ZM66.003 32.216C66.108 24.701 72.676 18.54 81.108 17.728H84.896C93.328 18.54 99.896 24.702 100.001 32.216H66.003Z" fill="#A4C639"/>
<path d="M98.6905 17.002L94.7134 23.88M67.3145 17.002L71.2905 23.88L67.3145 17.002Z" stroke="#A4C639" stroke-width="0.793" stroke-linecap="round" stroke-linejoin="round"/>
<path d="M77.9381 25.4798C77.9411 26.5298 77.0711 27.3838 75.9931 27.3868C74.9151 27.3898 74.0411 26.5408 74.0371 25.4898V25.4798C74.0341 24.4298 74.9051 23.5758 75.9821 23.5728C77.0591 23.5698 77.9341 24.4188 77.9381 25.4698V25.4798ZM92.4961 25.4798C92.4991 26.5298 91.6291 27.3838 90.5511 27.3868C89.4731 27.3898 88.5991 26.5408 88.5951 25.4898V25.4798C88.5921 24.4298 89.4631 23.5758 90.5401 23.5728C91.6171 23.5698 92.4921 24.4188 92.4961 25.4698V25.4798Z" fill="white"/>
</svg>
