<svg width="166" height="94" viewBox="0 0 166 94" fill="none" xmlns="http://www.w3.org/2000/svg">
<path d="M83.4706 75.8361C83.1526 75.8361 82.8556 75.7521 82.5806 75.6061L79.7586 73.9491C79.3346 73.7191 79.5466 73.6341 79.6736 73.5921C80.2466 73.4021 80.3536 73.3621 80.9466 73.0261C81.0106 72.9841 81.0966 73.0061 81.1586 73.0461L83.3226 74.3261C83.4076 74.3681 83.5126 74.3681 83.5766 74.3261L92.0426 69.4801C92.1276 69.4381 92.1696 69.3541 92.1696 69.2501V59.5781C92.1696 59.4731 92.1266 59.3881 92.0426 59.3481L83.5766 54.5231C83.4916 54.4811 83.3866 54.4811 83.3226 54.5231L74.8566 59.3481C74.7716 59.3901 74.7296 59.4951 74.7296 59.5781V69.2501C74.7296 69.3341 74.7726 69.4401 74.8566 69.4801L77.1696 70.8021C78.4216 71.4321 79.2066 70.6971 79.2066 69.9621V60.4161C79.2066 60.2901 79.3126 60.1641 79.4616 60.1641H80.5436C80.6706 60.1641 80.7986 60.2691 80.7986 60.4161V69.9621C80.7986 71.6191 79.8866 72.5851 78.2946 72.5851C77.8066 72.5851 77.4246 72.5851 76.3426 72.0601L74.1146 70.8001C73.5626 70.4851 73.2246 69.8981 73.2246 69.2681V59.5961C73.2246 58.9661 73.5646 58.3791 74.1146 58.0641L82.5806 53.2181C83.1106 52.9241 83.8326 52.9241 84.3636 53.2181L92.8296 58.0641C93.3816 58.3791 93.7196 58.9661 93.7196 59.5961V69.2681C93.7196 69.8981 93.3796 70.4851 92.8296 70.8001L84.3636 75.6461C84.0831 75.7708 83.7796 75.8352 83.4726 75.8351L83.4706 75.8361ZM86.0706 69.1861C82.3576 69.1861 81.5936 67.5081 81.5936 66.0811C81.5936 65.9551 81.6996 65.8291 81.8486 65.8291H82.9516C83.0786 65.8291 83.1846 65.9131 83.1846 66.0291C83.3546 67.1411 83.8426 67.6861 86.0916 67.6861C87.8736 67.6861 88.6376 67.2861 88.6376 66.3431C88.6376 65.7981 88.4256 65.3991 85.6456 65.1261C83.3326 64.8961 81.8896 64.3921 81.8896 62.5661C81.8896 60.8661 83.3326 59.8591 85.7516 59.8591C88.4676 59.8591 89.8046 60.7821 89.9746 62.7961C89.9746 62.8591 89.9546 62.9221 89.9106 62.9861C89.8676 63.0281 89.8046 63.0701 89.7406 63.0701H88.6376C88.5316 63.0701 88.4256 62.9861 88.4046 62.8801C88.1496 61.7261 87.4926 61.3481 85.7526 61.3481C83.8006 61.3481 83.5666 62.0181 83.5666 62.5231C83.5666 63.1311 83.8426 63.3201 86.4736 63.6561C89.0736 63.9921 90.3136 64.4741 90.3136 66.2791C90.2936 68.1251 88.7636 69.1741 86.0696 69.1741L86.0706 69.1861Z" fill="#539E43"/>
<path d="M57.2 38.0081C57.2 37.6301 56.988 37.2741 56.648 37.0851L47.651 31.9651C47.501 31.8811 47.333 31.8391 47.163 31.8181H47.078C46.908 31.8181 46.738 31.8811 46.59 31.9651L37.593 37.0851C37.253 37.2751 37.041 37.6301 37.041 38.0081L37.061 51.7711C37.0605 51.866 37.086 51.9592 37.1346 52.0406C37.1832 52.122 37.2532 52.1886 37.337 52.2331C37.507 52.3381 37.719 52.3381 37.867 52.2331L43.214 49.2131C43.554 49.0231 43.766 48.6681 43.766 48.2901V41.8501C43.766 41.4721 43.978 41.1161 44.318 40.9271L46.588 39.6271C46.758 39.5221 46.948 39.4801 47.14 39.4801C47.3279 39.4737 47.5132 39.525 47.671 39.6271L49.941 40.9271C50.281 41.1171 50.493 41.4721 50.493 41.8501V48.2901C50.493 48.6681 50.705 49.0241 51.045 49.2131L56.392 52.2331C56.562 52.3381 56.774 52.3381 56.944 52.2331C57.0278 52.1886 57.0978 52.122 57.1464 52.0406C57.1951 51.9592 57.2205 51.866 57.22 51.7711L57.2 38.0081ZM100.445 19.0631C100.363 19.0216 100.272 19 100.18 19C100.087 19 99.9964 19.0216 99.914 19.0631C99.744 19.1681 99.638 19.3361 99.638 19.5231V33.1601C99.638 33.2861 99.574 33.4121 99.448 33.4961C99.3891 33.5271 99.3236 33.5433 99.257 33.5433C99.1905 33.5433 99.1249 33.5271 99.066 33.4961L96.816 32.2161C96.481 32.0261 96.069 32.0261 95.734 32.2161L86.737 37.3561C86.397 37.5461 86.185 37.9011 86.185 38.2791V48.5391C86.185 48.9171 86.397 49.2731 86.737 49.4621L95.734 54.6021C96.069 54.7921 96.481 54.7921 96.816 54.6021L105.813 49.4621C106.153 49.2721 106.365 48.9171 106.365 48.5391V22.9651C106.365 22.5651 106.153 22.2101 105.813 22.0211L100.445 19.0631ZM99.618 45.1631C99.618 45.2681 99.576 45.3531 99.491 45.3931L96.414 47.1551C96.327 47.1971 96.224 47.1971 96.138 47.1551L93.061 45.3931C92.976 45.3511 92.934 45.2461 92.934 45.1631V41.6381C92.934 41.5331 92.976 41.4481 93.061 41.4081L96.138 39.6461C96.225 39.6041 96.328 39.6041 96.414 39.6461L99.491 41.4081C99.576 41.4501 99.618 41.5551 99.618 41.6381V45.1631ZM130.385 41.5531C130.725 41.3631 130.915 41.0081 130.915 40.6301V38.1331C130.913 37.9467 130.863 37.764 130.77 37.6024C130.677 37.4408 130.544 37.3057 130.384 37.2101L121.451 32.0901C121.116 31.9001 120.704 31.9001 120.369 32.0901L111.372 37.2301C111.032 37.4201 110.82 37.7751 110.82 38.1531V48.4131C110.82 48.7911 111.032 49.1471 111.372 49.3361L120.305 54.3711C120.645 54.5611 121.048 54.5611 121.365 54.3711L126.775 51.3911C126.859 51.3466 126.929 51.28 126.977 51.1986C127.026 51.1172 127.052 51.024 127.051 50.9291C127.052 50.8343 127.026 50.7411 126.977 50.6596C126.929 50.5782 126.859 50.5116 126.775 50.4671L117.735 45.3271C117.565 45.2221 117.459 45.0541 117.459 44.8671V41.6671C117.459 41.5723 117.484 41.4791 117.533 41.3976C117.581 41.3162 117.651 41.2496 117.735 41.2051L120.557 39.6101C120.727 39.5051 120.94 39.5051 121.109 39.6101L123.931 41.2051C124.101 41.3101 124.207 41.4781 124.207 41.6671V44.1851C124.207 44.2798 124.232 44.3728 124.281 44.454C124.329 44.5353 124.399 44.6017 124.483 44.6461C124.653 44.7511 124.865 44.7511 125.035 44.6461L130.382 41.5621L130.385 41.5531Z" fill="#333333"/>
<path d="M120.773 41.0701C120.837 41.0281 120.921 41.0281 120.985 41.0701L122.705 42.0561C122.769 42.0981 122.811 42.1611 122.811 42.2461V44.2181C122.811 44.256 122.802 44.2934 122.783 44.3265C122.765 44.3597 122.738 44.3874 122.705 44.4071L120.985 45.3931C120.921 45.4351 120.837 45.4351 120.773 45.3931L119.053 44.4071C119.021 44.3874 118.994 44.3597 118.975 44.3265C118.957 44.2934 118.947 44.256 118.947 44.2181V42.2461C118.947 42.1621 118.989 42.0991 119.053 42.0561L120.773 41.0701Z" fill="#539E43"/>
<path d="M72.2442 32.1332C71.9092 31.9432 71.4972 31.9432 71.1622 32.1332L62.2292 37.2312C61.8892 37.4212 61.6992 37.7762 61.6992 38.1542V48.3722C61.7014 48.5586 61.7514 48.7414 61.8443 48.903C61.9373 49.0646 62.0702 49.1996 62.2302 49.2952L71.1632 54.3932C71.4982 54.5832 71.9102 54.5832 72.2452 54.3932L81.1782 49.2952C81.5182 49.1052 81.7082 48.7502 81.7082 48.3722V38.1542C81.706 37.9678 81.6561 37.7851 81.5631 37.6235C81.4701 37.4619 81.3373 37.3268 81.1772 37.2312L72.2442 32.1332Z" fill="url(#paint0_linear)"/>
<mask id="mask0" mask-type="alpha" maskUnits="userSpaceOnUse" x="61" y="31" width="21" height="24">
<path d="M72.2442 32.1332C71.9092 31.9432 71.4972 31.9432 71.1622 32.1332L62.2292 37.2312C61.8892 37.4212 61.6992 37.7762 61.6992 38.1542V48.3722C61.7014 48.5586 61.7514 48.7414 61.8443 48.903C61.9373 49.0646 62.0702 49.1996 62.2302 49.2952L71.1632 54.3932C71.4982 54.5832 71.9102 54.5832 72.2452 54.3932L81.1782 49.2952C81.5182 49.1052 81.7082 48.7502 81.7082 48.3722V38.1542C81.706 37.9678 81.6561 37.7851 81.5631 37.6235C81.4701 37.4619 81.3373 37.3268 81.1772 37.2312L72.2442 32.1332Z" fill="white"/>
</mask>
<g mask="url(#mask0)">
<path d="M81.1996 37.2313L72.2146 32.1333C72.1346 32.0793 72.0446 32.0543 71.9486 32.0293L61.8906 49.0643C61.9736 49.1643 62.0746 49.2503 62.1876 49.3163L71.1636 54.4143C71.4186 54.5613 71.7156 54.6043 71.9906 54.5193L81.4346 37.4413C81.367 37.3605 81.2882 37.2898 81.2006 37.2313H81.1996Z" fill="url(#paint1_linear)"/>
</g>
<mask id="mask1" mask-type="alpha" maskUnits="userSpaceOnUse" x="61" y="31" width="21" height="24">
<path d="M72.2442 32.1332C71.9092 31.9432 71.4972 31.9432 71.1622 32.1332L62.2292 37.2312C61.8892 37.4212 61.6992 37.7762 61.6992 38.1542V48.3722C61.7014 48.5586 61.7514 48.7414 61.8443 48.903C61.9373 49.0646 62.0702 49.1996 62.2302 49.2952L71.1632 54.3932C71.4982 54.5832 71.9102 54.5832 72.2452 54.3932L81.1782 49.2952C81.5182 49.1052 81.7082 48.7502 81.7082 48.3722V38.1542C81.706 37.9678 81.6561 37.7851 81.5631 37.6235C81.4701 37.4619 81.3373 37.3268 81.1772 37.2312L72.2442 32.1332Z" fill="white"/>
</mask>
<g mask="url(#mask1)">
<path fill-rule="evenodd" clip-rule="evenodd" d="M81.2195 49.2952C81.4745 49.1482 81.6655 48.8952 81.7495 48.6252L71.9035 32.0092C71.6485 31.9672 71.3735 31.9892 71.1395 32.1352L62.2285 37.2112L71.8405 54.5412C71.9801 54.5185 72.1158 54.4761 72.2435 54.4152L81.2195 49.2952Z" fill="url(#paint2_linear)"/>
<path d="M81.2203 49.295L72.2663 54.393C72.1398 54.4569 72.0036 54.4994 71.8633 54.519L72.0333 54.834L81.9633 49.149V49.023L81.7083 48.603C81.6663 48.897 81.4753 49.148 81.2203 49.295Z" fill="url(#paint3_linear)"/>
<path d="M81.2203 49.295L72.2663 54.393C72.1398 54.4569 72.0036 54.4994 71.8633 54.519L72.0333 54.834L81.9633 49.149V49.023L81.7083 48.603C81.6663 48.897 81.4753 49.148 81.2203 49.295Z" fill="url(#paint4_linear)"/>
</g>
<defs>
<linearGradient id="paint0_linear" x1="74.571" y1="35.9332" x2="66.8308" y2="51.5433" gradientUnits="userSpaceOnUse">
<stop stop-color="#41873F"/>
<stop offset="0.3288" stop-color="#418B3D"/>
<stop offset="0.6352" stop-color="#419637"/>
<stop offset="0.9319" stop-color="#3FA92D"/>
<stop offset="1" stop-color="#3FAE2A"/>
</linearGradient>
<linearGradient id="paint1_linear" x1="70.6743" y1="44.4607" x2="89.6754" y2="30.5784" gradientUnits="userSpaceOnUse">
<stop offset="0.1376" stop-color="#41873F"/>
<stop offset="0.4032" stop-color="#54A044"/>
<stop offset="0.7136" stop-color="#66B848"/>
<stop offset="0.9081" stop-color="#6CC04A"/>
</linearGradient>
<linearGradient id="paint2_linear" x1="61.3717" y1="43.265" x2="82.0421" y2="43.265" gradientUnits="userSpaceOnUse">
<stop offset="0.09192" stop-color="#6CC04A"/>
<stop offset="0.2864" stop-color="#66B848"/>
<stop offset="0.5968" stop-color="#54A044"/>
<stop offset="0.8624" stop-color="#41873F"/>
</linearGradient>
<linearGradient id="paint3_linear" x1="61.3733" y1="51.7357" x2="82.0438" y2="51.7357" gradientUnits="userSpaceOnUse">
<stop offset="0.09192" stop-color="#6CC04A"/>
<stop offset="0.2864" stop-color="#66B848"/>
<stop offset="0.5968" stop-color="#54A044"/>
<stop offset="0.8624" stop-color="#41873F"/>
</linearGradient>
<linearGradient id="paint4_linear" x1="85.0552" y1="45.5271" x2="78.6453" y2="58.4563" gradientUnits="userSpaceOnUse">
<stop stop-color="#41873F"/>
<stop offset="0.3288" stop-color="#418B3D"/>
<stop offset="0.6352" stop-color="#419637"/>
<stop offset="0.9319" stop-color="#3FA92D"/>
<stop offset="1" stop-color="#3FAE2A"/>
</linearGradient>
</defs>
</svg>
