<svg width="166" height="94" viewBox="0 0 166 94" fill="none" xmlns="http://www.w3.org/2000/svg">
<path d="M40.279 26.7681C39.617 27.1621 38.514 28.2641 37.207 29.8611L38.412 32.1361C39.255 30.9241 40.112 29.8381 40.988 28.9091L41.09 28.8091C41.058 28.8491 41.02 28.8791 40.988 28.9091C40.704 29.2161 39.854 30.2091 38.568 32.1831C39.805 32.1201 41.703 31.8681 43.255 31.6011C43.72 29.0191 42.805 27.8381 42.805 27.8381C42.805 27.8381 41.639 25.9581 40.275 26.7681H40.279Z" fill="url(#paint0_linear)"/>
<path d="M36.223 45.864L35.75 45.964C35.8324 45.9509 35.9139 45.9325 35.994 45.909C36.0713 45.8968 36.1476 45.8784 36.222 45.854L36.223 45.864Z" fill="#BE202E"/>
<path opacity="0.35" d="M36.223 45.864L35.75 45.964C35.8324 45.9509 35.9139 45.9325 35.994 45.909C36.0713 45.8968 36.1476 45.8784 36.222 45.854L36.223 45.864Z" fill="#BE202E"/>
<path d="M36.6328 43.9C36.6568 43.9 36.6798 43.89 36.7028 43.89L37.0028 43.813L36.6328 43.901V43.9Z" fill="#BE202E"/>
<path opacity="0.35" d="M36.6328 43.9C36.6568 43.9 36.6798 43.89 36.7028 43.89L37.0028 43.813L36.6328 43.901V43.9Z" fill="#BE202E"/>
<path d="M34.8528 38.0081L35.9638 36.0001L37.1458 34.0321L37.2158 33.9321L38.4158 32.1371L37.1998 29.8601L36.9238 30.1981L35.8438 31.5911L34.5598 33.3611L33.3398 35.1641L32.2998 36.8011L32.2598 36.8641L33.8278 39.9571L34.8518 38.0051L34.8528 38.0081Z" fill="url(#paint1_linear)"/>
<path d="M27.7073 55.4601L27.0853 57.2071C27.0853 57.2151 27.0773 57.2231 27.0773 57.2311L26.4473 59.0651C26.9123 59.2781 27.2823 59.8291 27.6293 60.4581C27.5893 59.8051 27.3223 59.1911 26.8093 58.7181C29.0863 58.8201 31.0553 58.2461 32.0643 56.5781L32.3163 56.1061C31.8513 56.6881 31.2843 56.9401 30.2063 56.8761C31.7893 56.1681 32.5863 55.4831 33.2863 54.3561L33.7823 53.4741C32.3953 54.8991 30.7883 55.3001 29.0953 54.9941L27.8273 55.1361L27.7093 55.4591L27.7073 55.4601Z" fill="url(#paint2_linear)"/>
<path d="M28.3003 52.617L29.1433 50.467L29.9933 48.381L30.8933 46.279L31.8383 44.146L32.8083 42.052L33.1703 41.304L33.8003 40.029C33.8083 40.005 33.8243 39.982 33.8323 39.959L32.2803 36.873C32.2563 36.913 32.2333 36.96 32.2003 36.999L31.1133 38.825L30.0493 40.745L29.1893 42.405L29.0243 42.743L28.0943 44.783L27.2593 46.9L26.8193 48.175L26.5043 49.222L25.9043 51.678L27.4803 54.788L28.1183 53.096L28.3083 52.616L28.3003 52.617Z" fill="url(#paint3_linear)"/>
<path d="M25.8719 51.79C25.6749 52.782 25.5319 53.774 25.4719 54.765C25.4719 54.795 25.4639 54.835 25.4639 54.867C24.9759 54.08 23.6519 53.307 23.6599 53.317C24.6049 54.687 25.3219 56.04 25.4249 57.371C24.9209 57.473 24.2279 57.324 23.4319 57.033C24.2669 57.797 24.8889 58.009 25.1339 58.063C24.3699 58.11 23.5739 58.638 22.7709 59.243C23.9449 58.763 24.8979 58.573 25.5759 58.731C24.4959 61.777 23.4159 65.146 22.3379 68.721C22.6679 68.627 22.8659 68.398 22.9759 68.099C23.1659 67.454 24.4489 63.203 26.4499 57.622L26.6229 57.142C26.6389 57.095 26.6549 57.055 26.6699 57.008L27.3319 55.213L27.4899 54.796L25.9139 51.679C25.8996 51.7145 25.8889 51.7513 25.8819 51.789L25.8719 51.79Z" fill="url(#paint4_linear)"/>
<path d="M34.0793 40.228L33.9453 40.503L33.5453 41.361L33.0883 42.329L32.8523 42.833L32.1353 44.415L31.2293 46.501L30.3293 48.634L29.4623 50.799L28.6743 52.846C28.6583 52.876 28.6503 52.916 28.6343 52.948L27.8383 55.088C27.8303 55.104 27.8223 55.118 27.8223 55.135L29.0903 54.993C29.0663 54.985 29.0433 54.985 29.0103 54.977C30.5303 54.787 32.5473 53.655 33.8473 52.254C34.4473 51.609 34.9893 50.854 35.4933 49.964C35.8944 49.2499 36.2498 48.5111 36.5573 47.752L37.4003 45.438C37.0533 45.618 36.6523 45.753 36.2003 45.848L35.9643 45.895L35.7203 45.935C37.1383 45.392 38.0283 44.335 38.6743 43.055C38.3043 43.307 37.6973 43.637 36.9723 43.803C36.8773 43.827 36.7753 43.843 36.6723 43.858C36.6483 43.858 36.6253 43.866 36.5923 43.866C37.0433 43.6848 37.4694 43.4469 37.8603 43.158C37.9374 43.102 38.0112 43.0416 38.0813 42.977C38.1813 42.883 38.2943 42.78 38.3963 42.677L38.5863 42.472C38.7283 42.307 38.8623 42.126 38.9803 41.929L39.0803 41.749L39.2143 41.481L39.6943 40.418L39.8593 39.985C39.8753 39.93 39.8993 39.883 39.9143 39.828L40.0403 39.428L40.1353 39.011C40.0883 39.051 40.0333 39.091 39.9703 39.111C39.5453 39.363 38.8123 39.599 38.2203 39.709L39.3863 39.583L38.2203 39.709C38.2123 39.709 38.2043 39.709 38.1963 39.717L38.0163 39.747C38.0243 39.739 38.0403 39.739 38.0483 39.731L34.0623 40.164C34.0703 40.194 34.0623 40.211 34.0543 40.219L34.0793 40.228Z" fill="url(#paint5_linear)"/>
<path d="M38.5695 32.1832L37.4115 34.0412C37.3875 34.0812 37.3645 34.1112 37.3485 34.1412L36.2065 36.1412L35.1195 38.1712L34.1035 40.1782L38.0895 39.7452C39.2475 39.2102 39.7675 38.7302 40.2715 38.0292L40.6735 37.4232C41.0735 36.7852 41.4835 36.0852 41.8395 35.3832L42.7215 33.4392L43.0765 32.3842L43.2495 31.5972L38.5695 32.1722V32.1832Z" fill="url(#paint6_linear)"/>
<path d="M35.994 45.9202C35.914 45.9422 35.836 45.9532 35.75 45.9752C35.83 45.9532 35.908 45.9312 35.994 45.9202Z" fill="#BE202E"/>
<path opacity="0.35" d="M35.994 45.9202C35.914 45.9422 35.836 45.9532 35.75 45.9752C35.83 45.9532 35.908 45.9312 35.994 45.9202Z" fill="#BE202E"/>
<path d="M35.994 45.9202C35.914 45.9422 35.836 45.9532 35.75 45.9752C35.83 45.9532 35.908 45.9312 35.994 45.9202Z" fill="url(#paint7_linear)"/>
<path d="M36.625 43.9001C36.658 43.9001 36.691 43.8901 36.725 43.8901C36.692 43.8901 36.659 43.9001 36.625 43.9001Z" fill="#BE202E"/>
<path opacity="0.35" d="M36.625 43.9001C36.658 43.9001 36.691 43.8901 36.725 43.8901C36.692 43.8901 36.659 43.9001 36.625 43.9001Z" fill="#BE202E"/>
<path d="M36.625 43.9001C36.658 43.9001 36.691 43.8901 36.725 43.8901C36.692 43.8901 36.659 43.9001 36.625 43.9001Z" fill="url(#paint8_linear)"/>
<path d="M38.4597 39.7351V40.4731H38.2977V39.7351H38.0938V39.5581H38.6577V39.7351H38.4597ZM39.4127 39.8971L39.2207 40.3971H39.1247L38.9327 39.8971V40.4741H38.7767V39.5591H38.9927L39.1787 40.0591L39.3647 39.5591H39.5807V40.4741H39.4247V39.8971H39.4127Z" fill="#B0AFB0"/>
<path d="M45.0035 67.598C44.3375 67.598 43.7535 67.562 43.2535 67.491C42.7515 67.431 42.3265 67.353 41.9785 67.261V63.3L43.1765 63.515C43.5765 63.575 44.0365 63.607 44.5285 63.607C44.9985 63.607 45.4345 63.557 45.8345 63.454C46.2253 63.3613 46.5886 63.1773 46.8945 62.917C47.2015 62.671 47.4375 62.339 47.6015 61.919C47.7755 61.499 47.8615 60.973 47.8615 60.339V38.562H52.6215V60.186C52.6215 61.476 52.4315 62.586 52.0535 63.516C51.6835 64.446 51.1635 65.214 50.4865 65.818C49.8205 66.432 49.0225 66.882 48.0905 67.168C47.1585 67.454 46.1305 67.598 45.0035 67.598Z" fill="url(#paint9_linear)"/>
<path d="M45.0035 67.598C44.3375 67.598 43.7535 67.562 43.2535 67.491C42.7515 67.431 42.3265 67.353 41.9785 67.261V63.3L43.1765 63.515C43.5765 63.575 44.0365 63.607 44.5285 63.607C44.9985 63.607 45.4345 63.557 45.8345 63.454C46.2253 63.3613 46.5886 63.1773 46.8945 62.917C47.2015 62.671 47.4375 62.339 47.6015 61.919C47.7755 61.499 47.8615 60.973 47.8615 60.339V38.562H52.6215V60.186C52.6215 61.476 52.4315 62.586 52.0535 63.516C51.6835 64.446 51.1635 65.214 50.4865 65.818C49.8205 66.432 49.0225 66.882 48.0905 67.168C47.1585 67.454 46.1305 67.598 45.0035 67.598" stroke="#D22128" stroke-width="0.55"/>
<path d="M64.2058 61L59.2758 43.397H59.1378L59.2918 46.129L59.3378 47.295L59.3838 48.477L59.4138 49.597L59.4288 50.564V61H55.1738V38.562H61.6558L66.5008 55.72H66.5928L71.7528 38.562H78.2348V61H73.7948V49.474L73.8248 48.4L73.8548 47.25L73.9008 46.114L74.0088 43.428H73.8858L68.5828 61H64.2058ZM87.7608 46.85C87.3729 46.8406 86.9874 46.9138 86.6298 47.0646C86.2723 47.2155 85.9508 47.4406 85.6868 47.725C85.1438 48.308 84.8318 49.225 84.7498 50.472H90.7248C90.7195 49.9844 90.6523 49.4996 90.5248 49.029C90.4018 48.589 90.2178 48.211 89.9718 47.893C89.7258 47.566 89.4188 47.31 89.0498 47.126C88.6808 46.942 88.2498 46.85 87.7498 46.85H87.7608ZM88.3498 61.307C87.1198 61.307 85.9898 61.127 84.9558 60.77C83.9218 60.413 83.0308 59.875 82.2828 59.17C81.5348 58.444 80.9528 57.533 80.5328 56.438C80.1328 55.333 79.9188 54.038 79.9188 52.555C79.9188 51.051 80.1188 49.735 80.4868 48.611C80.8548 47.487 81.3928 46.549 82.0688 45.803C82.7548 45.046 83.5738 44.478 84.5268 44.1C85.4898 43.72 86.5538 43.532 87.7218 43.532C88.8588 43.532 89.8818 43.706 90.7938 44.054C91.7158 44.392 92.4938 44.894 93.1288 45.558C93.7738 46.223 94.2658 47.042 94.6038 48.013C94.9518 48.975 95.1258 50.08 95.1258 51.328V53.598H84.6588C84.6788 54.253 84.7818 54.846 84.9658 55.378C85.1608 55.9 85.4258 56.345 85.7658 56.713C86.1138 57.071 86.5288 57.347 87.0098 57.543C87.5098 57.737 88.0598 57.835 88.6838 57.835C89.2058 57.835 89.6978 57.809 90.1588 57.758C90.6288 57.698 91.0858 57.61 91.5258 57.498C91.9687 57.3848 92.4047 57.2466 92.8318 57.084L94.1518 56.484V60.106C93.751 60.3197 93.3353 60.5042 92.9078 60.658C92.4805 60.8075 92.0443 60.9304 91.6018 61.026C91.1418 61.128 90.6448 61.2 90.1018 61.241L88.3518 61.318L88.3498 61.307ZM104.535 57.588C104.975 57.5906 105.413 57.5393 105.841 57.435C106.272 57.3291 106.698 57.2009 107.116 57.051V60.535C106.676 60.76 106.128 60.935 105.473 61.087C104.828 61.24 104.121 61.317 103.353 61.317C102.648 61.3224 101.946 61.2346 101.264 61.056C100.641 60.8941 100.066 60.5835 99.5898 60.151C99.1198 59.711 98.7448 59.128 98.4698 58.401C98.2038 57.664 98.0698 56.744 98.0698 55.639V47.367H95.8278V45.387L98.4078 43.822L99.7598 40.2H102.755V43.853H106.933V47.367H102.755V55.639C102.755 56.304 102.919 56.795 103.247 57.112C103.575 57.429 104.005 57.588 104.547 57.588H104.535ZM115.963 46.861C115.575 46.8516 115.189 46.9248 114.832 47.0756C114.474 47.2265 114.153 47.4516 113.889 47.736C113.346 48.319 113.034 49.236 112.952 50.483H118.927C118.922 49.9954 118.854 49.5106 118.727 49.04C118.604 48.6 118.42 48.222 118.174 47.904C117.928 47.577 117.621 47.321 117.252 47.137C116.883 46.953 116.452 46.861 115.952 46.861H115.963ZM116.552 61.318C115.322 61.318 114.192 61.138 113.158 60.781C112.124 60.424 111.233 59.886 110.485 59.181C109.737 58.455 109.155 57.544 108.735 56.449C108.335 55.344 108.121 54.049 108.121 52.566C108.121 51.062 108.321 49.746 108.689 48.622C109.057 47.498 109.595 46.56 110.271 45.814C110.957 45.057 111.776 44.489 112.729 44.111C113.692 43.731 114.756 43.543 115.924 43.543C117.061 43.543 118.084 43.717 118.996 44.065C119.918 44.403 120.696 44.905 121.331 45.569C121.976 46.234 122.468 47.053 122.806 48.024C123.154 48.986 123.328 50.091 123.328 51.339V53.609H112.861C112.881 54.264 112.984 54.857 113.168 55.389C113.363 55.911 113.628 56.356 113.968 56.724C114.316 57.082 114.731 57.358 115.212 57.554C115.712 57.748 116.262 57.846 116.886 57.846C117.408 57.846 117.9 57.82 118.361 57.769C118.831 57.709 119.288 57.621 119.728 57.509C120.171 57.3958 120.607 57.2576 121.034 57.095L122.354 56.495V60.117C121.953 60.3307 121.537 60.5152 121.11 60.669C120.683 60.8185 120.246 60.9414 119.804 61.037C119.344 61.139 118.847 61.211 118.304 61.252L116.554 61.329L116.552 61.318ZM133.554 43.541L133.954 43.556C134.098 43.5554 134.241 43.5657 134.384 43.587L134.768 43.633C134.861 43.6381 134.954 43.6535 135.044 43.679V48.079C134.932 48.0531 134.819 48.0328 134.706 48.018L134.246 47.972C134.093 47.9514 133.939 47.9411 133.785 47.941L133.401 47.926C132.835 47.9206 132.271 47.9981 131.727 48.156C131.239 48.3012 130.791 48.5587 130.421 48.908C130.063 49.246 129.781 49.696 129.576 50.258C129.381 50.81 129.284 51.491 129.284 52.298V61H124.599V43.84H128.147L128.847 46.418H129.077C129.323 45.978 129.589 45.578 129.877 45.221C130.165 44.864 130.481 44.561 130.829 44.316C131.187 44.06 131.587 43.866 132.027 43.733C132.477 43.59 132.99 43.518 133.563 43.518L133.554 43.541ZM139.761 43.478H138.721V39.424H137.484V38.554H140.996V39.424H139.763V43.478H139.761ZM143.735 43.478L142.653 39.616H142.623L142.657 40.216L142.677 40.732L142.684 40.978L142.687 41.19V43.49H141.753V38.567H143.175L144.24 42.332H144.26L145.392 38.567H146.814V43.5H145.84V40.97L145.847 40.734L145.854 40.481L145.864 40.231L145.888 39.631H145.861L144.695 43.487H143.735" fill="black"/>
<path d="M47.795 35.1122L51.158 27.0822H51.806L55.169 35.1122H54.323L53.279 32.6042H49.663L48.633 35.1122H47.793H47.795ZM51.495 28.0092L49.845 31.9762H53.105L51.505 28.0092H51.495ZM56.039 35.1122V27.0822H59.369C60.747 27.0822 61.743 28.3572 61.743 29.6042C61.743 30.9042 60.815 32.1462 59.437 32.1462H56.824V35.1112H56.039V35.1122ZM56.824 31.4452H59.396C60.344 31.4452 60.958 30.5732 60.958 29.6052C60.958 28.6052 60.214 27.7852 59.328 27.7852H56.824V31.4452ZM61.306 35.1122L64.669 27.0822H65.317L68.68 35.1122H67.82L66.776 32.6042H63.176L62.146 35.1122H61.314H61.306ZM65.006 28.0092L63.356 31.9762H66.616L65.016 28.0092H65.006ZM72.483 27.0352C73.909 27.0352 74.953 27.7582 75.451 28.7872L74.817 29.1692C74.305 28.1062 73.309 27.7442 72.443 27.7442C70.519 27.7442 69.469 29.4622 69.469 31.0772C69.469 32.8492 70.772 34.4572 72.469 34.4572C73.376 34.4572 74.441 34.0072 74.945 32.9642L75.6 33.3042C75.082 34.5042 73.656 35.1722 72.42 35.1722C70.216 35.1722 68.66 33.0662 68.66 31.0342C68.66 29.1042 70.052 27.0342 72.473 27.0342L72.483 27.0352ZM83.051 27.0822V35.1122H82.251V31.3562H77.479V35.1122H76.699V27.0822H77.477V30.6542H82.239V27.0822H83.039H83.051ZM90.251 34.4002V35.1022H84.855V27.0722H90.149V27.7742H85.633V30.6712H89.569V31.3392H85.633V34.3992H90.251V34.4002Z" fill="#D22128"/>
<defs>
<linearGradient id="paint0_linear" x1="38.235" y1="30.0033" x2="46.9556" y2="27.5813" gradientUnits="userSpaceOnUse">
<stop stop-color="#F69923"/>
<stop offset="0.3123" stop-color="#F79A23"/>
<stop offset="0.8383" stop-color="#E97826"/>
</linearGradient>
<linearGradient id="paint1_linear" x1="29.2432" y1="69.7403" x2="45.1629" y2="35.5588" gradientUnits="userSpaceOnUse">
<stop offset="0.3233" stop-color="#9E2064"/>
<stop offset="0.6302" stop-color="#C92037"/>
<stop offset="0.7514" stop-color="#CD2335"/>
<stop offset="1" stop-color="#E97826"/>
</linearGradient>
<linearGradient id="paint2_linear" x1="24.9349" y1="65.9729" x2="34.8212" y2="44.7931" gradientUnits="userSpaceOnUse">
<stop stop-color="#282662"/>
<stop offset="0.0954839" stop-color="#662E8D"/>
<stop offset="0.7882" stop-color="#9F2064"/>
<stop offset="0.9487" stop-color="#CD2032"/>
</linearGradient>
<linearGradient id="paint3_linear" x1="27.8506" y1="67.4176" x2="43.2295" y2="34.4518" gradientUnits="userSpaceOnUse">
<stop offset="0.3233" stop-color="#9E2064"/>
<stop offset="0.6302" stop-color="#C92037"/>
<stop offset="0.7514" stop-color="#CD2335"/>
<stop offset="1" stop-color="#E97826"/>
</linearGradient>
<linearGradient id="paint4_linear" x1="24.5922" y1="64.8533" x2="32.5006" y2="47.9081" gradientUnits="userSpaceOnUse">
<stop stop-color="#282662"/>
<stop offset="0.0954839" stop-color="#662E8D"/>
<stop offset="0.7882" stop-color="#9F2064"/>
<stop offset="0.9487" stop-color="#CD2032"/>
</linearGradient>
<linearGradient id="paint5_linear" x1="27.8735" y1="69.2725" x2="44.5206" y2="33.6604" gradientUnits="userSpaceOnUse">
<stop offset="0.3233" stop-color="#9E2064"/>
<stop offset="0.6302" stop-color="#C92037"/>
<stop offset="0.7514" stop-color="#CD2335"/>
<stop offset="1" stop-color="#E97826"/>
</linearGradient>
<linearGradient id="paint6_linear" x1="22.2261" y1="67.2848" x2="38.4263" y2="32.5771" gradientUnits="userSpaceOnUse">
<stop offset="0.3233" stop-color="#9E2064"/>
<stop offset="0.6302" stop-color="#C92037"/>
<stop offset="0.7514" stop-color="#CD2335"/>
<stop offset="1" stop-color="#E97826"/>
</linearGradient>
<linearGradient id="paint7_linear" x1="24.7342" y1="49.3356" x2="26.1093" y2="41.1077" gradientUnits="userSpaceOnUse">
<stop offset="0.3233" stop-color="#9E2064"/>
<stop offset="0.6302" stop-color="#C92037"/>
<stop offset="0.7514" stop-color="#CD2335"/>
<stop offset="1" stop-color="#E97826"/>
</linearGradient>
<linearGradient id="paint8_linear" x1="21.3468" y1="47.1655" x2="21.6246" y2="41.2466" gradientUnits="userSpaceOnUse">
<stop offset="0.3233" stop-color="#9E2064"/>
<stop offset="0.6302" stop-color="#C92037"/>
<stop offset="0.7514" stop-color="#CD2335"/>
<stop offset="1" stop-color="#E97826"/>
</linearGradient>
<linearGradient id="paint9_linear" x1="41.9785" y1="53.08" x2="52.6215" y2="53.08" gradientUnits="userSpaceOnUse">
<stop stop-color="#F69923"/>
<stop offset="0.3123" stop-color="#F79A23"/>
<stop offset="0.8383" stop-color="#E97826"/>
</linearGradient>
</defs>
</svg>
