<svg width="166" height="94" viewBox="0 0 166 94" fill="none" xmlns="http://www.w3.org/2000/svg">
<path d="M112.251 30.5736C112.272 30.6536 112.283 30.736 112.283 30.8189V43.6977C112.283 43.863 112.24 44.0254 112.157 44.1684C112.074 44.3115 111.955 44.4301 111.812 44.5123L101.002 50.7358V63.0712C101.002 63.4069 100.824 63.7167 100.533 63.8858L77.9688 76.8749C77.9172 76.9043 77.8608 76.9231 77.8045 76.943C77.7834 76.9501 77.7634 76.963 77.7411 76.9688C77.5834 77.0104 77.4176 77.0104 77.2598 76.9688C77.234 76.9618 77.2105 76.9477 77.1859 76.9383C77.1343 76.9195 77.0803 76.9031 77.031 76.8749L54.4719 63.8858C54.3286 63.8034 54.2095 63.6848 54.1266 63.5418C54.0438 63.3988 54.0001 63.2364 54 63.0712V24.4346C54 24.3501 54.0117 24.268 54.0329 24.1881C54.0399 24.1611 54.0563 24.1365 54.0657 24.1095C54.0833 24.0602 54.0998 24.0097 54.1256 23.964C54.1432 23.9334 54.169 23.9088 54.1902 23.8806C54.2172 23.8431 54.2418 23.8043 54.2735 23.7715C54.3005 23.7445 54.3357 23.7245 54.3662 23.701C54.4003 23.6729 54.4308 23.6423 54.4695 23.62H54.4707L65.7508 17.1254C65.8937 17.0433 66.0556 17 66.2203 17C66.3851 17 66.547 17.0433 66.6899 17.1254L77.97 23.62H77.9723C78.0099 23.6435 78.0416 23.6729 78.0756 23.6998C78.1061 23.7233 78.1402 23.7445 78.1672 23.7703C78.2001 23.8043 78.2235 23.8431 78.2517 23.8806C78.2717 23.9088 78.2987 23.9334 78.3151 23.964C78.3421 24.0109 78.3573 24.0602 78.3761 24.1095C78.3855 24.1365 78.4019 24.1611 78.409 24.1893C78.4306 24.2693 78.4416 24.3518 78.4419 24.4346V48.5666L87.8416 43.1543V30.8177C87.8416 30.7356 87.8533 30.6522 87.8744 30.5736C87.8827 30.5454 87.8979 30.5208 87.9073 30.4938C87.9261 30.4445 87.9425 30.394 87.9683 30.3482C87.986 30.3177 88.0118 30.293 88.0317 30.2649C88.0599 30.2273 88.0834 30.1886 88.1162 30.1557C88.1432 30.1287 88.1773 30.1087 88.2078 30.0853C88.243 30.0571 88.2735 30.0266 88.3111 30.0043H88.3123L99.5936 23.5097C99.7364 23.4274 99.8983 23.3841 100.063 23.3841C100.228 23.3841 100.39 23.4274 100.533 23.5097L111.813 30.0043C111.853 30.0278 111.883 30.0571 111.918 30.0841C111.948 30.1076 111.982 30.1287 112.009 30.1545C112.042 30.1886 112.065 30.2273 112.093 30.2649C112.114 30.293 112.14 30.3177 112.157 30.3482C112.184 30.394 112.199 30.4445 112.218 30.4938C112.228 30.5208 112.244 30.5454 112.251 30.5736ZM110.403 43.1543V32.4446L106.456 34.7171L101.002 37.8569V48.5666L110.404 43.1543H110.403ZM99.1229 62.5277V51.811L93.7587 54.8746L78.4407 63.617V74.4346L99.1229 62.5277ZM55.8804 26.0603V62.5277L76.5603 74.4335V63.6181L65.7567 57.5039L65.7532 57.5015L65.7485 57.4992C65.7121 57.478 65.6816 57.4475 65.6475 57.4217C65.6182 57.3982 65.5841 57.3794 65.5583 57.3536L65.556 57.3501C65.5255 57.3208 65.5043 57.2844 65.4785 57.2515C65.455 57.2198 65.4269 57.1928 65.4081 57.1599L65.4069 57.1564C65.3858 57.1212 65.3729 57.079 65.3576 57.039C65.3423 57.0038 65.3224 56.971 65.313 56.9334V56.9322C65.3013 56.8876 65.2989 56.8407 65.2942 56.7949C65.2895 56.7597 65.2801 56.7245 65.2801 56.6893V31.4727L59.8279 28.3316L55.8804 26.0615V26.0603ZM66.2215 19.0246L56.823 24.4346L66.2192 29.8446L75.6165 24.4335L66.2192 19.0246H66.2215ZM71.1092 52.7876L76.5614 49.6489V26.0603L72.614 28.3328L67.1605 31.4727V55.0612L71.1092 52.7876ZM100.063 25.4089L90.6657 30.8189L100.063 36.2289L109.459 30.8177L100.063 25.4089ZM99.1229 37.8569L93.6694 34.7171L89.722 32.4446V43.1543L95.1742 46.293L99.1229 48.5666V37.8569ZM77.4993 61.9913L91.2831 54.1222L98.1733 50.19L88.783 44.7835L77.9712 51.0081L68.1172 56.681L77.4993 61.9913Z" fill="#FF2D20"/>
</svg>
