<svg width="166" height="94" viewBox="0 0 166 94" fill="none" xmlns="http://www.w3.org/2000/svg">
<path d="M83.4995 49.0058H75.3355V40.8698H83.5235V48.9698C85.6311 48.9698 87.707 48.4558 89.5711 47.4724C91.4352 46.4889 93.0314 45.0656 94.2212 43.3259C95.411 41.5862 96.1585 39.5826 96.3991 37.4887C96.6396 35.3949 96.3658 33.2739 95.6015 31.3098C94.9807 29.6413 94.0041 28.1281 92.7395 26.8752C91.4749 25.6223 89.9526 24.6599 88.2785 24.0548C79.1295 20.7498 70.4995 27.4328 70.4995 36.0718H62.3115C62.3115 22.3018 75.7095 11.5638 90.2365 16.0738C96.5765 18.0538 101.641 23.0658 103.61 29.3658C108.16 43.8028 97.3545 57.1198 83.5005 57.1198V49.0058H83.4995ZM75.3355 55.2338H69.0695V49.0058H75.3365V55.2338H75.3355ZM69.0685 49.0058H63.7995V43.7798H69.0575V49.0058H69.0685ZM48.4915 65.3758C49.0915 65.7578 49.5475 66.3308 49.8845 67.0458C50.1965 67.7618 50.3645 68.5958 50.3645 69.5278C50.3645 70.4598 50.1965 71.3278 49.8845 72.0338C49.5485 72.7498 49.0925 73.3338 48.5145 73.7278C47.4585 74.5158 46.1145 74.8978 44.5765 74.8978H41.1895V64.2778H44.5515C46.0885 64.2778 47.4315 64.6358 48.4895 65.3758H48.4915ZM43.1615 66.0678V73.1078H44.2415C45.4415 73.1078 46.4015 72.8678 47.0985 72.4158C47.9145 71.8908 48.3235 70.9128 48.3235 69.5288C48.3235 68.1928 47.9155 67.2618 47.0985 66.7608C46.3545 66.3078 45.3935 66.0688 44.2185 66.0688H43.1585L43.1615 66.0678ZM52.6935 64.1348C53.0053 64.1374 53.3049 64.2565 53.5335 64.4688C53.6425 64.5731 53.7287 64.699 53.7865 64.8385C53.8443 64.9779 53.8726 65.1278 53.8695 65.2788C53.8725 65.4334 53.8443 65.587 53.7865 65.7305C53.7288 65.874 53.6427 66.0043 53.5335 66.1138C53.2935 66.3288 53.0055 66.4478 52.6935 66.4478C52.3575 66.4478 52.0695 66.3278 51.8535 66.1138C51.6375 65.8738 51.5175 65.6138 51.5175 65.2788C51.5175 64.9438 51.6375 64.6818 51.8535 64.4788C52.0792 64.2622 52.3806 64.1423 52.6935 64.1448V64.1348ZM51.7335 67.4048H53.6305V74.8978H51.7335V67.4048ZM60.5215 68.0248H60.4735V67.3808H62.3465V74.1808C62.3465 75.3028 62.0105 76.2088 61.3385 76.9008C60.6665 77.5928 59.7535 77.9268 58.6255 77.9268C57.7855 77.9268 57.0655 77.7268 56.5125 77.3768C55.9365 77.0188 55.5285 76.6368 55.2395 76.2548L55.2155 76.2068L56.5125 74.9668C57.1845 75.8738 57.7375 76.2068 58.6125 76.2068C59.1885 76.2068 59.6445 76.0398 59.9825 75.7068C60.3205 75.3738 60.4865 74.9068 60.4865 74.2748V74.0998C59.9825 74.5058 59.3335 74.6968 58.6135 74.6968C57.5815 74.6968 56.6935 74.3388 56.0205 73.6468C55.3445 72.9398 55.0105 72.0338 55.0105 70.9838C55.0105 69.8858 55.3705 68.9788 56.0425 68.2868C56.7145 67.5708 57.5795 67.2128 58.6355 67.2128C59.3315 67.2128 59.9555 67.5128 60.5325 68.0128L60.5215 68.0248ZM60.0175 72.4648C60.3535 72.0828 60.5215 71.6048 60.5215 71.0088C60.5215 70.4128 60.3535 69.9108 60.0175 69.5288C59.8543 69.3483 59.6537 69.2057 59.4297 69.1108C59.2056 69.016 58.9636 68.9713 58.7205 68.9798C58.1925 68.9798 57.7365 69.1468 57.4235 69.5298C57.1105 69.9128 56.9435 70.3898 56.9435 71.0098C56.9435 71.6068 57.0875 72.0838 57.4235 72.4658C57.5866 72.6462 57.7872 72.7888 58.0112 72.8837C58.2353 72.9785 58.4773 73.0232 58.7205 73.0148C59.2485 73.0148 59.6805 72.8478 60.0175 72.4648ZM64.0035 67.4048H65.8995V74.8978H64.0025V67.4048H64.0035ZM64.9635 64.1348C65.2995 64.1348 65.5635 64.2548 65.8035 64.4688C65.9125 64.5731 65.9987 64.699 66.0565 64.8385C66.1143 64.9779 66.1426 65.1278 66.1395 65.2788C66.1425 65.4334 66.1143 65.587 66.0565 65.7305C65.9988 65.874 65.9127 66.0043 65.8035 66.1138C65.5635 66.3288 65.2755 66.4478 64.9635 66.4478C64.6275 66.4478 64.3395 66.3278 64.1235 66.1138C63.9075 65.8738 63.7875 65.6138 63.7875 65.2788C63.7875 64.9438 63.9075 64.6818 64.1235 64.4788C64.3492 64.2622 64.6506 64.1423 64.9635 64.1448V64.1348ZM70.0635 65.3748V67.3798H71.8405V69.0998H70.0635V71.9398C70.0635 72.4398 70.1355 72.7748 70.2795 72.9418C70.4235 73.1088 70.7115 73.1818 71.1675 73.1818L71.8155 73.1578V74.8758H71.6995C71.4115 74.8998 71.0995 74.8998 70.7875 74.8998C69.8275 74.8998 69.1305 74.6998 68.7475 74.3028C68.3645 73.9058 68.1715 73.2048 68.1715 72.2268V69.1248H67.0995V67.4068H68.1795V65.3798H70.0525L70.0635 65.3748ZM80.7235 64.2528H82.6205V74.8958H80.7235V64.2558V64.2528ZM101.781 72.2228L103.031 73.4158C102.672 73.9417 102.188 74.3698 101.622 74.6614C101.056 74.953 100.426 75.0988 99.7895 75.0858C98.7335 75.0858 97.8445 74.7038 97.0895 73.9638C96.3694 73.2238 95.9845 72.2938 95.9845 71.1718C95.9845 70.0498 96.3445 69.1198 97.0895 68.3798C97.8344 67.6398 98.7465 67.2578 99.7895 67.2578C101.039 67.2578 102.069 67.7578 102.886 68.8078L101.636 69.9998C101.084 69.3558 100.436 68.9738 99.8365 68.9738C99.5766 68.9696 99.3192 69.0231 99.0825 69.1303C98.8458 69.2375 98.6357 69.3958 98.4675 69.5938C98.1075 69.9998 97.9155 70.5238 97.9155 71.1688C97.9155 71.7888 98.1075 72.3388 98.4675 72.7438C98.8275 73.1738 99.2835 73.3638 99.8375 73.3638C100.184 73.3713 100.525 73.2804 100.821 73.1018C101.085 72.9348 101.445 72.6018 101.781 72.2188V72.2228ZM109.585 68.4528C109.844 68.8233 110.039 69.2347 110.161 69.6698C110.287 70.1204 110.352 70.5859 110.353 71.0538L110.329 71.7458H105.311C105.359 72.2228 105.551 72.6058 105.863 72.8908C106.199 73.1908 106.631 73.3438 107.16 73.3438C107.52 73.3438 107.832 73.2718 108.12 73.1288C108.312 73.0338 108.48 72.8888 108.672 72.7228L109.104 72.2928L110.354 73.4858L110.306 73.5338C109.514 74.5358 108.456 75.0608 107.186 75.0608C106.056 75.0608 105.146 74.7028 104.449 73.9868C103.777 73.2708 103.417 72.3398 103.417 71.1948C103.417 70.0728 103.753 69.1428 104.377 68.3788C105.025 67.6148 105.89 67.2338 106.947 67.2338C107.523 67.2338 108.052 67.3538 108.507 67.5678C108.962 67.7818 109.323 68.0678 109.587 68.4508L109.585 68.4528ZM105.431 70.2188H108.361C108.337 69.8608 108.193 69.5748 107.977 69.3358C107.737 69.0728 107.377 68.9538 106.921 68.9538C106.537 68.9538 106.201 69.0738 105.937 69.3358C105.697 69.5508 105.529 69.8608 105.433 70.2188H105.431ZM116.861 67.9758C117.437 68.4528 117.725 69.1688 117.797 70.0518V74.8718H115.924V74.2518C115.3 74.7518 114.627 75.0388 113.907 75.0388C113.187 75.0388 112.587 74.8238 112.082 74.4188C111.578 73.9888 111.338 73.4408 111.338 72.7248C111.338 71.9248 111.626 71.2688 112.202 70.8398C112.778 70.4108 113.547 70.1958 114.482 70.1958C114.938 70.1958 115.394 70.2678 115.875 70.4108V70.0528C115.875 69.7188 115.731 69.4558 115.491 69.2528C115.227 69.0378 114.915 68.9528 114.507 68.9528C113.763 68.9528 113.21 69.2388 112.707 70.0268L111.482 68.8818L111.458 68.8578C111.766 68.343 112.217 67.9286 112.755 67.6648C113.301 67.396 113.901 67.2571 114.508 67.2588C115.492 67.2588 116.285 67.5218 116.861 67.9988V67.9758ZM113.499 72.0328C113.283 72.1758 113.187 72.3668 113.187 72.6298C113.187 72.8698 113.283 73.0358 113.451 73.1798C113.643 73.3228 113.883 73.3948 114.219 73.3948C114.891 73.3948 115.444 73.1948 115.852 72.8218V72.0818C115.348 71.9148 114.868 71.8188 114.412 71.8188C114.028 71.8188 113.716 71.8908 113.5 72.0338L113.499 72.0328ZM125.024 68.1188C125.552 68.6918 125.816 69.5268 125.816 70.5528V74.8958H123.919V70.5528C123.919 70.0758 123.799 69.6698 123.559 69.3828C123.319 69.0958 123.007 68.9528 122.575 68.9528C122.071 68.9528 121.711 69.1198 121.445 69.4298C121.179 69.7398 121.037 70.1938 121.037 70.7658V74.8938H119.14V67.4238H120.99V67.8768C121.446 67.4468 122.07 67.2328 122.815 67.2328C123.751 67.2328 124.495 67.5188 125.015 68.1158L125.024 68.1188ZM78.3465 67.9758C78.9225 68.4528 79.2105 69.1688 79.2825 70.0518V74.8718H77.3995V74.2518C76.7755 74.7518 76.1025 75.0388 75.3825 75.0388C74.6625 75.0388 74.0625 74.8238 73.5575 74.4188C73.0535 73.9888 72.8135 73.4408 72.8135 72.7248C72.8135 71.9248 73.1015 71.2688 73.6775 70.8398C74.2535 70.4108 75.0225 70.1958 75.9575 70.1958C76.4135 70.1958 76.8695 70.2678 77.3505 70.4108V70.0528C77.3505 69.7188 77.2065 69.4558 76.9665 69.2528C76.7025 69.0378 76.3905 68.9528 75.9825 68.9528C75.2385 68.9528 74.6855 69.2388 74.1825 70.0268L72.9595 68.8598L72.9355 68.8358C73.2433 68.321 73.6938 67.9066 74.2325 67.6428C74.7776 67.374 75.3776 67.2351 75.9855 67.2368C76.9695 67.2368 77.7625 67.4998 78.3385 67.9768L78.3465 67.9758ZM74.9845 72.0328C74.7685 72.1758 74.6725 72.3668 74.6725 72.6298C74.6725 72.8698 74.7685 73.0358 74.9365 73.1798C75.1285 73.3228 75.3685 73.3948 75.7045 73.3948C76.3765 73.3948 76.9295 73.1948 77.3375 72.8218V72.0818C76.8335 71.9148 76.3535 71.8188 75.8975 71.8188C75.5135 71.8188 75.2015 71.8908 74.9855 72.0338L74.9845 72.0328ZM89.5115 75.0628C86.4615 75.0628 83.9885 72.6048 83.9885 69.5628C83.9885 66.5208 86.4615 64.0628 89.5115 64.0628C92.5615 64.0628 95.0345 66.5208 95.0345 69.5628C95.0345 72.6048 92.5615 75.0628 89.5115 75.0628ZM89.5115 66.0188C87.5415 66.0188 85.9335 67.6188 85.9335 69.5748C85.9335 71.5308 87.5335 73.1308 89.5115 73.1308C91.4895 73.1308 93.0895 71.5308 93.0895 69.5748C93.0895 67.6188 91.4895 66.0188 89.5115 66.0188Z" fill="#0080FF"/>
</svg>
