<svg width="166" height="94" viewBox="0 0 166 94" fill="none" xmlns="http://www.w3.org/2000/svg">
<path d="M64.9034 45.6801C64.9034 55.3971 57.2374 63.2801 47.7754 63.2801C38.3134 63.2801 30.6484 55.3981 30.6484 45.6801C30.6484 35.9621 38.3144 28.0801 47.7764 28.0801C57.2384 28.0801 64.9044 35.9641 64.9044 45.6801" fill="#D33833"/>
<path d="M31.3531 50.0399C31.3531 50.0399 30.1091 31.6899 46.9471 31.1599L45.7731 29.1899L36.6431 32.2719L34.0331 35.2839L31.7531 39.6699L30.4531 44.7779L30.8401 48.1929" fill="#EF3D3A"/>
<path d="M36.049 33.6742C33.052 36.7692 31.187 41.0312 31.187 45.7512C31.187 50.4712 33.052 54.7312 36.049 57.8272C39.059 60.9222 43.189 62.8242 47.776 62.8242C52.363 62.8242 56.492 60.9222 59.503 57.8272C62.5 54.7312 64.365 50.4702 64.365 45.7502C64.365 41.0302 62.5 36.7702 59.503 33.6732C56.493 30.5912 52.363 28.6762 47.776 28.6762C43.204 28.6762 39.06 30.5782 36.049 33.6732V33.6742ZM35.289 58.5642C32.099 55.2882 30.123 50.7492 30.123 45.7522C30.123 40.7552 32.099 36.2142 35.299 32.9242C38.489 29.6482 42.909 27.6082 47.786 27.6082C52.663 27.6082 57.082 29.6482 60.273 32.9242C63.464 36.2002 65.429 40.7402 65.429 45.7502C65.429 50.7472 63.454 55.2862 60.263 58.5622C57.073 61.8622 52.653 63.8782 47.776 63.8782C42.899 63.8782 38.479 61.8522 35.299 58.5632L35.289 58.5642Z" fill="#231F20"/>
<path d="M54.9859 45.7781L52.3759 46.1681L48.8539 46.5711L46.5739 46.6271L44.3499 46.5571L42.6499 46.0301L41.1439 44.3921L39.9699 41.0471L39.7079 40.3251L38.1479 39.7981L37.2359 38.2851L36.5859 36.1191L37.3039 34.2171L39.0039 33.6201L40.3709 34.2721L41.0209 35.7161L41.8079 35.5911L42.0699 35.2581L41.8079 33.7451L41.7379 31.8431L42.1249 29.2201L42.1109 27.7201L43.2989 25.8041L45.3849 24.2911L49.0319 22.7231L53.0789 23.3201L56.6009 25.8741L58.2309 28.4971L59.2809 30.3991L59.5439 35.1191L58.7569 39.1861L57.3199 42.7961L55.9669 44.7261" fill="#F0D6B7"/>
<path d="M52.7763 57.1201L43.4523 57.5101V59.0781L44.2393 64.5881L43.8523 65.0461L37.3323 62.8111L36.8763 62.0211L36.2263 54.6091L34.6933 50.1671L34.3633 49.1121L39.5833 45.5021L41.2133 44.8501L42.6493 46.6271L43.8923 47.7371L45.3293 48.1951L45.9793 48.3891L46.7663 51.8041L47.3603 52.5261L48.8663 51.9981L47.8163 54.0381L53.4793 56.7311L52.7753 57.1211" fill="#335061"/>
<path d="M37.3059 34.2432L39.0059 33.6462L40.3729 34.2982L41.0229 35.7422L41.8099 35.6172L42.0029 34.8272L41.6159 33.3142L42.0029 29.7042L41.6729 27.7342L42.8469 26.3602L45.3869 24.3332L44.6689 23.3472L41.0789 25.1242L39.5729 26.3042L38.7299 28.1362L37.4319 29.9132L37.0449 32.0092L37.3069 34.2442" fill="#6D6B6D"/>
<path d="M39.9868 28.0799C39.9868 28.0799 40.9668 25.6499 44.8868 24.4699C48.8068 23.2899 45.0798 23.6229 45.0798 23.6229L40.8398 25.2609L39.1998 26.8999L38.4818 28.2049L39.9878 28.0799H39.9868ZM38.0278 33.7849C38.0278 33.7849 36.6598 29.1899 41.8818 28.5379L41.6888 27.7479L38.0988 28.5949L37.0488 32.0099L37.3108 34.2449L38.0288 33.7869" fill="#DCD9D8"/>
<path d="M40.0983 39.88L40.9543 39.047C40.9637 39.1692 41.0137 39.2848 41.0963 39.3754C41.1789 39.466 41.2894 39.5264 41.4103 39.547C41.4803 40.005 41.6723 44.142 44.4763 46.363C44.7383 46.571 42.3903 46.03 42.3903 46.03L40.3043 42.754L40.0983 39.88ZM52.1003 38.631C52.1003 38.631 52.2523 36.646 52.8003 36.799C53.3483 36.952 53.3403 37.493 53.3403 37.493C53.3403 37.493 52.0423 38.326 52.1103 38.631H52.1003ZM57.5253 31.357C57.5253 31.357 56.4483 31.579 56.3513 32.537C56.2543 33.495 57.5253 32.731 57.7183 32.662L57.5253 31.357ZM49.6383 31.427C49.6383 31.427 48.2013 31.621 48.2013 32.527C48.2013 33.433 49.8313 33.374 50.2873 32.985L49.6383 31.427ZM40.7703 35.678C40.7703 35.678 38.2983 34.165 38.0353 35.608C37.7723 37.051 37.1923 38.093 38.4223 39.606L37.5793 39.342L36.7923 37.315L36.5293 35.345L38.0353 33.777L39.7353 33.902L40.7153 34.702L40.7703 35.688V35.678ZM41.9443 31.551C41.9443 31.551 43.0493 25.776 48.6573 24.666C53.2703 23.75 55.7013 24.86 56.6133 25.916C56.6133 25.916 52.4973 21.002 48.5883 22.501C44.6883 24.014 41.8063 26.761 41.8753 28.525L41.9453 31.551H41.9443ZM57.0703 26.568C57.0703 26.568 55.1783 26.498 55.1103 28.206C55.1163 28.3885 55.1584 28.5679 55.2343 28.734C55.2343 28.734 56.7403 27.027 57.6513 27.934L57.0703 26.568ZM48.7983 28.914C48.7983 28.914 48.4683 26.314 46.2583 27.817C44.8213 28.803 44.9583 30.177 45.2083 30.441C45.4703 30.705 45.4013 31.241 45.5953 30.871C45.7893 30.501 45.7333 29.331 46.4513 28.997C47.1553 28.664 48.3433 28.303 48.7993 28.914" fill="#F7E4CD"/>
<path d="M42.665 46.625L36.532 49.373C36.532 49.373 39.074 59.533 37.775 62.685L36.863 62.352L36.793 58.479L35.093 51.149L34.375 49.122L40.77 44.792L42.662 46.624L42.665 46.625ZM43.284 52.246L44.154 53.316V57.244H43.118L42.994 54.164C42.994 53.831 43.118 52.651 43.118 52.651L43.284 52.246ZM43.311 57.841L40.369 57.966L41.212 58.563L43.298 58.896" fill="#49728B"/>
<path d="M53.3565 57.1879L55.7735 57.1179L56.3675 63.1419L53.8955 63.4749L53.3555 57.1869" fill="#335061"/>
<path d="M54.0059 57.188L57.6519 56.994L59.1579 52.996C59.1579 52.802 60.4559 47.486 60.4559 47.486L57.5139 44.404L56.9199 43.877L55.3599 45.445V51.539L54.0059 57.189" fill="#335061"/>
<path d="M55.6355 56.7301L53.3555 57.1881L53.6875 59.0201C54.5295 59.4101 55.9675 58.3681 55.9675 58.3681L55.6355 56.7301ZM55.7045 45.2511L60.2765 48.6661L60.4005 47.0961L56.9475 43.8901L55.7045 45.2501" fill="#49728B"/>
<path d="M45.5785 70.098L44.2245 64.588L43.5475 60.521L43.4375 57.509L49.5575 57.176H53.3555L53.0105 64.061L53.6045 69.377L53.5345 70.363L48.5745 70.753L45.5775 70.101" fill="white"/>
<path d="M52.5137 57.12C52.5137 57.12 52.1837 63.936 53.1637 68.794C53.1637 68.794 51.2037 70.044 48.3438 70.362L53.8277 70.168L54.4777 69.778L53.6908 59.034L53.4837 56.73" fill="#DCD9D8"/>
<path d="M56.4636 62.63L59.0036 61.908L63.8236 61.644L64.5416 59.409L63.2416 55.536L61.7356 55.342L59.6496 55.994L57.6596 56.98L56.5956 56.786L55.7656 57.119" fill="white"/>
<path d="M56.4238 61.31C56.4238 61.31 58.1238 60.52 58.3838 60.588L57.6658 56.978L58.5088 56.645L59.1028 60.448L63.0808 60.642C63.0808 60.642 63.8678 59.129 63.6748 57.56L64.3928 59.656L64.4628 60.836L63.4128 62.404L62.2388 62.668L60.2788 62.598L59.6288 61.751L57.3488 62.084L56.6308 62.348" fill="#DCD9D8"/>
<path d="M53.8532 56.6601L52.4162 52.9951L50.9102 50.8291C50.9102 50.8291 51.2422 49.9131 51.6972 49.9131H53.2032L54.6402 50.4401L54.5162 52.8701L53.8532 56.6601Z" fill="white"/>
<path d="M54.1435 55.412C54.1435 55.412 52.3205 51.872 52.3205 51.345C52.3205 51.345 52.6525 50.555 53.1075 50.748C53.5625 50.941 54.5445 51.47 54.5445 51.47V50.22L52.3205 49.762L50.8145 49.956L53.3545 56.008L53.8795 56.078" fill="#DCD9D8"/>
<path d="M46.1584 46.764L44.3484 46.57L42.6484 46.043V46.64L43.4784 47.556L46.0884 48.736" fill="white"/>
<path d="M43.2444 46.9581C43.2444 46.9581 45.2614 47.8051 45.9244 47.6101L45.9944 48.4001L44.1714 48.0101L43.0664 47.2201L43.2464 46.9561" fill="#DCD9D8"/>
<path d="M56.4648 50.1371C55.3598 50.1091 54.3518 49.9701 53.4808 49.7211C53.5358 49.3611 53.4258 49.0131 53.5208 48.7491C53.7708 48.5691 54.1708 48.5691 54.5428 48.5271C54.2248 48.3741 53.7698 48.3051 53.4098 48.4021C53.3958 48.1521 53.2858 47.9991 53.2168 47.8051C53.8388 47.5831 55.3028 46.1251 56.1318 46.5971C56.5318 46.8331 56.6978 48.1371 56.7258 48.7901C56.7538 49.3171 56.6708 49.8451 56.4638 50.1361" fill="#D33833"/>
<path d="M56.4648 50.1371C55.3598 50.1091 54.3518 49.9701 53.4808 49.7211C53.5358 49.3611 53.4258 49.0131 53.5208 48.7491C53.7708 48.5691 54.1708 48.5691 54.5428 48.5271C54.2248 48.3741 53.7698 48.3051 53.4098 48.4021C53.3958 48.1521 53.2858 47.9991 53.2168 47.8051C53.8388 47.5831 55.3028 46.1251 56.1318 46.5971C56.5318 46.8331 56.6978 48.1371 56.7258 48.7901C56.7538 49.3171 56.6708 49.8451 56.4638 50.1361L56.4648 50.1371Z" fill="black" stroke="#D33833" stroke-width="1.702"/>
<path d="M51.1737 48.3181C51.1737 48.4011 51.1737 48.4841 51.1597 48.5681C50.8147 48.7901 50.2617 48.7901 49.8747 48.9841C50.4277 49.0121 50.8697 49.1501 51.2547 49.3311L51.2267 49.9711C50.5917 50.4011 50.0107 51.0541 49.2667 51.4711C48.9067 51.6651 47.6787 52.1651 47.3067 52.0681C47.0997 52.0121 47.0717 51.7481 46.9887 51.4981C46.8087 50.9711 46.3947 50.1101 46.3537 49.3051C46.3137 48.2921 46.2017 46.5851 47.2937 46.7921C48.1777 46.9591 49.1997 47.3621 49.8767 47.7361C50.3047 47.9861 50.5397 48.2631 51.1767 48.3191" fill="#D33833"/>
<path d="M51.1737 48.3181C51.1737 48.4011 51.1737 48.4841 51.1597 48.5681C50.8147 48.7901 50.2617 48.7901 49.8747 48.9841C50.4277 49.0121 50.8697 49.1501 51.2547 49.3311L51.2267 49.9711C50.5917 50.4011 50.0107 51.0541 49.2667 51.4711C48.9067 51.6651 47.6787 52.1651 47.3067 52.0681C47.0997 52.0121 47.0717 51.7481 46.9887 51.4981C46.8087 50.9711 46.3947 50.1101 46.3537 49.3051C46.3137 48.2921 46.2017 46.5851 47.2937 46.7921C48.1777 46.9591 49.1997 47.3621 49.8767 47.7361C50.3047 47.9861 50.5397 48.2631 51.1767 48.3191L51.1737 48.3181Z" fill="black" stroke="#D33833" stroke-width="1.702"/>
<path d="M51.7959 49.5261C51.6989 48.9711 51.5889 48.8181 51.6299 48.3321C53.1079 47.3461 53.3699 50.0261 51.7959 49.5261Z" fill="#D33833"/>
<path d="M51.7959 49.5261C51.6989 48.9711 51.5889 48.8181 51.6299 48.3321C53.1079 47.3461 53.3699 50.0261 51.7959 49.5261Z" fill="black" stroke="#D33833" stroke-width="1.702"/>
<path d="M53.9216 49.9701C53.9216 49.9701 53.4656 49.3181 53.7976 49.1231C54.1296 48.9281 54.4476 49.1231 54.6406 48.7901C54.8336 48.4571 54.6406 48.2631 54.7106 47.8741C54.7806 47.4851 55.0976 47.4161 55.4286 47.3471C55.7596 47.2781 56.6716 47.1531 56.7956 47.4721L56.4086 46.2921L55.6216 46.0281L53.1496 47.4721L53.0256 48.1941V49.6381L53.9216 49.9701ZM47.0726 52.1381L46.8226 49.0701C46.6846 47.5431 47.1826 47.8071 48.5076 47.8071C48.7146 47.8071 49.7506 48.0431 49.8196 48.1971C50.1796 48.9331 49.2256 48.7671 50.2336 49.3211C51.0766 49.7791 52.5816 49.0431 52.2366 48.0011C52.0436 47.7651 51.2426 47.9311 50.9516 47.7791L49.4186 46.9891C48.7686 46.6561 47.2786 46.1561 46.5866 46.6291C44.8326 47.8231 46.6966 50.8211 47.3186 52.0691" fill="#EF3D3A"/>
<path d="M48.7995 28.913C47.0175 28.497 46.1335 29.663 45.5945 30.87C45.1115 30.76 45.2945 30.093 45.4285 29.77C45.7465 28.896 47.0305 27.716 48.0805 27.882C48.5225 27.938 49.1305 28.354 48.7985 28.922L48.7995 28.913ZM57.4585 30.949H57.5415C57.9415 31.782 58.2875 32.669 58.7985 33.419C58.4535 34.224 56.2285 34.919 56.2565 33.502C56.7395 33.294 57.5685 33.46 57.9965 33.182C57.7465 32.502 57.4025 31.919 57.4565 30.947L57.4585 30.949ZM49.6935 30.975C50.0805 31.683 50.2035 32.419 50.7435 32.945C50.9935 33.181 51.4615 33.472 51.2275 34.139C51.1725 34.292 50.7715 34.639 50.5375 34.709C49.6955 34.959 47.7195 34.765 48.3825 33.696C49.0865 33.724 50.0265 34.154 50.5525 33.64C50.1525 33.002 49.4325 31.724 49.6965 30.975H49.6935ZM57.1415 38.11C55.8715 38.93 54.4475 39.83 52.3485 39.623C51.9065 39.233 51.7265 38.36 52.1685 37.791C52.3885 38.181 52.2515 38.891 52.8865 39.011C54.0745 39.219 55.4565 38.275 56.3115 37.956C56.8365 37.054 56.2715 36.734 55.7865 36.151C54.8065 34.971 53.5065 33.501 53.5485 31.737C53.9485 31.445 53.9765 32.181 54.0315 32.307C54.5415 33.501 55.8275 35.042 56.7515 36.069C56.9865 36.319 57.3595 36.569 57.4015 36.735C57.5255 37.207 57.0835 37.79 57.1395 38.109L57.1415 38.11ZM40.3155 37.249C39.9155 37.013 39.8185 36.014 39.3485 35.986C38.6715 35.944 38.7955 37.291 38.7955 38.082C38.3395 37.666 38.2555 36.362 38.5885 35.695C38.2015 35.501 38.0355 35.903 37.8145 36.042C38.1145 34.029 40.7565 35.112 40.3145 37.25L40.3155 37.249ZM57.9395 38.957C57.3455 40.095 56.5025 41.345 54.7625 41.387C54.7225 41.027 54.6925 40.457 54.7625 40.235C56.1025 40.095 56.9325 39.415 57.9395 38.958V38.957ZM49.5965 39.694C50.7015 40.277 52.7465 40.346 54.2665 40.304C54.3495 40.637 54.3495 41.054 54.3495 41.456C52.4025 41.539 50.1095 41.053 49.5995 39.693L49.5965 39.694ZM49.3925 40.776C50.1655 42.719 52.8045 42.496 55.0275 42.442C54.9305 42.692 54.7235 42.997 54.4475 43.094C53.7295 43.386 51.7675 43.608 50.7735 43.08C50.1515 42.747 49.7375 41.983 49.3935 41.54C49.2415 41.332 48.4135 40.79 49.3935 40.777" fill="#231F20"/>
<path d="M57.0448 51.4702L54.2148 55.9802C54.6568 54.6602 54.8498 52.4402 54.9188 50.7472C55.8588 50.3032 56.6588 50.8442 57.0458 51.4692" fill="#81B0C4"/>
<path d="M61.8925 57.05C60.8845 57.258 60.1795 58.244 59.1855 58.174C59.7385 57.41 60.6775 57.077 61.8925 57.05ZM62.3345 58.632C61.5045 58.715 60.5385 58.854 59.7105 58.785C60.1105 58.175 61.6305 58.395 62.3345 58.632ZM62.6345 60.0061C61.7095 60.0201 60.5625 60.0061 59.6785 59.9361C60.2035 59.3661 62.0405 59.7281 62.6345 60.0061Z" fill="#231F20"/>
<path d="M55.3032 63.754C55.4412 64.92 55.8972 66.1 55.8432 67.377C55.3332 67.543 55.0432 67.697 54.3512 67.697L54.1992 63.907C54.5292 63.935 55.0292 63.671 55.3042 63.754" fill="#DCD9D8"/>
<path d="M53.812 46.542C53.342 46.847 52.956 47.222 52.5 47.555C51.506 47.611 50.967 47.485 50.25 46.917C50.264 46.875 50.333 46.889 50.333 46.834C51.397 47.306 52.75 46.64 53.813 46.542" fill="#F0D6B7"/>
<path d="M48.2598 53.8C48.5598 52.537 49.6968 51.87 50.7318 51.177C51.7958 52.537 52.4448 54.287 53.1618 55.98C51.4618 55.466 49.7358 54.648 48.2578 53.8" fill="#81B0C4"/>
<path d="M54.1986 63.92C54.1586 64.96 54.2956 66.613 54.3506 67.71C55.0406 67.71 55.3306 67.557 55.8426 67.39C55.8976 66.113 55.4426 64.933 55.3026 63.767C55.0266 63.67 54.5286 63.934 54.1976 63.92H54.1986ZM43.5356 58.035C43.9916 62.213 44.6406 65.711 45.8426 69.417C48.5086 70.237 51.7126 70.305 54.0746 69.57C53.6466 67.488 53.8246 64.948 53.5776 62.713C53.3846 61.033 53.4806 59.353 53.2176 57.646C50.3576 57.049 46.3256 57.506 43.5346 58.036L43.5356 58.035ZM53.8956 57.675C53.8676 59.465 53.9786 61.242 54.1156 63.033C54.7148 62.9586 55.3097 62.8521 55.8976 62.714C55.6906 60.994 55.7176 59.036 55.2896 57.509C54.8066 57.523 54.3776 57.509 53.8946 57.675H53.8956ZM57.3626 57.383C57.0326 57.313 56.6586 57.383 56.3546 57.383C56.5066 58.841 56.8516 60.451 56.9766 61.993C57.4596 62.007 57.7226 61.771 58.1226 61.701C58.1506 60.355 58.0126 58.494 57.3626 57.384V57.383ZM62.6256 62.213C63.6476 61.963 64.2836 60.713 63.9926 59.413C63.7996 58.553 63.4676 56.913 63.0946 56.359C62.8326 55.957 62.1006 55.415 61.5066 55.789C60.5536 56.399 58.8826 56.579 58.1916 57.316C58.5366 58.482 58.6476 60.066 58.7856 61.536C59.9736 61.606 61.4236 61.203 62.4186 61.633C61.7286 61.855 60.8436 61.855 60.2486 62.188C60.7456 62.424 61.8786 62.382 62.6246 62.202L62.6256 62.213ZM53.1486 55.98C52.4306 54.287 51.7816 52.538 50.7186 51.177C49.6826 51.871 48.5486 52.537 48.2466 53.8C49.7386 54.647 51.4646 55.466 53.1506 55.98H53.1486ZM54.9166 50.747C54.8466 52.4401 54.6546 54.661 54.2126 55.98C55.2766 54.606 56.1466 53.023 57.0446 51.47C56.6576 50.845 55.8566 50.304 54.9176 50.748L54.9166 50.747ZM52.9136 50.039C52.5136 49.997 52.1676 50.511 51.6436 50.289C51.5196 50.429 51.4086 50.567 51.2836 50.705C52.4436 52.121 52.9836 54.12 53.8806 55.772C54.3636 54.176 54.3086 52.442 54.4206 50.705C53.7576 50.733 53.3846 50.08 52.9146 50.039H52.9136ZM51.6286 48.331C51.5886 48.817 51.6986 48.971 51.7946 49.525C53.3696 50.025 53.1066 47.345 51.6286 48.331ZM49.8746 47.748C49.1976 47.373 48.1746 46.971 47.2916 46.804C46.2016 46.596 46.3116 48.304 46.3516 49.317C46.3916 50.122 46.8076 50.969 46.9866 51.51C47.0696 51.76 47.0866 52.024 47.3046 52.08C47.6776 52.163 48.9206 51.678 49.2646 51.483C50.0106 51.081 50.5906 50.428 51.2246 49.983C51.2386 49.775 51.2386 49.553 51.2526 49.345C50.8656 49.151 50.4376 49.025 49.8726 48.998C50.2456 48.804 50.8126 48.804 51.1576 48.582C51.1576 48.499 51.1576 48.415 51.1716 48.332C50.5366 48.262 50.3016 47.985 49.8716 47.749L49.8746 47.748ZM43.3826 46.568C42.8166 47.151 44.9706 47.928 45.6476 47.97C45.6476 47.61 45.8546 47.262 45.8136 46.998C44.9986 46.858 43.9356 46.956 43.3836 46.568H43.3826ZM50.3446 46.832C50.3446 46.888 50.2746 46.874 50.2616 46.915C50.9936 47.485 51.5316 47.609 52.5116 47.553C52.9536 47.233 53.3546 46.845 53.8236 46.54C52.7466 46.637 51.3936 47.304 50.3436 46.832H50.3446ZM56.7246 48.775C56.6966 48.135 56.5316 46.818 56.1306 46.582C55.3006 46.096 53.8376 47.568 53.2166 47.79C53.2866 47.984 53.3966 48.137 53.4096 48.387C53.7906 48.3011 54.1894 48.3451 54.5426 48.512C54.1696 48.554 53.7696 48.554 53.5206 48.734C53.4376 48.998 53.5486 49.344 53.4806 49.706C54.3506 49.956 55.3606 50.081 56.4646 50.122C56.6716 49.844 56.7646 49.317 56.7266 48.776L56.7246 48.775ZM42.4286 47.125C42.2486 47 41.0486 45.431 40.8816 45.501C38.7116 46.361 36.6816 47.847 34.8716 49.263C36.5986 52.997 37.3016 57.563 37.4266 61.963C39.4016 62.893 41.1426 64.24 43.8366 64.378C43.5186 62.171 43.2426 60.186 43.0636 58.104C42.3866 57.814 41.4196 58.118 40.7836 58.021C40.7836 57.258 41.7506 57.688 41.8336 57.174C41.8886 56.784 41.2936 56.758 41.4886 56.147C41.9856 56.327 42.2486 56.73 42.7736 56.883C43.2566 55.828 42.7736 53.953 42.8436 53.066C42.8576 52.9 42.9266 52.15 43.2996 52.276C43.6316 52.386 43.2856 54.289 43.3136 55.122C43.3416 55.899 43.2166 56.635 43.5336 57.122C46.1306 56.762 48.7686 56.539 51.5866 56.456C50.9646 56.192 50.2326 55.942 49.4316 55.484C48.9896 55.234 47.6216 54.721 47.4976 54.304C47.2906 53.638 48.0226 53.291 48.1476 52.722C46.8356 53.444 46.5876 52.028 46.2696 51.042C45.9936 50.14 45.8276 49.46 45.7596 48.946C44.6136 48.363 43.3976 47.822 42.4296 47.128L42.4286 47.125ZM55.5786 45.681C57.3786 44.807 57.7186 48.981 57.0016 50.317C57.1116 50.719 57.4846 50.872 57.6366 51.233C56.6286 53.0511 55.5096 54.745 54.4736 56.536C55.2336 56.05 56.3386 56.453 57.2366 56.092C57.5686 55.967 57.8026 55.204 58.0516 54.592C58.7516 52.926 59.4616 50.816 59.7786 49.234C59.8486 48.874 60.0546 48.082 59.9986 47.762C59.9156 47.179 59.1426 46.749 58.7416 46.402C58.0096 45.736 57.5536 45.167 56.7816 44.542C56.4816 45 55.8286 45.305 55.5796 45.68L55.5786 45.681ZM38.2986 29.565C37.4426 30.523 37.6216 32.3 37.7186 33.577C39.2786 32.592 41.3386 33.66 41.3236 35.327C42.0696 35.313 41.5996 34.397 41.4616 33.8C41.0196 31.87 42.2076 29.788 41.5166 28.026C40.1766 28.136 39.0866 28.678 38.2986 29.566V29.565ZM44.4586 24.027C42.5116 24.582 40.0106 26.012 39.2086 27.775C39.8306 27.678 40.2586 27.373 40.8666 27.331C41.1016 27.317 41.4066 27.428 41.6666 27.359C42.1916 27.219 42.6466 26.026 43.0466 25.582C43.4336 25.152 43.9026 24.957 44.2206 24.569C44.4276 24.472 44.7306 24.472 44.7456 24.166C44.6626 24.069 44.5656 24 44.4456 24.026L44.4586 24.027ZM54.6106 24.554C52.5806 23.402 49.1546 22.541 47.0006 23.624C45.2606 24.498 42.9126 25.942 42.1006 27.761C42.8466 29.524 41.8806 31.134 41.8006 32.925C41.7726 33.883 42.2426 34.702 42.2836 35.743C42.0216 36.173 41.2476 36.215 40.7086 36.187C40.5286 35.271 40.2116 34.244 39.2716 34.133C37.9456 33.98 36.9646 35.091 36.9096 36.233C36.8396 37.593 37.9456 39.843 39.5196 39.689C40.1276 39.633 40.2796 39.023 40.9426 39.023C41.3026 39.745 40.3906 39.967 40.2926 40.48C40.2646 40.62 40.3626 41.132 40.4306 41.382C40.7306 42.562 41.3556 44.102 41.9776 45.005C42.7776 46.157 44.3396 46.325 46.0246 46.435C46.3286 45.783 47.4346 45.838 48.1516 46.005C47.2816 45.658 46.4816 44.825 45.8176 44.089C45.0576 43.242 44.2846 42.339 44.2426 41.229C45.6926 43.242 46.8806 45.005 49.5056 45.893C51.4956 46.559 53.8056 45.587 55.3486 44.505C55.9836 44.061 56.3566 43.339 56.8126 42.7C58.4976 40.257 59.2846 36.787 59.1196 33.414C59.0496 32.026 59.0496 30.638 58.5796 29.708C58.0966 28.736 56.4526 27.848 55.4856 28.736C55.3056 27.778 56.2856 27.196 57.4326 27.542C56.6176 26.472 55.7626 25.21 54.5876 24.544L54.6106 24.554ZM58.3986 55.94C59.9866 55.15 62.9426 53.816 63.9236 55.94C64.2966 56.73 64.7236 58.04 64.9036 58.87C65.1656 60.008 64.6036 62.424 63.4396 62.798C62.4036 63.131 61.2016 63.118 59.9596 62.868C59.8076 62.743 59.6556 62.535 59.5316 62.313C58.6476 62.285 57.8046 62.355 57.1146 62.73C57.1846 63.396 56.7416 63.493 56.3146 63.632C56.0106 64.867 56.9366 66.477 56.7146 67.588C56.5626 68.393 55.5816 68.518 54.8646 68.658C54.8366 69.102 54.8926 69.478 54.9476 69.852C54.7816 70.462 54.0496 70.81 53.3456 70.892C51.0386 71.17 47.5456 71.294 45.3356 70.489C44.7136 68.962 44.2306 67.116 43.7196 65.381C41.5646 65.617 39.8096 64.451 38.1666 63.674C37.6006 63.41 36.8126 63.258 36.5916 62.8C36.3846 62.356 36.4676 61.51 36.4116 60.718C36.2876 58.678 36.1616 56.706 35.6386 54.624C35.4036 53.68 34.9756 52.861 34.6856 51.959C34.4096 51.126 33.9396 50.085 33.8156 49.252C33.6356 48.017 34.7956 47.947 35.5286 47.406C36.6746 46.573 37.5726 46.116 38.8156 45.366C39.1886 45.144 40.2936 44.589 40.4176 44.326C40.6676 43.813 39.9896 43.091 39.8096 42.688C39.5096 42.05 39.3676 41.508 39.3266 40.883C38.2906 40.717 37.4896 40.093 37.0196 39.398C36.2326 38.232 35.6796 36.08 36.3696 34.456C36.4246 34.331 36.6876 34.066 36.7296 33.873C36.8126 33.483 36.5776 32.971 36.5636 32.553C36.4936 30.429 36.9236 28.597 38.3456 27.958C38.9256 25.64 40.9976 24.878 42.9456 23.724C43.6776 23.294 44.4786 23.016 45.3076 22.711C48.2776 21.615 52.8496 21.823 55.3216 23.697C56.3716 24.487 58.0416 26.167 58.6366 27.389C60.2246 30.596 60.1006 35.967 58.9966 39.882C58.8446 40.409 58.6366 41.172 58.3336 41.812C58.1266 42.256 57.4776 43.132 57.5466 43.519C57.6296 43.922 59.0386 44.989 59.3426 45.282C59.8826 45.809 60.9176 46.504 60.9996 47.17C61.0966 47.878 60.6956 48.85 60.4896 49.53C59.8266 51.807 59.1636 53.903 58.4036 55.943L58.3986 55.94Z" fill="#231F20"/>
<path d="M47.8305 40.17C47.9135 40.06 48.3825 39.88 49.0455 40.198C49.0455 40.198 48.2585 40.323 48.3275 41.642L47.9975 41.572C48.0115 41.586 47.6675 40.392 47.8315 40.17" fill="#F7E4CD"/>
<path d="M53.5481 51.442C53.5481 51.636 53.3821 51.802 53.1881 51.802C52.9941 51.802 52.8281 51.635 52.8281 51.442C52.8281 51.249 52.9941 51.082 53.1881 51.082C53.3951 51.082 53.5481 51.248 53.5481 51.442ZM53.9081 53.122C53.9081 53.316 53.7421 53.482 53.5481 53.482C53.3541 53.482 53.1881 53.316 53.1881 53.122C53.1881 52.928 53.3541 52.762 53.5481 52.762C53.7551 52.762 53.9081 52.915 53.9081 53.122Z" fill="#1D1919"/>
<path d="M84.7224 42.7461L84.2254 42.8181L83.7524 42.9131C83.5394 42.9611 83.4224 43.0561 83.3744 43.1991C83.3264 43.3421 83.2794 43.4851 83.2794 43.6751V49.4751C83.2794 49.9858 83.1664 50.4902 82.9484 50.9521C82.7466 51.3874 82.4472 51.7703 82.0734 52.0711C81.6954 52.3571 81.2694 52.5951 80.7964 52.7381C80.3142 52.8904 79.8121 52.9706 79.3064 52.9761C78.3844 52.9761 77.6514 52.7621 77.0844 52.3091C76.5174 51.8561 76.2344 51.2611 76.2344 50.4751C76.2344 50.0231 76.3524 49.6411 76.6124 49.3321C76.8724 49.0231 77.2274 48.8801 77.6764 48.8801C78.1024 48.8801 78.4334 49.0001 78.6934 49.2601C78.9534 49.5201 79.0714 49.8301 79.0714 50.1901C79.0714 50.4901 78.9534 50.8101 78.7414 51.0701C78.5294 51.3301 78.2684 51.5941 77.9844 51.8081V51.9031C78.0314 51.9981 78.1264 52.1031 78.2684 52.1651C78.4104 52.2271 78.5754 52.2601 78.7184 52.2601C79.3084 52.2601 79.7824 52.0461 80.1134 51.6171C80.4444 51.1881 80.6104 50.5471 80.6104 49.6871V43.7331C80.6136 43.5794 80.5896 43.4264 80.5394 43.2811C80.4924 43.1611 80.3494 43.0671 80.1374 42.9811C79.9954 42.9111 79.8074 42.8611 79.5934 42.8141L79.0734 42.7191V42.1471H84.6534V42.7421H84.7234L84.7224 42.7461ZM93.4704 50.9381C93.3054 51.2241 93.0924 51.4851 92.8554 51.7381C92.6184 51.9911 92.3354 52.1901 92.0274 52.3811C91.715 52.5638 91.3816 52.7079 91.0344 52.8101C90.7044 52.9051 90.3014 52.9531 89.8744 52.9531C89.1414 52.9531 88.5264 52.8581 87.9844 52.6531C87.4644 52.4391 87.0144 52.1771 86.6844 51.8201C86.3294 51.4631 86.0944 51.0581 85.9044 50.5821C85.7319 50.0842 85.644 49.561 85.6444 49.0341C85.6427 48.5361 85.7392 48.0427 85.9284 47.5821C86.1184 47.1291 86.3784 46.7021 86.7084 46.3441C87.0384 45.9861 87.4654 45.7011 87.9854 45.4871C88.5252 45.2647 89.1036 45.1512 89.6874 45.1531C90.3734 45.1531 90.9404 45.2491 91.3894 45.4151C91.8384 45.5811 92.1934 45.8201 92.4774 46.1051C92.7614 46.3901 92.9504 46.7251 93.0924 47.1051C93.2163 47.4979 93.28 47.9072 93.2814 48.3191V48.7951H88.2914C88.2914 49.8191 88.4814 50.5811 88.8814 51.0951C89.2594 51.6191 89.8984 51.8811 90.7254 51.8811C91.1984 51.8811 91.6004 51.7611 91.9784 51.5011C92.3564 51.2411 92.6784 50.9011 92.9244 50.5241L93.4684 50.9291L93.4704 50.9381ZM90.6574 48.1041C90.6574 47.8181 90.6334 47.5091 90.6104 47.1991C90.5874 46.8891 90.5404 46.6291 90.4444 46.4371C90.3494 46.1991 90.2544 46.0321 90.0894 45.9131C89.9474 45.7931 89.7594 45.7461 89.5454 45.7461C89.1674 45.7461 88.8594 45.9361 88.6474 46.3181C88.4104 46.6981 88.2924 47.3181 88.2694 48.1521L90.6574 48.1041ZM103.898 52.7001H99.4534V52.1521C99.5484 52.1521 99.6664 52.1281 99.7834 52.1041C99.8874 52.0884 99.99 52.0647 100.09 52.0331C100.184 51.9851 100.255 51.8901 100.303 51.7951C100.351 51.7001 100.373 51.5331 100.373 51.3431V47.8661C100.373 47.3661 100.278 46.9861 100.089 46.7231C99.9004 46.4601 99.6394 46.3431 99.2614 46.3431C99.0714 46.3431 98.8834 46.3671 98.7174 46.4381C98.5514 46.4861 98.3874 46.5811 98.2204 46.7001C98.0784 46.7951 97.9604 46.8901 97.8654 47.0001C97.7796 47.0834 97.7076 47.18 97.6524 47.2861V51.2631C97.6524 51.4301 97.6764 51.5631 97.7224 51.6931C97.7684 51.8231 97.8644 51.9081 97.9584 51.9551C98.0284 52.0031 98.1234 52.0501 98.2424 52.0751L98.5974 52.1471V52.6951H94.1084V52.1471C94.2264 52.1471 94.3444 52.1231 94.4864 52.0991L94.8164 52.0291C94.8863 52.0099 94.9517 51.9768 95.0085 51.9318C95.0654 51.8867 95.1126 51.8307 95.1474 51.7671C95.2084 51.6241 95.2404 51.4705 95.2414 51.3151V46.9811C95.2414 46.8381 95.1944 46.6811 95.1234 46.5291C95.0475 46.3897 94.9429 46.268 94.8164 46.1721C94.7214 46.1241 94.6264 46.0521 94.4864 46.0291C94.3418 45.9802 94.19 45.9559 94.0374 45.9571V45.4091L97.5604 45.2191L97.6784 45.3391V46.4111H97.7024L98.1984 45.9581L98.7424 45.5281C98.9324 45.4081 99.1684 45.3141 99.4524 45.2281C99.7364 45.1421 100.067 45.1081 100.398 45.1081C101.202 45.1081 101.793 45.3461 102.195 45.7981C102.597 46.2501 102.785 46.8701 102.785 47.6321V51.2751C102.785 51.4651 102.809 51.6091 102.855 51.7051C102.902 51.8251 103.021 51.8951 103.162 51.9671C103.232 51.9911 103.328 52.0391 103.446 52.0621L103.848 52.1341V52.7041H103.895L103.898 52.7001ZM114.065 52.7001H110.598L109.416 50.7701L108.423 49.3171L107.997 49.6971V51.3171C107.992 51.4634 108.016 51.6094 108.068 51.7461C108.115 51.8661 108.21 51.9361 108.375 52.0081C108.47 52.0561 108.565 52.0801 108.682 52.1031C108.799 52.1261 108.918 52.1511 109.037 52.1511V52.6991H104.45V52.1511C104.568 52.1511 104.687 52.1271 104.828 52.1031L105.158 52.0331C105.228 52.0139 105.294 51.9808 105.351 51.9358C105.407 51.8907 105.455 51.8347 105.489 51.7711C105.536 51.6511 105.584 51.5091 105.584 51.3191V43.0321C105.584 42.8651 105.537 42.6981 105.466 42.5321C105.395 42.3661 105.301 42.2321 105.159 42.1271C105.064 42.0791 104.923 42.0071 104.733 41.9841C104.543 41.9361 104.378 41.9121 104.213 41.9121V41.3641L107.878 41.1741L107.996 41.2941V48.9621L109.226 47.8191L110.314 46.7471C110.48 46.5801 110.574 46.4611 110.574 46.3671C110.598 46.2721 110.598 46.2241 110.598 46.2001C110.598 46.1051 110.528 46.0331 110.362 45.9861C110.196 45.9391 109.984 45.8661 109.652 45.8191V45.2951H113.388V45.8191L112.253 46.1991C111.993 46.3191 111.709 46.4851 111.403 46.6751L110.813 47.1051L110.151 47.6531L111.475 49.6061L112.752 51.5111C112.894 51.7491 113.082 51.8911 113.32 51.9871C113.556 52.0591 113.77 52.1071 114.006 52.1301V52.7001H114.076H114.065ZM118.795 52.7001H114.137V52.1521C114.265 52.1478 114.391 52.1317 114.515 52.1041L114.822 52.0341C114.892 52.0149 114.958 51.9818 115.015 51.9368C115.071 51.8917 115.119 51.8357 115.153 51.7721C115.223 51.6521 115.247 51.5101 115.247 51.3201V46.9861C115.247 46.8191 115.2 46.6521 115.129 46.5341C115.068 46.4048 114.969 46.2968 114.845 46.2241C114.75 46.1761 114.632 46.1041 114.443 46.0571C114.254 46.0101 114.088 45.9621 113.946 45.9621V45.4141L117.563 45.2241L117.681 45.3441V51.2501C117.681 51.4171 117.728 51.5501 117.799 51.7021C117.869 51.8221 117.989 51.9171 118.106 51.9641C118.211 52.0179 118.322 52.0579 118.437 52.0831L118.815 52.1551V52.7031H118.791L118.795 52.7001ZM117.731 42.5801C117.731 42.9601 117.589 43.2801 117.305 43.5321C117.021 43.7841 116.665 43.9371 116.288 43.9371C115.886 43.9371 115.555 43.7941 115.248 43.5321C114.964 43.2701 114.822 42.9371 114.822 42.5791C114.822 42.1991 114.964 41.8791 115.248 41.6031C115.53 41.3393 115.903 41.1943 116.288 41.1981C116.69 41.1981 117.021 41.3411 117.305 41.6031C117.589 41.8651 117.731 42.1981 117.731 42.5791V42.5801ZM129.221 52.7001H124.776V52.1521C124.871 52.1521 124.989 52.1281 125.106 52.1041C125.248 52.0801 125.342 52.0561 125.413 52.0341C125.508 51.9861 125.578 51.8911 125.626 51.7961C125.674 51.7011 125.696 51.5341 125.696 51.3441V47.8671C125.696 47.3671 125.601 46.9871 125.412 46.7241C125.223 46.4611 124.962 46.3441 124.584 46.3441C124.398 46.3388 124.213 46.3711 124.04 46.4391C123.874 46.5091 123.71 46.5821 123.543 46.7011C123.401 46.7961 123.283 46.8911 123.188 47.0011C123.103 47.0844 123.031 47.181 122.975 47.2871V51.2641C122.975 51.4311 122.999 51.5641 123.045 51.6941C123.091 51.8241 123.187 51.9091 123.282 51.9561C123.352 52.0041 123.447 52.0511 123.566 52.0761L123.921 52.1481V52.6961H119.429V52.1481C119.547 52.1481 119.665 52.1241 119.807 52.1001L120.137 52.0301C120.207 52.0109 120.273 51.9778 120.33 51.9328C120.386 51.8877 120.434 51.8317 120.468 51.7681C120.53 51.6252 120.562 51.4716 120.563 51.3161V46.9821C120.563 46.8391 120.516 46.6821 120.445 46.5301C120.369 46.3907 120.265 46.269 120.138 46.1731C120.043 46.1251 119.948 46.0531 119.808 46.0301C119.664 45.9812 119.512 45.9569 119.359 45.9581V45.4101L122.882 45.2201L123 45.3401V46.4121H123.024L123.52 45.9591L124.064 45.5291C124.254 45.4091 124.49 45.3151 124.774 45.2291C125.058 45.1431 125.389 45.1091 125.72 45.1091C126.524 45.1091 127.115 45.3471 127.517 45.7991C127.919 46.2511 128.107 46.8711 128.107 47.6331V51.2761C128.107 51.4661 128.131 51.6101 128.177 51.7061C128.224 51.8261 128.343 51.8961 128.484 51.9681C128.554 51.9921 128.65 52.0401 128.768 52.0631L129.17 52.1351V52.7051H129.217L129.221 52.7001ZM133.321 52.9621C132.848 52.9621 132.376 52.8921 131.926 52.7481C131.476 52.6041 131.122 52.4621 130.862 52.2961L130.649 52.7961H130.081L129.986 50.0341H130.53C130.6 50.2481 130.72 50.5101 130.908 50.7961C131.074 51.0821 131.286 51.3201 131.498 51.5581C131.742 51.7806 132.012 51.9727 132.302 52.1301C132.609 52.2731 132.917 52.3681 133.248 52.3681C133.698 52.3681 134.028 52.2731 134.241 52.1061C134.454 51.9391 134.571 51.6541 134.571 51.3061C134.571 51.1161 134.524 50.9491 134.429 50.8061C134.317 50.6712 134.181 50.558 134.027 50.4721C133.837 50.3771 133.625 50.2721 133.387 50.2101L132.537 49.9481C132.207 49.8531 131.922 49.7581 131.687 49.6481C131.451 49.5531 131.191 49.3861 130.954 49.1721C130.741 48.9721 130.552 48.7421 130.434 48.4721C130.292 48.2101 130.244 47.8771 130.244 47.4961C130.237 47.1635 130.314 46.8345 130.467 46.5391C130.619 46.2437 130.844 45.9914 131.119 45.8051C131.709 45.3751 132.467 45.1621 133.412 45.1621C133.827 45.1585 134.24 45.2065 134.642 45.3051C135.02 45.4001 135.328 45.4951 135.588 45.6051L135.753 45.1751H136.32L136.438 47.6991H135.918C135.752 47.1751 135.445 46.7461 135.043 46.3651C134.617 45.9851 134.168 45.7951 133.696 45.7951C133.318 45.7951 133.01 45.8651 132.796 46.0331C132.582 46.2011 132.466 46.4131 132.466 46.7001C132.466 47.0801 132.632 47.3431 132.939 47.5001C133.246 47.6571 133.696 47.8341 134.263 47.9761C135.138 48.2141 135.776 48.5241 136.203 48.9061C136.605 49.3111 136.818 49.8111 136.818 50.4061C136.818 51.2061 136.511 51.8591 135.872 52.2881C135.162 52.7161 134.335 52.9541 133.319 52.9541L133.321 52.9621Z" fill="#231F20"/>
</svg>
