<svg width="166" height="94" viewBox="0 0 166 94" fill="none" xmlns="http://www.w3.org/2000/svg">
<path d="M83.0424 17C68.7446 17 57 20.8298 57 25.6809C57 26.9575 60.0637 45.0851 61.3403 52.234C61.8511 55.5531 70.2766 60.1488 83.0424 60.1488C95.8084 60.1488 103.979 55.5531 104.744 52.234C106.021 45.0851 109.085 26.9575 109.085 25.6809C108.83 20.8298 97.3402 17 83.0424 17ZM83.0424 54.2765C78.4467 54.2765 74.8723 50.702 74.8723 46.1063C74.8723 41.5106 78.4467 37.9362 83.0424 37.9362C87.6381 37.9362 91.2126 41.5106 91.2126 46.1063C91.2126 50.4467 87.6381 54.2765 83.0424 54.2765ZM83.0424 28.2341C73.851 28.2341 66.4467 26.7019 66.4467 24.6596C66.4467 22.6169 73.851 21.0852 83.0424 21.0852C92.2338 21.0852 99.6381 22.6169 99.6381 24.6596C99.6381 26.7021 92.2338 28.2341 83.0424 28.2341Z" fill="#205081"/>
<path d="M101.886 59.1277C101.375 59.1277 101.12 59.383 101.12 59.383C101.12 59.383 94.7367 64.4895 83.2475 64.4895C71.758 64.4895 65.3752 59.383 65.3752 59.383C65.3752 59.383 64.8645 59.1277 64.6091 59.1277C64.0984 59.1277 63.5879 59.383 63.5879 60.1491V60.4043C64.6093 65.7659 65.3752 69.5957 65.3752 70.1064C66.1411 73.9362 73.8007 77.0001 82.9921 77.0001C92.1835 77.0001 99.8431 73.9362 100.609 70.1064C100.609 69.5957 101.375 65.7659 102.396 60.4043V60.1489C102.652 59.6382 102.396 59.1277 101.886 59.1277Z" fill="#205081"/>
<path d="M83.0422 49.9362C85.2984 49.9362 87.1274 48.1072 87.1274 45.851C87.1274 43.5949 85.2984 41.7659 83.0422 41.7659C80.786 41.7659 78.957 43.5949 78.957 45.851C78.957 48.1072 80.786 49.9362 83.0422 49.9362Z" fill="#205081"/>
</svg>
