<svg width="166" height="94" viewBox="0 0 166 94" fill="none" xmlns="http://www.w3.org/2000/svg">
<path d="M100.27 23.47C93.0546 17.266 77.0896 14.193 65.1296 23.1C53.9046 30.595 53.3496 44.292 53.3496 44.292C55.2616 51.786 62.8456 58.972 77.4596 55.472C75.7336 45.398 79.1166 19.909 100.27 23.472V23.47Z" fill="#00ACD2"/>
<path d="M92.7553 47.835C84.8603 54.36 60.8303 64.32 53.3503 44.293C51.5643 53.619 56.5203 69.141 70.2463 75.007C82.3733 80.942 95.0113 74.067 95.0113 74.067C100.571 68.671 103.106 58.69 92.7543 47.833" fill="#C8E9EB"/>
<path d="M78.4941 38.6799C88.1161 42.2269 108.684 57.6019 95.0101 74.0669C104.01 70.9449 114.566 58.9989 112.804 44.2269C111.9 30.7969 100.269 23.4709 100.269 23.4709C92.7991 21.3729 82.7571 24.3229 78.4941 38.6709" fill="#662D91"/>
</svg>
