<svg width="166" height="94" viewBox="0 0 166 94" fill="none" xmlns="http://www.w3.org/2000/svg">
<path d="M95.8975 15H69.9004C59.462 15 51 23.462 51 33.9004V59.8975C51 70.3359 59.462 78.7979 69.9004 78.7979H95.8975C106.336 78.7979 114.798 70.3359 114.798 59.8975V33.9004C114.798 23.462 106.336 15 95.8975 15Z" fill="#2671E5"/>
<path d="M100.174 44.5036C99.7294 43.8468 99.1392 43.3017 98.4492 42.9111C97.7592 42.5204 96.9881 42.2948 96.1964 42.2519C95.4047 42.209 94.6137 42.3499 93.8855 42.6637C93.1574 42.9775 92.5117 43.4556 91.9991 44.0605C91.6509 44.4355 91.3579 44.8581 91.1289 45.3157C90.9022 45.7565 90.7262 46.2216 90.6044 46.7021H87.4452C87.3754 46.5855 87.3247 46.4584 87.295 46.3258C86.8652 44.6379 85.8118 43.431 84.2141 42.7658C81.1385 41.4849 77.8001 43.184 76.94 46.4232C76.8835 46.636 76.9255 46.8768 76.5655 46.9263C75.0745 47.1313 73.3914 46.2782 72.6848 44.9171C72.2083 43.9994 72.2335 43.9196 73.2577 43.7909C77.509 43.257 80.9806 38.9403 79.5111 33.9344C78.4464 30.3075 74.4715 27.9536 70.7484 28.7248C67.2387 29.4518 64.7607 32.3782 64.577 36.0128C64.4082 39.3563 66.7208 42.552 70.0787 43.5454C70.5847 43.695 70.6991 43.9189 70.6966 44.4045C70.6792 47.7944 70.6637 51.1848 70.7008 54.5744C70.7351 57.7095 73.0348 60.2617 76.1162 60.5923C76.6969 60.6545 76.8933 60.8596 77.039 61.3985C77.6129 63.5239 79.5216 65.0356 81.7444 65.2042C82.8105 65.2897 83.8775 65.05 84.8046 64.5167C85.7317 63.9834 86.4753 63.1815 86.9372 62.2169C88.2957 59.3047 86.9501 55.9792 83.9674 54.8772C81.013 53.7857 77.798 55.4777 76.9825 58.596C76.8429 59.1295 76.6086 59.1623 76.1626 59.0884C73.8731 58.7095 72.2834 56.8854 72.2195 54.5056C72.1938 53.5501 72.2133 52.5934 72.213 51.6372C72.2127 50.1226 72.213 48.6076 72.213 46.9183C72.9503 47.4835 73.5711 47.9087 74.3011 48.1563C75.0272 48.3881 75.7895 48.4848 76.5504 48.4417C76.917 48.429 76.8864 48.7048 76.9439 48.9208C77.3373 50.3978 78.1664 51.5498 79.5027 52.309C80.2113 52.7172 81.0046 52.956 81.8207 53.0069C82.6369 53.0579 83.4538 52.9195 84.2076 52.6025C84.9614 52.2856 85.6317 51.7987 86.1663 51.1798C86.7008 50.561 87.0851 49.827 87.2891 49.0351C87.3189 48.9047 87.3704 48.7802 87.4414 48.6668H90.6534C90.6738 48.8405 90.7103 49.012 90.7623 49.179C91.4258 51.5678 93.6164 53.0906 96.1213 53.0055C98.1307 52.9373 100.395 51.672 101.088 48.8446C101.266 48.0984 101.277 47.322 101.119 46.5713C100.961 45.8205 100.638 45.1143 100.174 44.5035V44.5036ZM82.1484 56.0956C82.6492 56.0908 83.1459 56.1858 83.6096 56.3751C84.0733 56.5643 84.4946 56.8441 84.8491 57.1979C85.2035 57.5518 85.4839 57.9727 85.6739 58.436C85.8639 58.8994 85.9597 59.396 85.9557 59.8968C85.958 60.6517 85.7363 61.3902 85.3185 62.0189C84.9006 62.6476 84.3056 63.1381 83.6088 63.4283C82.912 63.7185 82.1447 63.7954 81.4041 63.6492C80.6636 63.5029 79.9831 63.1401 79.4489 62.6068C78.9147 62.0735 78.5509 61.3936 78.4034 60.6533C78.256 59.913 78.3316 59.1456 78.6207 58.4483C78.9098 57.751 79.3993 57.1552 80.0273 56.7363C80.6553 56.3175 81.3935 56.0945 82.1484 56.0956ZM66.1473 36.1922C66.1603 34.585 66.8086 33.0483 67.9506 31.9174C69.0927 30.7865 70.6357 30.1534 72.2429 30.1562C73.8501 30.159 75.3909 30.7975 76.529 31.9324C77.6671 33.0672 78.31 34.6062 78.3174 36.2134C78.321 37.0158 78.166 37.8109 77.8612 38.5531C77.5564 39.2953 77.1078 39.9699 76.5412 40.5381C75.9747 41.1062 75.3014 41.5567 74.56 41.8637C73.8187 42.1706 73.024 42.3279 72.2216 42.3265C71.4193 42.3251 70.6251 42.165 69.8849 41.8555C69.1446 41.546 68.4729 41.0931 67.9083 40.523C67.3438 39.9529 66.8976 39.2767 66.5953 38.5334C66.2931 37.7902 66.1409 36.9945 66.1473 36.1922ZM82.1222 51.4812C81.3717 51.4743 80.6401 51.2453 80.0197 50.8229C79.3993 50.4006 78.9179 49.8039 78.6363 49.1082C78.3547 48.4125 78.2856 47.649 78.4376 46.914C78.5896 46.179 78.956 45.5056 79.4904 44.9787C80.0248 44.4517 80.7034 44.095 81.4405 43.9534C82.1775 43.8118 82.94 43.8918 83.6316 44.1832C84.3233 44.4746 84.9131 44.9644 85.3266 45.5907C85.7401 46.2171 85.9587 46.9519 85.9549 47.7024C85.953 48.2026 85.8521 48.6975 85.6581 49.1586C85.4642 49.6197 85.1809 50.0379 84.8247 50.3891C84.4685 50.7403 84.0463 51.0176 83.5825 51.205C83.1187 51.3924 82.6224 51.4863 82.1222 51.4812ZM94.2043 51.1051C93.3571 50.699 92.6889 49.9954 92.327 49.1283C91.9652 48.2612 91.935 47.2914 92.2422 46.4035C92.5494 45.5156 93.1725 44.7717 93.9929 44.3137C94.8132 43.8557 95.7734 43.7155 96.6904 43.9198C97.6075 44.1241 98.4173 44.6587 98.9656 45.4217C99.5139 46.1847 99.7623 47.1227 99.6634 48.0571C99.5646 48.9914 99.1255 49.8567 98.4298 50.4881C97.734 51.1195 96.8303 51.4729 95.8908 51.4809C95.8553 51.4809 95.8202 51.4795 95.7849 51.4785C95.2382 51.4616 94.7007 51.3346 94.2043 51.105V51.1051Z" fill="white"/>
<path d="M75.3635 34.9438C74.1141 34.1193 72.8473 33.3212 71.5632 32.5495C70.4307 31.8655 69.2112 32.5559 69.1793 33.8809C69.1604 34.662 69.1758 35.4439 69.1767 36.2254C69.1777 37.0286 69.1625 37.8322 69.1811 38.6349C69.2101 39.8805 70.4055 40.5954 71.4733 39.9737C72.7854 39.2098 74.0774 38.4116 75.3492 37.5792C76.4076 36.887 76.4103 35.6345 75.3637 34.9437L75.3635 34.9438ZM74.3232 36.4322C73.2328 37.1062 72.1429 37.7808 71.0535 38.4561C70.8645 38.5732 70.7184 38.5846 70.7178 38.3039C70.7155 36.8551 70.7168 35.4065 70.7168 33.8206C71.9944 34.6233 73.1639 35.357 74.3317 36.0932C74.5085 36.2048 74.5034 36.3209 74.3232 36.4323V36.4322ZM80.6058 60.6393C81.0682 60.6091 81.3501 60.3479 81.3678 59.914C81.3788 59.8163 81.3685 59.7173 81.3377 59.6239C81.3069 59.5305 81.2563 59.4449 81.1894 59.3729C81.1224 59.3009 81.0407 59.2442 80.9498 59.2067C80.8589 59.1692 80.761 59.1518 80.6627 59.1556C80.1788 59.1371 79.8883 59.4068 79.8814 59.8973C79.8747 60.3659 80.1717 60.5821 80.6058 60.6393ZM83.7027 60.6301C84.1498 60.5639 84.4364 60.324 84.4125 59.8564C84.3891 59.3964 84.0975 59.1349 83.6386 59.1563C83.1837 59.1775 82.9042 59.4596 82.9233 59.9184C82.9424 60.3778 83.2462 60.6033 83.7027 60.6301ZM97.8652 47.2549C98.0396 47.081 98.1802 46.894 98.1609 46.6102C98.1701 46.4709 98.1352 46.3321 98.0613 46.2137C97.9873 46.0952 97.878 46.003 97.7488 45.95C97.6133 45.8761 97.457 45.8494 97.3047 45.8741C97.1523 45.8988 97.0125 45.9735 96.9073 46.0864C96.5032 46.4493 96.1187 46.8336 95.7557 47.2377C95.3441 47.7213 95.0051 47.9483 94.5007 47.3204C94.204 46.9513 93.7556 46.9585 93.411 47.3188C93.0872 47.6572 93.1396 48.0418 93.4384 48.3717C93.7587 48.7256 94.1009 49.0615 94.4496 49.3878C94.9322 49.8393 95.2604 49.8402 95.7425 49.3718C96.4592 48.6756 97.1576 47.9605 97.8652 47.2549ZM84.051 45.9655C83.9198 45.8841 83.7651 45.8491 83.6116 45.866C83.4582 45.8829 83.3148 45.9507 83.2044 46.0587C82.8131 46.4019 82.4407 46.7661 82.0888 47.1495C81.6613 47.6286 81.2959 48.0037 80.7228 47.2863C80.4429 46.9356 80.0042 46.9849 79.6846 47.3112C79.3583 47.6441 79.3918 48.0266 79.6967 48.3593C80.0335 48.7268 80.3967 49.0701 80.7517 49.4203C81.1762 49.839 81.5921 49.7975 81.9993 49.3901C82.7043 48.6843 83.41 47.9793 84.1165 47.2749C84.3055 47.0864 84.4676 46.8868 84.4382 46.601C84.4429 46.4688 84.4087 46.3382 84.3399 46.2252C84.2711 46.1122 84.1706 46.0219 84.051 45.9655Z" fill="white"/>
</svg>
