<svg width="166" height="94" viewBox="0 0 166 94" fill="none" xmlns="http://www.w3.org/2000/svg">
<path d="M102.876 37.8998L100.899 37.2768L101.204 35.9288C102.7 28.6658 101.722 22.8148 98.3806 20.8888C95.1776 19.0418 89.9386 20.9688 84.6486 25.5718C84.1272 26.0265 83.6173 26.4943 83.1196 26.9748C82.7866 26.6548 82.4476 26.3418 82.1026 26.0348C76.5596 21.1118 70.9996 19.0378 67.6636 20.9698C64.4636 22.8218 63.5156 28.3228 64.8636 35.2058C64.9977 35.8875 65.149 36.5658 65.3176 37.2398C64.5316 37.4628 63.7716 37.6998 63.0446 37.9548C56.5446 40.2208 52.3926 43.7728 52.3926 47.4578C52.3926 51.2628 56.8496 55.0798 63.6206 57.3938C64.1695 57.5806 64.723 57.7536 65.2806 57.9128C65.1006 58.6388 64.9386 59.3698 64.7986 60.1048C63.5146 66.8688 64.5186 72.2388 67.6986 74.0798C70.9946 75.9798 76.5286 74.0268 81.9156 69.3178C82.3416 68.9458 82.7686 68.5508 83.1956 68.1378C83.7347 68.6578 84.2883 69.1627 84.8556 69.6518C90.0736 74.1518 95.2276 75.9558 98.4156 74.1098C101.709 72.2028 102.78 66.4338 101.39 59.4148C101.28 58.8649 101.157 58.3178 101.022 57.7738C101.412 57.6588 101.792 57.5408 102.164 57.4168C109.204 55.0848 113.784 51.3148 113.784 47.4568C113.784 43.7588 109.499 40.1828 102.867 37.8998H102.876Z" fill="#53C1DE"/>
<path d="M101.35 54.9262L100.32 55.2492C99.5426 52.7892 98.4936 50.1732 97.2096 47.4692C98.4346 44.8292 99.4426 42.2492 100.198 39.8042L102.023 40.3802C107.705 42.3362 111.171 45.2282 111.171 47.4562C111.171 49.8302 107.428 52.9112 101.351 54.9262H101.35ZM98.8276 59.9232C99.4416 63.0272 99.5296 65.8232 99.1226 68.0272C98.7566 69.9972 98.0226 71.3122 97.1226 71.8392C95.1876 72.9592 91.0496 71.5032 86.5866 67.6632C86.0746 67.2232 85.5596 66.7632 85.0426 66.2552C86.7726 64.3632 88.5026 62.1632 90.1896 59.7202C93.1576 59.4572 95.9626 59.0262 98.5056 58.4382C98.6306 58.9432 98.7416 59.4382 98.8376 59.9232H98.8276ZM73.3246 71.6452C71.4246 72.3132 69.9286 72.3322 69.0186 71.8072C67.0816 70.6902 66.2766 66.3772 67.3746 60.5942C67.5051 59.9105 67.6545 59.2306 67.8226 58.5552C70.3376 59.1112 73.1226 59.5122 76.0966 59.7532C77.7966 62.1532 79.5746 64.3412 81.3666 66.2652C80.9855 66.6337 80.5954 66.9928 80.1966 67.3422C77.8146 69.4252 75.4266 70.9022 73.3236 71.6452H73.3246ZM64.4676 54.9102C61.4736 53.8872 59.0006 52.5572 57.3076 51.1062C55.7846 49.8022 55.0156 48.5062 55.0156 47.4562C55.0156 45.2202 58.3486 42.3682 63.9086 40.4302C64.6066 40.1882 65.3116 39.9662 66.0216 39.7652C66.7896 42.2652 67.7976 44.8772 69.0146 47.5202C67.7826 50.2022 66.7606 52.8562 65.9846 55.3852C65.4755 55.2396 64.97 55.0816 64.4686 54.9112L64.4676 54.9102ZM67.4376 34.7002C66.2836 28.8022 67.0496 24.3542 68.9776 23.2382C71.0316 22.0482 75.5736 23.7452 80.3616 27.9952C80.6738 28.2732 80.9808 28.5569 81.2826 28.8462C79.4986 30.7612 77.7366 32.9422 76.0526 35.3192C73.1646 35.5872 70.4006 36.0172 67.8596 36.5922C67.7031 35.9652 67.5624 35.3343 67.4376 34.7002ZM93.9236 41.2402C93.3234 40.2032 92.7009 39.1793 92.0566 38.1692C94.0166 38.4162 95.8926 38.7452 97.6566 39.1492C97.1266 40.8452 96.4666 42.6192 95.6916 44.4362C95.1243 43.3595 94.5355 42.2943 93.9256 41.2412L93.9236 41.2402ZM83.1236 30.7202C84.3236 32.0302 85.5436 33.4942 86.7366 35.0822C84.319 34.9678 81.8973 34.9672 79.4796 35.0802C80.6726 33.5072 81.8946 32.0452 83.1236 30.7202ZM72.2516 41.2602C71.6493 42.3049 71.0715 43.3635 70.5186 44.4352C69.7546 42.6232 69.1016 40.8422 68.5686 39.1222C70.3206 38.7302 72.1886 38.4102 74.1356 38.1662C73.4836 39.1822 72.8556 40.2142 72.2536 41.2592L72.2516 41.2602ZM74.1996 56.9352C72.299 56.7289 70.4101 56.4252 68.5406 56.0252C69.0826 54.2752 69.7406 52.4552 70.5406 50.6052C71.0956 51.6782 71.6766 52.7372 72.2806 53.7822C72.8981 54.8484 73.541 55.8997 74.2086 56.9352H74.1996ZM83.2036 64.3782C81.9606 63.0362 80.7206 61.5532 79.5096 59.9582C80.6856 60.0042 81.8836 60.0282 83.1016 60.0282C84.3536 60.0282 85.5916 60.0002 86.8086 59.9462C85.6835 61.4848 84.4803 62.9647 83.2036 64.3802V64.3782ZM95.7136 50.5002C96.5336 52.3702 97.2266 54.1802 97.7756 55.9002C95.9956 56.3062 94.0736 56.6332 92.0476 56.8762C92.6966 55.8475 93.3251 54.8059 93.9326 53.7522C94.5506 52.6822 95.1426 51.5962 95.7126 50.4992L95.7136 50.5002ZM91.6606 52.4432C90.7304 54.059 89.7479 55.6442 88.7146 57.1962C86.8926 57.3262 85.0106 57.3932 83.0916 57.3932C81.2372 57.3944 79.3832 57.3357 77.5326 57.2172C76.4726 55.6689 75.4716 54.0811 74.5316 52.4572C73.596 50.8419 72.722 49.1918 71.9116 47.5102C72.7199 45.828 73.5912 44.1769 74.5236 42.5602C75.4557 40.9435 76.4488 39.3627 77.5006 37.8212C79.3266 37.6832 81.1986 37.6212 83.0906 37.6212C84.9906 37.6212 86.8666 37.6942 88.6906 37.8332C89.7306 39.3732 90.7186 40.9482 91.6486 42.5572C92.5846 44.1702 93.4666 45.8132 94.2956 47.4842C93.4756 49.1712 92.5956 50.8292 91.6576 52.4542L91.6606 52.4432ZM97.0706 23.1532C99.1266 24.3392 99.9266 29.1212 98.6346 35.3932C98.5496 35.8032 98.4576 36.2082 98.3586 36.6132C95.8116 36.0252 93.0446 35.5882 90.1586 35.3162C88.4716 32.9142 86.7236 30.7292 84.9586 28.8382C85.4186 28.3952 85.8886 27.9632 86.3706 27.5432C90.9036 23.5982 95.1406 22.0402 97.0706 23.1532Z" fill="white"/>
<path d="M83.0924 41.9741C86.1204 41.9741 88.5754 44.4291 88.5754 47.4571C88.5754 50.4851 86.1204 52.9401 83.0924 52.9401C80.0644 52.9401 77.6094 50.4851 77.6094 47.4571C77.6094 44.4291 80.0644 41.9741 83.0924 41.9741Z" fill="#53C1DE"/>
</svg>
