<svg width="166" height="94" viewBox="0 0 166 94" fill="none" xmlns="http://www.w3.org/2000/svg">
<path d="M107.414 63.6839L84.584 77.0739C84.1041 77.3583 83.5564 77.5084 82.9985 77.5084C82.4406 77.5084 81.893 77.3583 81.413 77.0739L58.583 63.6839C57.6 63.1039 56.998 62.0439 56.998 60.9159V34.1379C56.998 32.9779 57.6 31.9499 58.583 31.3699L81.413 17.9799C81.893 17.6955 82.4406 17.5454 82.9985 17.5454C83.5564 17.5454 84.1041 17.6955 84.584 17.9799L107.414 31.3699C108.397 31.9499 108.999 33.0099 108.999 34.1379V60.9159C108.967 62.0419 108.365 63.1039 107.414 63.6839Z" fill="#8D6748"/>
<path d="M82.9675 21.6199C82.4915 21.6199 82.0175 21.7499 81.6045 22.0059L61.8825 33.5599C61.0265 34.0429 60.5195 34.9759 60.5195 35.9399V59.0499C60.5195 60.0479 61.0265 60.9499 61.8825 61.4319L81.6045 72.9859C82.0165 73.2439 82.4925 73.3719 82.9675 73.3719C83.4425 73.3719 83.9175 73.2419 84.3305 72.9859L104.053 61.4309C104.909 60.9479 105.416 60.0149 105.416 59.0509V35.9399C105.416 34.9419 104.909 34.0399 104.053 33.5599L84.3315 22.0049C83.9195 21.7479 83.4435 21.6189 82.9685 21.6189L82.9675 21.6199ZM82.9675 22.5849C83.2845 22.5849 83.5695 22.6819 83.8555 22.8429L103.578 34.3969C104.118 34.7189 104.466 35.3299 104.466 35.9739V59.0839C104.466 59.7279 104.116 60.3389 103.578 60.6609L83.8555 72.2129C83.5705 72.3729 83.2855 72.4709 82.9675 72.4709C82.6495 72.4709 82.3475 72.3809 82.0795 72.2129L62.3575 60.6599C61.8175 60.3379 61.4695 59.7269 61.4695 59.0829V35.9729C61.471 35.6562 61.5534 35.3451 61.7088 35.0691C61.8642 34.7931 62.0875 34.5614 62.3575 34.3959L82.0795 22.8419C82.3645 22.6819 82.6815 22.5839 82.9675 22.5839V22.5849ZM81.1445 42.7329H83.8075C83.9025 42.7329 83.9675 42.7009 84.0295 42.6359C85.6145 40.8339 85.7735 37.0679 85.7735 35.9419C85.7741 35.8572 85.741 35.7757 85.6816 35.7154C85.6222 35.655 85.5412 35.6207 85.4565 35.6199H79.4965C79.4118 35.6207 79.3309 35.655 79.2715 35.7154C79.2121 35.7757 79.179 35.8572 79.1795 35.9419C79.1795 37.0359 79.3395 40.8019 80.9235 42.6359C80.9865 42.6999 81.0505 42.7329 81.1455 42.7329H81.1445ZM80.4145 36.6179H84.5995C84.6842 36.6187 84.7652 36.653 84.8246 36.7134C84.884 36.7737 84.9171 36.8552 84.9165 36.9399C84.9165 37.8399 84.7565 40.3839 83.6795 41.7029C83.5845 41.7679 83.5215 41.7999 83.4255 41.7999H81.5555C81.4605 41.7999 81.3955 41.7679 81.3335 41.7029C80.2555 40.4159 80.1285 37.8409 80.0965 36.9399C80.096 36.8552 80.1291 36.7737 80.1885 36.7134C80.2479 36.653 80.3288 36.6187 80.4135 36.6179H80.4145ZM83.0775 34.9779C83.0775 34.9779 84.2195 34.3019 83.5215 33.0779C83.1095 32.4339 82.9195 31.8879 83.0775 31.6619C82.6655 32.1769 81.9775 32.7239 82.7275 33.8819C82.9815 34.1819 83.1075 34.7819 83.0775 34.9759V34.9779ZM81.8095 35.0739C81.8095 35.0739 82.5695 34.6239 82.0945 33.7869C81.8095 33.3689 81.6825 32.9819 81.8095 32.8539C81.5245 33.2079 81.0795 33.5619 81.5875 34.3669C81.7475 34.5269 81.8095 34.9469 81.8095 35.0749V35.0739ZM81.7145 41.4139H83.2995C83.3625 41.4139 83.4265 41.3819 83.4995 41.3179C84.0395 40.6739 84.2925 39.6779 84.4195 38.8079C84.4195 38.8079 84.3875 39.1079 83.6265 39.3879C82.5805 39.7739 80.7415 39.5179 80.7415 39.5179C80.8995 40.1939 81.1535 40.8379 81.5345 41.3199C81.5665 41.3839 81.6615 41.4159 81.7345 41.4159L81.7145 41.4139ZM69.7925 50.4579V44.0199H68.6195L66.6855 47.0449L64.7515 44.0199H63.5795V50.4899H64.6795V45.8879L66.6455 48.8809H66.6775L68.6755 45.8559V50.4579H69.7755H69.7925ZM76.8955 44.1499C76.4716 43.9812 76.0198 43.8937 75.5635 43.8919C75.0875 43.8919 74.6435 43.9559 74.2315 44.1499C73.8195 44.3099 73.4715 44.5679 73.1855 44.8579C72.885 45.1623 72.6478 45.5233 72.4875 45.9199C72.3243 46.3296 72.2382 46.7659 72.2335 47.2069V47.2389C72.2351 47.6802 72.3213 48.1171 72.4875 48.5259C72.6455 48.9459 72.8675 49.2979 73.1535 49.5879C73.4395 49.8779 73.7875 50.1349 74.1995 50.2959C74.6115 50.4569 75.0555 50.5539 75.5315 50.5539C76.0075 50.5539 76.4515 50.4889 76.8635 50.2959C77.2755 50.1359 77.6235 49.8779 77.9095 49.5879C78.21 49.2834 78.4473 48.9225 78.6075 48.5259C78.7655 48.1059 78.8615 47.6889 78.8615 47.2379V47.2059C78.86 46.7646 78.7737 46.3277 78.6075 45.9189C78.4495 45.5009 78.2275 45.1469 77.9415 44.8569C77.6555 44.5669 77.3075 44.3099 76.8955 44.1489V44.1499ZM77.6555 47.2719C77.6555 47.5719 77.5925 47.8519 77.4955 48.1419C77.3685 48.3989 77.2415 48.6569 77.0515 48.8499C76.8573 49.046 76.6323 49.2092 76.3855 49.3329C76.1315 49.4629 75.8455 49.5259 75.5295 49.5259C75.2333 49.5271 74.9406 49.4611 74.6735 49.3329C74.4268 49.2095 74.2019 49.0467 74.0075 48.8509C73.8075 48.6249 73.6575 48.4009 73.5635 48.1109C73.4695 47.8209 73.4055 47.5309 73.4055 47.2109V47.1789C73.4055 46.8789 73.4685 46.5989 73.5635 46.3089C73.6905 46.0509 73.8175 45.7939 74.0075 45.6009C74.2018 45.4048 74.4268 45.2416 74.6735 45.1179C74.9275 44.9879 75.2135 44.9249 75.5295 44.9249C75.8455 44.9249 76.1315 44.9889 76.3855 45.1179C76.6323 45.2416 76.8573 45.4048 77.0515 45.6009C77.2515 45.8259 77.4015 46.0509 77.4955 46.3409C77.5895 46.6309 77.6535 46.9209 77.6535 47.2409V47.2729L77.6555 47.2719ZM82.3485 46.3059C82.4755 46.0479 82.6025 45.7909 82.7925 45.5979C82.9825 45.4049 83.2125 45.2379 83.4585 45.1149C83.7125 44.9849 83.9655 44.9219 84.2825 44.9219C84.6625 44.9219 84.9805 44.9859 85.2655 45.1469C85.5505 45.3079 85.8055 45.5009 86.0585 45.7269L86.7885 44.8899C86.6379 44.7413 86.479 44.6014 86.3125 44.4709C86.1545 44.3409 85.9625 44.2459 85.7725 44.1489L85.1065 43.9559L84.3135 43.8919C83.8065 43.8919 83.3935 43.9879 82.9815 44.1489C82.5695 44.3099 82.2215 44.5689 81.9355 44.8569C81.6551 45.1707 81.4299 45.5298 81.2695 45.9189C81.1035 46.3269 81.0175 46.7649 81.0155 47.2059V47.2379C81.0155 47.6879 81.1105 48.1079 81.2695 48.5249C81.4285 48.9419 81.6495 49.2969 81.9355 49.5869C82.2215 49.8769 82.5695 50.1339 82.9505 50.2949C83.3511 50.4666 83.7827 50.5544 84.2185 50.5529C84.5035 50.5529 84.7885 50.5529 85.0745 50.4879C85.2965 50.4559 85.5505 50.3579 85.7405 50.2629C85.9305 50.1679 86.1205 50.0699 86.3105 49.9089C86.5005 49.7479 86.6605 49.6089 86.8175 49.4259L86.0875 48.6859C85.8025 48.9439 85.5175 49.1359 85.2635 49.2979C85.0095 49.4599 84.6615 49.5229 84.2805 49.5229C83.9955 49.5229 83.7105 49.4259 83.4565 49.3299C83.2025 49.2339 82.9805 49.0299 82.7905 48.8479C82.5905 48.6219 82.4405 48.3979 82.3465 48.1079C82.245 47.8182 82.1913 47.5139 82.1875 47.2069V47.1749C82.1875 46.8749 82.2515 46.5949 82.3475 46.3049L82.3485 46.3059ZM89.0485 44.0209V50.4579H90.1485V47.7539H93.1925V50.4579H94.2925V44.0199H93.1925V46.6919H90.1495V44.0199H89.0495L89.0485 44.0209ZM101.225 48.9129L101.859 50.4579H103.032L100.232 43.9879H99.2165L96.4165 50.4579H97.5585L98.2245 48.9129H101.205H101.225ZM99.7245 45.3399L100.803 47.9149H98.6465L99.7245 45.3399ZM62.7845 52.8399H103.212V52.4859H62.7865V52.8399H62.7845ZM86.0265 40.3839C86.0265 40.5139 85.9945 40.6089 85.9945 40.7379H103.212V40.3839H86.0275H86.0265ZM78.9565 40.3839H62.7865V40.7379H78.9895C78.9895 40.6079 78.9575 40.5129 78.9575 40.3839H78.9565Z" fill="white"/>
</svg>
