<svg width="166" height="94" viewBox="0 0 166 94" fill="none" xmlns="http://www.w3.org/2000/svg">
<path d="M83.0744 53.9731C86.9686 53.9731 90.1254 50.8001 90.1254 46.8861C90.1254 42.972 86.9686 39.7991 83.0744 39.7991C79.1803 39.7991 76.0234 42.972 76.0234 46.8861C76.0234 50.8001 79.1803 53.9731 83.0744 53.9731Z" fill="#343434"/>
<path d="M54.2764 39.372C54.2764 39.457 54.1914 39.628 54.1914 39.712C54.1914 40.48 54.7864 41.164 55.6354 41.164H67.6134C68.2084 41.164 68.6334 40.824 68.8874 40.31C71.3514 34.845 76.7874 31.173 82.9874 31.173C91.5674 31.173 98.5334 38.175 98.5334 46.799C98.5334 55.423 91.5694 62.427 82.9994 62.427C76.7134 62.427 71.3614 58.67 68.8994 53.377C68.6444 52.779 68.2194 52.437 67.6254 52.437H55.6364C54.8714 52.437 54.1914 53.035 54.1914 53.889C54.1914 53.974 54.1914 54.145 54.2764 54.229C57.5894 67.209 69.2264 76.772 83.0744 76.772C99.4694 76.772 112.806 63.366 112.806 46.886C112.806 30.406 99.4694 17 83.0744 17C69.2294 17 57.5994 26.564 54.2764 39.372Z" fill="#343434"/>
</svg>
