<svg width="166" height="94" viewBox="0 0 166 94" fill="none" xmlns="http://www.w3.org/2000/svg">
<mask id="mask0" mask-type="alpha" maskUnits="userSpaceOnUse" x="35" y="21" width="96" height="52">
<path d="M35.0918 46.9724C35.0918 60.8204 56.5418 72.0474 83.0158 72.0474C109.49 72.0474 130.95 60.8204 130.95 46.9714C130.95 33.1224 109.49 21.8954 83.0158 21.8954C56.5418 21.8954 35.0918 33.1244 35.0918 46.9724Z" fill="white"/>
</mask>
<g mask="url(#mask0)">
<path d="M35.0918 46.9724C35.0918 60.8204 56.5418 72.0474 83.0158 72.0474C109.49 72.0474 130.95 60.8204 130.95 46.9714C130.95 33.1224 109.49 21.8954 83.0158 21.8954C56.5418 21.8954 35.0918 33.1244 35.0918 46.9724Z" fill="url(#paint0_radial)"/>
</g>
<mask id="mask1" mask-type="alpha" maskUnits="userSpaceOnUse" x="33" y="19" width="100" height="56">
<path d="M33.084 19.0413H132.944V74.9033H33.084V19.0413Z" fill="white"/>
</mask>
<g mask="url(#mask1)">
<path d="M83.0131 70.1863C108.451 70.1863 129.073 59.7933 129.073 46.9723C129.073 34.1513 108.453 23.7583 83.0131 23.7583C57.5731 23.7583 36.9531 34.1533 36.9531 46.9733C36.9531 59.7933 57.5751 70.1863 83.0131 70.1863Z" fill="#777BB3"/>
</g>
<mask id="mask2" mask-type="alpha" maskUnits="userSpaceOnUse" x="33" y="19" width="100" height="56">
<path d="M33.084 19.0413H132.944V74.9033H33.084V19.0413Z" fill="white"/>
</mask>
<g mask="url(#mask2)">
<path d="M61.1237 49.8503C63.2157 49.8503 64.7767 49.4663 65.7637 48.7103C66.7407 47.9623 67.4167 46.6653 67.7697 44.8563C68.0997 43.1663 67.9737 41.9863 67.3967 41.3483C66.8067 40.6983 65.5287 40.3683 63.6007 40.3683H60.2577L58.4047 49.8513H61.1217L61.1237 49.8503ZM50.1907 61.5303C50.1141 61.5304 50.0385 61.5136 49.9691 61.4811C49.8998 61.4486 49.8385 61.4012 49.7897 61.3423C49.6897 61.2223 49.6497 61.0663 49.6797 60.9143L54.5897 35.7843C54.6133 35.6662 54.6771 35.56 54.7703 35.4838C54.8635 35.4075 54.9803 35.366 55.1007 35.3663H65.6857C69.0127 35.3663 71.4887 36.2643 73.0457 38.0363C74.6107 39.8163 75.0937 42.3063 74.4817 45.4363C74.2477 46.6697 73.8179 47.8577 73.2087 48.9553C72.6127 50.0153 71.8247 50.9983 70.8667 51.8753C69.7197 52.9433 68.4217 53.7173 67.0117 54.1723C65.6247 54.6223 63.8417 54.8493 61.7157 54.8493H57.4297L56.2057 61.1113C56.1823 61.2293 56.1187 61.3357 56.0257 61.4121C55.9327 61.4885 55.816 61.5303 55.6957 61.5303H50.1907Z" fill="black"/>
<path d="M60.6895 40.8834H63.6035C65.9305 40.8834 66.7385 41.3914 67.0035 41.6834C67.4595 42.1854 67.5455 43.2454 67.2535 44.7464C66.9235 46.4264 66.3135 47.6194 65.4405 48.2884C64.5455 48.9734 63.0905 49.3204 61.1165 49.3204H59.0305L60.6805 40.8724L60.6895 40.8834ZM65.6875 34.8494H55.1025C54.8617 34.8491 54.6283 34.9324 54.4421 35.0851C54.2559 35.2377 54.1285 35.4502 54.0815 35.6864L49.1715 60.8164C49.1422 60.9661 49.1466 61.1205 49.1843 61.2684C49.222 61.4163 49.2921 61.5539 49.3895 61.6714C49.4873 61.7893 49.6101 61.8842 49.7489 61.9492C49.8877 62.0142 50.0392 62.0477 50.1925 62.0474H55.6975C55.9382 62.0476 56.1716 61.9643 56.3578 61.8116C56.544 61.659 56.6715 61.4465 56.7185 61.2104L57.8605 55.3664H61.7175C63.8975 55.3664 65.7355 55.1294 67.1755 54.6634C68.6555 54.1854 70.0185 53.3634 71.2255 52.2534C72.2225 51.3414 73.0455 50.3164 73.6655 49.2094C74.2855 48.1024 74.7355 46.8654 74.9955 45.5364C75.6395 42.2424 75.1155 39.6064 73.4405 37.6964C71.7805 35.8064 69.1735 34.8494 65.6905 34.8494H65.6875ZM57.7775 50.3664H61.1255C63.3455 50.3664 64.9975 49.9504 66.0855 49.1194C67.1735 48.2884 67.9055 46.8994 68.2855 44.9544C68.6495 43.0864 68.4835 41.7684 67.7875 41.0014C67.0915 40.2344 65.6975 39.8494 63.6055 39.8494H59.8355L57.7805 50.3664H57.7775ZM65.6875 35.8834C68.8715 35.8834 71.1945 36.7134 72.6545 38.3764C74.1145 40.0394 74.5545 42.3584 73.9715 45.3364C73.7315 46.5634 73.3265 47.6864 72.7555 48.7014C72.1845 49.7164 71.4375 50.6484 70.5155 51.5014C69.4155 52.5244 68.1955 53.2534 66.8515 53.6874C65.5075 54.1214 63.7965 54.3394 61.7165 54.3394H57.0015L55.6945 61.0034H50.1895L55.0995 35.8734H65.6845L65.6875 35.8834Z" fill="white"/>
<path d="M87.1042 54.8503C87.0277 54.8505 86.952 54.8337 86.8827 54.8012C86.8134 54.7687 86.7521 54.7213 86.7032 54.6623C86.6032 54.5423 86.5632 54.3863 86.5932 54.2343L88.7662 43.1143C88.9732 42.0573 88.9222 41.2983 88.6232 40.9773C88.4402 40.7813 87.8902 40.4523 86.2632 40.4523H82.3272L79.5972 54.4303C79.5738 54.5486 79.51 54.655 79.4168 54.7314C79.3236 54.8079 79.2068 54.8495 79.0862 54.8493H73.6262C73.5497 54.8495 73.474 54.8327 73.4047 54.8002C73.3354 54.7677 73.2741 54.7203 73.2252 54.6613C73.1252 54.5413 73.0852 54.3853 73.1152 54.2333L78.0252 29.1033C78.0488 28.9853 78.1127 28.8791 78.2059 28.8028C78.2991 28.7266 78.4158 28.6851 78.5362 28.6853H83.9962C84.0728 28.6852 84.1484 28.702 84.2177 28.7345C84.287 28.767 84.3483 28.8144 84.3972 28.8733C84.4972 28.9933 84.5372 29.1493 84.5072 29.3013L83.3222 35.3663H87.5562C90.7822 35.3663 92.9692 35.9323 94.2432 37.0963C95.5432 38.2833 95.9472 40.1813 95.4472 42.7363L93.1622 54.4303C93.1388 54.5486 93.075 54.655 92.9818 54.7314C92.8886 54.8079 92.7718 54.8495 92.6512 54.8493H87.1042V54.8503Z" fill="black"/>
<path d="M83.9961 28.1694H78.5361C78.2953 28.1692 78.0619 28.2525 77.8757 28.4051C77.6895 28.5578 77.5621 28.7703 77.5151 29.0064L72.6051 54.1364C72.5758 54.2862 72.5802 54.4406 72.6179 54.5885C72.6556 54.7363 72.7257 54.874 72.8231 54.9914C72.9209 55.1094 73.0437 55.2043 73.1825 55.2693C73.3213 55.3343 73.4728 55.3678 73.6261 55.3674H79.0841C79.3248 55.3677 79.5582 55.2844 79.7444 55.1317C79.9306 54.9791 80.0581 54.7666 80.1051 54.5304L82.7551 40.9704H86.2621C87.8851 40.9704 88.2261 41.3154 88.2401 41.3304C88.3381 41.4354 88.4681 41.9234 88.2541 43.0164L86.0811 54.1364C86.0518 54.2862 86.0562 54.4406 86.0939 54.5885C86.1316 54.7363 86.2017 54.874 86.2991 54.9914C86.3969 55.1094 86.5197 55.2043 86.6585 55.2693C86.7973 55.3343 86.9488 55.3678 87.1021 55.3674H92.6501C92.8908 55.3677 93.1242 55.2844 93.3104 55.1317C93.4966 54.9791 93.6241 54.7666 93.6711 54.5304L95.9561 42.8364C96.4921 40.0914 96.0331 38.0324 94.5931 36.7164C93.2191 35.4614 90.9161 34.8504 87.5531 34.8504H83.9541L85.0191 29.4004C85.0483 29.2507 85.044 29.0963 85.0063 28.9484C84.9685 28.8005 84.8985 28.6629 84.8011 28.5454C84.6031 28.3074 84.3091 28.1684 83.9981 28.1684L83.9961 28.1694ZM83.9981 29.2024L82.6921 35.8824H87.5571C90.6171 35.8824 92.7301 36.4124 93.8921 37.4754C95.0541 38.5384 95.3921 40.2584 94.9381 42.6374L92.6511 54.3334H87.1041L89.2771 43.2134C89.5241 41.9484 89.4331 41.0854 89.0041 40.6254C88.5751 40.1654 87.6611 39.9254 86.2641 39.9254H81.8991L79.0841 54.3334H73.6241L78.5341 29.2034H83.9941" fill="white"/>
<path d="M104.088 49.8505C106.18 49.8505 107.741 49.4665 108.728 48.7105C109.705 47.9625 110.381 46.6655 110.735 44.8565C111.065 43.1665 110.939 41.9865 110.361 41.3485C109.771 40.6985 108.493 40.3685 106.565 40.3685H103.224L101.371 49.8515H104.088V49.8505ZM93.1536 61.5315C93.077 61.5316 93.0014 61.5148 92.932 61.4823C92.8627 61.4498 92.8014 61.4024 92.7526 61.3435C92.6526 61.2235 92.6126 61.0675 92.6426 60.9155L97.5526 35.7855C97.5762 35.6674 97.64 35.5612 97.7332 35.485C97.8264 35.4087 97.9432 35.3672 98.0636 35.3675H108.649C111.976 35.3675 114.452 36.2655 116.009 38.0375C117.574 39.8175 118.057 42.3075 117.445 45.4375C117.195 46.7125 116.768 47.8975 116.172 48.9575C115.576 50.0175 114.788 51.0005 113.83 51.8775C112.683 52.9455 111.385 53.7195 109.975 54.1745C108.588 54.6245 106.805 54.8515 104.679 54.8515H100.394L99.1706 61.1135C99.1471 61.2317 99.0834 61.3381 98.9902 61.4146C98.897 61.491 98.7801 61.5327 98.6596 61.5325H93.1536V61.5315Z" fill="black"/>
<path d="M103.655 40.8834H106.569C108.896 40.8834 109.704 41.3914 109.969 41.6834C110.425 42.1854 110.511 43.2454 110.219 44.7464C109.889 46.4264 109.279 47.6194 108.406 48.2884C107.511 48.9734 106.056 49.3204 104.082 49.3204H101.996L103.646 40.8724L103.655 40.8834ZM108.653 34.8494H98.0673C97.8265 34.8491 97.5932 34.9324 97.407 35.0851C97.2208 35.2377 97.0933 35.4502 97.0463 35.6864L92.1363 60.8164C92.107 60.9661 92.1114 61.1205 92.1491 61.2684C92.1868 61.4163 92.2569 61.5539 92.3543 61.6714C92.4522 61.7893 92.5749 61.8842 92.7137 61.9492C92.8526 62.0142 93.004 62.0477 93.1573 62.0474H98.6623C98.9031 62.0476 99.1365 61.9643 99.3227 61.8116C99.5088 61.659 99.6363 61.4465 99.6833 61.2104L100.825 55.3664H104.682C106.862 55.3664 108.7 55.1294 110.14 54.6634C111.62 54.1854 112.983 53.3634 114.19 52.2534C115.161 51.3749 115.985 50.3473 116.631 49.2094C117.254 48.1014 117.701 46.8654 117.961 45.5364C118.605 42.2424 118.081 39.6044 116.406 37.6964C114.746 35.8064 112.139 34.8494 108.656 34.8494H108.653ZM100.743 50.3664H104.091C106.311 50.3664 107.963 49.9504 109.051 49.1194C110.139 48.2884 110.871 46.8994 111.251 44.9544C111.615 43.0864 111.451 41.7684 110.753 41.0014C110.055 40.2344 108.663 39.8494 106.571 39.8494H102.801L100.746 50.3664H100.743ZM108.653 35.8834C111.837 35.8834 114.16 36.7134 115.62 38.3764C117.08 40.0394 117.52 42.3584 116.937 45.3364C116.697 46.5634 116.292 47.6864 115.721 48.7014C115.15 49.7164 114.403 50.6484 113.481 51.5014C112.381 52.5244 111.161 53.2534 109.817 53.6874C108.473 54.1214 106.762 54.3394 104.682 54.3394H99.9653L98.6603 61.0194H93.1553L98.0653 35.8894H108.65L108.653 35.8834Z" fill="white"/>
</g>
<defs>
<radialGradient id="paint0_radial" cx="0" cy="0" r="1" gradientUnits="userSpaceOnUse" gradientTransform="translate(50.2414 30.7113) scale(62.9376 62.9442)">
<stop stop-color="#AEB2D5"/>
<stop offset="0.3" stop-color="#AEB2D5"/>
<stop offset="0.75" stop-color="#484C89"/>
<stop offset="1" stop-color="#484C89"/>
</radialGradient>
</defs>
</svg>
