<svg width="166" height="94" viewBox="0 0 166 94" fill="none" xmlns="http://www.w3.org/2000/svg">
<path d="M60.3999 44.027C61.4699 41.563 61.4429 39.125 60.7999 37.197C59.9979 34.84 56.7079 31.733 55.6649 32.965C55.5309 33.125 53.6319 32.911 53.3379 33.313C52.8829 33.903 53.1509 34.09 53.3649 34.303C54.0349 34.893 55.7179 35.535 56.4949 37.543C56.8149 38.4 57.5649 40.383 56.2549 41.588C54.7849 42.928 53.1249 43.248 46.3329 36.928C39.1129 30.205 29.4309 32.938 26.2209 34.008C23.0109 35.078 21.5409 36.151 22.7979 38.615C24.5099 41.99 23.9479 40.945 25.6329 43.731C28.2809 48.151 34.1109 41.695 34.1109 41.695C29.7779 48.231 26.0609 46.65 24.6439 44.375C23.3599 42.313 22.3709 39.955 22.3709 39.955C11.4059 43.919 14.3739 61.385 14.3739 61.385H19.8299C21.2199 54.955 26.1949 55.198 27.0239 61.385H31.1689C34.8329 48.823 42.6959 61.385 42.6959 61.385H47.3489C47.3489 54.689 46.6539 52.171 50.0769 51.689C55.9069 50.912 58.6349 48.179 60.3999 44.029V44.027Z" fill="#02303A"/>
<path d="M80.0576 42.3401V44.9921C80.6196 44.0281 81.9026 41.8321 86.0746 41.9651L86.0476 46.5451C85.0846 46.5721 83.3996 46.5991 82.0356 47.6431C80.1356 49.0891 80.0556 50.9911 80.0556 54.0731V61.1181H75.7496V42.3131L80.0556 42.3401H80.0576ZM87.8576 47.9651C87.9376 47.0281 88.0176 46.1171 88.6076 45.0451C90.3996 41.8051 94.8126 41.8311 96.0156 41.8311C97.8076 41.8311 99.9456 42.0711 101.579 43.0361C103.772 44.3761 103.799 46.1431 103.799 48.1521L103.772 58.0091C103.772 59.4291 103.772 59.9911 104.574 61.1161H99.3036L99.1966 59.5621C98.2336 60.3661 96.2546 61.4371 93.6966 61.4371C89.4966 61.4101 86.9836 58.8121 86.9836 55.5971C86.9836 54.6601 87.2236 53.8021 87.5986 53.0791C88.9356 50.3991 91.7986 49.8111 93.5986 49.4791C99.6686 48.4611 99.3216 47.8721 99.2146 46.9611C99.1346 46.1041 98.2516 45.3011 96.1926 45.3011C94.3476 45.3011 93.3306 45.9011 92.8766 46.4811C92.3966 47.0811 92.4216 47.4451 92.4216 47.9811L87.8746 47.9541L87.8576 47.9651ZM99.3046 51.7421C98.4216 52.1971 97.4046 52.5191 95.3996 52.8401C93.7946 53.0541 91.6826 53.4401 91.6826 55.3851C91.6826 56.8311 92.9126 57.5811 94.6776 57.5811C96.9506 57.5811 98.5556 56.5631 99.0376 55.4381C99.3046 54.8761 99.3046 54.3131 99.3046 53.7781V51.7401V51.7421ZM123.749 34.8121L123.669 61.1161H119.256V59.2961C117.856 60.9561 116.02 61.6261 114.094 61.6261C109.681 61.5991 105.857 58.2781 105.894 52.1441C105.921 46.5991 109.05 41.8841 114.372 41.9121C116.192 41.9121 117.875 42.4481 119.292 44.0121V34.8251H123.758L123.749 34.8121ZM118.249 47.7501C117.579 46.7321 116.484 46.0361 114.986 46.0361C111.964 46.0361 110.52 48.7411 110.52 51.6881C110.52 52.0361 110.547 57.6081 114.88 57.6081C117.18 57.6081 119.266 55.9211 119.24 51.9031C119.187 50.6981 119.053 48.9831 118.24 47.7511L118.249 47.7501ZM131.514 34.8131L131.434 61.1171H126.941V34.8131H131.514ZM151.438 56.7511C149.378 60.3941 146.758 61.7331 142.96 61.7331C138.093 61.7061 133.412 58.6261 133.44 51.7691C133.467 45.5291 137.478 41.9921 142.72 42.0191C147.614 42.0461 149.647 44.9921 150.02 45.5191C151.544 47.6891 151.865 50.9191 151.892 52.7791L138.145 52.7251C138.653 55.6711 140.472 57.3591 143.415 57.3591C146.465 57.3591 147.265 55.5641 147.828 54.7891L151.428 56.7441L151.438 56.7511ZM147.025 49.4911C146.625 46.5981 144.859 45.5911 142.88 45.5911C140.5 45.5911 138.868 46.9571 138.333 49.4751L147.025 49.5021V49.4911ZM62.0326 47.3751V51.2321H68.6126V55.7591C66.9276 56.8291 65.0126 57.4471 62.2476 57.4471C57.8076 57.4471 54.1446 53.7241 54.1446 47.9111C54.1446 42.2061 57.5146 38.4111 62.6496 38.4111C66.7696 38.4111 68.3196 41.8131 68.5496 43.0981H73.0426C73.0426 40.4731 69.9406 34.0181 62.2376 34.0181C54.0806 34.0181 49.2676 39.8041 49.2676 47.9481C49.2676 56.4121 55.0446 61.7161 61.9446 61.7161C72.1606 61.7161 73.0446 56.6001 73.0446 56.6001V47.3861H62.0246L62.0326 47.3751Z" fill="#22DA27"/>
<path d="M61.2292 39.5C60.2432 39.5737 59.2669 39.7442 58.3142 40.009C58.2872 40.036 58.2612 40.089 58.2342 40.116C57.8062 40.598 57.2712 41.054 56.6842 41.321C56.6042 41.375 56.5242 41.401 56.4442 41.428L56.2842 41.588C54.8142 42.928 53.0212 43.248 46.3622 36.928C39.2222 30.151 29.4602 32.938 26.2502 34.008C23.0402 35.078 21.5702 36.151 22.8272 38.615C24.5392 41.99 23.9772 40.945 25.6622 43.731C28.3102 48.151 34.1402 41.695 34.1402 41.695C29.8072 48.231 26.0902 46.65 24.6732 44.375C23.3892 42.313 22.4002 39.955 22.4002 39.955C11.4352 43.919 14.4032 61.385 14.4032 61.385H19.8592C21.2492 54.955 26.2242 55.198 27.0532 61.385H31.1982C34.8622 48.823 42.7252 61.385 42.7252 61.385H47.3782C47.3782 54.689 46.6832 52.171 50.1062 51.689C55.9632 50.885 58.6642 48.153 60.4292 44.029C61.0712 42.475 61.3122 40.922 61.2312 39.502L61.2292 39.5Z" fill="#02303A"/>
<path d="M41.4656 41.24L47.3496 43.195C47.1626 44.105 45.4776 45.847 43.3116 45.097C40.4236 44.16 41.4666 41.24 41.4666 41.24H41.4656Z" fill="white"/>
<path d="M44.483 44.5258C45.32 44.4368 45.9288 43.7089 45.8428 42.9C45.7569 42.091 45.0087 41.5073 44.1717 41.5963C43.3347 41.6852 42.7259 42.4131 42.8119 43.2221C42.8979 44.031 43.6461 44.6147 44.483 44.5258Z" fill="#02303A"/>
<path d="M53.367 34.3301C53.554 34.4901 53.795 34.6501 54.037 34.8121C55.16 33.8751 56.631 33.9021 57.887 33.3921C56.79 32.3741 55.025 31.5971 54.49 32.2401C54.356 32.4001 53.66 32.9361 53.367 33.3381C52.887 33.9281 53.127 34.1151 53.367 34.3281V34.3301Z" fill="#02303A"/>
</svg>
