<svg width="166" height="94" viewBox="0 0 166 94" fill="none" xmlns="http://www.w3.org/2000/svg">
<path d="M53 47V17H113V77H53" fill="#007ACC"/>
<path d="M66.1543 47.105V49.55H73.9543V71.75H79.4993V49.55H87.2993V47.15L87.2393 44.675C87.2393 44.63 82.4843 44.615 76.7093 44.615L66.2093 44.66V47.12L66.1643 47.105H66.1543ZM101.199 44.6C102.638 44.9179 103.946 45.666 104.949 46.745C105.504 47.345 106.329 48.395 106.389 48.665C106.389 48.765 103.794 50.51 102.219 51.485C102.159 51.53 101.919 51.285 101.679 50.885C100.899 49.785 100.104 49.285 98.8593 49.205C97.0593 49.085 95.8593 50.03 95.8593 51.605C95.8593 52.085 95.9593 52.355 96.1293 52.745C96.5343 53.57 97.2843 54.065 99.6093 55.085C103.909 56.93 105.759 58.145 106.884 59.885C108.159 61.835 108.444 64.885 107.589 67.19C106.629 69.695 104.289 71.39 100.944 71.945C99.8943 72.125 97.4943 72.095 96.3693 71.9C93.9693 71.45 91.6743 70.25 90.2643 68.705C89.7093 68.105 88.6443 66.5 88.7043 66.405L89.2743 66.045L91.5243 64.74L93.2193 63.74L93.6193 64.265C94.1143 65.045 95.2243 66.095 95.8693 66.465C97.8193 67.47 100.429 67.335 101.719 66.165C102.274 65.665 102.514 65.115 102.514 64.365C102.551 63.8178 102.391 63.2754 102.064 62.835C101.584 62.175 100.624 61.635 97.9243 60.435C94.8193 59.115 93.4993 58.275 92.2693 56.985C91.5643 56.205 90.9193 54.99 90.6193 53.985C90.3943 53.115 90.3193 50.985 90.5193 50.13C91.1643 47.13 93.4193 45.03 96.6693 44.43C97.7193 44.23 100.194 44.31 101.229 44.58L101.199 44.61V44.6Z" fill="white"/>
</svg>
