<svg width="166" height="94" viewBox="0 0 166 94" fill="none" xmlns="http://www.w3.org/2000/svg">
<path d="M68.3792 55.0272L61.9912 57.7732L67.9072 60.3052L74.7672 57.7732L68.3792 55.0272ZM58.7752 58.4602L58.5612 70.8182L67.9072 74.9382V62.1082L58.7752 58.4612V58.4602ZM77.9832 58.4602L69.5372 61.6802V73.7802L77.9832 70.3472V58.4602ZM88.0592 20.0122L81.6272 22.7582L87.5872 25.2902L94.4472 22.7582L88.0592 20.0122ZM79.1412 23.6602V36.0202L87.1152 38.3382L87.3732 27.0952L79.1412 23.6622V23.6602ZM96.9772 24.3472L89.4312 27.5672V39.7002L96.9772 36.2672V24.3372V24.3472ZM57.8532 37.4072L51.4652 40.1532L57.3812 42.6852L64.2412 40.1532L57.8532 37.4072ZM48.2492 40.8402L48.0352 53.1982L57.3812 57.3182V44.4882L48.2492 40.8412V40.8402ZM67.4572 40.8402L59.0112 44.0602V56.1602L67.4572 52.7272V40.8382V40.8402ZM78.4332 36.9502L72.0452 39.6962L77.9612 42.2282L84.8212 39.6962L78.4332 36.9502ZM68.8292 40.3832L68.6152 52.7412L77.9612 56.8612V44.0302L68.8292 40.3822V40.3832ZM88.0372 40.3832L79.5912 43.6032V55.7032L88.0372 52.2702V40.3832ZM108.16 20.0132L101.772 22.7592L107.699 25.3002L114.559 22.7682L108.171 20.0222L108.16 20.0132ZM98.5562 23.4462L98.3422 35.8042L107.688 39.9242V27.0942L98.5562 23.4462ZM117.764 23.4462L109.318 26.6662V38.7662L117.764 35.3332V23.4452V23.4462Z" fill="#F7A80D"/>
</svg>
