<svg width="166" height="94" viewBox="0 0 166 94" fill="none" xmlns="http://www.w3.org/2000/svg">
<path d="M47.1934 61.1157C47.1934 64.6888 45.3184 66.2101 41.4623 66.2101H35.7311C31.875 66.2101 30 64.7242 30 61.1157V47.4601C30 43.8869 31.875 42.3657 35.7311 42.3657H41.4976C45.3184 42.3657 47.2288 43.8869 47.2288 47.4601V48.4506C47.2288 48.6983 47.0519 48.9459 46.8042 49.0167L44.434 49.6535C44.0802 49.7596 43.691 49.4766 43.691 49.0874V48.0969C43.691 46.3634 43.125 45.6204 41.0377 45.6204H36.191C34.1038 45.6204 33.5024 46.3634 33.5024 48.0969V60.4789C33.5024 62.2124 34.1038 62.9553 36.191 62.9553H41.0024C43.0896 62.9553 43.6557 62.2124 43.6557 60.4789V59.3115C43.6557 58.9223 44.0448 58.6393 44.3986 58.7454L46.7689 59.453C47.0165 59.5237 47.1934 59.736 47.1934 60.019V61.1157Z" fill="#251B3F"/>
<path d="M52.2155 62.92H58.2651V45.5851H52.64C52.3217 45.5851 52.074 45.3374 52.074 45.019V42.9318C52.074 42.6134 52.3217 42.3657 52.64 42.3657H67.4278C67.7462 42.3657 67.9938 42.6134 67.9938 42.9318V45.019C67.9938 45.3374 67.7462 45.5851 67.4278 45.5851H61.7674V62.92H67.8169C68.1353 62.92 68.383 63.1676 68.383 63.486V65.6087C68.383 65.927 68.1353 66.1747 67.8169 66.1747H52.2155C51.8971 66.1747 51.6495 65.927 51.6495 65.6087V63.486C51.6141 63.203 51.8971 62.92 52.2155 62.92Z" fill="#251B3F"/>
<path d="M114.481 61.1157C114.481 64.6888 112.606 66.2101 108.75 66.2101H102.983C99.1623 66.2101 97.252 64.7242 97.252 61.1157V47.4601C97.252 43.8869 99.127 42.3657 102.983 42.3657H108.75C112.57 42.3657 114.481 43.8869 114.481 47.4601V48.4506C114.481 48.6983 114.304 48.9459 114.056 49.0167L111.686 49.6535C111.332 49.7596 110.943 49.4766 110.943 49.0874V48.0969C110.943 46.3634 110.377 45.6204 108.29 45.6204H103.478C101.391 45.6204 100.79 46.3634 100.79 48.0969V60.4789C100.79 62.2124 101.391 62.9553 103.478 62.9553H108.29C110.377 62.9553 110.943 62.2124 110.943 60.4789V59.3115C110.943 58.9223 111.332 58.6393 111.686 58.7454L114.056 59.453C114.304 59.5237 114.481 59.736 114.481 60.019V61.1157Z" fill="#251B3F"/>
<path d="M136.131 61.1155C136.131 64.6886 134.362 66.2098 130.506 66.2098H119.433C119.115 66.2098 118.867 65.9622 118.867 65.6438V42.9669C118.867 42.6485 119.115 42.4009 119.433 42.4009H130.506C134.327 42.4009 136.131 43.8867 136.131 47.4952V61.1155ZM132.594 48.0966C132.594 46.3631 132.028 45.6202 129.94 45.6202H122.37V62.9551H129.94C132.028 62.9551 132.594 62.2122 132.594 60.4787V48.0966Z" fill="#251B3F"/>
<path d="M87.6647 28.6743C87.4525 28.6036 87.2402 28.6743 87.1341 28.8512L75.8487 49.4408C75.4596 50.1838 75.5657 51.0682 76.1317 51.6696L81.5445 57.4008L87.9124 29.1342C87.9831 28.9573 87.8416 28.7451 87.6647 28.6743Z" fill="#D72D20"/>
<path d="M89.0453 53.934L83.6325 48.2029L77.2646 76.4694C77.2292 76.6817 77.3353 76.8939 77.5122 76.9647C77.5476 77.0001 77.6184 77.0001 77.6537 77.0001C77.7952 77.0001 77.9368 76.9293 78.0075 76.7878L89.2929 56.1982C89.7528 55.4552 89.6467 54.5354 89.0453 53.934Z" fill="#F8911E"/>
<path d="M63.8208 23.1203C64.0684 23.1203 64.2453 23.0849 64.4222 23.0495C64.5991 23.0142 64.7759 22.9434 64.9175 22.908V21.8113H64.2099C64.1038 21.8113 64.033 21.7759 63.9623 21.7406C63.8915 21.6698 63.8561 21.5991 63.8561 21.5283V20.6085H66.4387V23.6509C66.2618 23.7925 66.0495 23.8986 65.8726 24.0047C65.6604 24.1109 65.4481 24.1816 65.2358 24.2524C65.0236 24.3231 64.7759 24.3585 64.5283 24.3939C64.2807 24.4292 63.9976 24.4292 63.7146 24.4292C63.184 24.4292 62.6887 24.3231 62.2288 24.1462C61.7689 23.9693 61.3797 23.6863 61.0613 23.3679C60.7429 23.0495 60.4599 22.6604 60.283 22.2005C60.1061 21.7406 60 21.2453 60 20.7146C60 20.184 60.1061 19.6887 60.283 19.2288C60.4599 18.7689 60.7075 18.3797 61.0613 18.0613C61.3797 17.7429 61.8042 17.4953 62.2641 17.283C62.7241 17.1061 63.2547 17 63.8561 17C64.1745 17 64.4222 17.0354 64.7052 17.0708C64.9528 17.1061 65.2005 17.1769 65.4481 17.283C65.6604 17.3538 65.8726 17.4599 66.0495 17.6014C66.2264 17.7075 66.4033 17.8491 66.5448 17.9906L66.0495 18.7335C66.0142 18.8042 65.9434 18.875 65.8726 18.9104C65.8019 18.9458 65.7311 18.9811 65.6604 18.9811C65.5542 18.9811 65.4481 18.9458 65.342 18.875C65.2005 18.8042 65.0943 18.7335 64.9528 18.6627C64.8467 18.592 64.7052 18.5566 64.5991 18.5212C64.4929 18.4858 64.3514 18.4505 64.2099 18.4505C64.0684 18.4505 63.9269 18.4151 63.75 18.4151C63.4316 18.4151 63.1486 18.4858 62.9009 18.592C62.6533 18.6981 62.441 18.8396 62.2641 19.0519C62.0873 19.2642 61.9458 19.5118 61.8396 19.7948C61.7335 20.0778 61.6981 20.3962 61.6981 20.75C61.6981 21.1392 61.7335 21.4575 61.8396 21.7759C61.9458 22.059 62.0873 22.342 62.2641 22.5189C62.441 22.7311 62.6887 22.8726 62.9363 22.9788C63.2193 23.0849 63.5024 23.1203 63.8208 23.1203Z" fill="#251B3F"/>
<path d="M71.2137 24.3232H69.5156V17.1062H71.2137V24.3232Z" fill="#251B3F"/>
<path d="M79.5261 17.1062V18.4505H77.5095V24.3586H75.8468V18.4505H73.7949V17.1062H79.5261Z" fill="#251B3F"/>
<path d="M83.7018 23.0142H86.3905V24.3586H82.0391V17.1062H83.7018V23.0142Z" fill="#251B3F"/>
<path d="M95.9774 24.3232H94.6685C94.5269 24.3232 94.3854 24.2878 94.3147 24.2171C94.2439 24.1463 94.1378 24.0755 94.1024 23.9694L93.6779 22.6958H90.9184L90.4939 23.9694C90.4585 24.0755 90.3878 24.1463 90.317 24.2171C90.2109 24.2878 90.1048 24.3232 89.9633 24.3232H88.6543L91.4491 17.1062H93.1826L95.9774 24.3232ZM91.343 21.5638H93.3241L92.6519 19.5826C92.6166 19.4411 92.5458 19.2996 92.5104 19.1227C92.4397 18.9458 92.4043 18.7689 92.3335 18.5567C92.2982 18.7689 92.2274 18.9458 92.1567 19.1227C92.0859 19.2996 92.0505 19.4411 92.0151 19.5826L91.343 21.5638Z" fill="#251B3F"/>
<path d="M98.418 24.3232V17.1062H101.071C101.567 17.1062 101.991 17.1416 102.345 17.2477C102.699 17.3538 102.982 17.46 103.194 17.6369C103.406 17.8137 103.583 18.026 103.689 18.2383C103.795 18.4505 103.831 18.7336 103.831 19.052C103.831 19.2288 103.795 19.3704 103.76 19.5119C103.725 19.6534 103.654 19.7949 103.548 19.9364C103.442 20.0779 103.335 20.184 103.159 20.2902C102.982 20.3963 102.805 20.5024 102.592 20.5732C103.052 20.6793 103.406 20.8916 103.654 21.1392C103.866 21.3869 104.008 21.7406 104.008 22.1298C104.008 22.4482 103.937 22.7312 103.831 22.9788C103.725 23.2265 103.548 23.4741 103.3 23.6864C103.088 23.8987 102.769 24.0402 102.451 24.1463C102.133 24.2524 101.743 24.3232 101.284 24.3232H98.418ZM100.081 20.1487H100.965C101.142 20.1487 101.319 20.1487 101.46 20.1133C101.602 20.0779 101.743 20.0425 101.85 19.9718C101.956 19.901 102.026 19.8303 102.097 19.6887C102.168 19.5472 102.168 19.4411 102.168 19.2642C102.168 19.0873 102.133 18.9458 102.097 18.8397C102.062 18.7336 101.991 18.6274 101.885 18.5567C101.779 18.4859 101.673 18.4505 101.531 18.4152C101.39 18.3798 101.248 18.3798 101.036 18.3798H100.045V20.1487H100.081ZM100.081 21.2807V23.085H101.248C101.46 23.085 101.637 23.0496 101.779 23.0142C101.92 22.9435 102.026 22.8727 102.097 22.802C102.168 22.6958 102.239 22.6251 102.274 22.4836C102.309 22.3774 102.309 22.2713 102.309 22.1298C102.309 21.9883 102.309 21.8821 102.274 21.776C102.239 21.6699 102.168 21.5637 102.097 21.493C102.026 21.4222 101.885 21.3515 101.779 21.3161C101.637 21.2807 101.46 21.2454 101.248 21.2454H100.081V21.2807Z" fill="#251B3F"/>
</svg>
