<svg width="166" height="96" viewBox="0 0 166 96" fill="none" xmlns="http://www.w3.org/2000/svg">
<path d="M34.2238 62.8699H28.7538V57.3259H34.5218C36.6218 57.3259 37.6888 58.2639 37.6888 60.1409C37.6888 61.9609 36.5338 62.8709 34.2248 62.8709L34.2238 62.8699ZM38.1558 57.2699C37.4058 56.5929 36.3558 56.2549 35.0088 56.2549L27.1738 56.2989V69.5619H28.7518L28.7368 63.9159H34.5668C36.0288 63.9159 37.1798 63.5779 38.0188 62.9019C38.8578 62.2259 39.2788 61.2869 39.2788 60.0869C39.2788 58.8869 38.9038 57.9469 38.1548 57.2719L38.1558 57.2699ZM48.3728 66.7699C48.2222 67.203 47.9646 67.591 47.6238 67.8979C46.9168 68.5939 45.8378 68.9409 44.3868 68.9409C43.0868 68.9409 42.0708 68.6029 41.3688 67.9269C40.6668 67.2509 40.3158 66.3469 40.3158 65.2129C40.3158 64.6129 40.4078 64.0989 40.5918 63.6429C40.7758 63.1869 41.0418 62.7999 41.3898 62.4859C42.1158 61.8189 43.1138 61.4859 44.3868 61.4859C47.2048 61.4859 48.6128 62.7289 48.6128 65.2139C48.6128 65.8139 48.5328 66.3139 48.3728 66.7709V66.7699ZM48.6588 61.8769C47.6968 60.9929 46.2728 60.5509 44.3868 60.5509C42.6038 60.5509 41.2268 61.0029 40.2568 61.9049C39.3798 62.7219 38.9418 63.8249 38.9418 65.2119C38.9418 66.5899 39.3948 67.7119 40.2998 68.5469C40.7998 69.0029 41.3818 69.3339 42.0468 69.5469C42.7118 69.7599 43.4918 69.8529 44.3868 69.8529C46.2638 69.8529 47.6918 69.4159 48.6728 68.5529C49.5498 67.7549 49.9888 66.6479 49.9888 65.2329C49.9888 63.8079 49.5458 62.6959 48.6588 61.8969V61.8769ZM60.5988 67.1519C60.5988 68.9369 59.0118 69.8299 55.8368 69.8299C54.8668 69.8299 54.0488 69.7679 53.3848 69.6439C52.7208 69.5199 52.1818 69.3139 51.7668 69.0269C51.4469 68.808 51.1851 68.5145 51.0038 68.1719C50.8158 67.8219 50.7038 67.3789 50.6368 66.8469L52.1138 66.8329C52.1138 67.5359 52.3718 68.0529 52.8898 68.3859C53.4448 68.7859 54.4268 68.9839 55.8378 68.9839C58.0578 68.9839 59.1658 68.4239 59.1658 67.3039C59.1658 66.6489 58.7938 66.1979 58.0498 65.9509C57.8998 65.9029 57.0018 65.7779 55.3578 65.5739C53.7138 65.3699 52.6898 65.1869 52.2848 65.0259C51.4088 64.6759 50.9708 64.0429 50.9708 63.1309C50.9708 62.2379 51.3708 61.5729 52.1448 61.1369C52.5318 60.9569 53.0148 60.8169 53.5948 60.7169C54.1748 60.6169 54.8468 60.5669 55.6108 60.5669C58.6668 60.5669 60.1948 61.5329 60.1948 63.4649H58.7998C58.7998 62.1069 57.7258 61.4279 55.5778 61.4279C54.4848 61.4279 53.6698 61.5659 53.1328 61.8409C52.5958 62.1159 52.3278 62.5389 52.3278 63.1089C52.3278 63.6409 52.6908 64.0249 53.4158 64.2629C53.8398 64.3869 54.8158 64.5289 56.3418 64.6909C57.7078 64.8149 58.6458 64.9909 59.1548 65.2179C60.1248 65.5979 60.6108 66.2439 60.6108 67.1549L60.5988 67.1519ZM66.4018 69.5699L65.8018 69.6549L65.4268 69.6829C64.4648 69.6829 63.7718 69.5429 63.3468 69.2629C62.9218 68.9829 62.7088 68.4899 62.7088 67.7859V61.7329H60.9568V60.8329H62.6948L62.7088 57.9729H64.0558V60.8329H66.3998V61.7379L64.0548 61.7229V67.6229C64.0548 68.0629 64.1698 68.3629 64.4008 68.5309C64.6318 68.6989 65.0438 68.7809 65.6378 68.7809C65.7228 68.7909 65.8178 68.7879 65.9208 68.7709C66.0781 68.7428 66.234 68.7071 66.3878 68.6639L66.4018 69.5719V69.5699ZM75.7158 67.5629C75.3488 67.8669 74.9298 68.0989 74.4578 68.2609C73.9858 68.4229 73.4448 68.5029 72.8328 68.5029C70.0168 68.5029 68.6088 67.3309 68.6088 64.9869C68.6088 63.8869 68.9688 63.0419 69.6888 62.4249C70.4088 61.8079 71.4238 61.4999 72.7338 61.4999C74.0538 61.4999 75.0538 61.7999 75.7358 62.4319C76.4178 63.0639 76.7598 63.8859 76.7598 64.9299C76.7598 66.0699 76.4098 66.9459 75.7138 67.5629H75.7158ZM78.1078 60.8479H76.7608L76.7468 62.3439C76.1528 61.7369 75.7288 61.3439 75.4748 61.1909C74.7208 60.7739 73.7448 60.5649 72.5488 60.5649C70.7958 60.5649 69.4568 60.9679 68.5338 61.7649C67.6568 62.5049 67.2188 63.5779 67.2188 64.9829C67.2188 65.6759 67.3188 66.2949 67.5518 66.8409C67.7635 67.3723 68.0956 67.8474 68.5218 68.2289C69.4468 69.0069 70.7538 69.3969 72.4438 69.3969C74.4738 69.3969 75.9138 68.8369 76.7618 67.7189V69.2689C76.7618 70.2569 76.4618 71.0209 75.8358 71.5619C75.2098 72.1029 74.2028 72.3739 72.7888 72.3739C71.4588 72.3739 70.5128 72.1889 69.9488 71.8209C69.5248 71.5379 69.2328 71.0459 69.0728 70.3459H67.6898C67.8398 71.3229 68.2498 72.0299 68.9198 72.4659C69.6928 72.9689 70.9998 73.2199 72.8368 73.2199C76.3528 73.2199 78.1118 71.9029 78.1118 69.2679V60.8379L78.1078 60.8479ZM85.3918 61.7299C84.9868 61.6639 84.6118 61.6299 84.2618 61.6299C82.0478 61.6299 80.9418 62.8529 80.9418 65.2999V69.5539H79.5998L79.5848 60.8499L80.9318 60.8629V62.4159H81.0018C81.2278 61.8039 81.5858 61.3399 82.0758 61.0159C82.6128 60.7099 83.4128 60.5559 84.4758 60.5559H85.3798V61.7209L85.3918 61.7299ZM86.6448 64.6499C86.8148 63.6499 87.1948 62.8949 87.7888 62.3529C88.1784 62.0368 88.6242 61.7973 89.1028 61.6469C89.5928 61.4909 90.1428 61.4109 90.7568 61.4109C91.9528 61.4109 92.9298 61.7409 93.6888 62.4029C94.4478 63.0649 94.8258 63.8029 94.8258 64.6499H86.6458H86.6448ZM94.9578 61.9649C94.4858 61.4889 93.9018 61.1349 93.2038 60.9079C92.5058 60.6809 91.6908 60.5649 90.7568 60.5649C89.0118 60.5649 87.6588 60.9649 86.6968 61.7909C85.7348 62.6169 85.2538 63.7209 85.2538 65.1269C85.2538 66.5329 85.7158 67.6499 86.6398 68.4769C87.6398 69.3889 89.0478 69.8449 90.8678 69.8449C91.5928 69.8449 92.2648 69.7619 92.8818 69.5969C93.4558 69.4503 94.0027 69.213 94.5018 68.8939C95.3018 68.3069 95.8258 67.5939 96.0418 66.7239H94.5858C94.0858 68.2119 92.8428 68.9559 90.8558 68.9559C89.4518 68.9559 88.3728 68.5919 87.6188 67.8639C86.9688 67.2399 86.6438 66.4319 86.6438 65.4389H96.2438C96.2438 63.9629 95.8138 62.8049 94.9568 61.9659L94.9578 61.9649Z" fill="#231F20"/>
<path d="M110.472 65.997C110.472 68.581 108.404 69.873 104.267 69.873C101.787 69.873 99.9794 69.428 98.8394 68.538C97.9064 67.806 97.4395 66.691 97.4395 65.19H99.1045C99.1045 67.602 100.824 68.808 104.264 68.808C105.914 68.808 107.107 68.561 107.842 68.068C108.464 67.632 108.775 66.948 108.775 66.018C108.775 65.098 108.351 64.452 107.502 64.082C107.022 63.882 105.847 63.632 103.98 63.327C101.633 62.967 100.11 62.607 99.4135 62.245C98.4135 61.713 97.9005 60.812 97.9005 59.54C97.9005 58.354 98.3305 57.47 99.1875 56.892C100.11 56.256 101.694 55.938 103.939 55.938C107.993 55.938 110.019 57.295 110.019 60.008H108.339C108.339 57.975 106.834 56.958 103.823 56.958C102.323 56.958 101.209 57.162 100.511 57.571C99.8515 58.008 99.5115 58.649 99.5115 59.495C99.5115 60.379 99.9355 61.001 100.784 61.362C101.236 61.562 102.566 61.862 104.772 62.232C106.847 62.546 108.246 62.912 108.972 63.329C109.972 63.842 110.457 64.731 110.457 65.994L110.472 65.997ZM123.999 67.316C123.373 67.8207 122.658 68.2042 121.89 68.447C121.106 68.697 120.23 68.824 119.257 68.824C117.275 68.824 115.674 68.286 114.451 67.21C113.228 66.134 112.619 64.71 112.619 62.908C112.619 61.04 113.225 59.585 114.437 58.542C115.649 57.499 117.257 56.977 119.257 56.977C121.287 56.977 122.881 57.522 124.041 58.613C124.654 59.143 125.107 59.765 125.401 60.476C125.695 61.187 125.841 61.998 125.841 62.908C125.841 64.768 125.227 66.236 124.001 67.308L123.999 67.316ZM124.884 68.196C125.752 67.58 126.384 66.832 126.809 65.956C127.234 65.08 127.432 64.056 127.432 62.916C127.432 60.856 126.752 59.216 125.395 57.962C124.669 57.279 123.792 56.762 122.765 56.439C121.738 56.116 120.563 55.941 119.243 55.941C116.678 55.941 114.665 56.567 113.203 57.821C111.741 59.075 111.011 60.771 111.011 62.917C111.011 65.004 111.748 66.689 113.223 67.97C114.698 69.251 116.723 69.89 119.268 69.89C120.268 69.89 121.138 69.822 121.883 69.686C122.628 69.55 123.259 69.34 123.778 69.058L126.238 70.776L127.265 69.826L124.883 68.198L124.884 68.196ZM139.904 69.553H128.524V56.275L130.088 56.245V68.442H139.918L139.904 69.553Z" fill="#367FAF"/>
<path d="M90.6617 45.5841C90.8677 43.8541 90.8057 43.5991 92.0857 43.8791L92.4107 43.9091C93.3947 43.9541 94.6807 43.7491 95.4377 43.3961C97.0657 42.6361 98.0307 41.3641 96.4257 41.6981C92.7657 42.4581 92.5127 41.2101 92.5127 41.2101C96.3787 35.4301 97.9947 28.0921 96.5997 26.2971C92.7947 21.3971 86.2097 23.7151 86.0997 23.7751L86.0647 23.7821C85.3407 23.6321 84.5317 23.5401 83.6217 23.5261C81.9647 23.4991 80.7077 23.9641 79.7547 24.6921C79.7547 24.6921 68.0047 19.8151 68.5517 30.8261C68.6677 33.1691 71.8837 48.5511 75.7197 43.9061C77.1217 42.2061 78.4767 40.7711 78.4767 40.7711C79.1497 41.2211 79.9547 41.4511 80.7997 41.3691L80.8647 41.3131C80.8447 41.5231 80.8547 41.7301 80.8907 41.9731C79.9027 43.0851 80.1927 43.2811 78.2177 43.6911C76.2177 44.1061 77.3937 44.8451 78.1597 45.0381C79.0897 45.2721 81.2397 45.6041 82.6917 43.5551L82.6337 43.7891C83.0217 44.1011 82.9937 46.0351 83.0497 47.4161C83.1057 48.7971 83.1967 50.0861 83.4757 50.8461C83.7547 51.6061 84.0857 53.5631 86.6817 53.0031C88.8517 52.5351 90.5117 51.8601 90.6617 45.5871" fill="#231F20"/>
<path d="M90.6617 45.5841C90.8677 43.8541 90.8057 43.5991 92.0857 43.8791L92.4107 43.9091C93.3947 43.9541 94.6807 43.7491 95.4377 43.3961C97.0657 42.6361 98.0307 41.3641 96.4257 41.6981C92.7657 42.4581 92.5127 41.2101 92.5127 41.2101C96.3787 35.4301 97.9947 28.0921 96.5997 26.2971C92.7947 21.3971 86.2097 23.7151 86.0997 23.7751L86.0647 23.7821C85.3407 23.6321 84.5317 23.5401 83.6217 23.5261C81.9647 23.4991 80.7077 23.9641 79.7547 24.6921C79.7547 24.6921 68.0047 19.8151 68.5517 30.8261C68.6677 33.1691 71.8837 48.5511 75.7197 43.9061C77.1217 42.2061 78.4767 40.7711 78.4767 40.7711C79.1497 41.2211 79.9547 41.4511 80.7997 41.3691L80.8647 41.3131C80.8447 41.5231 80.8547 41.7301 80.8907 41.9731C79.9027 43.0851 80.1927 43.2811 78.2177 43.6911C76.2177 44.1061 77.3937 44.8451 78.1597 45.0381C79.0897 45.2721 81.2397 45.6041 82.6917 43.5551L82.6337 43.7891C83.0217 44.1011 82.9937 46.0351 83.0497 47.4161C83.1057 48.7971 83.1967 50.0861 83.4757 50.8461C83.7547 51.6061 84.0857 53.5631 86.6817 53.0031C88.8517 52.5351 90.5117 51.8601 90.6617 45.5871" stroke="#231F20" stroke-width="2.723"/>
<path d="M96.4267 41.6969C92.7647 42.4569 92.5137 41.2089 92.5137 41.2089C96.3797 35.4289 97.9957 28.0909 96.6017 26.2949C92.7967 21.3969 86.2117 23.7129 86.1017 23.7729L86.0667 23.7789C85.2623 23.6164 84.4443 23.5307 83.6237 23.5229C81.9667 23.4959 80.7107 23.9609 79.7567 24.6889C79.7567 24.6889 68.0067 19.8119 68.5537 30.8229C68.6697 33.1659 71.8857 48.5479 75.7217 43.9029C77.1237 42.2029 78.4787 40.7679 78.4787 40.7679C79.1517 41.2179 79.9567 41.4479 80.8017 41.3659L80.8677 41.3099C80.8482 41.5304 80.8569 41.7526 80.8937 41.9709C79.9057 43.0829 80.1957 43.2789 78.2207 43.6889C76.2207 44.1039 77.3957 44.8429 78.1627 45.0359C79.0927 45.2699 81.2427 45.6019 82.6947 43.5529L82.6367 43.7869C83.0237 44.0989 83.2967 45.8189 83.2497 47.3789C83.2027 48.9389 83.1737 50.0089 83.4797 50.8449C83.7857 51.6809 84.0897 53.5619 86.6857 53.0019C88.8557 52.5339 89.9797 51.3189 90.1357 49.2939C90.2457 47.8539 90.4977 48.0669 90.5137 46.7799L90.7157 46.1699C90.9477 44.2179 90.7527 43.5879 92.0897 43.8799L92.4147 43.9099C93.3987 43.9549 94.6867 43.7499 95.4417 43.3969C97.0697 42.6369 98.0347 41.3649 96.4297 41.6989L96.4267 41.6969Z" fill="#417BA2"/>
<path d="M86.0959 23.7261C85.6889 23.8561 92.6359 21.1661 96.5959 26.2501C97.9909 28.0461 96.3739 35.3842 92.5079 41.1642M82.8499 42.8162C82.7499 46.4482 82.8749 50.1161 83.2279 50.9941C83.5809 51.8721 84.3359 53.6121 86.9329 53.0511C89.1029 52.5811 89.8929 51.6751 90.2349 49.6731L91.0349 43.2711L82.8499 42.8162ZM79.7349 24.6111C79.7349 24.6111 67.9769 19.7691 68.5349 30.7811C68.6509 33.1241 71.8669 48.5071 75.7029 43.8611C77.1049 42.1611 78.3729 40.8291 78.3729 40.8291L79.7349 24.6111Z" stroke="white" stroke-width="0.908" stroke-linecap="round" stroke-linejoin="round"/>
<path d="M92.4881 41.1633C92.4881 41.1633 92.7401 42.4133 96.4021 41.6513C98.0061 41.3173 97.0421 42.5883 95.4141 43.3493C94.0791 43.9733 91.0841 44.1343 91.0361 43.2713C90.9101 41.0453 92.6121 41.7213 92.4891 41.1633C92.3791 40.6613 91.6171 40.1673 91.1141 38.9383C90.6741 37.8653 85.0871 29.6333 92.6641 30.8563C92.9421 30.7983 90.6881 23.5963 83.5971 23.4763C76.5061 23.3563 76.7411 32.2603 76.7411 32.2603" stroke="white" stroke-width="0.908" stroke-linecap="round" stroke-linejoin="bevel"/>
<path fill-rule="evenodd" clip-rule="evenodd" d="M80.8644 41.925C79.8764 43.037 80.1664 43.233 78.1914 43.643C76.1914 44.058 77.3674 44.797 78.1334 44.99C79.0634 45.224 81.2134 45.556 82.6654 43.506C83.1084 42.882 82.6624 41.886 82.0654 41.632C81.7714 41.51 81.3794 41.356 80.8754 41.925H80.8644Z" stroke="white" stroke-width="0.908" stroke-linejoin="round"/>
<path d="M80.8004 41.9052C80.7004 41.2512 81.0134 40.4732 81.3504 39.5622C81.8544 38.1962 83.0164 36.8292 82.0864 32.4962C81.3934 29.2662 76.7444 31.8242 76.7414 32.2622C76.7384 32.7002 76.9414 34.4822 76.6634 36.5572C76.2874 39.2652 78.3634 41.5542 80.7734 41.3202" stroke="white" stroke-width="0.908" stroke-linecap="round" stroke-linejoin="round"/>
<path d="M79.6924 32.1963C79.6724 32.3463 79.9644 32.7463 80.3454 32.7983C80.7264 32.8503 81.0524 32.5403 81.0734 32.3903C81.0944 32.2403 80.8014 32.0763 80.4204 32.0223C80.0394 31.9683 79.7134 32.0473 79.6924 32.1963ZM91.2974 31.8903C91.3174 32.0403 91.0254 32.4403 90.6444 32.4923C90.2634 32.5443 89.9374 32.2343 89.9164 32.0843C89.8954 31.9343 90.1884 31.7703 90.5704 31.7163C90.9524 31.6623 91.2774 31.7403 91.2984 31.8903H91.2974Z" fill="white" stroke="white" stroke-width="0.524"/>
<path d="M92.6628 30.856C92.7258 32.029 92.4128 32.828 92.3628 34.076C92.3028 35.891 93.2228 37.969 91.8398 40.049" stroke="white" stroke-width="0.908" stroke-linecap="round" stroke-linejoin="round"/>
</svg>
