<svg width="166" height="94" viewBox="0 0 166 94" fill="none" xmlns="http://www.w3.org/2000/svg">
<path fill-rule="evenodd" clip-rule="evenodd" d="M69.7593 47.18C69.7593 49.158 69.2853 50.8 68.3313 52.105C67.2673 53.583 65.7933 54.345 63.9083 54.385C62.4883 54.429 61.0243 53.985 59.5083 53.082V61.528L57.0723 60.678V41.93C57.4723 41.45 57.9863 41.03 58.6103 40.69C60.0603 39.864 61.8223 39.44 63.8963 39.418L63.9313 39.452C65.8263 39.428 67.2873 40.189 68.3133 41.732C69.2703 43.147 69.7503 44.96 69.7503 47.178L69.7593 47.18ZM66.9483 47.016C66.9483 43.123 65.8133 41.124 63.5423 41.016C62.6383 40.974 61.7563 41.116 60.8983 41.441C60.2133 41.681 59.7523 41.918 59.4983 42.158V51.45C60.9513 52.35 62.2413 52.755 63.3663 52.69C65.7463 52.536 66.9383 50.647 66.9383 47.017L66.9483 47.016ZM84.6383 52.722C84.6383 55.375 84.3663 57.222 83.8223 58.222C83.2783 59.222 82.2363 60.059 80.7023 60.666C79.4573 61.146 78.1023 61.406 76.6663 61.45L76.2633 59.95C77.7333 59.755 78.7663 59.55 79.3663 59.363C80.5463 58.963 81.3663 58.363 81.8023 57.57C82.1593 56.916 82.3353 55.668 82.3353 53.82V53.2C80.6873 53.9356 78.902 54.3132 77.0973 54.308C75.8973 54.308 74.8393 53.94 73.9273 53.2C72.9033 52.395 72.3923 51.373 72.3923 50.136V40.226L74.8283 39.41V49.388C74.8283 50.454 75.1803 51.275 75.8843 51.85C76.5883 52.425 77.4993 52.702 78.6163 52.68C79.7333 52.658 80.9303 52.234 82.2013 51.408V39.78H84.6373V52.723L84.6383 52.722ZM94.1503 54.254L93.3473 54.288C91.9693 54.288 90.8953 53.968 90.1273 53.324C89.3593 52.68 88.9793 51.792 88.9793 50.658V41.278H87.3093V39.78H88.9793V35.8L91.4133 34.953V39.78H94.1503V41.278H91.4133V50.594C91.4133 51.488 91.6583 52.121 92.1493 52.491C92.5693 52.796 93.2493 52.971 94.1513 53.015V54.255L94.1503 54.254ZM108.902 54.06H106.466V44.867C106.466 43.932 106.242 43.127 105.796 42.454C105.569 42.0937 105.251 41.7991 104.875 41.5992C104.498 41.3993 104.076 41.301 103.65 41.314C102.533 41.314 101.136 41.89 99.4503 43.041V54.061H97.0143V32.084L99.4503 31.334V41.334C101.018 40.224 102.718 39.67 104.565 39.67C105.865 39.67 106.9 40.095 107.7 40.942C108.5 41.789 108.902 42.844 108.902 44.105V54.049V54.06ZM124.52 46.658C124.52 48.788 123.963 50.558 122.85 51.974C121.627 53.559 119.937 54.354 117.78 54.354C115.642 54.354 113.976 53.559 112.774 51.974C111.674 50.559 111.14 48.787 111.14 46.658C111.14 44.658 111.74 42.973 112.907 41.603C114.163 40.15 115.799 39.42 117.823 39.42C119.847 39.42 121.493 40.15 122.763 41.603C123.941 42.973 124.53 44.657 124.53 46.658H124.52ZM121.862 46.642C121.862 45.146 121.562 43.912 120.992 42.934C120.304 41.734 119.236 41.114 117.79 41.05C115.12 41.2 113.786 43.072 113.786 46.658C113.786 48.302 114.064 49.676 114.623 50.778C115.337 52.183 116.409 52.876 117.838 52.852C120.52 52.832 121.86 50.752 121.86 46.652L121.862 46.642ZM138.5 54.06H136.064V44.346C136.064 43.28 135.736 42.449 135.081 41.85C134.426 41.251 133.551 40.964 132.461 40.987C131.304 41.007 130.203 41.387 129.158 42.095V54.06H126.722V41.8C128.124 40.802 129.415 40.15 130.592 39.846C131.692 39.562 132.684 39.421 133.53 39.421C134.108 39.421 134.652 39.475 135.164 39.585C136.122 39.801 136.9 40.202 137.499 40.791C137.821 41.0908 138.076 41.4545 138.249 41.8589C138.421 42.2633 138.507 42.6994 138.501 43.139V54.059L138.5 54.06Z" fill="#646464"/>
<mask id="mask0" mask-type="alpha" maskUnits="userSpaceOnUse" x="18" y="32" width="23" height="23">
<path d="M33.02 32.1719C31.767 32.1779 30.57 32.2719 29.516 32.4639C26.413 32.9999 25.85 34.1219 25.85 36.1899V38.9219H33.183V39.8319H23.097C20.967 39.8319 19.1 41.0839 18.517 43.4659C18.178 44.8399 18.002 45.9519 18 47.0829V47.1209C18.002 48.2259 18.17 49.3509 18.516 50.7509C19.036 52.8729 20.282 54.3849 22.413 54.3849H24.933V51.1099C24.933 48.7439 27.027 46.6569 29.513 46.6569H36.837C38.877 46.6569 40.503 45.0169 40.503 43.0139V36.1899C40.503 34.2479 38.827 32.7879 36.837 32.4639C35.6111 32.2681 34.3715 32.1704 33.13 32.1719H33.016H33.02ZM27.678 35.7399C27.678 34.9839 28.294 34.3699 29.054 34.3699C29.814 34.3699 30.43 34.9839 30.43 35.7399C30.4279 36.1029 30.2818 36.4502 30.0238 36.7056C29.7658 36.9609 29.417 37.1035 29.054 37.1019C28.294 37.1019 27.678 36.4919 27.678 35.7399Z" fill="white"/>
</mask>
<g mask="url(#mask0)">
<path fill-rule="evenodd" clip-rule="evenodd" d="M33.02 32.1719C31.767 32.1779 30.57 32.2719 29.516 32.4639C26.413 32.9999 25.85 34.1219 25.85 36.1899V38.9219H33.183V39.8319H23.097C20.967 39.8319 19.1 41.0839 18.517 43.4659C18.178 44.8399 18.002 45.9519 18 47.0829V47.1209C18.002 48.2259 18.17 49.3509 18.516 50.7509C19.036 52.8729 20.282 54.3849 22.413 54.3849H24.933V51.1099C24.933 48.7439 27.027 46.6569 29.513 46.6569H36.837C38.877 46.6569 40.503 45.0169 40.503 43.0139V36.1899C40.503 34.2479 38.827 32.7879 36.837 32.4639C35.6111 32.2681 34.3715 32.1704 33.13 32.1719H33.016H33.02ZM27.678 35.7399C27.678 34.9839 28.294 34.3699 29.054 34.3699C29.814 34.3699 30.43 34.9839 30.43 35.7399C30.4279 36.1029 30.2818 36.4502 30.0238 36.7056C29.7658 36.9609 29.417 37.1035 29.054 37.1019C28.294 37.1019 27.678 36.4919 27.678 35.7399Z" fill="url(#paint0_linear)"/>
</g>
<mask id="mask1" mask-type="alpha" maskUnits="userSpaceOnUse" x="25" y="39" width="24" height="24">
<path d="M41.4216 39.833V43.017C41.4216 45.485 39.2816 47.562 36.8416 47.562H29.5156C27.5096 47.562 25.8496 49.242 25.8496 51.205V58.031C25.8496 59.973 27.5776 61.116 29.5156 61.673C31.8356 62.34 34.0626 62.461 36.8396 61.673C38.6856 61.151 40.5056 60.099 40.5056 58.031V55.307H33.1836V54.407H44.1736C46.3036 54.407 47.0986 52.954 47.8396 50.773C48.6056 48.528 48.5726 46.368 47.8396 43.488C47.3136 41.393 46.3076 39.833 44.1736 39.833H41.4216ZM35.9266 58.48C35.9287 58.117 36.0748 57.7697 36.3328 57.5143C36.5908 57.2589 36.9396 57.1164 37.3026 57.118C38.0626 57.118 38.6786 57.728 38.6786 58.48C38.6786 59.232 38.0626 59.85 37.3026 59.85C36.5426 59.85 35.9266 59.235 35.9266 58.48Z" fill="white"/>
</mask>
<g mask="url(#mask1)">
<path fill-rule="evenodd" clip-rule="evenodd" d="M41.4216 39.833V43.017C41.4216 45.485 39.2816 47.562 36.8416 47.562H29.5156C27.5096 47.562 25.8496 49.242 25.8496 51.205V58.031C25.8496 59.973 27.5776 61.116 29.5156 61.673C31.8356 62.34 34.0626 62.461 36.8396 61.673C38.6856 61.151 40.5056 60.099 40.5056 58.031V55.307H33.1836V54.407H44.1736C46.3036 54.407 47.0986 52.954 47.8396 50.773C48.6056 48.528 48.5726 46.368 47.8396 43.488C47.3136 41.393 46.3076 39.833 44.1736 39.833H41.4216ZM35.9266 58.48C35.9287 58.117 36.0748 57.7697 36.3328 57.5143C36.5908 57.2589 36.9396 57.1164 37.3026 57.118C38.0626 57.118 38.6786 57.728 38.6786 58.48C38.6786 59.232 38.0626 59.85 37.3026 59.85C36.5426 59.85 35.9266 59.235 35.9266 58.48Z" fill="url(#paint1_linear)"/>
</g>
<mask id="mask2" mask-type="alpha" maskUnits="userSpaceOnUse" x="142" y="34" width="6" height="4">
<path d="M142.232 34.7239H147.85V37.6539H142.232V34.7239Z" fill="white"/>
</mask>
<g mask="url(#mask2)">
<path fill-rule="evenodd" clip-rule="evenodd" d="M145.062 37.6549H145.427V35.2629L146.22 37.6549H146.626L147.45 35.2709V37.6549H147.848V34.7239H147.321L146.42 37.2349L145.65 34.7239H145.06V37.6539L145.062 37.6549ZM143.244 37.6549H143.671V35.0369H144.683V34.7239H142.232V35.0369H143.244V37.6569V37.6549Z" fill="#646464"/>
</g>
<defs>
<linearGradient id="paint0_linear" x1="17.2545" y1="33.2896" x2="33.8437" y2="47.3777" gradientUnits="userSpaceOnUse">
<stop stop-color="#599ED4"/>
<stop offset="1" stop-color="#2F6997"/>
</linearGradient>
<linearGradient id="paint1_linear" x1="40.5103" y1="55.8182" x2="34.5793" y2="47.5357" gradientUnits="userSpaceOnUse">
<stop stop-color="#FFD43B"/>
<stop offset="1" stop-color="#FFE872"/>
</linearGradient>
</defs>
</svg>
