<svg width="166" height="94" viewBox="0 0 166 94" fill="none" xmlns="http://www.w3.org/2000/svg">
<path d="M74.8807 29.7639C66.9407 28.3639 60.6607 29.8299 58.1587 34.0639C56.2917 37.2159 56.8247 41.3939 59.4527 45.8639C59.6767 46.2439 60.1747 46.3759 60.5647 46.1579C60.9547 45.9399 61.0897 45.4549 60.8667 45.0739C58.4987 41.0499 58.0367 37.4439 59.5697 34.8589C61.6477 31.3589 67.2477 30.0339 74.5897 31.3369C74.8777 31.3929 75.1747 31.2929 75.3667 31.0749C75.4602 30.9691 75.5233 30.84 75.5492 30.7012C75.5751 30.5624 75.5628 30.4192 75.5137 30.2869C75.4629 30.1534 75.3776 30.0357 75.2666 29.9458C75.1556 29.8559 75.0228 29.7969 74.8817 29.7749L74.8807 29.7639ZM63.5807 51.2819C66.7807 54.7219 70.9627 57.9469 75.7207 60.6239C87.2407 67.1059 99.5027 68.8379 105.546 64.8219C105.633 64.7644 105.707 64.6901 105.765 64.6033C105.823 64.5165 105.863 64.419 105.882 64.3165C105.902 64.2141 105.901 64.1087 105.879 64.0067C105.857 63.9048 105.815 63.8082 105.755 63.7229C105.63 63.5493 105.444 63.4304 105.234 63.3909C105.024 63.3514 104.807 63.3944 104.628 63.5109C99.2277 67.1059 87.5697 65.4609 76.5337 59.2509C71.9177 56.6539 67.8787 53.5309 64.7837 50.2159C64.6866 50.1099 64.5637 50.031 64.427 49.9869C64.2903 49.9427 64.1444 49.9348 64.0037 49.9639C63.7167 50.0219 63.4837 50.2289 63.3957 50.5039C63.3527 50.6385 63.3472 50.7823 63.3796 50.9198C63.412 51.0574 63.4812 51.1836 63.5797 51.2849L63.5807 51.2819ZM103.621 50.3169C108.821 44.3309 110.636 38.3089 108.139 34.0939C106.301 30.9919 102.417 29.3539 97.2547 29.2889C97.1127 29.2864 96.9726 29.3209 96.848 29.3889C96.7233 29.457 96.6185 29.5562 96.5437 29.6769C96.4701 29.7958 96.4302 29.9326 96.4285 30.0725C96.4267 30.2124 96.4631 30.3501 96.5337 30.4709C96.6053 30.5933 96.7074 30.6951 96.8301 30.7662C96.9528 30.8374 97.0919 30.8755 97.2337 30.8769C101.877 30.9349 105.234 32.3469 106.73 34.8769C108.804 38.3769 107.185 43.7469 102.38 49.2809C102.285 49.3856 102.22 49.5143 102.192 49.6531C102.164 49.7919 102.175 49.9356 102.223 50.0689C102.272 50.2029 102.357 50.3215 102.467 50.4125C102.577 50.5035 102.71 50.5636 102.851 50.5869C103.151 50.6369 103.436 50.5289 103.621 50.3069V50.3169ZM90.2567 30.0269C85.5567 31.0089 80.5517 32.9269 75.7567 35.6319C63.8647 42.3319 56.1067 52.1889 57.1867 59.3319C57.2217 59.6189 57.4137 59.8639 57.6887 59.9719C57.8234 60.0255 57.9698 60.0429 58.1133 60.0224C58.2568 60.0019 58.3925 59.9441 58.5067 59.8549C58.6193 59.7676 58.7058 59.6512 58.7569 59.5183C58.808 59.3854 58.8218 59.241 58.7967 59.1009C57.8407 52.7489 65.1927 43.3969 76.5707 36.9949C81.2327 34.3719 86.0777 32.5149 90.6087 31.5669C91.0387 31.4669 91.3087 31.0499 91.2157 30.6289C91.1227 30.2079 90.7017 29.9349 90.2677 30.0159L90.2567 30.0269Z" fill="#47848F"/>
<path d="M70.9905 64.3038C73.7105 71.7008 78.1565 76.2568 83.1585 76.2568C86.8055 76.2568 90.1785 73.8338 92.8115 69.5668C92.9715 69.3238 92.9845 69.0148 92.8435 68.7598C92.7025 68.5048 92.4305 68.3458 92.1435 68.3438C91.9989 68.3421 91.8564 68.3786 91.7305 68.4498C91.6046 68.5209 91.4997 68.6241 91.4265 68.7488C89.0615 72.5828 86.1565 74.6688 83.1685 74.6688C79.0145 74.6688 75.0485 70.6058 72.5345 63.7668C72.4869 63.6318 72.4044 63.5118 72.2953 63.419C72.1862 63.3263 72.0545 63.2641 71.9135 63.2388C71.6135 63.1858 71.3265 63.2888 71.1375 63.5088C70.9485 63.7288 70.8975 64.0328 71.0015 64.3008L70.9905 64.3038ZM95.8235 62.8558C97.2305 58.4738 97.9865 53.4158 97.9865 48.1478C97.9865 35.0008 93.2665 23.6678 86.5405 20.7578C86.1305 20.5878 85.6575 20.7678 85.4765 21.1658C85.2955 21.5638 85.4755 22.0258 85.8795 22.2088C91.8775 24.8048 96.3595 35.5608 96.3595 48.1488C96.3595 53.2588 95.6265 58.1588 94.2695 62.3828C94.223 62.5169 94.214 62.6612 94.2434 62.8C94.2729 62.9389 94.3396 63.0671 94.4365 63.1708C94.6345 63.3848 94.9365 63.4768 95.2245 63.4108C95.5125 63.3448 95.7415 63.1328 95.8225 62.8558H95.8235ZM111.16 62.0788C111.16 59.9808 109.415 58.2808 107.263 58.2808C105.111 58.2808 103.366 59.9808 103.366 62.0788C103.366 64.1768 105.111 65.8768 107.263 65.8768C109.415 65.8768 111.16 64.1768 111.16 62.0788ZM109.53 62.0788C109.53 63.2988 108.514 64.2888 107.26 64.2888C106.006 64.2888 104.99 63.2888 104.99 62.0788C104.99 60.8688 106.006 59.8688 107.26 59.8688C108.514 59.8688 109.53 60.8688 109.53 62.0788ZM59.0005 65.8778C61.1525 65.8778 62.8975 64.1778 62.8975 62.0798C62.8975 59.9818 61.1525 58.2818 59.0005 58.2818C56.8485 58.2818 55.1035 59.9818 55.1035 62.0798C55.1035 64.1778 56.8485 65.8778 59.0005 65.8778ZM59.0005 64.2908C57.7475 64.2908 56.7305 63.2908 56.7305 62.0808C56.7305 60.8708 57.7465 59.8708 59.0005 59.8708C60.2545 59.8708 61.2705 60.8708 61.2705 62.0808C61.2705 63.2908 60.2545 64.2908 59.0005 64.2908Z" fill="#47848F"/>
<path d="M83.1607 24.6302C84.5527 24.6302 85.8407 23.9062 86.5357 22.7302C87.2307 21.5542 87.2317 20.1072 86.5357 18.9322C85.8397 17.7572 84.5527 17.0322 83.1607 17.0322C81.0087 17.0322 79.2637 18.7322 79.2637 20.8302C79.2637 22.9282 81.0087 24.6282 83.1607 24.6282V24.6302ZM83.1607 23.0432C82.7655 23.0451 82.3765 22.9443 82.032 22.7506C81.6876 22.5569 81.3993 22.2769 81.1957 21.9382C80.9965 21.6039 80.8913 21.2219 80.8913 20.8327C80.8913 20.4435 80.9965 20.0616 81.1957 19.7272C81.3993 19.3885 81.6876 19.1086 82.032 18.9149C82.3765 18.7212 82.7655 18.6203 83.1607 18.6222C84.4137 18.6222 85.4307 19.6222 85.4307 20.8322C85.4307 22.0422 84.4147 23.0422 83.1607 23.0422V23.0432ZM83.7557 50.8332C82.2327 51.1532 80.7327 50.2102 80.4037 48.7272C80.0747 47.2442 81.0437 45.7812 82.5637 45.4602C84.0737 45.1662 85.5477 46.1072 85.8637 47.5752C86.1797 49.0432 85.2457 50.4932 83.7437 50.8332H83.7557Z" fill="#47848F"/>
</svg>
