<svg width="166" height="94" viewBox="0 0 166 94" fill="none" xmlns="http://www.w3.org/2000/svg">
<path d="M49.0464 61.6519C49.0464 61.6519 46.9864 62.8469 50.5124 63.2519C54.7844 63.7379 56.9674 63.6679 61.6744 62.7799C61.6744 62.7799 62.9124 63.5539 64.6404 64.2249C54.0874 68.7369 40.7574 63.9649 49.0464 61.6529V61.6519ZM47.7564 55.7629C47.7564 55.7629 45.4564 57.4689 48.9744 57.8329C53.5374 58.3029 57.1414 58.3409 63.3764 57.1329C63.3764 57.1329 64.2394 58.0049 65.5964 58.4829C52.8364 62.2049 38.6264 58.7769 47.7564 55.7529" fill="#5382A1"/>
<path d="M58.629 45.775C61.229 48.762 57.946 51.45 57.946 51.45C57.946 51.45 64.548 48.05 61.516 43.79C58.684 39.82 56.512 37.846 68.269 31.043C68.269 31.043 49.815 35.641 58.629 45.775Z" fill="#E76F00"/>
<path d="M72.5856 66.008C72.5856 66.008 74.1096 67.261 70.9056 68.231C64.8156 70.071 45.5536 70.628 40.2026 68.304C38.2796 67.469 41.8866 66.31 43.0206 66.067C44.2036 65.811 44.8806 65.859 44.8806 65.859C42.7406 64.356 31.0546 68.811 38.9446 70.087C60.4606 73.567 78.1666 68.519 72.5846 66.007L72.5856 66.008ZM50.0376 49.662C50.0376 49.662 40.2406 51.984 46.5676 52.827C49.2396 53.184 54.5656 53.103 59.5276 52.687C63.5826 52.347 67.6536 51.62 67.6536 51.62C67.6536 51.62 66.2236 52.23 65.1896 52.935C55.2396 55.545 36.0196 54.331 41.5536 51.661C46.2336 49.404 50.0376 49.661 50.0376 49.661V49.662ZM67.6126 59.463C77.7266 54.219 73.0506 49.18 69.7866 49.859C68.9866 50.025 68.6296 50.159 68.6296 50.159C68.6296 50.159 68.9266 49.695 69.4936 49.494C75.9506 47.229 80.9166 56.174 67.4096 59.717C67.4096 59.717 67.5666 59.577 67.6126 59.453" fill="#5382A1"/>
<path d="M61.5153 20.0581C61.5153 20.0581 67.1153 25.6581 56.2033 34.2451C47.4513 41.1411 54.2073 45.0721 56.1993 49.5651C51.0913 44.9651 47.3423 40.9181 49.8573 37.1511C53.5473 31.6211 63.7753 28.9391 61.5153 20.0591" fill="#E76F00"/>
<path d="M51.0322 73.6731C60.7402 74.2931 75.6472 73.3291 76.0002 68.7461C76.0002 68.7461 75.3202 70.4831 67.9772 71.8631C59.6912 73.4191 49.4722 73.2371 43.4102 72.2401C43.4102 72.2401 44.6502 73.2641 51.0302 73.6731" fill="#5382A1"/>
<path d="M104.385 55.762C103.468 56.549 102.499 56.992 101.63 56.992C100.39 56.992 99.72 56.256 99.72 55.074C99.72 53.796 100.438 52.862 103.32 52.862H104.386V55.762H104.385ZM106.915 58.588V49.84C106.915 47.605 105.627 46.14 102.522 46.14C100.709 46.14 99.122 46.583 97.832 47.148L98.204 48.698C99.22 48.328 100.534 47.985 101.826 47.985C103.616 47.985 104.384 48.698 104.384 50.171V51.277H103.491C99.145 51.277 97.185 52.947 97.185 55.453C97.185 57.616 98.477 58.845 100.909 58.845C102.472 58.845 103.639 58.205 104.731 57.271L104.929 58.599H106.914L106.915 58.588ZM115.361 58.588H112.205L108.405 46.352H111.161L113.518 53.87L114.042 56.13C115.234 52.86 116.078 49.544 116.5 46.35H119.18C118.46 50.38 117.17 54.802 115.358 58.586L115.361 58.588ZM127.469 55.762C126.549 56.549 125.579 56.992 124.709 56.992C123.469 56.992 122.799 56.256 122.799 55.074C122.799 53.796 123.519 52.862 126.399 52.862H127.467V55.762H127.469ZM129.999 58.588V49.84C129.999 47.605 128.709 46.14 125.607 46.14C123.793 46.14 122.205 46.583 120.915 47.148L121.287 48.698C122.303 48.328 123.621 47.985 124.911 47.985C126.698 47.985 127.469 48.698 127.469 50.171V51.277H126.575C122.228 51.277 120.269 52.947 120.269 55.453C120.269 57.616 121.559 58.845 123.992 58.845C125.556 58.845 126.722 58.205 127.816 57.271L128.016 58.599H130L129.999 58.588ZM94.411 60.666C93.7 61.71 92.525 62.533 91.25 63L90 61.545C90.97 61.052 91.804 60.245 92.19 59.515C92.525 58.855 92.663 58.015 92.663 55.971V42H95.353V55.778C95.353 58.496 95.133 59.595 94.413 60.666H94.411Z" fill="#E76F00"/>
</svg>
