<svg width="166" height="96" viewBox="0 0 166 96" fill="none" xmlns="http://www.w3.org/2000/svg">
<path d="M90.234 39.8171L84.278 45.4341L78.748 34.1341L81.604 27.6371C82.326 26.3411 83.507 26.3241 84.228 27.6371L90.233 39.8171H90.234Z" fill="#FFA000"/>
<path d="M84.28 45.4298L62 66.4178L78.75 34.1338L84.28 45.4298Z" fill="#F57F17"/>
<path d="M96.765 31.2268C97.832 30.1968 98.931 30.5448 99.208 32.0068L105 66.1348L85.79 77.8148C85.116 78.1948 83.33 78.3448 83.33 78.3448C83.33 78.3448 81.705 78.1448 81.082 77.7968L62 66.4178L96.765 31.2258V31.2268Z" fill="#FFCA28"/>
<path d="M78.75 34.1329L62 66.4169L69.465 19.2289C69.745 17.7669 70.565 17.6189 71.302 18.9139L78.75 34.1339V34.1329Z" fill="#FFA000"/>
</svg>
