<svg width="166" height="94" viewBox="0 0 166 94" fill="none" xmlns="http://www.w3.org/2000/svg">
<path d="M113.672 38.224L113.572 37.552L113.412 36.864L113.24 36.591C112.53 36.033 111.765 35.611 110.988 35.241L109.036 34.431C107.199 29.328 104.041 24.803 99.889 21.651C95.597 18.391 90.549 16.667 85.293 16.667C80.037 16.667 74.988 18.392 70.696 21.651C66.544 24.804 63.396 29.329 61.549 34.434C60.891 34.676 60.249 34.941 59.599 35.244C58.821 35.616 58.056 36.038 57.346 36.594L57.173 36.867C57.1112 37.0943 57.0579 37.3238 57.013 37.555C56.968 37.775 56.935 38.001 56.913 38.227C56.85 38.673 56.807 39.123 56.783 39.573C56.737 40.475 56.763 41.378 56.863 42.276C56.9592 43.1755 57.1264 44.0659 57.363 44.939C57.4872 45.3783 57.6324 45.8115 57.798 46.237C57.8819 46.4539 57.9736 46.6677 58.073 46.878C58.123 46.984 58.177 47.088 58.233 47.196C58.356 47.412 58.379 47.454 58.431 47.531L58.664 47.746C58.816 47.824 58.942 47.883 59.079 47.949L59.479 48.129L59.699 48.219C57.877 49.906 55.897 52.097 54.183 54.804L52 58.22L55.04 55.55C55.092 55.505 57.64 53.297 61.89 50.796L61.95 51.286C61.672 51.431 60.336 52.133 59.94 52.466C59.282 53.013 59.24 53.862 59.426 55.446C59.526 56.258 59.821 57.834 60.231 59.28C60.938 61.767 61.456 62.207 61.911 62.31C62.116 62.36 62.381 62.382 62.679 62.382C63.493 62.382 64.536 62.222 65.216 62.018C66.014 64.502 67.144 66.744 68.522 68.712C68.455 68.73 68.39 68.752 68.322 68.77L63.622 66.603L61.586 65.686L62.79 67.568C62.878 67.704 64.956 70.948 66.652 73.134C68.239 75.174 70.412 77.26 74.512 77.26C75.0273 77.2578 75.542 77.2274 76.054 77.169L78.894 76.829C83.198 78.412 87.944 78.509 92.448 76.801C93.628 76.351 94.762 75.801 95.835 75.127L100.409 73.993C100.559 73.953 100.749 73.907 100.944 73.861C102.251 73.561 104.436 73.053 105.601 70.721C106.775 68.367 108.691 64.761 108.711 64.724L109.606 63.042L107.862 63.802C107.769 63.844 105.559 64.808 104.41 65.41C105.208 63.57 105.678 62.05 105.842 61.465C106.485 61.62 107.438 61.6 108.139 61.6C108.452 61.5967 108.764 61.5568 109.068 61.481C109.524 61.365 109.876 61.061 110.538 58.496C110.923 57.004 111.2 55.38 111.275 54.546C111.422 52.921 111.375 52.05 110.712 51.501C110.382 51.228 109.412 50.706 108.922 50.449C109.198 50.331 109.332 50.366 109.342 50.369L109.789 48.671C109.946 48.604 110.113 48.536 110.302 48.463L111.102 48.133L111.502 47.953L111.918 47.75L112.151 47.535C112.201 47.458 112.229 47.415 112.259 47.357C112.407 47.091 112.459 46.987 112.509 46.882C112.609 46.669 112.699 46.455 112.784 46.242C112.949 45.817 113.084 45.382 113.218 44.944C113.455 44.071 113.622 43.18 113.718 42.281C113.817 41.3836 113.843 40.4796 113.796 39.578C113.774 39.1275 113.731 38.6783 113.666 38.232L113.672 38.224Z" fill="#0E0F0D"/>
<path d="M88.1013 73.1849L87.1173 73.3009L86.4803 73.3329L86.4043 73.3349L86.9973 71.9919L88.1013 73.1849Z" fill="#E1C5A2"/>
<path d="M87.7011 47.8201C87.1861 48.2381 86.6441 48.6281 86.0791 48.9701L84.1951 50.1081C83.0131 50.2521 81.9871 50.5451 81.9291 50.5631C81.8947 50.5716 81.8619 50.5858 81.8321 50.6051C81.7391 50.6601 81.6691 50.7481 81.6371 50.8521L79.7171 57.1821L69.4591 59.4661L66.2271 57.2011L65.2871 49.5791L72.5241 48.5211L71.6111 49.7131L69.8561 52.2331L72.4111 50.5281C72.4511 50.5011 74.0761 49.4301 76.7371 48.1261L85.4511 47.7991L87.7011 47.8211V47.8201ZM71.7341 56.4071C72.4641 56.0131 73.2861 56.0711 74.5761 56.0731L75.0061 56.0701L75.3961 56.0641C76.7261 56.0511 77.8281 56.1761 77.8081 54.0901C77.7881 52.0041 76.8621 50.3161 75.5341 50.3301C74.2061 50.3441 72.9191 52.0521 72.9991 54.1371C73.0191 54.6801 73.1011 55.0731 73.2291 55.3541C72.0721 55.6441 71.7521 56.3621 71.7351 56.4071H71.7341ZM105.481 49.5531L104.557 56.0331L101.299 58.3171L91.0541 57.1511L89.1421 50.8511C89.1213 50.7822 89.0836 50.7197 89.0324 50.6692C88.9812 50.6188 88.9182 50.5819 88.8491 50.5621C88.7861 50.5421 87.5191 50.1801 86.1731 50.0641L86.4191 50.0481C86.6311 50.0321 90.1641 49.5981 94.3841 48.1441C99.0561 48.5041 102.872 49.0771 105.48 49.5541L105.481 49.5531ZM98.9351 55.5531C98.9221 55.5031 98.6411 54.6631 97.4071 54.8111C97.5471 54.5111 97.6121 54.0811 97.5671 53.5071C97.4041 51.4251 96.1931 49.7701 94.8671 49.8171C93.5411 49.8641 92.6901 51.5891 92.7641 53.6791C92.8371 55.7631 93.9501 55.7491 95.2771 55.7021C97.0601 55.6681 98.0391 55.1201 98.9351 55.5521V55.5531Z" fill="#A89983"/>
<path d="M95.4293 51.8029C95.4323 51.9827 95.3639 52.1564 95.239 52.2859C95.1142 52.4154 94.9432 52.4902 94.7633 52.4939C94.5833 52.4969 94.4103 52.4289 94.2803 52.2939C94.1509 52.1688 94.0763 51.9976 94.073 51.8176C94.0696 51.6377 94.1377 51.4637 94.2623 51.3339C94.3873 51.2039 94.5583 51.1299 94.7373 51.1259C94.9163 51.1219 95.0913 51.1899 95.2213 51.3159C95.3513 51.4419 95.4253 51.6129 95.4283 51.7929L95.4293 51.8029ZM76.4123 52.2929C76.4153 52.4269 76.3786 52.5588 76.3068 52.672C76.235 52.7851 76.1314 52.8746 76.009 52.9291C75.8865 52.9836 75.7507 53.0007 75.6186 52.9782C75.4865 52.9558 75.3639 52.8948 75.2663 52.8029C75.1356 52.6787 75.0596 52.5078 75.0549 52.3276C75.0502 52.1474 75.1173 51.9727 75.2413 51.8419C75.3653 51.7119 75.5363 51.6359 75.7163 51.6419C75.8962 51.6376 76.0704 51.7047 76.2009 51.8286C76.3313 51.9525 76.4074 52.1231 76.4123 52.3029" fill="white"/>
<path d="M109.954 52.4041C109.794 52.2721 109.259 51.9661 108.737 51.6841L107.877 57.7081C107.868 57.7662 107.847 57.8218 107.816 57.8718C107.785 57.9218 107.744 57.9651 107.697 57.9991L106.467 58.8591L106.393 59.2391C107.6 59.5361 108.773 58.6651 109.431 58.0371C109.735 56.8501 110.001 55.4411 110.091 54.4331C110.231 52.8701 110.107 52.5331 109.951 52.4051L109.954 52.4041ZM90.9796 75.2901C90.1826 75.0061 89.4516 74.5431 88.8156 73.9141L88.6586 73.7541C88.1609 73.8558 87.6577 73.9283 87.1516 73.9711L86.5046 73.9991L86.1716 74.0021L86.0436 73.9991C85.2816 75.1321 84.0006 75.7541 82.9976 76.0861C85.9776 76.5981 89.2596 75.8141 90.9806 75.2901H90.9796ZM64.7346 60.5371L64.6546 60.2651L63.0586 59.1471C62.9586 59.0771 62.8936 58.9671 62.8786 58.8471L62.0996 52.5201L60.6796 53.3561C60.5256 53.4831 60.4096 53.8081 60.5746 55.3161C60.7006 56.4491 61.0986 58.1901 61.5046 59.4961C62.3126 60.1161 63.5046 60.7661 64.7326 60.5391L64.7346 60.5371ZM88.5926 60.2491C88.5089 60.2395 88.43 60.2056 88.3654 60.1515C88.3009 60.0975 88.2537 60.0257 88.2296 59.9451L86.2596 53.4481C85.9296 53.4051 85.6366 53.3811 85.3896 53.3811C85.1426 53.3811 84.8496 53.4051 84.5196 53.4481L82.6056 59.7481C82.5833 59.8208 82.5421 59.8864 82.4863 59.938C82.4304 59.9897 82.3618 60.0256 82.2876 60.0421L81.3726 60.2461C81.2956 60.5701 81.0326 61.0461 80.1726 61.3061C78.8026 61.7241 70.1326 64.3121 69.1426 64.1711C68.5656 64.0911 67.4666 63.4831 66.6546 62.9931C66.3296 62.2261 66.1496 61.7051 66.1086 61.5831V61.5811L66.1066 61.5831C66.2216 61.9191 67.3536 65.1801 69.6526 68.3691L74.9266 66.7491C76.3126 64.6091 78.2886 62.4851 79.6906 62.4131C79.9377 62.4007 80.1851 62.3943 80.4326 62.3941C81.0854 62.3959 81.7375 62.4363 82.3856 62.5151C81.8686 62.0451 81.7626 61.4951 81.6876 61.2511C81.6876 61.2511 83.4776 62.6541 85.7576 62.3591C88.0376 62.0641 89.4556 60.7511 89.4556 60.7511L89.5006 60.3461L88.5856 60.2421" fill="#E1C5A2"/>
<path d="M90.4459 61.07C89.9729 60.948 89.6759 60.752 89.4859 60.55L89.4629 60.758C89.4629 60.758 89.4549 61.718 88.4629 62.46C90.3729 61.88 91.1629 61.684 91.7059 61.684C92.3019 61.684 92.6059 61.9341 92.8559 62.1521L93.0119 62.2821L96.7649 65.2591L100.457 65.655L102.379 65.7711L102.935 65.751C103.565 64.543 104.135 63.2071 104.662 61.7331C103.955 62.2291 102.345 63.3151 101.59 63.4551C100.61 63.6391 91.8299 61.431 90.4459 61.071" fill="#E1C5A2"/>
<path d="M112.536 38.3501L112.471 37.7301L112.405 37.2901C111.851 36.8231 111.22 36.4081 110.565 36.0301C109.865 35.6131 109.111 35.2401 108.351 34.8961L106.046 33.9041L104.871 33.4471L103.686 33.0071L106.164 33.5471L107.754 34.0041C104.009 24.2081 95.058 17.8301 85.284 17.8301C75.51 17.8301 66.559 24.2101 62.816 34.0041C63.342 33.8381 63.872 33.6841 64.403 33.5471C65.223 33.3371 66.048 33.1471 66.883 33.0071L65.693 33.4471C65.2997 33.5934 64.9087 33.7457 64.52 33.9041C63.742 34.2181 62.97 34.5401 62.213 34.8961C61.456 35.2411 60.713 35.6131 60.001 36.0301C59.345 36.4061 58.716 36.8221 58.161 37.2901C58.137 37.4371 58.115 37.5841 58.096 37.7301C58.0709 37.9367 58.0489 38.1438 58.03 38.3511C57.9958 38.7689 57.9781 39.1879 57.977 39.6071C57.971 40.4459 58.0224 41.2843 58.131 42.1161C58.2391 42.947 58.4038 43.7696 58.624 44.5781C58.734 44.9761 58.861 45.3681 59.008 45.7551C59.0815 45.9447 59.1605 46.1321 59.245 46.3171C59.2851 46.4071 59.3275 46.4962 59.372 46.5841L59.426 46.6861L59.612 46.7791L59.984 46.9571L60.717 47.2951C60.73 47.2831 60.744 47.2711 60.754 47.2591L60.064 44.6251C60.211 44.5851 61.522 44.2451 63.784 43.8151C63.601 43.7811 63.419 43.7421 63.237 43.6991C62.7212 43.5728 62.2146 43.4111 61.721 43.2151C61.477 43.1134 61.2389 42.9979 61.008 42.8691C60.778 42.7371 60.554 42.5891 60.378 42.3891C62.861 43.2011 67.994 42.8341 72.558 42.3611C76.73 41.9311 80.914 41.6511 85.118 41.6431C89.321 41.6531 93.508 41.9311 97.676 42.3611C102.241 42.8341 107.373 43.2011 109.856 42.3891C109.683 42.5891 109.456 42.7361 109.229 42.8691C108.997 42.9975 108.758 43.113 108.513 43.2151C108.02 43.4112 107.514 43.573 106.999 43.6991L106.769 43.7491C109.249 44.2091 110.692 44.5841 110.845 44.6241L110.185 47.1341L110.583 46.9571L110.956 46.7791L111.144 46.6861L111.194 46.5841C111.239 46.4981 111.284 46.4081 111.324 46.3171C111.408 46.1351 111.487 45.9471 111.56 45.7551C111.706 45.3688 111.834 44.9761 111.944 44.5781C112.17 43.7781 112.322 42.9481 112.436 42.1161C112.546 41.2844 112.599 40.446 112.593 39.6071C112.592 39.1878 112.573 38.7688 112.537 38.3511" fill="#E0D896"/>
<path d="M95.5652 33.4779C95.6032 34.5979 95.5752 36.6319 95.0552 38.5339C95.0352 38.6069 95.0372 38.6839 95.0552 38.7539L93.0622 38.5699C93.8072 37.0059 93.9702 35.3399 94.0062 34.7539C94.5792 34.3469 95.1482 33.8579 95.5662 33.4779H95.5652ZM76.5592 34.7539C76.5942 35.3409 76.7562 37.0019 77.5012 38.5659L75.5092 38.7499C75.5279 38.6794 75.5279 38.6053 75.5092 38.5349C74.9892 36.6349 74.9612 34.6019 74.9972 33.4789C75.4172 33.8589 75.9852 34.3489 76.5592 34.7539ZM103.723 40.3059C103.72 40.3249 103.715 40.3436 103.709 40.3619L103.926 40.4279L105.742 41.1119C104.762 40.4739 104.14 38.6349 103.792 37.2289C103.887 39.0689 103.73 40.2369 103.722 40.3059H103.723ZM74.1792 33.1259L67.8392 34.9309C67.4592 37.4009 67.5752 39.2859 67.6362 39.9409L67.6682 39.9209C67.6682 39.9209 67.8752 37.2309 68.2962 36.1989C68.5132 35.6689 69.8402 35.3309 70.8522 35.0989C71.8642 34.8669 73.4822 34.3749 73.7972 35.7989C73.9912 36.6789 74.2572 37.4119 74.5132 37.9519C74.1062 35.9939 74.1332 34.0789 74.1802 33.1349L74.1792 33.1259ZM96.3802 33.1349C96.4322 34.1149 96.4562 36.1349 95.9962 38.1809C96.2842 37.6279 96.6042 36.8109 96.8262 35.7989C97.1392 34.3739 98.7562 34.8569 99.7712 35.0989C100.786 35.3409 102.111 35.6789 102.328 36.1989C102.685 37.0729 102.888 39.1319 102.941 39.7449C103.001 38.9569 103.068 37.1869 102.723 34.9309L96.3802 33.1259V33.1349ZM76.5082 33.6759L77.2082 34.1879C77.2631 34.2258 77.3081 34.2763 77.3395 34.335C77.371 34.3938 77.388 34.4592 77.3892 34.5259C77.3902 34.5459 77.4392 36.6379 78.3622 38.4189C78.3749 38.4457 78.3856 38.4735 78.3942 38.5019L85.2912 38.2819L92.1872 38.5079C92.1972 38.4779 92.2052 38.4479 92.2212 38.4179C93.1432 36.6379 93.1932 34.5459 93.1932 34.5249C93.1945 34.4581 93.2117 34.3927 93.2433 34.3339C93.275 34.2751 93.3202 34.2247 93.3752 34.1869L94.0392 33.6929L94.0692 33.6129C94.5492 28.9349 93.6692 24.6229 93.1092 22.4929C93.0792 23.9489 92.7352 36.4289 89.6412 36.4289H81.1012C77.8162 36.4289 77.5512 22.3589 77.5512 22.3589L77.3812 22.8589C76.8212 25.1029 76.0512 29.2269 76.5172 33.6759H76.5082ZM66.8612 40.3619C66.8582 40.3439 66.8532 40.3259 66.8492 40.3069C66.8392 40.2369 66.6792 39.0689 66.7762 37.2269C66.4292 38.6339 65.8062 40.4769 64.8242 41.1139C65.4112 40.8409 66.0292 40.6299 66.6442 40.4279L66.8612 40.3619Z" fill="#D7C184"/>
<path d="M106.397 59.2401L106.215 60.0661C106.919 60.2301 108.071 60.3581 108.621 60.2501C108.857 59.9941 109.161 59.1051 109.434 58.0371C108.776 58.6671 107.604 59.5371 106.396 59.2391L106.397 59.2401ZM81.1598 76.4941C82.8418 76.9541 84.5598 77.1541 86.2528 77.0441C88.3964 76.8992 90.5036 76.4155 92.4958 75.6111C91.9788 75.5731 91.4688 75.4661 90.9798 75.2931C89.2598 75.8181 85.9798 76.6031 82.9978 76.0901C82.1978 76.3501 81.5898 76.4301 81.5298 76.4381L81.1598 76.4961V76.4941ZM64.8458 60.9161L64.7358 60.5391C63.5058 60.7671 62.3158 60.1151 61.5078 59.4961C61.7698 60.3331 62.0328 60.9921 62.2308 61.1921C62.8408 61.2991 64.1868 61.1121 64.8468 60.9171L64.8458 60.9161ZM66.6648 63.0001C67.4768 63.5001 68.5748 64.0971 69.1528 64.1781C70.1428 64.3181 78.8128 61.7311 80.1828 61.3131C81.0328 61.0531 81.2958 60.5781 81.3828 60.2531L68.8828 63.0411C68.8528 63.0471 68.8208 63.0511 68.7888 63.0511H68.7878C68.7018 63.0511 68.6148 63.0241 68.5418 62.9731L68.0548 62.6331L66.5948 61.6091L65.9948 61.1971C66.0048 61.2301 66.0168 61.2641 66.0278 61.2971L66.1298 61.5871V61.5891C66.2943 62.066 66.4764 62.5367 66.6758 63.0001H66.6648ZM105.052 60.5951L105.282 59.6981L104.848 60.0031L102.414 61.7101C102.349 61.7551 102.274 61.7821 102.196 61.7881C102.17 61.7901 102.146 61.7891 102.119 61.7861L89.4998 60.3521L89.4798 60.5491C89.6678 60.7531 89.9658 60.9491 90.4398 61.0691C91.8238 61.4291 100.602 63.6361 101.583 63.4521C102.338 63.3121 103.948 62.2261 104.653 61.7301L104.671 61.6801L105.031 60.5951" fill="#9F8F78"/>
<path d="M91.7091 43.606L91.3841 44.022C90.6407 44.9637 89.8359 45.8553 88.9751 46.691L85.4491 46.635L79.7191 46.775C82.2891 45.709 85.3761 44.665 88.7191 44.041L91.7191 43.605L91.7091 43.606ZM76.6831 44.757C75.7631 45.402 74.7301 46.225 73.7251 47.223L67.0591 48.093C69.9041 46.785 73.1521 45.579 76.6831 44.758V44.757ZM108.108 50.073L107.061 57.398L102.049 60.913L88.9791 59.425L87.0121 52.939C86.9889 52.8617 86.9445 52.7925 86.8838 52.7392C86.8232 52.686 86.7487 52.6509 86.6691 52.638C86.1851 52.56 85.7571 52.522 85.3991 52.522C85.0411 52.522 84.6131 52.56 84.1261 52.638C83.9661 52.666 83.8331 52.782 83.7841 52.938L81.8641 59.266L68.8671 62.161L63.7171 58.551L62.7011 50.331L63.3741 49.957L64.4491 49.74L65.4061 57.498C65.4133 57.5575 65.4332 57.6149 65.4644 57.6661C65.4956 57.7173 65.5375 57.7613 65.5871 57.795L69.1311 60.281C69.2011 60.331 69.2911 60.358 69.3751 60.358C69.4074 60.3574 69.4395 60.3537 69.4711 60.347L80.1571 57.967C80.1941 57.9579 80.2299 57.9448 80.2641 57.928C80.3141 57.9012 80.3583 57.8648 80.3942 57.8209C80.43 57.7769 80.4569 57.7263 80.4731 57.672L82.3991 51.33C82.9151 51.198 84.2391 50.888 85.3991 50.888C86.5591 50.888 87.8811 51.188 88.3991 51.33L90.3231 57.672C90.3473 57.7523 90.3945 57.8238 90.4588 57.8776C90.5231 57.9314 90.6018 57.9653 90.6851 57.975L101.373 59.191C101.475 59.203 101.581 59.175 101.666 59.115L105.212 56.635C105.26 56.6005 105.3 56.5569 105.331 56.5065C105.361 56.4562 105.382 56.4002 105.39 56.342L106.336 49.712L108.108 50.074V50.073ZM109.428 45.479L108.508 48.973C106.626 48.557 102.494 47.743 96.8701 47.193C98.7071 46.409 100.578 45.426 102.288 44.195C105.635 44.668 108.093 45.175 109.428 45.479ZM61.4961 45.479L61.7521 46.446C62.3757 45.9487 63.0174 45.4747 63.6761 45.025C62.7761 45.198 62.0401 45.355 61.4961 45.479Z" fill="#6E6A67"/>
<path d="M97.5756 43.53L93.3496 43.324L92.8636 44.014C92.1086 45.037 90.6196 46.901 88.7116 48.5C90.1476 48.045 95.8416 46.132 98.7276 43.6L97.5756 43.53ZM87.2536 43.158L87.2596 43.157L85.1156 43.137L81.9656 43.171L80.0286 44.091C80.0186 44.095 80.0086 44.101 79.9986 44.107C79.7066 44.249 77.1636 45.533 74.7686 47.827L75.4286 47.487C76.7286 46.607 80.2316 44.52 85.6636 43.145L87.2536 43.161V43.158ZM75.3476 43.395L72.6576 43.533L69.5476 43.74L68.0026 43.878L67.5626 43.928C66.2096 44.738 61.0326 47.991 57.4746 52.248L57.6616 52.028C64.2476 46.404 71.4676 44.215 75.3486 43.395H75.3476ZM105.144 66.525L105.024 66.585C104.364 66.933 103.498 67.103 102.38 67.103C101.714 67.103 101.06 67.047 100.338 66.983C98.8926 66.851 96.4476 66.563 96.4216 66.558L96.2346 66.538L96.0866 66.418C96.0636 66.403 93.9226 64.693 92.1906 63.33L91.9986 63.172C91.8156 63.016 91.8156 63.016 91.7066 63.016C91.1506 63.016 89.5366 63.518 85.9996 64.614L85.7826 64.684L85.5676 64.602C85.5436 64.596 83.2236 63.735 80.4426 63.735C80.2146 63.735 79.9876 63.741 79.7666 63.751C79.4886 63.765 77.9266 64.509 75.9266 67.673L75.7986 67.877L75.5686 67.951C73.2052 68.7087 70.8306 69.4311 68.4456 70.118L68.2106 70.185L67.9856 70.081C67.9626 70.073 66.5356 69.409 65.1786 68.786L65.4786 68.926L69.6716 72.621C69.7227 72.6765 69.7761 72.7299 69.8316 72.781C69.7656 72.7057 69.7013 72.6291 69.6386 72.551L69.6366 72.549C70.2266 73.109 70.8886 73.595 71.6096 73.937C71.9696 74.107 72.3466 74.237 72.7296 74.301C72.9203 74.3327 73.1133 74.3488 73.3066 74.349C73.5046 74.349 73.7066 74.343 73.9106 74.333C74.7182 74.2909 75.5247 74.2306 76.3296 74.152L78.7496 73.902C79.5546 73.815 80.3496 73.714 81.1566 73.59C81.5566 73.532 81.9536 73.466 82.3416 73.39C82.5316 73.345 82.7316 73.295 82.8816 73.227C83.0196 73.161 83.1866 73.027 83.3316 72.902C83.6338 72.6353 83.9264 72.3578 84.2086 72.07C84.4966 71.782 84.7786 71.49 85.0586 71.19C85.5316 70.695 85.9356 70.17 86.3936 69.66L86.5736 69.464L86.5796 69.471C86.6758 69.5393 86.7704 69.6097 86.8636 69.682L88.5306 70.922C89.2376 71.419 89.9536 71.917 90.6936 72.322C90.8713 72.4256 91.058 72.5126 91.2516 72.582C91.2756 72.592 91.2956 72.595 91.3136 72.598C91.3355 72.6064 91.3583 72.6118 91.3816 72.614C91.4176 72.619 91.4656 72.622 91.5116 72.624C91.6137 72.6243 91.7157 72.6216 91.8176 72.616C92.2413 72.582 92.6634 72.53 93.0826 72.46C93.9286 72.328 94.7776 72.175 95.6226 72.006L98.1526 71.484C98.9953 71.3047 99.8344 71.1093 100.67 70.898C101.084 70.786 101.5 70.683 101.87 70.506C102.248 70.33 102.598 70.089 102.92 69.812C103.57 69.257 104.12 68.568 104.574 67.818L104.573 67.82C104.797 67.405 104.987 66.972 105.143 66.527L105.144 66.525ZM89.3546 26.684H90.8446V23.656H79.9546V26.684H81.4446V25.146H84.5246V34.498H83.2566V36.234H87.5436V34.498H86.2756V25.146H89.3556V26.684" fill="#93232C"/>
<path d="M100.622 43.7349L98.7279 43.6009C95.8429 46.1309 90.1479 48.0439 88.7119 48.5009L88.6289 48.5709C90.4769 48.2379 93.2389 47.5779 96.1039 46.3069C97.5139 45.6829 98.9479 44.9109 100.312 43.9569C100.417 43.8839 100.52 43.8069 100.612 43.7339L100.622 43.7349ZM85.6549 43.1409C80.2229 44.5159 76.7299 46.6009 75.4199 47.4829C76.6293 46.8668 77.8612 46.2957 79.1129 45.7709L79.5669 45.5839L79.7089 45.5259L80.0889 45.3739L80.3019 45.2909L80.6499 45.1559L80.9129 45.0559L81.2369 44.9359L81.5429 44.8239L81.8449 44.7139L82.1949 44.5919L82.4729 44.4959L82.8869 44.3579L83.1149 44.2829L83.7719 44.0749C84.2539 43.9269 84.7459 43.7849 85.2469 43.6499C85.9085 43.4693 86.5744 43.3045 87.2439 43.1559L85.6539 43.1399L85.6549 43.1409ZM75.3369 43.3899C71.4569 44.2099 64.2369 46.3979 57.6499 52.0229L57.4629 52.2429C60.8109 49.9129 66.5649 46.4509 73.6789 44.3429L74.3719 44.1429C75.5749 43.8059 76.7899 43.5179 78.0159 43.2789L75.3359 43.3789L75.3369 43.3899ZM106.425 65.8999L106.221 65.9949L106.121 66.0449L106.033 66.0869L105.898 66.1509C105.88 66.1609 105.86 66.1689 105.841 66.1789L105.691 66.2509L105.658 66.2669L105.498 66.3469L105.481 66.3549L105.153 66.5199C104.997 66.9659 104.806 67.3989 104.582 67.8149L104.584 67.8119C104.127 68.5619 103.579 69.2499 102.93 69.8039C102.607 70.0809 102.256 70.3219 101.88 70.4979C101.51 70.6759 101.095 70.7779 100.68 70.8899C99.8469 71.0899 99.0069 71.2969 98.1629 71.4759C97.3229 71.6629 96.4789 71.8359 95.6329 71.9979C94.7889 72.1679 93.9399 72.3199 93.0929 72.4519C92.6689 72.5179 92.2459 72.5789 91.8279 72.6079C91.726 72.6137 91.624 72.6164 91.5219 72.6159C91.4781 72.614 91.4344 72.6103 91.3909 72.6049C91.3679 72.6029 91.3449 72.5979 91.3239 72.5889C91.3039 72.5859 91.2819 72.5809 91.2619 72.5729C91.0683 72.504 90.8815 72.4173 90.7039 72.3139C89.9639 71.8989 89.2479 71.4009 88.5409 70.9139C87.9939 70.5299 87.4239 70.0839 86.8739 69.6739L86.8259 69.7419L86.8289 69.7459C86.8629 69.7759 86.8989 69.8059 86.9319 69.8459V69.8449L86.8589 69.7909L87.3189 70.3409L87.3719 70.4039C88.1347 71.2956 88.9319 72.1573 89.7619 72.9869C90.6519 73.8709 91.7269 74.3169 92.9589 74.3169C93.3789 74.3169 93.8219 74.2619 94.2589 74.1549L95.5829 73.8349L99.4669 72.8849L99.6609 72.8349L100.047 72.7309C100.243 72.6769 100.441 72.6279 100.64 72.5839C101.858 72.3009 103.524 71.9139 104.407 70.1439L105.209 68.5639L106.634 65.8239L106.426 65.9199L106.425 65.8999ZM86.4759 69.7399L86.3959 69.6649C85.9379 70.1649 85.5329 70.7009 85.0609 71.1969C84.7829 71.4939 84.5009 71.7969 84.2109 72.0749C83.9209 72.3529 83.6339 72.6489 83.3339 72.9069C83.197 73.0328 83.0456 73.1419 82.8829 73.2319C82.7081 73.3022 82.5274 73.3568 82.3429 73.3949C81.9506 73.4798 81.5553 73.5501 81.1579 73.6059C80.3581 73.7288 79.5556 73.8328 78.7509 73.9179C77.9449 74.0159 77.1379 74.0979 76.3309 74.1679C75.5239 74.2459 74.7139 74.3079 73.9109 74.3499C73.7097 74.3598 73.5083 74.3651 73.3069 74.3659C73.1136 74.366 72.9205 74.35 72.7299 74.3179C72.3459 74.2539 71.9699 74.1229 71.6099 73.9539C70.8899 73.6139 70.2299 73.1269 69.6369 72.5659L69.6389 72.5679C69.7189 72.6659 69.8069 72.7579 69.8909 72.8529L69.8309 72.7979C69.7754 72.7468 69.722 72.6934 69.6709 72.6379C69.3859 72.3279 66.8179 70.1019 65.4779 68.9429L65.1779 68.8029L65.9459 69.9259C66.3409 70.4959 66.7459 71.0619 67.1559 71.6209L67.6959 72.3349C69.1529 74.2119 70.9879 75.9469 74.5079 75.9469C74.9727 75.9456 75.4371 75.9182 75.8989 75.8649L76.5289 75.7929C79.5889 75.4409 80.4289 75.2899 80.8959 75.2099L81.2309 75.1539L81.3659 75.1339C81.3829 75.1329 82.4179 74.9989 83.4299 74.5069C84.1279 74.1669 84.8129 73.6589 85.1499 72.9049L86.1759 70.5379L86.4729 69.7379" fill="#731B2A"/>
<path d="M94.7662 52.494C94.9461 52.4903 95.1171 52.4155 95.2419 52.286C95.3668 52.1565 95.4352 51.9828 95.4322 51.803C95.4292 51.623 95.3552 51.451 95.2252 51.326C95.0954 51.201 94.9214 51.1327 94.7412 51.136C94.5612 51.139 94.3912 51.214 94.2652 51.344C94.1726 51.4408 94.1106 51.5629 94.0871 51.6949C94.0636 51.8268 94.0797 51.9628 94.1332 52.0856C94.1867 52.2085 94.2754 52.3128 94.388 52.3855C94.5006 52.4581 94.6322 52.4959 94.7662 52.494ZM98.9362 55.552C98.0402 55.119 97.0612 55.667 95.2782 55.702C93.9502 55.75 92.8382 55.764 92.7652 53.679C92.6922 51.594 93.5412 49.863 94.8682 49.817C96.1952 49.771 97.4062 51.425 97.5682 53.517C97.6132 54.092 97.5502 54.51 97.4082 54.821C98.6412 54.674 98.9222 55.521 98.9362 55.563V55.552ZM75.7562 52.998C75.8757 52.9951 75.9924 52.9608 76.0944 52.8985C76.1965 52.8362 76.2803 52.7482 76.3374 52.6431C76.3945 52.5381 76.423 52.4199 76.4198 52.3004C76.4167 52.1809 76.3821 52.0643 76.3196 51.9625C76.2571 51.8606 76.1688 51.777 76.0636 51.7201C75.9585 51.6632 75.8402 51.635 75.7207 51.6384C75.6012 51.6418 75.4847 51.6767 75.383 51.7395C75.2813 51.8022 75.1979 51.8907 75.1412 51.996C75.0848 52.1008 75.0569 52.2185 75.0603 52.3375C75.0637 52.4565 75.0983 52.5725 75.1605 52.6739C75.2228 52.7753 75.3106 52.8586 75.4151 52.9155C75.5196 52.9724 75.6373 53.0008 75.7562 52.998ZM77.8062 54.091C77.8262 56.177 76.7222 56.051 75.3942 56.065L74.9942 56.071L74.5662 56.074C73.2662 56.071 72.4532 56.014 71.7242 56.408C71.7412 56.363 72.0622 55.648 73.2182 55.355C73.0902 55.073 73.0102 54.681 72.9882 54.138C72.9082 52.053 74.1942 50.343 75.5212 50.33C76.8482 50.317 77.7752 52.005 77.7952 54.09L77.8062 54.091ZM102.946 39.745L102.91 40.129L101.325 39.731C99.5707 39.3487 97.7977 39.0566 96.0132 38.856L95.8262 38.836C95.8383 38.81 95.8487 38.7833 95.8572 38.756L96.0002 38.17C96.4602 36.134 96.4362 34.106 96.3842 33.124L102.727 34.929C103.073 37.185 103.007 38.955 102.947 39.743L102.946 39.745ZM95.0462 38.545C95.0264 38.6166 95.0264 38.6923 95.0462 38.764L93.0532 38.58C93.7982 37.016 93.9612 35.35 93.9972 34.764C94.5413 34.369 95.0622 33.9429 95.5572 33.488C95.5952 34.608 95.5672 36.642 95.0572 38.544L95.0462 38.545ZM75.5022 38.76C75.5209 38.6895 75.5209 38.6154 75.5022 38.545C74.9822 36.645 74.9542 34.612 74.9902 33.489L76.5522 34.765C76.5872 35.352 76.7492 37.013 77.4942 38.577L75.5022 38.761V38.76ZM74.5442 38.865L71.8772 39.233L69.2322 39.74L67.6462 40.137L67.6262 39.937C67.5662 39.282 67.4492 37.397 67.8292 34.937L74.1692 33.131C74.1212 34.076 74.0952 35.991 74.5032 37.948L74.6982 38.763C74.7062 38.79 74.7182 38.816 74.7282 38.84L74.5402 38.862L74.5442 38.865ZM106.344 41.428L106.186 41.35L105.921 41.22C105.86 41.19 105.801 41.1566 105.744 41.12C105.157 40.848 104.542 40.638 103.928 40.436L103.711 40.37C103.717 40.3516 103.722 40.3329 103.725 40.314C103.735 40.244 103.892 39.077 103.795 37.237C103.748 36.3346 103.651 35.4355 103.503 34.544C103.477 34.384 103.361 34.256 103.207 34.211L102.303 33.955C102.109 26.952 99.2282 23.662 99.1382 23.56C101.711 27.705 101.688 32.622 101.644 33.767L96.0392 32.172C96.0112 32.1658 95.9828 32.1614 95.9542 32.159C95.9492 32.159 95.9442 32.158 95.9342 32.158C95.9042 32.157 95.8722 32.159 95.8422 32.166C95.8119 32.1721 95.7823 32.1819 95.7542 32.195C95.7442 32.199 95.7372 32.205 95.7292 32.207L95.6732 32.244C95.6532 32.257 95.6532 32.261 95.6492 32.264C95.6452 32.267 95.6372 32.274 95.6332 32.277C95.6292 32.28 95.4772 32.43 95.2332 32.652C95.2547 31.8818 95.2414 31.111 95.1932 30.342L95.1752 30.059C94.9992 27.595 94.4172 24.135 92.6782 21.105C92.8307 21.5644 92.9671 22.029 93.0872 22.498C93.6472 24.628 94.5272 28.938 94.0472 33.618L94.0412 33.682C94.0342 33.688 94.0262 33.694 94.0182 33.699C93.8032 33.8719 93.5817 34.0367 93.3542 34.193C93.299 34.2307 93.2536 34.281 93.2218 34.3398C93.19 34.3986 93.1726 34.4641 93.1712 34.531C93.1712 34.551 93.1212 36.643 92.2012 38.424C92.1852 38.454 92.1762 38.482 92.1672 38.524C89.8718 38.3707 87.5718 38.2954 85.2712 38.298C82.9704 38.2942 80.6701 38.3679 78.3742 38.519C78.3642 38.491 78.3562 38.462 78.3422 38.435C77.4182 36.655 77.3722 34.563 77.3692 34.542C77.3681 34.4753 77.351 34.4099 77.3196 34.3511C77.2881 34.2923 77.2431 34.2419 77.1882 34.204C76.9495 34.0408 76.716 33.8701 76.4882 33.692C76.0222 29.242 76.7912 25.118 77.3512 22.874C77.6172 21.809 77.8362 21.174 77.8542 21.116C75.3312 25.51 75.2542 30.812 75.3002 32.661L74.9002 32.286C74.8872 32.281 74.8882 32.278 74.8832 32.273L74.8732 32.263C74.8508 32.2472 74.8275 32.2328 74.8032 32.22C74.7932 32.215 74.7872 32.21 74.7762 32.205C74.7562 32.193 74.7312 32.185 74.7062 32.182C74.6709 32.1713 74.6341 32.1665 74.5972 32.168C74.5892 32.168 74.5812 32.169 74.5732 32.169C74.55 32.1712 74.527 32.1748 74.5042 32.18L68.8872 33.777C68.8422 32.631 68.8172 27.715 71.3912 23.57C71.2912 23.673 68.4212 26.963 68.2262 33.966L67.3262 34.222C67.1702 34.265 67.0532 34.395 67.0262 34.555C66.8793 35.4456 66.7818 36.3436 66.7342 37.245C66.6392 39.087 66.7972 40.245 66.8072 40.325C66.8112 40.343 66.8172 40.361 66.8192 40.38L66.6022 40.446C65.9872 40.648 65.3702 40.859 64.7822 41.132C64.7286 41.1662 64.6732 41.1976 64.6162 41.226L64.6062 41.231L64.3412 41.361L64.2032 41.428C64.1732 41.445 64.1432 41.46 64.1152 41.478C64.5315 41.3205 64.9578 41.1908 65.3912 41.09C65.8218 40.9828 66.2553 40.8877 66.6912 40.805C67.5642 40.643 68.4382 40.501 69.3182 40.405C70.1965 40.2892 71.0775 40.1942 71.9602 40.12L74.6102 39.92C78.1502 39.72 81.6972 39.644 85.2472 39.643C88.7972 39.642 92.3472 39.701 95.8842 39.919C96.7692 39.969 97.6512 40.044 98.5342 40.119C99.4172 40.194 100.296 40.291 101.174 40.406C102.054 40.5139 102.931 40.6506 103.802 40.816C104.238 40.8982 104.671 40.9936 105.1 41.102C105.533 41.208 105.96 41.327 106.378 41.502C106.355 41.488 106.331 41.476 106.308 41.462L106.344 41.428ZM86.2762 25.158V34.5H87.5442V36.236H83.2572V34.5H84.5252V25.148H81.4452V26.686H79.9452V23.658H90.8332V26.686H89.3332V25.148H86.2532L86.2762 25.158ZM91.9762 27.815V22.545H78.8382V27.815H82.5662V26.277H83.4032V33.377H82.1402V37.352H88.6652V33.376H87.3952V26.276H88.2352V27.814H91.9652L91.9762 27.815Z" fill="#0E0F0D"/>
</svg>
