<svg xmlns="http://www.w3.org/2000/svg" width="60" height="60" viewBox="0 0 60 60" fill="none"><rect x="0.25" y="0.25" width="59.5" height="59.5" fill="white"/><path d="M50 26.1999C50.2 25.1999 49.4 23.9999 48.4 23.9999L37 22.3999L31.8 11.9999C31.6 11.5999 31.4 11.3999 31 11.1999C30 10.5999 28.8 10.9999 28.2 11.9999L23.2 22.3999L11.8 23.9999C11.2 23.9999 10.8 24.1999 10.6 24.5999C9.8 25.3999 9.8 26.5999 10.6 27.3999L18.8 35.3999L16.8 46.7999C16.8 47.1999 16.8 47.5999 17 47.9999C17.6 48.9999 18.8 49.3999 19.8 48.7999L30 43.3999L40.2 48.7999C40.4 48.9999 40.8 48.9999 41.2 48.9999C41.4 48.9999 41.4 48.9999 41.6 48.9999C42.6 48.7999 43.4 47.7999 43.2 46.5999L41.2 35.1999L49.4 27.1999C49.8 26.9999 50 26.5999 50 26.1999Z" fill="#0F0039"/><rect x="0.25" y="0.25" width="59.5" height="59.5" stroke="#282B2F" stroke-width="0.5"/></svg>