<svg xmlns="http://www.w3.org/2000/svg" width="60" height="60" viewBox="0 0 60 60" fill="none"><rect x="0.25" y="0.25" width="59.5" height="59.5" fill="white"/><g clip-path="url(#clip0_8419_26553)"><path d="M30.3691 54C43.624 54 54.3691 43.2548 54.3691 30C54.3691 16.7452 43.624 6 30.3691 6C17.1143 6 6.36914 16.7452 6.36914 30C6.36914 43.2548 17.1143 54 30.3691 54Z" fill="#0F0039"/><path d="M37.4154 27.1533L35.2404 34.0083C35.2404 33.4833 33.7404 22.1133 33.7404 22.1133C30.2904 22.1133 28.4604 24.5583 27.5004 27.1533L24.8454 34.0233C24.8454 33.5283 24.4704 27.2133 24.4704 27.2133C24.3423 25.8462 23.7174 24.5736 22.7139 23.6364C21.7104 22.6993 20.398 22.1627 19.0254 22.1283L21.8454 39.3483C25.4454 39.3483 27.3954 36.9033 28.4004 34.3083L30.6504 28.4583C30.6504 28.6983 32.1504 39.3483 32.1504 39.3483C33.6225 39.3464 35.0557 38.8758 36.2424 38.0047C37.429 37.1335 38.3075 35.9072 38.7504 34.5033L43.8504 22.1133C40.2504 22.1133 38.3604 24.5583 37.4004 27.1533H37.4154Z" fill="white"/></g><rect x="0.25" y="0.25" width="59.5" height="59.5" stroke="#282B2F" stroke-width="0.5"/><defs><clipPath id="clip0_8419_26553"><rect width="48" height="48" fill="white" transform="translate(6 6)"/></clipPath></defs></svg>