<svg xmlns="http://www.w3.org/2000/svg" width="60" height="60" viewBox="0 0 60 60" fill="none"><rect x="0.25" y="0.25" width="59.5" height="59.5" fill="white"/><path d="M11.4688 29.9994C11.4688 37.3336 15.731 43.6719 21.9117 46.6755L13.073 22.4585C12.0449 24.7629 11.4688 27.3131 11.4688 29.9994Z" fill="#0F0039"/><path d="M42.5098 29.0647C42.5098 26.7747 41.6872 25.1888 40.9817 23.9545C40.0425 22.4282 39.1621 21.1356 39.1621 19.6093C39.1621 17.906 40.4539 16.3205 42.2736 16.3205C42.3557 16.3205 42.4336 16.3307 42.5137 16.3353C39.2171 13.3152 34.8251 11.4712 30.0011 11.4712C23.5278 11.4712 17.8327 14.7925 14.5195 19.823C14.9543 19.836 15.3639 19.8452 15.7119 19.8452C17.65 19.8452 20.6501 19.61 20.6501 19.61C21.649 19.5512 21.7667 21.0182 20.7689 21.1363C20.7689 21.1363 19.7651 21.2545 18.6482 21.313L25.3958 41.3833L29.4507 29.222L26.5639 21.3123C25.5661 21.2537 24.6208 21.1356 24.6208 21.1356C23.6223 21.0771 23.7394 19.5505 24.7379 19.6093C24.7379 19.6093 27.7979 19.8445 29.6186 19.8445C31.5563 19.8445 34.5567 19.6093 34.5567 19.6093C35.5563 19.5505 35.6737 21.0175 34.6756 21.1356C34.6756 21.1356 33.6697 21.2537 32.5548 21.3123L39.2509 41.2307L41.0991 35.0546C41.9002 32.4917 42.5098 30.6509 42.5098 29.0647Z" fill="#0F0039"/><path d="M30.325 31.6206L24.7656 47.7753C26.4255 48.2632 28.181 48.5301 30 48.5301C32.1577 48.5301 34.227 48.1571 36.1531 47.4798C36.1034 47.4005 36.0583 47.3162 36.0212 47.2245L30.325 31.6206Z" fill="#0F0039"/><path d="M46.2604 21.1094C46.3401 21.6996 46.3852 22.3332 46.3852 23.0147C46.3852 24.895 46.034 27.0087 44.9763 29.6516L39.3164 46.0156C44.825 42.8033 48.5303 36.8353 48.5303 29.9996C48.5306 26.7781 47.7077 23.7488 46.2604 21.1094Z" fill="#0F0039"/><path d="M29.9999 8.40088C18.0902 8.40088 8.40039 18.09 8.40039 29.9996C8.40039 41.9107 18.0902 51.5995 29.9999 51.5995C41.9092 51.5995 51.6004 41.9107 51.6004 29.9996C51.6 18.09 41.9092 8.40088 29.9999 8.40088ZM29.9999 50.6094C18.6364 50.6094 9.39077 41.3639 9.39077 29.9996C9.39077 18.6361 18.636 9.39126 29.9999 9.39126C41.363 9.39126 50.6079 18.6361 50.6079 29.9996C50.6079 41.3639 41.363 50.6094 29.9999 50.6094Z" fill="#0F0039"/><rect x="0.25" y="0.25" width="59.5" height="59.5" stroke="#282B2F" stroke-width="0.5"/></svg>