<svg xmlns="http://www.w3.org/2000/svg" width="37" height="36" viewBox="0 0 37 36" fill="none"><rect x="0.75" y="0.25" width="35.5" height="35.5" fill="white"/><g clip-path="url(#clip0_11690_401590)"><path d="M18.6836 30C25.311 30 30.6836 24.6274 30.6836 18C30.6836 11.3726 25.311 6 18.6836 6C12.0562 6 6.68359 11.3726 6.68359 18C6.68359 24.6274 12.0562 30 18.6836 30Z" fill="#0F0039"/><path d="M22.2067 16.5766L21.1192 20.0041C21.1192 19.7416 20.3692 14.0566 20.3692 14.0566C18.6442 14.0566 17.7292 15.2791 17.2492 16.5766L15.9217 20.0116C15.9217 19.7641 15.7342 16.6066 15.7342 16.6066C15.6702 15.9231 15.3577 15.2868 14.856 14.8182C14.3542 14.3496 13.698 14.0813 13.0117 14.0641L14.4217 22.6741C16.2217 22.6741 17.1967 21.4516 17.6992 20.1541L18.8242 17.2291C18.8242 17.3491 19.5742 22.6741 19.5742 22.6741C20.3103 22.6732 21.0269 22.4379 21.6202 22.0023C22.2135 21.5668 22.6528 20.9536 22.8742 20.2516L25.4242 14.0566C23.6242 14.0566 22.6792 15.2791 22.1992 16.5766H22.2067Z" fill="white"/></g><rect x="0.75" y="0.25" width="35.5" height="35.5" stroke="#282B2F" stroke-width="0.5"/><defs><clipPath id="clip0_11690_401590"><rect width="24" height="24" fill="white" transform="translate(6.5 6)"/></clipPath></defs></svg>