<svg width="16991" height="2979" viewBox="0 0 16991 2979" fill="none" xmlns="http://www.w3.org/2000/svg">
<rect width="2979" height="2979" fill="white"/>
<path d="M1365.38 1365.38L372.375 1365.37L372.375 372.375L1365.38 372.375L1365.38 1365.38Z" fill="#FF5722"/>
<path d="M2606.62 1365.38L1613.62 1365.37V372.375L2606.62 372.375V1365.38Z" fill="#4CAF50"/>
<path d="M2606.62 2606.62H1613.62V1613.62H2606.62V2606.62Z" fill="#FFC107"/>
<path d="M1365.38 2606.62H372.375L372.375 1613.62H1365.38L1365.38 2606.62Z" fill="#03A9F4"/>
<path d="M4044.67 463.912H4504.68L5120.72 1967.54H5145.04L5761.08 463.912H6221.08V2539H5860.37V1113.39H5841.12L5267.64 2532.92H4998.12L4424.63 1110.35H4405.38V2539H4044.67V463.912ZM6614.21 2539V982.684H6981V2539H6614.21ZM6798.62 761.801C6740.53 761.801 6690.54 742.549 6648.66 704.047C6606.78 664.869 6585.84 617.922 6585.84 563.208C6585.84 507.819 6606.78 460.872 6648.66 422.37C6690.54 383.192 6740.53 363.603 6798.62 363.603C6857.39 363.603 6907.37 383.192 6948.58 422.37C6990.46 460.872 7011.4 507.819 7011.4 563.208C7011.4 617.922 6990.46 664.869 6948.58 704.047C6907.37 742.549 6857.39 761.801 6798.62 761.801ZM8037.04 2569.4C7881.68 2569.4 7748.27 2535.28 7636.81 2467.06C7526.03 2398.84 7440.59 2304.61 7380.47 2184.37C7321.02 2063.46 7291.3 1924.31 7291.3 1766.92C7291.3 1608.86 7321.7 1469.37 7382.49 1348.46C7443.29 1226.87 7529.07 1132.3 7639.85 1064.76C7751.31 996.531 7883.03 962.42 8035.01 962.42C8161.33 962.42 8273.12 985.724 8370.39 1032.33C8468.33 1078.27 8546.35 1143.45 8604.44 1227.88C8662.54 1311.64 8695.63 1409.59 8703.74 1521.72H8353.16C8338.98 1446.74 8305.21 1384.26 8251.84 1334.27C8199.15 1283.61 8128.57 1258.28 8040.08 1258.28C7965.1 1258.28 7899.24 1278.55 7842.5 1319.08C7785.76 1358.93 7741.51 1416.35 7709.77 1491.32C7678.69 1566.3 7663.16 1656.14 7663.16 1760.84C7663.16 1866.89 7678.69 1958.08 7709.77 2034.41C7740.84 2110.07 7784.41 2168.5 7840.47 2209.7C7897.21 2250.23 7963.75 2270.49 8040.08 2270.49C8094.12 2270.49 8142.41 2260.36 8184.97 2240.1C8228.2 2219.16 8264.34 2189.1 8293.38 2149.92C8322.43 2110.74 8342.36 2063.12 8353.16 2007.06H8703.74C8694.96 2117.16 8662.54 2214.77 8606.47 2299.88C8550.41 2384.31 8474.08 2450.51 8377.48 2498.47C8280.89 2545.75 8167.41 2569.4 8037.04 2569.4ZM9004.92 2539V982.684H9360.56V1242.07H9376.78C9405.15 1152.23 9453.78 1082.99 9522.68 1034.36C9592.26 985.048 9671.63 960.393 9760.79 960.393C9781.05 960.393 9803.68 961.406 9828.68 963.433C9854.34 964.784 9875.62 967.148 9892.51 970.525V1307.93C9876.97 1302.53 9852.32 1297.8 9818.54 1293.74C9785.44 1289.02 9753.36 1286.65 9722.29 1286.65C9655.41 1286.65 9595.3 1301.17 9541.93 1330.22C9489.24 1358.59 9447.7 1398.11 9417.31 1448.77C9386.91 1499.43 9371.71 1557.86 9371.71 1624.06V2539H9004.92ZM10751 2569.4C10599 2569.4 10467.3 2535.96 10355.8 2469.09C10244.4 2402.21 10157.9 2308.66 10096.4 2188.42C10035.6 2068.19 10005.2 1927.69 10005.2 1766.92C10005.2 1606.16 10035.6 1465.32 10096.4 1344.41C10157.9 1223.49 10244.4 1129.6 10355.8 1062.73C10467.3 995.856 10599 962.42 10751 962.42C10902.9 962.42 11034.7 995.856 11146.1 1062.73C11257.6 1129.6 11343.7 1223.49 11404.5 1344.41C11466 1465.32 11496.7 1606.16 11496.7 1766.92C11496.7 1927.69 11466 2068.19 11404.5 2188.42C11343.7 2308.66 11257.6 2402.21 11146.1 2469.09C11034.7 2535.96 10902.9 2569.4 10751 2569.4ZM10753 2275.56C10835.4 2275.56 10904.3 2252.93 10959.7 2207.67C11015.1 2161.74 11056.3 2100.27 11083.3 2023.27C11111 1946.26 11124.8 1860.48 11124.8 1765.91C11124.8 1670.66 11111 1584.54 11083.3 1507.54C11056.3 1429.85 11015.1 1368.05 10959.7 1322.11C10904.3 1276.18 10835.4 1253.22 10753 1253.22C10668.6 1253.22 10598.3 1276.18 10542.2 1322.11C10486.9 1368.05 10445.3 1429.85 10417.6 1507.54C10390.6 1584.54 10377.1 1670.66 10377.1 1765.91C10377.1 1860.48 10390.6 1946.26 10417.6 2023.27C10445.3 2100.27 10486.9 2161.74 10542.2 2207.67C10598.3 2252.93 10668.6 2275.56 10753 2275.56ZM13038.1 1394.05L12703.7 1430.53C12694.2 1396.76 12677.7 1365.01 12654.1 1335.29C12631.1 1305.57 12600 1281.59 12560.8 1263.35C12521.7 1245.11 12473.7 1235.99 12417 1235.99C12340.6 1235.99 12276.5 1252.54 12224.4 1285.64C12173.1 1318.74 12147.8 1361.63 12148.5 1414.32C12147.8 1459.58 12164.3 1496.39 12198.1 1524.76C12232.6 1553.13 12289.3 1576.43 12368.3 1594.67L12633.8 1651.41C12781 1683.16 12890.5 1733.48 12962.1 1802.38C13034.4 1871.28 13070.8 1961.46 13071.5 2072.92C13070.8 2170.86 13042.1 2257.32 12985.4 2332.3C12929.3 2406.61 12851.3 2464.7 12751.3 2506.58C12651.4 2548.46 12536.5 2569.4 12406.8 2569.4C12216.3 2569.4 12063 2529.54 11946.8 2449.84C11830.6 2369.45 11761.4 2257.66 11739.1 2114.46L12096.8 2080.01C12113 2150.26 12147.4 2203.28 12200.1 2239.08C12252.8 2274.89 12321.4 2292.79 12405.8 2292.79C12493 2292.79 12562.9 2274.89 12615.6 2239.08C12668.9 2203.28 12695.6 2159.04 12695.6 2106.35C12695.6 2061.77 12678.4 2024.96 12643.9 1995.91C12610.2 1966.86 12557.5 1944.57 12485.9 1929.04L12220.4 1873.31C12071.1 1842.24 11960.7 1789.89 11889.1 1716.26C11817.5 1641.96 11782 1548.06 11782.7 1434.58C11782 1338.66 11808 1255.58 11860.7 1185.33C11914.1 1114.4 11988 1059.69 12082.6 1021.19C12177.8 982.009 12287.6 962.42 12411.9 962.42C12594.3 962.42 12737.8 1001.26 12842.5 1078.94C12947.9 1156.62 13013.1 1261.66 13038.1 1394.05ZM14052.8 2569.4C13900.8 2569.4 13769.1 2535.96 13657.7 2469.09C13546.2 2402.21 13459.7 2308.66 13398.3 2188.42C13337.5 2068.19 13307.1 1927.69 13307.1 1766.92C13307.1 1606.16 13337.5 1465.32 13398.3 1344.41C13459.7 1223.49 13546.2 1129.6 13657.7 1062.73C13769.1 995.856 13900.8 962.42 14052.8 962.42C14204.8 962.42 14336.5 995.856 14448 1062.73C14559.4 1129.6 14645.6 1223.49 14706.3 1344.41C14767.8 1465.32 14798.6 1606.16 14798.6 1766.92C14798.6 1927.69 14767.8 2068.19 14706.3 2188.42C14645.6 2308.66 14559.4 2402.21 14448 2469.09C14336.5 2535.96 14204.8 2569.4 14052.8 2569.4ZM14054.8 2275.56C14137.3 2275.56 14206.2 2252.93 14261.5 2207.67C14316.9 2161.74 14358.1 2100.27 14385.2 2023.27C14412.8 1946.26 14426.7 1860.48 14426.7 1765.91C14426.7 1670.66 14412.8 1584.54 14385.2 1507.54C14358.1 1429.85 14316.9 1368.05 14261.5 1322.11C14206.2 1276.18 14137.3 1253.22 14054.8 1253.22C13970.4 1253.22 13900.2 1276.18 13844.1 1322.11C13788.7 1368.05 13747.2 1429.85 13719.5 1507.54C13692.4 1584.54 13678.9 1670.66 13678.9 1765.91C13678.9 1860.48 13692.4 1946.26 13719.5 2023.27C13747.2 2100.27 13788.7 2161.74 13844.1 2207.67C13900.2 2252.93 13970.4 2275.56 14054.8 2275.56ZM15898.2 982.684V1266.39H14978.1V982.684H15898.2ZM15208.1 2539V835.766C15208.1 731.066 15229.8 643.929 15273 574.354C15316.9 504.779 15375.7 452.767 15449.3 418.317C15522.9 383.867 15604.7 366.642 15694.5 366.642C15758 366.642 15814.4 371.708 15863.7 381.841C15913 391.973 15949.5 401.092 15973.1 409.198L15900.2 692.901C15884.6 688.173 15865.1 683.444 15841.4 678.716C15817.8 673.312 15791.4 670.61 15762.4 670.61C15694.2 670.61 15645.9 687.16 15617.5 720.258C15589.8 752.682 15575.9 799.29 15575.9 860.084V2539H15208.1ZM16962.6 982.684V1266.39H16067.9V982.684H16962.6ZM16288.8 609.817H16655.5V2070.89C16655.5 2120.2 16663 2158.03 16677.8 2184.37C16693.4 2210.04 16713.6 2227.6 16738.6 2237.06C16763.6 2246.52 16791.3 2251.24 16821.7 2251.24C16844.7 2251.24 16865.6 2249.55 16884.5 2246.18C16904.1 2242.8 16919 2239.76 16929.1 2237.06L16990.9 2523.8C16971.3 2530.56 16943.3 2537.99 16906.8 2546.09C16871 2554.2 16827.1 2558.93 16775.1 2560.28C16683.2 2562.98 16600.5 2549.13 16526.9 2518.74C16453.2 2487.66 16394.8 2439.7 16351.6 2374.86C16309 2310.01 16288.1 2228.95 16288.8 2131.68V609.817Z" fill="#666666"/>
</svg>
