<svg width="2177" height="2177" viewBox="0 0 2177 2177" fill="none" xmlns="http://www.w3.org/2000/svg">
<rect x="19.5" y="19.5" width="2138" height="2138" rx="71.5" fill="white" stroke="#0E0E0E" stroke-width="39"/>
<circle cx="1088.5" cy="1088.5" r="897.044" fill="#0075FF" stroke="black" stroke-width="22.913"/>
<path d="M1583.25 1972.68L1607.32 1968.61V1988.53L1606.72 2012.5L1635.15 2005.56C1639.18 1992.82 1641.2 1981.26 1641.2 1970.89C1641.2 1968.71 1641.06 1966.67 1640.8 1964.75C1629.64 1961.25 1607.61 1958.84 1574.73 1957.52L1578.49 1934.14C1606.69 1935.26 1631.12 1937.97 1651.8 1942.26C1653.58 1942.66 1656.42 1945.27 1660.31 1950.09C1664.14 1954.85 1666.13 1958.18 1666.26 1960.1C1666.46 1962.01 1666.56 1963.89 1666.56 1965.74V1971.29C1666.56 1979.87 1664.38 1990.97 1660.02 2004.57C1657.64 2011.97 1655.3 2016.72 1652.98 2018.84C1651.93 2019.83 1650.97 2020.56 1650.11 2021.02L1640.4 2024.19C1650.05 2034.69 1658.96 2046.21 1667.15 2058.76L1646.55 2072.73L1621.78 2029.14L1607.32 2029.93L1606.52 2065L1585.03 2066.78L1583.25 1972.68ZM1739.17 2032.21H1732.63C1728.93 2032.21 1723.09 2031.45 1715.09 2029.93L1707.57 2066.58L1683.99 2061.33L1695.58 2009.82L1709.05 1942.46C1723.98 1939.82 1739.73 1937.81 1756.3 1936.42L1771.96 2004.38L1784.04 2064.01L1759.97 2067.87L1749.37 2009.43L1739.07 1960.1C1735.3 1960.1 1731.37 1960.72 1727.28 1961.98L1718.76 2010.81L1744.32 2011.41L1741.25 2032.11C1740.52 2032.18 1739.83 2032.21 1739.17 2032.21ZM1793.45 2070.45C1800.85 2066.62 1807.15 2062.75 1812.37 2058.86C1817.65 2054.96 1821.02 2052.29 1822.48 2050.83L1821.09 1994.57V1959.7L1796.92 1957.02L1800.58 1934.74L1812.87 1936.32C1828.72 1938.3 1840.17 1940.42 1847.24 1942.66L1844.86 2053.81C1844.86 2056.84 1844.3 2059.19 1843.18 2060.84C1840.67 2064.67 1837.47 2068.14 1833.57 2071.24C1829.67 2074.34 1826.34 2076.89 1823.57 2078.87C1816.96 2083.62 1811.28 2087.19 1806.53 2089.57L1793.45 2070.45Z" fill="black"/>
<path d="M690.943 943.75C682.777 941.806 676.264 939.181 671.404 935.876C666.738 932.571 662.461 925.961 658.573 916.046C654.879 905.936 651.282 892.619 647.783 876.094C644.478 859.375 641.659 841.78 639.326 823.311C634.855 787.928 632.619 757.502 632.619 732.034C632.619 687.903 633.785 660.102 636.118 648.631C638.451 636.967 640.881 628.024 643.409 621.802C645.936 615.581 649.241 610.04 653.324 605.18C660.906 595.848 671.404 588.752 684.819 583.892C698.233 579.032 712.62 575.046 727.978 571.936C743.337 568.631 759.667 565.909 776.97 563.77C811.381 559.493 848.417 556.966 888.077 556.188L898.867 626.76C829.462 629.482 773.86 635.217 732.061 643.965C723.507 645.91 716.411 647.951 710.773 650.089C708.44 663.31 707.273 682.07 707.273 706.372C707.273 730.673 707.565 749.532 708.148 762.946C708.731 776.36 709.606 789.775 710.773 803.189C713.3 833.518 717.286 859.375 722.729 880.76C725.451 881.149 728.27 881.343 731.186 881.343C734.102 881.343 739.449 881.343 747.225 881.343C765.5 881.343 784.163 879.108 803.216 874.636C812.937 811.452 817.797 741.561 817.797 664.962L890.41 669.628C891.382 683.237 891.868 695.193 891.868 705.497C891.868 715.607 891.479 726.494 890.702 738.158C890.118 749.629 889.243 761.391 888.077 773.444C886.911 785.303 885.55 797.26 883.994 809.313C882.439 821.173 880.884 832.546 879.328 843.433C877.773 854.126 876.218 864.041 874.663 873.178L870.58 895.924C867.275 911.866 863.484 921.976 859.207 926.253C855.124 930.53 851.139 933.543 847.25 935.293C843.557 936.848 838.793 938.209 832.961 939.375C827.129 940.542 820.713 941.514 813.714 942.292C806.91 943.264 799.716 944.041 792.134 944.625C784.552 945.208 777.262 945.694 770.263 946.083C758.598 946.471 747.808 946.666 737.893 946.666C714.758 946.666 699.108 945.694 690.943 943.75ZM973.813 663.212L1035.93 655.339L1046.13 699.665L1097.46 655.339H1169.2C1172.89 655.339 1178.04 658.158 1184.65 663.796C1195.73 672.933 1201.28 681.098 1201.28 688.292L1191.07 942.583L1126.04 947.832L1124.87 722.703C1122.54 721.925 1119.33 721.536 1115.25 721.536C1111.17 721.536 1107.37 721.731 1103.88 722.119C1100.57 722.508 1096.97 723.091 1093.09 723.869C1083.95 725.424 1076.46 727.271 1070.63 729.41L1049.05 737.284L1041.18 939.667L979.062 944.333L973.813 663.212ZM1273.31 747.782C1273.31 721.731 1276.03 706.664 1281.47 702.581C1286.91 698.498 1293.04 694.416 1299.84 690.333C1306.65 686.056 1314.13 681.876 1322.3 677.793C1330.46 673.711 1338.92 669.822 1347.67 666.129C1356.61 662.435 1365.36 659.13 1373.91 656.213C1392.19 649.992 1405.8 646.882 1414.74 646.882C1423.88 646.882 1431.27 647.368 1436.9 648.34C1442.54 649.117 1447.69 650.478 1452.36 652.422C1463.05 656.894 1469.08 663.407 1470.44 671.961C1476.86 712.593 1480.06 761.002 1480.06 817.187V834.393L1340.38 836.142V874.053C1355.54 877.747 1373.62 881.149 1394.62 884.259L1444.78 892.425C1457.61 894.369 1470.73 896.605 1484.15 899.132L1466.94 962.997C1413.48 954.637 1356.71 941.125 1296.64 922.462C1282.83 917.99 1275.74 909.922 1275.35 898.257L1273.31 747.782ZM1414.45 771.695C1414.45 753.42 1412.6 734.173 1408.91 713.954C1401.13 713.954 1394.91 714.343 1390.24 715.12C1385.58 715.898 1380.91 716.967 1376.25 718.328C1371.58 719.689 1366.82 721.244 1361.96 722.994C1350.49 727.077 1342.91 730.576 1339.21 733.492V785.984L1414.45 777.819V771.695Z" fill="white"/>
<path d="M671.404 935.876L664.468 945.668L664.562 945.735L664.656 945.799L671.404 935.876ZM658.573 916.046L647.302 920.164L647.35 920.296L647.401 920.427L658.573 916.046ZM647.783 876.094L636.011 878.421L636.027 878.501L636.043 878.58L647.783 876.094ZM639.326 823.311L651.231 821.807L651.231 821.807L639.326 823.311ZM636.118 648.631L647.878 651.023L647.881 651.004L647.885 650.985L636.118 648.631ZM653.324 605.18L662.512 612.898L662.575 612.823L662.637 612.747L653.324 605.18ZM727.978 571.936L730.36 583.697L730.432 583.682L730.503 583.667L727.978 571.936ZM776.97 563.77L778.442 575.68L778.45 575.679L776.97 563.77ZM888.077 556.188L899.939 554.375L898.351 543.984L887.842 544.19L888.077 556.188ZM898.867 626.76L899.337 638.751L912.759 638.224L910.729 624.946L898.867 626.76ZM732.061 643.965L729.603 632.22L729.502 632.241L729.401 632.264L732.061 643.965ZM710.773 650.089L706.517 638.869L700.14 641.288L698.955 648.004L710.773 650.089ZM710.773 803.189L722.731 802.193L722.729 802.171L722.728 802.15L710.773 803.189ZM722.729 880.76L711.1 883.72L713.081 891.504L721.032 892.639L722.729 880.76ZM803.216 874.636L805.958 886.319L813.845 884.468L815.076 876.461L803.216 874.636ZM817.797 664.962L818.566 652.987L805.797 652.166V664.962H817.797ZM890.41 669.628L902.379 668.773L901.633 658.324L891.179 657.653L890.41 669.628ZM890.702 738.158L878.728 737.36L878.722 737.455L878.717 737.549L890.702 738.158ZM888.077 773.444L900.019 774.619L900.02 774.61L900.021 774.6L888.077 773.444ZM883.994 809.313L895.892 810.874L895.894 810.861L895.896 810.849L883.994 809.313ZM879.328 843.433L891.203 845.16L891.206 845.145L891.208 845.13L879.328 843.433ZM874.663 873.178L886.474 875.298L886.483 875.245L886.492 875.192L874.663 873.178ZM870.58 895.924L882.33 898.36L882.363 898.203L882.391 898.044L870.58 895.924ZM859.207 926.253L850.721 917.767L850.623 917.866L850.526 917.967L859.207 926.253ZM847.25 935.293L851.907 946.352L852.042 946.296L852.175 946.236L847.25 935.293ZM813.714 942.292L812.389 930.365L812.203 930.386L812.017 930.412L813.714 942.292ZM770.263 946.083L770.663 958.076L770.796 958.072L770.929 958.064L770.263 946.083ZM693.722 932.076C686.417 930.337 681.41 928.168 678.152 925.953L664.656 945.799C671.119 950.194 679.137 953.274 688.163 955.423L693.722 932.076ZM678.34 926.084C676.622 924.867 673.408 921.006 669.745 911.665L647.401 920.427C651.515 930.916 656.855 940.275 664.468 945.668L678.34 926.084ZM669.844 911.928C666.422 902.561 662.963 889.853 659.523 873.608L636.043 878.58C639.602 895.386 643.336 909.312 647.302 920.164L669.844 911.928ZM659.555 873.767C656.309 857.344 653.533 840.025 651.231 821.807L627.421 824.815C629.785 843.535 632.647 861.405 636.011 878.421L659.555 873.767ZM651.231 821.807C646.8 786.742 644.619 756.845 644.619 732.034H620.619C620.619 758.16 622.909 789.114 627.421 824.816L651.231 821.807ZM644.619 732.034C644.619 687.495 645.837 661.053 647.878 651.023L624.359 646.24C621.733 659.15 620.619 688.31 620.619 732.034H644.619ZM647.885 650.985C650.165 639.588 652.42 631.504 654.526 626.319L632.291 617.286C629.343 624.543 626.738 634.346 624.351 646.278L647.885 650.985ZM654.526 626.319C656.609 621.192 659.281 616.745 662.512 612.898L644.135 597.462C639.201 603.336 635.263 609.971 632.291 617.286L654.526 626.319ZM662.637 612.747C668.609 605.397 677.153 599.433 688.906 595.174L680.731 572.61C665.655 578.072 653.202 586.3 644.01 597.613L662.637 612.747ZM688.906 595.174C701.714 590.534 715.525 586.701 730.36 583.697L725.596 560.174C709.714 563.391 694.752 567.529 680.731 572.61L688.906 595.174ZM730.503 583.667C745.478 580.445 761.455 577.779 778.442 575.68L775.498 551.861C757.88 554.038 741.196 556.817 725.454 560.204L730.503 583.667ZM778.45 575.679C812.395 571.46 849.01 568.956 888.312 568.186L887.842 544.19C847.823 544.975 810.368 547.527 775.49 551.862L778.45 575.679ZM876.215 558.002L887.005 628.574L910.729 624.946L899.939 554.375L876.215 558.002ZM898.397 614.769C828.682 617.503 772.332 623.277 729.603 632.22L734.519 655.711C775.387 647.157 830.242 641.46 899.337 638.751L898.397 614.769ZM729.401 632.264C720.525 634.281 712.851 636.467 706.517 638.869L715.029 661.309C719.971 659.435 726.488 657.538 734.72 655.667L729.401 632.264ZM698.955 648.004C696.441 662.254 695.273 681.835 695.273 706.372H719.273C719.273 682.306 720.439 664.365 722.59 652.175L698.955 648.004ZM695.273 706.372C695.273 730.733 695.565 749.793 696.159 763.467L720.137 762.425C719.565 749.27 719.273 730.614 719.273 706.372H695.273ZM696.159 763.467C696.75 777.055 697.636 790.642 698.818 804.229L722.728 802.15C721.576 788.907 720.713 775.666 720.137 762.425L696.159 763.467ZM698.814 804.186C701.378 834.948 705.444 861.501 711.1 883.72L734.358 877.8C729.127 857.249 725.223 832.088 722.731 802.193L698.814 804.186ZM721.032 892.639C724.349 893.113 727.736 893.343 731.186 893.343V869.343C728.804 869.343 726.553 869.184 724.426 868.881L721.032 892.639ZM731.186 893.343C731.192 893.343 731.197 893.343 731.203 893.343C731.209 893.343 731.215 893.343 731.22 893.343C731.226 893.343 731.232 893.343 731.238 893.343C731.243 893.343 731.249 893.343 731.255 893.343C731.261 893.343 731.266 893.343 731.272 893.343C731.278 893.343 731.284 893.343 731.29 893.343C731.295 893.343 731.301 893.343 731.307 893.343C731.313 893.343 731.319 893.343 731.325 893.343C731.33 893.343 731.336 893.343 731.342 893.343C731.348 893.343 731.354 893.343 731.36 893.343C731.366 893.343 731.371 893.343 731.377 893.343C731.383 893.343 731.389 893.343 731.395 893.343C731.401 893.343 731.407 893.343 731.413 893.343C731.419 893.343 731.425 893.343 731.431 893.343C731.437 893.343 731.443 893.343 731.449 893.343C731.455 893.343 731.461 893.343 731.467 893.343C731.473 893.343 731.479 893.343 731.485 893.343C731.491 893.343 731.497 893.343 731.503 893.343C731.509 893.343 731.515 893.343 731.521 893.343C731.527 893.343 731.533 893.343 731.539 893.343C731.545 893.343 731.551 893.343 731.557 893.343C731.563 893.343 731.569 893.343 731.575 893.343C731.582 893.343 731.588 893.343 731.594 893.343C731.6 893.343 731.606 893.343 731.612 893.343C731.618 893.343 731.624 893.343 731.631 893.343C731.637 893.343 731.643 893.343 731.649 893.343C731.655 893.343 731.661 893.343 731.668 893.343C731.674 893.343 731.68 893.343 731.686 893.343C731.692 893.343 731.699 893.343 731.705 893.343C731.711 893.343 731.717 893.343 731.724 893.343C731.73 893.343 731.736 893.343 731.742 893.343C731.749 893.343 731.755 893.343 731.761 893.343C731.768 893.343 731.774 893.343 731.78 893.343C731.786 893.343 731.793 893.343 731.799 893.343C731.805 893.343 731.812 893.343 731.818 893.343C731.824 893.343 731.831 893.343 731.837 893.343C731.844 893.343 731.85 893.343 731.856 893.343C731.863 893.343 731.869 893.343 731.875 893.343C731.882 893.343 731.888 893.343 731.895 893.343C731.901 893.343 731.908 893.343 731.914 893.343C731.92 893.343 731.927 893.343 731.933 893.343C731.94 893.343 731.946 893.343 731.953 893.343C731.959 893.343 731.966 893.343 731.972 893.343C731.979 893.343 731.985 893.343 731.992 893.343C731.998 893.343 732.005 893.343 732.011 893.343C732.018 893.343 732.024 893.343 732.031 893.343C732.037 893.343 732.044 893.343 732.051 893.343C732.057 893.343 732.064 893.343 732.07 893.343C732.077 893.343 732.083 893.343 732.09 893.343C732.097 893.343 732.103 893.343 732.11 893.343C732.117 893.343 732.123 893.343 732.13 893.343C732.136 893.343 732.143 893.343 732.15 893.343C732.156 893.343 732.163 893.343 732.17 893.343C732.176 893.343 732.183 893.343 732.19 893.343C732.197 893.343 732.203 893.343 732.21 893.343C732.217 893.343 732.223 893.343 732.23 893.343C732.237 893.343 732.244 893.343 732.25 893.343C732.257 893.343 732.264 893.343 732.271 893.343C732.277 893.343 732.284 893.343 732.291 893.343C732.298 893.343 732.305 893.343 732.311 893.343C732.318 893.343 732.325 893.343 732.332 893.343C732.339 893.343 732.345 893.343 732.352 893.343C732.359 893.343 732.366 893.343 732.373 893.343C732.38 893.343 732.387 893.343 732.394 893.343C732.4 893.343 732.407 893.343 732.414 893.343C732.421 893.343 732.428 893.343 732.435 893.343C732.442 893.343 732.449 893.343 732.456 893.343C732.463 893.343 732.47 893.343 732.477 893.343C732.484 893.343 732.49 893.343 732.497 893.343C732.504 893.343 732.511 893.343 732.518 893.343C732.525 893.343 732.532 893.343 732.539 893.343C732.546 893.343 732.553 893.343 732.56 893.343C732.568 893.343 732.575 893.343 732.582 893.343C732.589 893.343 732.596 893.343 732.603 893.343C732.61 893.343 732.617 893.343 732.624 893.343C732.631 893.343 732.638 893.343 732.645 893.343C732.652 893.343 732.66 893.343 732.667 893.343C732.674 893.343 732.681 893.343 732.688 893.343C732.695 893.343 732.702 893.343 732.709 893.343C732.717 893.343 732.724 893.343 732.731 893.343C732.738 893.343 732.745 893.343 732.753 893.343C732.76 893.343 732.767 893.343 732.774 893.343C732.781 893.343 732.789 893.343 732.796 893.343C732.803 893.343 732.81 893.343 732.818 893.343C732.825 893.343 732.832 893.343 732.839 893.343C732.847 893.343 732.854 893.343 732.861 893.343C732.868 893.343 732.876 893.343 732.883 893.343C732.89 893.343 732.898 893.343 732.905 893.343C732.912 893.343 732.92 893.343 732.927 893.343C732.934 893.343 732.942 893.343 732.949 893.343C732.956 893.343 732.964 893.343 732.971 893.343C732.979 893.343 732.986 893.343 732.993 893.343C733.001 893.343 733.008 893.343 733.016 893.343C733.023 893.343 733.031 893.343 733.038 893.343C733.045 893.343 733.053 893.343 733.06 893.343C733.068 893.343 733.075 893.343 733.083 893.343C733.09 893.343 733.098 893.343 733.105 893.343C733.113 893.343 733.12 893.343 733.128 893.343C733.135 893.343 733.143 893.343 733.15 893.343C733.158 893.343 733.165 893.343 733.173 893.343C733.18 893.343 733.188 893.343 733.196 893.343C733.203 893.343 733.211 893.343 733.218 893.343C733.226 893.343 733.233 893.343 733.241 893.343C733.249 893.343 733.256 893.343 733.264 893.343C733.272 893.343 733.279 893.343 733.287 893.343C733.294 893.343 733.302 893.343 733.31 893.343C733.317 893.343 733.325 893.343 733.333 893.343C733.34 893.343 733.348 893.343 733.356 893.343C733.364 893.343 733.371 893.343 733.379 893.343C733.387 893.343 733.394 893.343 733.402 893.343C733.41 893.343 733.418 893.343 733.425 893.343C733.433 893.343 733.441 893.343 733.449 893.343C733.456 893.343 733.464 893.343 733.472 893.343C733.48 893.343 733.488 893.343 733.495 893.343C733.503 893.343 733.511 893.343 733.519 893.343C733.527 893.343 733.535 893.343 733.542 893.343C733.55 893.343 733.558 893.343 733.566 893.343C733.574 893.343 733.582 893.343 733.59 893.343C733.597 893.343 733.605 893.343 733.613 893.343C733.621 893.343 733.629 893.343 733.637 893.343C733.645 893.343 733.653 893.343 733.661 893.343C733.669 893.343 733.677 893.343 733.685 893.343C733.693 893.343 733.701 893.343 733.708 893.343C733.716 893.343 733.724 893.343 733.732 893.343C733.74 893.343 733.748 893.343 733.756 893.343C733.764 893.343 733.772 893.343 733.781 893.343C733.789 893.343 733.797 893.343 733.805 893.343C733.813 893.343 733.821 893.343 733.829 893.343C733.837 893.343 733.845 893.343 733.853 893.343C733.861 893.343 733.869 893.343 733.877 893.343C733.885 893.343 733.894 893.343 733.902 893.343C733.91 893.343 733.918 893.343 733.926 893.343C733.934 893.343 733.942 893.343 733.951 893.343C733.959 893.343 733.967 893.343 733.975 893.343C733.983 893.343 733.991 893.343 734 893.343C734.008 893.343 734.016 893.343 734.024 893.343C734.032 893.343 734.041 893.343 734.049 893.343C734.057 893.343 734.065 893.343 734.074 893.343C734.082 893.343 734.09 893.343 734.098 893.343C734.107 893.343 734.115 893.343 734.123 893.343C734.132 893.343 734.14 893.343 734.148 893.343C734.157 893.343 734.165 893.343 734.173 893.343C734.182 893.343 734.19 893.343 734.198 893.343C734.207 893.343 734.215 893.343 734.223 893.343C734.232 893.343 734.24 893.343 734.248 893.343C734.257 893.343 734.265 893.343 734.274 893.343C734.282 893.343 734.29 893.343 734.299 893.343C734.307 893.343 734.316 893.343 734.324 893.343C734.333 893.343 734.341 893.343 734.349 893.343C734.358 893.343 734.366 893.343 734.375 893.343C734.383 893.343 734.392 893.343 734.4 893.343C734.409 893.343 734.417 893.343 734.426 893.343C734.434 893.343 734.443 893.343 734.451 893.343C734.46 893.343 734.468 893.343 734.477 893.343C734.486 893.343 734.494 893.343 734.503 893.343C734.511 893.343 734.52 893.343 734.528 893.343C734.537 893.343 734.546 893.343 734.554 893.343C734.563 893.343 734.571 893.343 734.58 893.343C734.589 893.343 734.597 893.343 734.606 893.343C734.615 893.343 734.623 893.343 734.632 893.343C734.641 893.343 734.649 893.343 734.658 893.343C734.667 893.343 734.675 893.343 734.684 893.343C734.693 893.343 734.701 893.343 734.71 893.343C734.719 893.343 734.728 893.343 734.736 893.343C734.745 893.343 734.754 893.343 734.763 893.343C734.771 893.343 734.78 893.343 734.789 893.343C734.798 893.343 734.806 893.343 734.815 893.343C734.824 893.343 734.833 893.343 734.842 893.343C734.85 893.343 734.859 893.343 734.868 893.343C734.877 893.343 734.886 893.343 734.895 893.343C734.903 893.343 734.912 893.343 734.921 893.343C734.93 893.343 734.939 893.343 734.948 893.343C734.957 893.343 734.966 893.343 734.974 893.343C734.983 893.343 734.992 893.343 735.001 893.343C735.01 893.343 735.019 893.343 735.028 893.343C735.037 893.343 735.046 893.343 735.055 893.343C735.064 893.343 735.073 893.343 735.082 893.343C735.091 893.343 735.1 893.343 735.109 893.343C735.118 893.343 735.127 893.343 735.136 893.343C735.145 893.343 735.154 893.343 735.163 893.343C735.172 893.343 735.181 893.343 735.19 893.343C735.199 893.343 735.208 893.343 735.217 893.343C735.226 893.343 735.235 893.343 735.244 893.343C735.253 893.343 735.263 893.343 735.272 893.343C735.281 893.343 735.29 893.343 735.299 893.343C735.308 893.343 735.317 893.343 735.326 893.343C735.336 893.343 735.345 893.343 735.354 893.343C735.363 893.343 735.372 893.343 735.381 893.343C735.391 893.343 735.4 893.343 735.409 893.343C735.418 893.343 735.427 893.343 735.437 893.343C735.446 893.343 735.455 893.343 735.464 893.343C735.473 893.343 735.483 893.343 735.492 893.343C735.501 893.343 735.51 893.343 735.52 893.343C735.529 893.343 735.538 893.343 735.548 893.343C735.557 893.343 735.566 893.343 735.576 893.343C735.585 893.343 735.594 893.343 735.603 893.343C735.613 893.343 735.622 893.343 735.631 893.343C735.641 893.343 735.65 893.343 735.66 893.343C735.669 893.343 735.678 893.343 735.688 893.343C735.697 893.343 735.706 893.343 735.716 893.343C735.725 893.343 735.735 893.343 735.744 893.343C735.754 893.343 735.763 893.343 735.772 893.343C735.782 893.343 735.791 893.343 735.801 893.343C735.81 893.343 735.82 893.343 735.829 893.343C735.839 893.343 735.848 893.343 735.858 893.343C735.867 893.343 735.877 893.343 735.886 893.343C735.896 893.343 735.905 893.343 735.915 893.343C735.924 893.343 735.934 893.343 735.943 893.343C735.953 893.343 735.962 893.343 735.972 893.343C735.982 893.343 735.991 893.343 736.001 893.343C736.01 893.343 736.02 893.343 736.03 893.343C736.039 893.343 736.049 893.343 736.058 893.343C736.068 893.343 736.078 893.343 736.087 893.343C736.097 893.343 736.107 893.343 736.116 893.343C736.126 893.343 736.136 893.343 736.145 893.343C736.155 893.343 736.165 893.343 736.174 893.343C736.184 893.343 736.194 893.343 736.204 893.343C736.213 893.343 736.223 893.343 736.233 893.343C736.242 893.343 736.252 893.343 736.262 893.343C736.272 893.343 736.281 893.343 736.291 893.343C736.301 893.343 736.311 893.343 736.321 893.343C736.33 893.343 736.34 893.343 736.35 893.343C736.36 893.343 736.37 893.343 736.379 893.343C736.389 893.343 736.399 893.343 736.409 893.343C736.419 893.343 736.429 893.343 736.439 893.343C736.448 893.343 736.458 893.343 736.468 893.343C736.478 893.343 736.488 893.343 736.498 893.343C736.508 893.343 736.518 893.343 736.528 893.343C736.538 893.343 736.547 893.343 736.557 893.343C736.567 893.343 736.577 893.343 736.587 893.343C736.597 893.343 736.607 893.343 736.617 893.343C736.627 893.343 736.637 893.343 736.647 893.343C736.657 893.343 736.667 893.343 736.677 893.343C736.687 893.343 736.697 893.343 736.707 893.343C736.717 893.343 736.727 893.343 736.737 893.343C736.747 893.343 736.757 893.343 736.768 893.343C736.778 893.343 736.788 893.343 736.798 893.343C736.808 893.343 736.818 893.343 736.828 893.343C736.838 893.343 736.848 893.343 736.858 893.343C736.869 893.343 736.879 893.343 736.889 893.343C736.899 893.343 736.909 893.343 736.919 893.343C736.929 893.343 736.94 893.343 736.95 893.343C736.96 893.343 736.97 893.343 736.98 893.343C736.991 893.343 737.001 893.343 737.011 893.343C737.021 893.343 737.031 893.343 737.042 893.343C737.052 893.343 737.062 893.343 737.072 893.343C737.083 893.343 737.093 893.343 737.103 893.343C737.114 893.343 737.124 893.343 737.134 893.343C737.144 893.343 737.155 893.343 737.165 893.343C737.175 893.343 737.186 893.343 737.196 893.343C737.206 893.343 737.217 893.343 737.227 893.343C737.237 893.343 737.248 893.343 737.258 893.343C737.268 893.343 737.279 893.343 737.289 893.343C737.3 893.343 737.31 893.343 737.32 893.343C737.331 893.343 737.341 893.343 737.352 893.343C737.362 893.343 737.372 893.343 737.383 893.343C737.393 893.343 737.404 893.343 737.414 893.343C737.425 893.343 737.435 893.343 737.446 893.343C737.456 893.343 737.467 893.343 737.477 893.343C737.488 893.343 737.498 893.343 737.509 893.343C737.519 893.343 737.53 893.343 737.54 893.343C737.551 893.343 737.561 893.343 737.572 893.343C737.582 893.343 737.593 893.343 737.604 893.343C737.614 893.343 737.625 893.343 737.635 893.343C737.646 893.343 737.657 893.343 737.667 893.343C737.678 893.343 737.688 893.343 737.699 893.343C737.71 893.343 737.72 893.343 737.731 893.343C737.742 893.343 737.752 893.343 737.763 893.343C737.774 893.343 737.784 893.343 737.795 893.343C737.806 893.343 737.816 893.343 737.827 893.343C737.838 893.343 737.848 893.343 737.859 893.343C737.87 893.343 737.881 893.343 737.891 893.343C737.902 893.343 737.913 893.343 737.924 893.343C737.934 893.343 737.945 893.343 737.956 893.343C737.967 893.343 737.977 893.343 737.988 893.343C737.999 893.343 738.01 893.343 738.021 893.343C738.031 893.343 738.042 893.343 738.053 893.343C738.064 893.343 738.075 893.343 738.086 893.343C738.096 893.343 738.107 893.343 738.118 893.343C738.129 893.343 738.14 893.343 738.151 893.343C738.162 893.343 738.173 893.343 738.183 893.343C738.194 893.343 738.205 893.343 738.216 893.343C738.227 893.343 738.238 893.343 738.249 893.343C738.26 893.343 738.271 893.343 738.282 893.343C738.293 893.343 738.304 893.343 738.315 893.343C738.326 893.343 738.337 893.343 738.348 893.343C738.359 893.343 738.37 893.343 738.381 893.343C738.392 893.343 738.403 893.343 738.414 893.343C738.425 893.343 738.436 893.343 738.447 893.343C738.458 893.343 738.469 893.343 738.48 893.343C738.491 893.343 738.502 893.343 738.513 893.343C738.525 893.343 738.536 893.343 738.547 893.343C738.558 893.343 738.569 893.343 738.58 893.343C738.591 893.343 738.602 893.343 738.613 893.343C738.625 893.343 738.636 893.343 738.647 893.343C738.658 893.343 738.669 893.343 738.68 893.343C738.692 893.343 738.703 893.343 738.714 893.343C738.725 893.343 738.736 893.343 738.748 893.343C738.759 893.343 738.77 893.343 738.781 893.343C738.793 893.343 738.804 893.343 738.815 893.343C738.826 893.343 738.838 893.343 738.849 893.343C738.86 893.343 738.871 893.343 738.883 893.343C738.894 893.343 738.905 893.343 738.917 893.343C738.928 893.343 738.939 893.343 738.951 893.343C738.962 893.343 738.973 893.343 738.985 893.343C738.996 893.343 739.007 893.343 739.019 893.343C739.03 893.343 739.042 893.343 739.053 893.343C739.064 893.343 739.076 893.343 739.087 893.343C739.099 893.343 739.11 893.343 739.121 893.343C739.133 893.343 739.144 893.343 739.156 893.343C739.167 893.343 739.179 893.343 739.19 893.343C739.201 893.343 739.213 893.343 739.224 893.343C739.236 893.343 739.247 893.343 739.259 893.343C739.27 893.343 739.282 893.343 739.293 893.343C739.305 893.343 739.316 893.343 739.328 893.343C739.34 893.343 739.351 893.343 739.363 893.343C739.374 893.343 739.386 893.343 739.397 893.343C739.409 893.343 739.42 893.343 739.432 893.343C739.444 893.343 739.455 893.343 739.467 893.343C739.478 893.343 739.49 893.343 739.502 893.343C739.513 893.343 739.525 893.343 739.537 893.343C739.548 893.343 739.56 893.343 739.572 893.343C739.583 893.343 739.595 893.343 739.607 893.343C739.618 893.343 739.63 893.343 739.642 893.343C739.653 893.343 739.665 893.343 739.677 893.343C739.689 893.343 739.7 893.343 739.712 893.343C739.724 893.343 739.736 893.343 739.747 893.343C739.759 893.343 739.771 893.343 739.783 893.343C739.794 893.343 739.806 893.343 739.818 893.343C739.83 893.343 739.842 893.343 739.853 893.343C739.865 893.343 739.877 893.343 739.889 893.343C739.901 893.343 739.913 893.343 739.924 893.343C739.936 893.343 739.948 893.343 739.96 893.343C739.972 893.343 739.984 893.343 739.996 893.343C740.007 893.343 740.019 893.343 740.031 893.343C740.043 893.343 740.055 893.343 740.067 893.343C740.079 893.343 740.091 893.343 740.103 893.343C740.115 893.343 740.127 893.343 740.139 893.343C740.151 893.343 740.163 893.343 740.175 893.343C740.187 893.343 740.199 893.343 740.211 893.343C740.223 893.343 740.235 893.343 740.247 893.343C740.259 893.343 740.271 893.343 740.283 893.343C740.295 893.343 740.307 893.343 740.319 893.343C740.331 893.343 740.343 893.343 740.355 893.343C740.367 893.343 740.379 893.343 740.391 893.343C740.403 893.343 740.415 893.343 740.428 893.343C740.44 893.343 740.452 893.343 740.464 893.343C740.476 893.343 740.488 893.343 740.5 893.343C740.512 893.343 740.525 893.343 740.537 893.343C740.549 893.343 740.561 893.343 740.573 893.343C740.586 893.343 740.598 893.343 740.61 893.343C740.622 893.343 740.634 893.343 740.647 893.343C740.659 893.343 740.671 893.343 740.683 893.343C740.695 893.343 740.708 893.343 740.72 893.343C740.732 893.343 740.745 893.343 740.757 893.343C740.769 893.343 740.781 893.343 740.794 893.343C740.806 893.343 740.818 893.343 740.831 893.343C740.843 893.343 740.855 893.343 740.868 893.343C740.88 893.343 740.892 893.343 740.905 893.343C740.917 893.343 740.929 893.343 740.942 893.343C740.954 893.343 740.966 893.343 740.979 893.343C740.991 893.343 741.004 893.343 741.016 893.343C741.028 893.343 741.041 893.343 741.053 893.343C741.066 893.343 741.078 893.343 741.091 893.343C741.103 893.343 741.115 893.343 741.128 893.343C741.14 893.343 741.153 893.343 741.165 893.343C741.178 893.343 741.19 893.343 741.203 893.343C741.215 893.343 741.228 893.343 741.24 893.343C741.253 893.343 741.265 893.343 741.278 893.343C741.29 893.343 741.303 893.343 741.316 893.343C741.328 893.343 741.341 893.343 741.353 893.343C741.366 893.343 741.378 893.343 741.391 893.343C741.404 893.343 741.416 893.343 741.429 893.343C741.441 893.343 741.454 893.343 741.467 893.343C741.479 893.343 741.492 893.343 741.505 893.343C741.517 893.343 741.53 893.343 741.543 893.343C741.555 893.343 741.568 893.343 741.581 893.343C741.593 893.343 741.606 893.343 741.619 893.343C741.631 893.343 741.644 893.343 741.657 893.343C741.67 893.343 741.682 893.343 741.695 893.343C741.708 893.343 741.721 893.343 741.733 893.343C741.746 893.343 741.759 893.343 741.772 893.343C741.784 893.343 741.797 893.343 741.81 893.343C741.823 893.343 741.836 893.343 741.848 893.343C741.861 893.343 741.874 893.343 741.887 893.343C741.9 893.343 741.912 893.343 741.925 893.343C741.938 893.343 741.951 893.343 741.964 893.343C741.977 893.343 741.99 893.343 742.003 893.343C742.015 893.343 742.028 893.343 742.041 893.343C742.054 893.343 742.067 893.343 742.08 893.343C742.093 893.343 742.106 893.343 742.119 893.343C742.132 893.343 742.145 893.343 742.158 893.343C742.171 893.343 742.184 893.343 742.197 893.343C742.21 893.343 742.223 893.343 742.236 893.343C742.249 893.343 742.262 893.343 742.275 893.343C742.288 893.343 742.301 893.343 742.314 893.343C742.327 893.343 742.34 893.343 742.353 893.343C742.366 893.343 742.379 893.343 742.392 893.343C742.405 893.343 742.418 893.343 742.431 893.343C742.444 893.343 742.457 893.343 742.471 893.343C742.484 893.343 742.497 893.343 742.51 893.343C742.523 893.343 742.536 893.343 742.549 893.343C742.563 893.343 742.576 893.343 742.589 893.343C742.602 893.343 742.615 893.343 742.628 893.343C742.642 893.343 742.655 893.343 742.668 893.343C742.681 893.343 742.694 893.343 742.708 893.343C742.721 893.343 742.734 893.343 742.747 893.343C742.761 893.343 742.774 893.343 742.787 893.343C742.8 893.343 742.814 893.343 742.827 893.343C742.84 893.343 742.853 893.343 742.867 893.343C742.88 893.343 742.893 893.343 742.907 893.343C742.92 893.343 742.933 893.343 742.947 893.343C742.96 893.343 742.973 893.343 742.987 893.343C743 893.343 743.013 893.343 743.027 893.343C743.04 893.343 743.054 893.343 743.067 893.343C743.08 893.343 743.094 893.343 743.107 893.343C743.121 893.343 743.134 893.343 743.147 893.343C743.161 893.343 743.174 893.343 743.188 893.343C743.201 893.343 743.215 893.343 743.228 893.343C743.241 893.343 743.255 893.343 743.268 893.343C743.282 893.343 743.295 893.343 743.309 893.343C743.322 893.343 743.336 893.343 743.349 893.343C743.363 893.343 743.376 893.343 743.39 893.343C743.404 893.343 743.417 893.343 743.431 893.343C743.444 893.343 743.458 893.343 743.471 893.343C743.485 893.343 743.499 893.343 743.512 893.343C743.526 893.343 743.539 893.343 743.553 893.343C743.567 893.343 743.58 893.343 743.594 893.343C743.607 893.343 743.621 893.343 743.635 893.343C743.648 893.343 743.662 893.343 743.676 893.343C743.689 893.343 743.703 893.343 743.717 893.343C743.73 893.343 743.744 893.343 743.758 893.343C743.772 893.343 743.785 893.343 743.799 893.343C743.813 893.343 743.826 893.343 743.84 893.343C743.854 893.343 743.868 893.343 743.881 893.343C743.895 893.343 743.909 893.343 743.923 893.343C743.937 893.343 743.95 893.343 743.964 893.343C743.978 893.343 743.992 893.343 744.006 893.343C744.019 893.343 744.033 893.343 744.047 893.343C744.061 893.343 744.075 893.343 744.089 893.343C744.102 893.343 744.116 893.343 744.13 893.343C744.144 893.343 744.158 893.343 744.172 893.343C744.186 893.343 744.2 893.343 744.213 893.343C744.227 893.343 744.241 893.343 744.255 893.343C744.269 893.343 744.283 893.343 744.297 893.343C744.311 893.343 744.325 893.343 744.339 893.343C744.353 893.343 744.367 893.343 744.381 893.343C744.395 893.343 744.409 893.343 744.423 893.343C744.437 893.343 744.451 893.343 744.465 893.343C744.479 893.343 744.493 893.343 744.507 893.343C744.521 893.343 744.535 893.343 744.549 893.343C744.563 893.343 744.577 893.343 744.591 893.343C744.605 893.343 744.619 893.343 744.634 893.343C744.648 893.343 744.662 893.343 744.676 893.343C744.69 893.343 744.704 893.343 744.718 893.343C744.732 893.343 744.746 893.343 744.761 893.343C744.775 893.343 744.789 893.343 744.803 893.343C744.817 893.343 744.831 893.343 744.846 893.343C744.86 893.343 744.874 893.343 744.888 893.343C744.902 893.343 744.917 893.343 744.931 893.343C744.945 893.343 744.959 893.343 744.974 893.343C744.988 893.343 745.002 893.343 745.016 893.343C745.031 893.343 745.045 893.343 745.059 893.343C745.073 893.343 745.088 893.343 745.102 893.343C745.116 893.343 745.131 893.343 745.145 893.343C745.159 893.343 745.174 893.343 745.188 893.343C745.202 893.343 745.217 893.343 745.231 893.343C745.245 893.343 745.26 893.343 745.274 893.343C745.288 893.343 745.303 893.343 745.317 893.343C745.332 893.343 745.346 893.343 745.36 893.343C745.375 893.343 745.389 893.343 745.404 893.343C745.418 893.343 745.433 893.343 745.447 893.343C745.461 893.343 745.476 893.343 745.49 893.343C745.505 893.343 745.519 893.343 745.534 893.343C745.548 893.343 745.563 893.343 745.577 893.343C745.592 893.343 745.606 893.343 745.621 893.343C745.635 893.343 745.65 893.343 745.664 893.343C745.679 893.343 745.693 893.343 745.708 893.343C745.723 893.343 745.737 893.343 745.752 893.343C745.766 893.343 745.781 893.343 745.795 893.343C745.81 893.343 745.825 893.343 745.839 893.343C745.854 893.343 745.869 893.343 745.883 893.343C745.898 893.343 745.912 893.343 745.927 893.343C745.942 893.343 745.956 893.343 745.971 893.343C745.986 893.343 746 893.343 746.015 893.343C746.03 893.343 746.044 893.343 746.059 893.343C746.074 893.343 746.089 893.343 746.103 893.343C746.118 893.343 746.133 893.343 746.148 893.343C746.162 893.343 746.177 893.343 746.192 893.343C746.207 893.343 746.221 893.343 746.236 893.343C746.251 893.343 746.266 893.343 746.28 893.343C746.295 893.343 746.31 893.343 746.325 893.343C746.34 893.343 746.355 893.343 746.369 893.343C746.384 893.343 746.399 893.343 746.414 893.343C746.429 893.343 746.444 893.343 746.458 893.343C746.473 893.343 746.488 893.343 746.503 893.343C746.518 893.343 746.533 893.343 746.548 893.343C746.563 893.343 746.578 893.343 746.593 893.343C746.608 893.343 746.622 893.343 746.637 893.343C746.652 893.343 746.667 893.343 746.682 893.343C746.697 893.343 746.712 893.343 746.727 893.343C746.742 893.343 746.757 893.343 746.772 893.343C746.787 893.343 746.802 893.343 746.817 893.343C746.832 893.343 746.847 893.343 746.862 893.343C746.877 893.343 746.892 893.343 746.907 893.343C746.923 893.343 746.938 893.343 746.953 893.343C746.968 893.343 746.983 893.343 746.998 893.343C747.013 893.343 747.028 893.343 747.043 893.343C747.058 893.343 747.073 893.343 747.089 893.343C747.104 893.343 747.119 893.343 747.134 893.343C747.149 893.343 747.164 893.343 747.18 893.343C747.195 893.343 747.21 893.343 747.225 893.343V869.343C747.21 869.343 747.195 869.343 747.18 869.343C747.164 869.343 747.149 869.343 747.134 869.343C747.119 869.343 747.104 869.343 747.089 869.343C747.073 869.343 747.058 869.343 747.043 869.343C747.028 869.343 747.013 869.343 746.998 869.343C746.983 869.343 746.968 869.343 746.953 869.343C746.938 869.343 746.923 869.343 746.907 869.343C746.892 869.343 746.877 869.343 746.862 869.343C746.847 869.343 746.832 869.343 746.817 869.343C746.802 869.343 746.787 869.343 746.772 869.343C746.757 869.343 746.742 869.343 746.727 869.343C746.712 869.343 746.697 869.343 746.682 869.343C746.667 869.343 746.652 869.343 746.637 869.343C746.622 869.343 746.608 869.343 746.593 869.343C746.578 869.343 746.563 869.343 746.548 869.343C746.533 869.343 746.518 869.343 746.503 869.343C746.488 869.343 746.473 869.343 746.458 869.343C746.444 869.343 746.429 869.343 746.414 869.343C746.399 869.343 746.384 869.343 746.369 869.343C746.355 869.343 746.34 869.343 746.325 869.343C746.31 869.343 746.295 869.343 746.28 869.343C746.266 869.343 746.251 869.343 746.236 869.343C746.221 869.343 746.207 869.343 746.192 869.343C746.177 869.343 746.162 869.343 746.148 869.343C746.133 869.343 746.118 869.343 746.103 869.343C746.089 869.343 746.074 869.343 746.059 869.343C746.044 869.343 746.03 869.343 746.015 869.343C746 869.343 745.986 869.343 745.971 869.343C745.956 869.343 745.942 869.343 745.927 869.343C745.912 869.343 745.898 869.343 745.883 869.343C745.869 869.343 745.854 869.343 745.839 869.343C745.825 869.343 745.81 869.343 745.795 869.343C745.781 869.343 745.766 869.343 745.752 869.343C745.737 869.343 745.723 869.343 745.708 869.343C745.693 869.343 745.679 869.343 745.664 869.343C745.65 869.343 745.635 869.343 745.621 869.343C745.606 869.343 745.592 869.343 745.577 869.343C745.563 869.343 745.548 869.343 745.534 869.343C745.519 869.343 745.505 869.343 745.49 869.343C745.476 869.343 745.461 869.343 745.447 869.343C745.433 869.343 745.418 869.343 745.404 869.343C745.389 869.343 745.375 869.343 745.36 869.343C745.346 869.343 745.332 869.343 745.317 869.343C745.303 869.343 745.288 869.343 745.274 869.343C745.26 869.343 745.245 869.343 745.231 869.343C745.217 869.343 745.202 869.343 745.188 869.343C745.174 869.343 745.159 869.343 745.145 869.343C745.131 869.343 745.116 869.343 745.102 869.343C745.088 869.343 745.073 869.343 745.059 869.343C745.045 869.343 745.031 869.343 745.016 869.343C745.002 869.343 744.988 869.343 744.974 869.343C744.959 869.343 744.945 869.343 744.931 869.343C744.917 869.343 744.902 869.343 744.888 869.343C744.874 869.343 744.86 869.343 744.846 869.343C744.831 869.343 744.817 869.343 744.803 869.343C744.789 869.343 744.775 869.343 744.761 869.343C744.746 869.343 744.732 869.343 744.718 869.343C744.704 869.343 744.69 869.343 744.676 869.343C744.662 869.343 744.648 869.343 744.634 869.343C744.619 869.343 744.605 869.343 744.591 869.343C744.577 869.343 744.563 869.343 744.549 869.343C744.535 869.343 744.521 869.343 744.507 869.343C744.493 869.343 744.479 869.343 744.465 869.343C744.451 869.343 744.437 869.343 744.423 869.343C744.409 869.343 744.395 869.343 744.381 869.343C744.367 869.343 744.353 869.343 744.339 869.343C744.325 869.343 744.311 869.343 744.297 869.343C744.283 869.343 744.269 869.343 744.255 869.343C744.241 869.343 744.227 869.343 744.213 869.343C744.2 869.343 744.186 869.343 744.172 869.343C744.158 869.343 744.144 869.343 744.13 869.343C744.116 869.343 744.102 869.343 744.089 869.343C744.075 869.343 744.061 869.343 744.047 869.343C744.033 869.343 744.019 869.343 744.006 869.343C743.992 869.343 743.978 869.343 743.964 869.343C743.95 869.343 743.937 869.343 743.923 869.343C743.909 869.343 743.895 869.343 743.881 869.343C743.868 869.343 743.854 869.343 743.84 869.343C743.826 869.343 743.813 869.343 743.799 869.343C743.785 869.343 743.772 869.343 743.758 869.343C743.744 869.343 743.73 869.343 743.717 869.343C743.703 869.343 743.689 869.343 743.676 869.343C743.662 869.343 743.648 869.343 743.635 869.343C743.621 869.343 743.607 869.343 743.594 869.343C743.58 869.343 743.567 869.343 743.553 869.343C743.539 869.343 743.526 869.343 743.512 869.343C743.499 869.343 743.485 869.343 743.471 869.343C743.458 869.343 743.444 869.343 743.431 869.343C743.417 869.343 743.404 869.343 743.39 869.343C743.376 869.343 743.363 869.343 743.349 869.343C743.336 869.343 743.322 869.343 743.309 869.343C743.295 869.343 743.282 869.343 743.268 869.343C743.255 869.343 743.241 869.343 743.228 869.343C743.215 869.343 743.201 869.343 743.188 869.343C743.174 869.343 743.161 869.343 743.147 869.343C743.134 869.343 743.121 869.343 743.107 869.343C743.094 869.343 743.08 869.343 743.067 869.343C743.054 869.343 743.04 869.343 743.027 869.343C743.013 869.343 743 869.343 742.987 869.343C742.973 869.343 742.96 869.343 742.947 869.343C742.933 869.343 742.92 869.343 742.907 869.343C742.893 869.343 742.88 869.343 742.867 869.343C742.853 869.343 742.84 869.343 742.827 869.343C742.814 869.343 742.8 869.343 742.787 869.343C742.774 869.343 742.761 869.343 742.747 869.343C742.734 869.343 742.721 869.343 742.708 869.343C742.694 869.343 742.681 869.343 742.668 869.343C742.655 869.343 742.642 869.343 742.628 869.343C742.615 869.343 742.602 869.343 742.589 869.343C742.576 869.343 742.563 869.343 742.549 869.343C742.536 869.343 742.523 869.343 742.51 869.343C742.497 869.343 742.484 869.343 742.471 869.343C742.457 869.343 742.444 869.343 742.431 869.343C742.418 869.343 742.405 869.343 742.392 869.343C742.379 869.343 742.366 869.343 742.353 869.343C742.34 869.343 742.327 869.343 742.314 869.343C742.301 869.343 742.288 869.343 742.275 869.343C742.262 869.343 742.249 869.343 742.236 869.343C742.223 869.343 742.21 869.343 742.197 869.343C742.184 869.343 742.171 869.343 742.158 869.343C742.145 869.343 742.132 869.343 742.119 869.343C742.106 869.343 742.093 869.343 742.08 869.343C742.067 869.343 742.054 869.343 742.041 869.343C742.028 869.343 742.015 869.343 742.003 869.343C741.99 869.343 741.977 869.343 741.964 869.343C741.951 869.343 741.938 869.343 741.925 869.343C741.912 869.343 741.9 869.343 741.887 869.343C741.874 869.343 741.861 869.343 741.848 869.343C741.836 869.343 741.823 869.343 741.81 869.343C741.797 869.343 741.784 869.343 741.772 869.343C741.759 869.343 741.746 869.343 741.733 869.343C741.721 869.343 741.708 869.343 741.695 869.343C741.682 869.343 741.67 869.343 741.657 869.343C741.644 869.343 741.631 869.343 741.619 869.343C741.606 869.343 741.593 869.343 741.581 869.343C741.568 869.343 741.555 869.343 741.543 869.343C741.53 869.343 741.517 869.343 741.505 869.343C741.492 869.343 741.479 869.343 741.467 869.343C741.454 869.343 741.441 869.343 741.429 869.343C741.416 869.343 741.404 869.343 741.391 869.343C741.378 869.343 741.366 869.343 741.353 869.343C741.341 869.343 741.328 869.343 741.316 869.343C741.303 869.343 741.29 869.343 741.278 869.343C741.265 869.343 741.253 869.343 741.24 869.343C741.228 869.343 741.215 869.343 741.203 869.343C741.19 869.343 741.178 869.343 741.165 869.343C741.153 869.343 741.14 869.343 741.128 869.343C741.115 869.343 741.103 869.343 741.091 869.343C741.078 869.343 741.066 869.343 741.053 869.343C741.041 869.343 741.028 869.343 741.016 869.343C741.004 869.343 740.991 869.343 740.979 869.343C740.966 869.343 740.954 869.343 740.942 869.343C740.929 869.343 740.917 869.343 740.905 869.343C740.892 869.343 740.88 869.343 740.868 869.343C740.855 869.343 740.843 869.343 740.831 869.343C740.818 869.343 740.806 869.343 740.794 869.343C740.781 869.343 740.769 869.343 740.757 869.343C740.745 869.343 740.732 869.343 740.72 869.343C740.708 869.343 740.695 869.343 740.683 869.343C740.671 869.343 740.659 869.343 740.647 869.343C740.634 869.343 740.622 869.343 740.61 869.343C740.598 869.343 740.586 869.343 740.573 869.343C740.561 869.343 740.549 869.343 740.537 869.343C740.525 869.343 740.512 869.343 740.5 869.343C740.488 869.343 740.476 869.343 740.464 869.343C740.452 869.343 740.44 869.343 740.428 869.343C740.415 869.343 740.403 869.343 740.391 869.343C740.379 869.343 740.367 869.343 740.355 869.343C740.343 869.343 740.331 869.343 740.319 869.343C740.307 869.343 740.295 869.343 740.283 869.343C740.271 869.343 740.259 869.343 740.247 869.343C740.235 869.343 740.223 869.343 740.211 869.343C740.199 869.343 740.187 869.343 740.175 869.343C740.163 869.343 740.151 869.343 740.139 869.343C740.127 869.343 740.115 869.343 740.103 869.343C740.091 869.343 740.079 869.343 740.067 869.343C740.055 869.343 740.043 869.343 740.031 869.343C740.019 869.343 740.007 869.343 739.996 869.343C739.984 869.343 739.972 869.343 739.96 869.343C739.948 869.343 739.936 869.343 739.924 869.343C739.913 869.343 739.901 869.343 739.889 869.343C739.877 869.343 739.865 869.343 739.853 869.343C739.842 869.343 739.83 869.343 739.818 869.343C739.806 869.343 739.794 869.343 739.783 869.343C739.771 869.343 739.759 869.343 739.747 869.343C739.736 869.343 739.724 869.343 739.712 869.343C739.7 869.343 739.689 869.343 739.677 869.343C739.665 869.343 739.653 869.343 739.642 869.343C739.63 869.343 739.618 869.343 739.607 869.343C739.595 869.343 739.583 869.343 739.572 869.343C739.56 869.343 739.548 869.343 739.537 869.343C739.525 869.343 739.513 869.343 739.502 869.343C739.49 869.343 739.478 869.343 739.467 869.343C739.455 869.343 739.444 869.343 739.432 869.343C739.42 869.343 739.409 869.343 739.397 869.343C739.386 869.343 739.374 869.343 739.363 869.343C739.351 869.343 739.34 869.343 739.328 869.343C739.316 869.343 739.305 869.343 739.293 869.343C739.282 869.343 739.27 869.343 739.259 869.343C739.247 869.343 739.236 869.343 739.224 869.343C739.213 869.343 739.201 869.343 739.19 869.343C739.179 869.343 739.167 869.343 739.156 869.343C739.144 869.343 739.133 869.343 739.121 869.343C739.11 869.343 739.099 869.343 739.087 869.343C739.076 869.343 739.064 869.343 739.053 869.343C739.042 869.343 739.03 869.343 739.019 869.343C739.007 869.343 738.996 869.343 738.985 869.343C738.973 869.343 738.962 869.343 738.951 869.343C738.939 869.343 738.928 869.343 738.917 869.343C738.905 869.343 738.894 869.343 738.883 869.343C738.871 869.343 738.86 869.343 738.849 869.343C738.838 869.343 738.826 869.343 738.815 869.343C738.804 869.343 738.793 869.343 738.781 869.343C738.77 869.343 738.759 869.343 738.748 869.343C738.736 869.343 738.725 869.343 738.714 869.343C738.703 869.343 738.692 869.343 738.68 869.343C738.669 869.343 738.658 869.343 738.647 869.343C738.636 869.343 738.625 869.343 738.613 869.343C738.602 869.343 738.591 869.343 738.58 869.343C738.569 869.343 738.558 869.343 738.547 869.343C738.536 869.343 738.525 869.343 738.513 869.343C738.502 869.343 738.491 869.343 738.48 869.343C738.469 869.343 738.458 869.343 738.447 869.343C738.436 869.343 738.425 869.343 738.414 869.343C738.403 869.343 738.392 869.343 738.381 869.343C738.37 869.343 738.359 869.343 738.348 869.343C738.337 869.343 738.326 869.343 738.315 869.343C738.304 869.343 738.293 869.343 738.282 869.343C738.271 869.343 738.26 869.343 738.249 869.343C738.238 869.343 738.227 869.343 738.216 869.343C738.205 869.343 738.194 869.343 738.183 869.343C738.173 869.343 738.162 869.343 738.151 869.343C738.14 869.343 738.129 869.343 738.118 869.343C738.107 869.343 738.096 869.343 738.086 869.343C738.075 869.343 738.064 869.343 738.053 869.343C738.042 869.343 738.031 869.343 738.021 869.343C738.01 869.343 737.999 869.343 737.988 869.343C737.977 869.343 737.967 869.343 737.956 869.343C737.945 869.343 737.934 869.343 737.924 869.343C737.913 869.343 737.902 869.343 737.891 869.343C737.881 869.343 737.87 869.343 737.859 869.343C737.848 869.343 737.838 869.343 737.827 869.343C737.816 869.343 737.806 869.343 737.795 869.343C737.784 869.343 737.774 869.343 737.763 869.343C737.752 869.343 737.742 869.343 737.731 869.343C737.72 869.343 737.71 869.343 737.699 869.343C737.688 869.343 737.678 869.343 737.667 869.343C737.657 869.343 737.646 869.343 737.635 869.343C737.625 869.343 737.614 869.343 737.604 869.343C737.593 869.343 737.582 869.343 737.572 869.343C737.561 869.343 737.551 869.343 737.54 869.343C737.53 869.343 737.519 869.343 737.509 869.343C737.498 869.343 737.488 869.343 737.477 869.343C737.467 869.343 737.456 869.343 737.446 869.343C737.435 869.343 737.425 869.343 737.414 869.343C737.404 869.343 737.393 869.343 737.383 869.343C737.372 869.343 737.362 869.343 737.352 869.343C737.341 869.343 737.331 869.343 737.32 869.343C737.31 869.343 737.3 869.343 737.289 869.343C737.279 869.343 737.268 869.343 737.258 869.343C737.248 869.343 737.237 869.343 737.227 869.343C737.217 869.343 737.206 869.343 737.196 869.343C737.186 869.343 737.175 869.343 737.165 869.343C737.155 869.343 737.144 869.343 737.134 869.343C737.124 869.343 737.114 869.343 737.103 869.343C737.093 869.343 737.083 869.343 737.072 869.343C737.062 869.343 737.052 869.343 737.042 869.343C737.031 869.343 737.021 869.343 737.011 869.343C737.001 869.343 736.991 869.343 736.98 869.343C736.97 869.343 736.96 869.343 736.95 869.343C736.94 869.343 736.929 869.343 736.919 869.343C736.909 869.343 736.899 869.343 736.889 869.343C736.879 869.343 736.869 869.343 736.858 869.343C736.848 869.343 736.838 869.343 736.828 869.343C736.818 869.343 736.808 869.343 736.798 869.343C736.788 869.343 736.778 869.343 736.768 869.343C736.757 869.343 736.747 869.343 736.737 869.343C736.727 869.343 736.717 869.343 736.707 869.343C736.697 869.343 736.687 869.343 736.677 869.343C736.667 869.343 736.657 869.343 736.647 869.343C736.637 869.343 736.627 869.343 736.617 869.343C736.607 869.343 736.597 869.343 736.587 869.343C736.577 869.343 736.567 869.343 736.557 869.343C736.547 869.343 736.538 869.343 736.528 869.343C736.518 869.343 736.508 869.343 736.498 869.343C736.488 869.343 736.478 869.343 736.468 869.343C736.458 869.343 736.448 869.343 736.439 869.343C736.429 869.343 736.419 869.343 736.409 869.343C736.399 869.343 736.389 869.343 736.379 869.343C736.37 869.343 736.36 869.343 736.35 869.343C736.34 869.343 736.33 869.343 736.321 869.343C736.311 869.343 736.301 869.343 736.291 869.343C736.281 869.343 736.272 869.343 736.262 869.343C736.252 869.343 736.242 869.343 736.233 869.343C736.223 869.343 736.213 869.343 736.204 869.343C736.194 869.343 736.184 869.343 736.174 869.343C736.165 869.343 736.155 869.343 736.145 869.343C736.136 869.343 736.126 869.343 736.116 869.343C736.107 869.343 736.097 869.343 736.087 869.343C736.078 869.343 736.068 869.343 736.058 869.343C736.049 869.343 736.039 869.343 736.03 869.343C736.02 869.343 736.01 869.343 736.001 869.343C735.991 869.343 735.982 869.343 735.972 869.343C735.962 869.343 735.953 869.343 735.943 869.343C735.934 869.343 735.924 869.343 735.915 869.343C735.905 869.343 735.896 869.343 735.886 869.343C735.877 869.343 735.867 869.343 735.858 869.343C735.848 869.343 735.839 869.343 735.829 869.343C735.82 869.343 735.81 869.343 735.801 869.343C735.791 869.343 735.782 869.343 735.772 869.343C735.763 869.343 735.754 869.343 735.744 869.343C735.735 869.343 735.725 869.343 735.716 869.343C735.706 869.343 735.697 869.343 735.688 869.343C735.678 869.343 735.669 869.343 735.66 869.343C735.65 869.343 735.641 869.343 735.631 869.343C735.622 869.343 735.613 869.343 735.603 869.343C735.594 869.343 735.585 869.343 735.576 869.343C735.566 869.343 735.557 869.343 735.548 869.343C735.538 869.343 735.529 869.343 735.52 869.343C735.51 869.343 735.501 869.343 735.492 869.343C735.483 869.343 735.473 869.343 735.464 869.343C735.455 869.343 735.446 869.343 735.437 869.343C735.427 869.343 735.418 869.343 735.409 869.343C735.4 869.343 735.391 869.343 735.381 869.343C735.372 869.343 735.363 869.343 735.354 869.343C735.345 869.343 735.336 869.343 735.326 869.343C735.317 869.343 735.308 869.343 735.299 869.343C735.29 869.343 735.281 869.343 735.272 869.343C735.263 869.343 735.253 869.343 735.244 869.343C735.235 869.343 735.226 869.343 735.217 869.343C735.208 869.343 735.199 869.343 735.19 869.343C735.181 869.343 735.172 869.343 735.163 869.343C735.154 869.343 735.145 869.343 735.136 869.343C735.127 869.343 735.118 869.343 735.109 869.343C735.1 869.343 735.091 869.343 735.082 869.343C735.073 869.343 735.064 869.343 735.055 869.343C735.046 869.343 735.037 869.343 735.028 869.343C735.019 869.343 735.01 869.343 735.001 869.343C734.992 869.343 734.983 869.343 734.974 869.343C734.966 869.343 734.957 869.343 734.948 869.343C734.939 869.343 734.93 869.343 734.921 869.343C734.912 869.343 734.903 869.343 734.895 869.343C734.886 869.343 734.877 869.343 734.868 869.343C734.859 869.343 734.85 869.343 734.842 869.343C734.833 869.343 734.824 869.343 734.815 869.343C734.806 869.343 734.798 869.343 734.789 869.343C734.78 869.343 734.771 869.343 734.763 869.343C734.754 869.343 734.745 869.343 734.736 869.343C734.728 869.343 734.719 869.343 734.71 869.343C734.701 869.343 734.693 869.343 734.684 869.343C734.675 869.343 734.667 869.343 734.658 869.343C734.649 869.343 734.641 869.343 734.632 869.343C734.623 869.343 734.615 869.343 734.606 869.343C734.597 869.343 734.589 869.343 734.58 869.343C734.571 869.343 734.563 869.343 734.554 869.343C734.546 869.343 734.537 869.343 734.528 869.343C734.52 869.343 734.511 869.343 734.503 869.343C734.494 869.343 734.486 869.343 734.477 869.343C734.468 869.343 734.46 869.343 734.451 869.343C734.443 869.343 734.434 869.343 734.426 869.343C734.417 869.343 734.409 869.343 734.4 869.343C734.392 869.343 734.383 869.343 734.375 869.343C734.366 869.343 734.358 869.343 734.349 869.343C734.341 869.343 734.333 869.343 734.324 869.343C734.316 869.343 734.307 869.343 734.299 869.343C734.29 869.343 734.282 869.343 734.274 869.343C734.265 869.343 734.257 869.343 734.248 869.343C734.24 869.343 734.232 869.343 734.223 869.343C734.215 869.343 734.207 869.343 734.198 869.343C734.19 869.343 734.182 869.343 734.173 869.343C734.165 869.343 734.157 869.343 734.148 869.343C734.14 869.343 734.132 869.343 734.123 869.343C734.115 869.343 734.107 869.343 734.098 869.343C734.09 869.343 734.082 869.343 734.074 869.343C734.065 869.343 734.057 869.343 734.049 869.343C734.041 869.343 734.032 869.343 734.024 869.343C734.016 869.343 734.008 869.343 734 869.343C733.991 869.343 733.983 869.343 733.975 869.343C733.967 869.343 733.959 869.343 733.951 869.343C733.942 869.343 733.934 869.343 733.926 869.343C733.918 869.343 733.91 869.343 733.902 869.343C733.894 869.343 733.885 869.343 733.877 869.343C733.869 869.343 733.861 869.343 733.853 869.343C733.845 869.343 733.837 869.343 733.829 869.343C733.821 869.343 733.813 869.343 733.805 869.343C733.797 869.343 733.789 869.343 733.781 869.343C733.772 869.343 733.764 869.343 733.756 869.343C733.748 869.343 733.74 869.343 733.732 869.343C733.724 869.343 733.716 869.343 733.708 869.343C733.701 869.343 733.693 869.343 733.685 869.343C733.677 869.343 733.669 869.343 733.661 869.343C733.653 869.343 733.645 869.343 733.637 869.343C733.629 869.343 733.621 869.343 733.613 869.343C733.605 869.343 733.597 869.343 733.59 869.343C733.582 869.343 733.574 869.343 733.566 869.343C733.558 869.343 733.55 869.343 733.542 869.343C733.535 869.343 733.527 869.343 733.519 869.343C733.511 869.343 733.503 869.343 733.495 869.343C733.488 869.343 733.48 869.343 733.472 869.343C733.464 869.343 733.456 869.343 733.449 869.343C733.441 869.343 733.433 869.343 733.425 869.343C733.418 869.343 733.41 869.343 733.402 869.343C733.394 869.343 733.387 869.343 733.379 869.343C733.371 869.343 733.364 869.343 733.356 869.343C733.348 869.343 733.34 869.343 733.333 869.343C733.325 869.343 733.317 869.343 733.31 869.343C733.302 869.343 733.294 869.343 733.287 869.343C733.279 869.343 733.272 869.343 733.264 869.343C733.256 869.343 733.249 869.343 733.241 869.343C733.233 869.343 733.226 869.343 733.218 869.343C733.211 869.343 733.203 869.343 733.196 869.343C733.188 869.343 733.18 869.343 733.173 869.343C733.165 869.343 733.158 869.343 733.15 869.343C733.143 869.343 733.135 869.343 733.128 869.343C733.12 869.343 733.113 869.343 733.105 869.343C733.098 869.343 733.09 869.343 733.083 869.343C733.075 869.343 733.068 869.343 733.06 869.343C733.053 869.343 733.045 869.343 733.038 869.343C733.031 869.343 733.023 869.343 733.016 869.343C733.008 869.343 733.001 869.343 732.993 869.343C732.986 869.343 732.979 869.343 732.971 869.343C732.964 869.343 732.956 869.343 732.949 869.343C732.942 869.343 732.934 869.343 732.927 869.343C732.92 869.343 732.912 869.343 732.905 869.343C732.898 869.343 732.89 869.343 732.883 869.343C732.876 869.343 732.868 869.343 732.861 869.343C732.854 869.343 732.847 869.343 732.839 869.343C732.832 869.343 732.825 869.343 732.818 869.343C732.81 869.343 732.803 869.343 732.796 869.343C732.789 869.343 732.781 869.343 732.774 869.343C732.767 869.343 732.76 869.343 732.753 869.343C732.745 869.343 732.738 869.343 732.731 869.343C732.724 869.343 732.717 869.343 732.709 869.343C732.702 869.343 732.695 869.343 732.688 869.343C732.681 869.343 732.674 869.343 732.667 869.343C732.66 869.343 732.652 869.343 732.645 869.343C732.638 869.343 732.631 869.343 732.624 869.343C732.617 869.343 732.61 869.343 732.603 869.343C732.596 869.343 732.589 869.343 732.582 869.343C732.575 869.343 732.568 869.343 732.56 869.343C732.553 869.343 732.546 869.343 732.539 869.343C732.532 869.343 732.525 869.343 732.518 869.343C732.511 869.343 732.504 869.343 732.497 869.343C732.49 869.343 732.484 869.343 732.477 869.343C732.47 869.343 732.463 869.343 732.456 869.343C732.449 869.343 732.442 869.343 732.435 869.343C732.428 869.343 732.421 869.343 732.414 869.343C732.407 869.343 732.4 869.343 732.394 869.343C732.387 869.343 732.38 869.343 732.373 869.343C732.366 869.343 732.359 869.343 732.352 869.343C732.345 869.343 732.339 869.343 732.332 869.343C732.325 869.343 732.318 869.343 732.311 869.343C732.305 869.343 732.298 869.343 732.291 869.343C732.284 869.343 732.277 869.343 732.271 869.343C732.264 869.343 732.257 869.343 732.25 869.343C732.244 869.343 732.237 869.343 732.23 869.343C732.223 869.343 732.217 869.343 732.21 869.343C732.203 869.343 732.197 869.343 732.19 869.343C732.183 869.343 732.176 869.343 732.17 869.343C732.163 869.343 732.156 869.343 732.15 869.343C732.143 869.343 732.136 869.343 732.13 869.343C732.123 869.343 732.117 869.343 732.11 869.343C732.103 869.343 732.097 869.343 732.09 869.343C732.083 869.343 732.077 869.343 732.07 869.343C732.064 869.343 732.057 869.343 732.051 869.343C732.044 869.343 732.037 869.343 732.031 869.343C732.024 869.343 732.018 869.343 732.011 869.343C732.005 869.343 731.998 869.343 731.992 869.343C731.985 869.343 731.979 869.343 731.972 869.343C731.966 869.343 731.959 869.343 731.953 869.343C731.946 869.343 731.94 869.343 731.933 869.343C731.927 869.343 731.92 869.343 731.914 869.343C731.908 869.343 731.901 869.343 731.895 869.343C731.888 869.343 731.882 869.343 731.875 869.343C731.869 869.343 731.863 869.343 731.856 869.343C731.85 869.343 731.844 869.343 731.837 869.343C731.831 869.343 731.824 869.343 731.818 869.343C731.812 869.343 731.805 869.343 731.799 869.343C731.793 869.343 731.786 869.343 731.78 869.343C731.774 869.343 731.768 869.343 731.761 869.343C731.755 869.343 731.749 869.343 731.742 869.343C731.736 869.343 731.73 869.343 731.724 869.343C731.717 869.343 731.711 869.343 731.705 869.343C731.699 869.343 731.692 869.343 731.686 869.343C731.68 869.343 731.674 869.343 731.668 869.343C731.661 869.343 731.655 869.343 731.649 869.343C731.643 869.343 731.637 869.343 731.631 869.343C731.624 869.343 731.618 869.343 731.612 869.343C731.606 869.343 731.6 869.343 731.594 869.343C731.588 869.343 731.582 869.343 731.575 869.343C731.569 869.343 731.563 869.343 731.557 869.343C731.551 869.343 731.545 869.343 731.539 869.343C731.533 869.343 731.527 869.343 731.521 869.343C731.515 869.343 731.509 869.343 731.503 869.343C731.497 869.343 731.491 869.343 731.485 869.343C731.479 869.343 731.473 869.343 731.467 869.343C731.461 869.343 731.455 869.343 731.449 869.343C731.443 869.343 731.437 869.343 731.431 869.343C731.425 869.343 731.419 869.343 731.413 869.343C731.407 869.343 731.401 869.343 731.395 869.343C731.389 869.343 731.383 869.343 731.377 869.343C731.371 869.343 731.366 869.343 731.36 869.343C731.354 869.343 731.348 869.343 731.342 869.343C731.336 869.343 731.33 869.343 731.325 869.343C731.319 869.343 731.313 869.343 731.307 869.343C731.301 869.343 731.295 869.343 731.29 869.343C731.284 869.343 731.278 869.343 731.272 869.343C731.266 869.343 731.261 869.343 731.255 869.343C731.249 869.343 731.243 869.343 731.238 869.343C731.232 869.343 731.226 869.343 731.22 869.343C731.215 869.343 731.209 869.343 731.203 869.343C731.197 869.343 731.192 869.343 731.186 869.343V893.343ZM747.225 893.343C766.486 893.343 786.07 890.986 805.958 886.319L800.474 862.953C782.257 867.229 764.514 869.343 747.225 869.343V893.343ZM815.076 876.461C824.906 812.568 829.797 742.056 829.797 664.962H805.797C805.797 741.065 800.967 810.335 791.355 872.811L815.076 876.461ZM817.027 676.937L889.64 681.603L891.179 657.653L818.566 652.987L817.027 676.937ZM878.44 670.483C879.398 683.892 879.868 695.553 879.868 705.497H903.868C903.868 694.834 903.366 682.581 902.379 668.773L878.44 670.483ZM879.868 705.497C879.868 715.303 879.491 725.921 878.728 737.36L902.675 738.957C903.468 727.066 903.868 715.91 903.868 705.497H879.868ZM878.717 737.549C878.144 748.827 877.283 760.407 876.133 772.288L900.021 774.6C901.204 762.374 902.093 750.43 902.686 738.768L878.717 737.549ZM876.135 772.27C874.98 784.006 873.633 795.842 872.093 807.778L895.896 810.849C897.466 798.678 898.841 786.601 900.019 774.619L876.135 772.27ZM872.096 807.753C870.546 819.57 868.997 830.898 867.449 841.736L891.208 845.13C892.77 834.194 894.332 822.775 895.892 810.874L872.096 807.753ZM867.453 841.706C865.91 852.318 864.369 862.136 862.833 871.164L886.492 875.192C888.066 865.945 889.636 855.933 891.203 845.16L867.453 841.706ZM862.851 871.058L858.769 893.804L882.391 898.044L886.474 875.298L862.851 871.058ZM858.83 893.488C857.246 901.125 855.621 906.984 854.022 911.249C852.328 915.766 851.043 917.446 850.721 917.767L867.692 934.738C871.648 930.782 874.396 925.269 876.494 919.676C878.685 913.832 880.608 906.665 882.33 898.36L858.83 893.488ZM850.526 917.967C847.128 921.527 844.37 923.43 842.326 924.35L852.175 946.236C857.907 943.656 863.12 939.532 867.887 934.538L850.526 917.967ZM842.594 924.233C839.905 925.365 835.991 926.532 830.608 927.608L835.314 951.142C841.596 949.886 847.208 948.331 851.907 946.352L842.594 924.233ZM830.608 927.608C825.171 928.696 819.104 929.619 812.389 930.365L815.039 954.218C822.322 953.409 829.087 952.388 835.314 951.142L830.608 927.608ZM812.017 930.412C805.496 931.344 798.563 932.095 791.214 932.66L793.055 956.589C800.87 955.988 808.323 955.184 815.411 954.171L812.017 930.412ZM791.214 932.66C783.71 933.237 776.504 933.717 769.597 934.101L770.929 958.064C778.019 957.67 785.395 957.178 793.055 956.589L791.214 932.66ZM769.863 934.089C758.309 934.474 747.654 934.666 737.893 934.666V958.666C747.962 958.666 758.887 958.469 770.663 958.076L769.863 934.089ZM737.893 934.666C714.605 934.666 700.318 933.647 693.722 932.076L688.163 955.423C697.897 957.741 714.911 958.666 737.893 958.666V934.666ZM973.813 663.212L972.304 651.308L961.614 652.663L961.815 663.436L973.813 663.212ZM1035.93 655.339L1047.62 652.646L1045.19 642.069L1034.42 643.434L1035.93 655.339ZM1046.13 699.665L1034.44 702.357L1038.91 721.761L1053.98 708.747L1046.13 699.665ZM1097.46 655.339V643.339H1092.99L1089.62 646.257L1097.46 655.339ZM1184.65 663.796L1176.87 672.926L1176.94 672.99L1177.02 673.054L1184.65 663.796ZM1201.28 688.292L1213.27 688.773L1213.28 688.532V688.292H1201.28ZM1191.07 942.583L1192.03 954.544L1202.63 953.689L1203.06 943.065L1191.07 942.583ZM1126.04 947.832L1114.04 947.895L1114.11 960.835L1127 959.793L1126.04 947.832ZM1124.87 722.703L1136.87 722.64L1136.83 714.039L1128.67 711.318L1124.87 722.703ZM1103.88 722.119L1102.55 710.193L1102.51 710.197L1102.47 710.202L1103.88 722.119ZM1093.09 723.869L1095.1 735.699L1095.27 735.67L1095.44 735.636L1093.09 723.869ZM1070.63 729.41L1074.74 740.683L1074.75 740.68L1074.76 740.676L1070.63 729.41ZM1049.05 737.284L1044.94 726.01L1037.37 728.771L1037.06 736.817L1049.05 737.284ZM1041.18 939.667L1042.08 951.633L1052.75 950.831L1053.17 940.134L1041.18 939.667ZM979.062 944.333L967.064 944.557L967.301 957.25L979.961 956.299L979.062 944.333ZM975.322 675.117L1037.44 667.243L1034.42 643.434L972.304 651.308L975.322 675.117ZM1024.23 658.031L1034.44 702.357L1057.83 696.972L1047.62 652.646L1024.23 658.031ZM1053.98 708.747L1105.3 664.42L1089.62 646.257L1038.29 690.583L1053.98 708.747ZM1097.46 667.339H1169.2V643.339H1097.46V667.339ZM1169.2 667.339C1168.18 667.339 1168.32 667.024 1170.07 667.98C1171.67 668.855 1173.92 670.412 1176.87 672.926L1192.44 654.666C1188.78 651.541 1185.14 648.869 1181.59 646.926C1178.19 645.063 1173.91 643.339 1169.2 643.339V667.339ZM1177.02 673.054C1187.8 681.944 1189.28 686.969 1189.28 688.292H1213.28C1213.28 675.227 1203.67 663.922 1192.29 654.537L1177.02 673.054ZM1189.29 687.81L1179.08 942.102L1203.06 943.065L1213.27 688.773L1189.29 687.81ZM1190.1 930.622L1125.07 935.871L1127 959.793L1192.03 954.544L1190.1 930.622ZM1138.04 947.77L1136.87 722.64L1112.87 722.765L1114.04 947.895L1138.04 947.77ZM1128.67 711.318C1124.57 709.952 1119.89 709.536 1115.25 709.536V733.536C1118.77 733.536 1120.51 733.898 1121.08 734.087L1128.67 711.318ZM1115.25 709.536C1110.79 709.536 1106.55 709.748 1102.55 710.193L1105.2 734.046C1108.2 733.713 1111.54 733.536 1115.25 733.536V709.536ZM1102.47 710.202C1098.8 710.634 1094.88 711.273 1090.73 712.102L1095.44 735.636C1099.07 734.91 1102.34 734.382 1105.28 734.037L1102.47 710.202ZM1091.07 712.039C1081.53 713.664 1073.27 715.663 1066.5 718.143L1074.76 740.676C1079.66 738.88 1086.37 737.185 1095.1 735.699L1091.07 712.039ZM1066.52 718.137L1044.94 726.01L1053.16 748.557L1074.74 740.683L1066.52 718.137ZM1037.06 736.817L1029.19 939.201L1053.17 940.134L1061.04 737.75L1037.06 736.817ZM1040.28 927.701L978.163 932.367L979.961 956.299L1042.08 951.633L1040.28 927.701ZM991.06 944.109L985.811 662.988L961.815 663.436L967.064 944.557L991.06 944.109ZM1273.31 747.782H1261.31V747.863L1261.31 747.945L1273.31 747.782ZM1299.84 690.333L1306.02 700.623L1306.12 700.559L1306.23 700.493L1299.84 690.333ZM1347.67 666.129L1343.09 655.037L1343.04 655.055L1343 655.074L1347.67 666.129ZM1373.91 656.213L1370.05 644.854L1370.04 644.855L1373.91 656.213ZM1436.9 648.34L1434.86 660.165L1435.06 660.2L1435.26 660.227L1436.9 648.34ZM1452.36 652.422L1456.99 641.351L1456.98 641.348L1456.97 641.345L1452.36 652.422ZM1470.44 671.961L1482.29 670.089L1482.29 670.076L1470.44 671.961ZM1480.06 834.393L1480.21 846.392L1492.06 846.243V834.393H1480.06ZM1340.38 836.142L1340.23 824.143L1328.38 824.292V836.142H1340.38ZM1340.38 874.053H1328.38V883.481L1337.54 885.712L1340.38 874.053ZM1394.62 884.259L1396.55 872.415L1396.46 872.402L1396.38 872.389L1394.62 884.259ZM1444.78 892.425L1442.85 904.269L1442.91 904.279L1442.98 904.289L1444.78 892.425ZM1484.15 899.132L1495.73 902.254L1499.1 889.739L1486.37 887.339L1484.15 899.132ZM1466.94 962.997L1465.09 974.853L1475.73 976.516L1478.53 966.118L1466.94 962.997ZM1296.64 922.462L1292.94 933.877L1293.01 933.9L1293.07 933.921L1296.64 922.462ZM1275.35 898.257L1263.35 898.42L1263.35 898.538L1263.35 898.657L1275.35 898.257ZM1408.91 713.954L1420.71 711.797L1418.91 701.954H1408.91V713.954ZM1361.96 722.994L1365.98 734.299L1366 734.292L1366.02 734.285L1361.96 722.994ZM1339.21 733.492L1331.78 724.074L1327.21 727.677V733.492H1339.21ZM1339.21 785.984H1327.21V799.357L1340.51 797.914L1339.21 785.984ZM1414.45 777.819L1415.74 789.749L1426.45 788.587V777.819H1414.45ZM1285.31 747.782C1285.31 735.049 1285.98 725.586 1287.16 719.076C1287.74 715.821 1288.39 713.689 1288.94 712.409C1289.53 711.011 1289.66 711.437 1288.67 712.181L1274.27 692.981C1270.56 695.766 1268.31 699.606 1266.86 702.996C1265.36 706.503 1264.31 710.532 1263.54 714.81C1261.99 723.367 1261.31 734.463 1261.31 747.782H1285.31ZM1288.67 712.181C1293.74 708.382 1299.51 704.527 1306.02 700.623L1293.67 680.043C1286.57 684.304 1280.09 688.614 1274.27 692.981L1288.67 712.181ZM1306.23 700.493C1312.66 696.449 1319.8 692.458 1327.66 688.526L1316.93 667.06C1308.46 671.294 1300.63 675.663 1293.46 680.173L1306.23 700.493ZM1327.66 688.526C1335.59 684.563 1343.81 680.782 1352.34 677.184L1343 655.074C1334.03 658.863 1325.33 662.858 1316.93 667.06L1327.66 688.526ZM1352.25 677.22C1360.98 673.616 1369.49 670.401 1377.79 667.572L1370.04 644.855C1361.23 647.859 1352.25 651.254 1343.09 655.037L1352.25 677.22ZM1377.78 667.573C1395.91 661.401 1407.92 658.882 1414.74 658.882V634.882C1403.68 634.882 1388.47 638.583 1370.05 644.854L1377.78 667.573ZM1414.74 658.882C1423.55 658.882 1430.18 659.357 1434.86 660.165L1438.94 636.514C1432.36 635.379 1424.21 634.882 1414.74 634.882V658.882ZM1435.26 660.227C1440.01 660.881 1444.14 661.998 1447.74 663.499L1456.97 641.345C1451.25 638.958 1445.08 637.354 1438.54 636.452L1435.26 660.227ZM1447.73 663.493C1456.04 666.969 1458.1 670.746 1458.59 673.846L1482.29 670.076C1480.06 656.067 1470.06 646.818 1456.99 641.351L1447.73 663.493ZM1458.59 673.832C1464.88 713.668 1468.06 761.419 1468.06 817.187H1492.06C1492.06 760.585 1488.83 711.518 1482.29 670.089L1458.59 673.832ZM1468.06 817.187V834.393H1492.06V817.187H1468.06ZM1479.91 822.394L1340.23 824.143L1340.53 848.141L1480.21 846.392L1479.91 822.394ZM1328.38 836.142V874.053H1352.38V836.142H1328.38ZM1337.54 885.712C1353.16 889.517 1371.62 892.983 1392.86 896.13L1396.38 872.389C1375.63 869.315 1357.92 865.976 1343.22 862.394L1337.54 885.712ZM1392.69 896.104L1442.85 904.269L1446.71 880.581L1396.55 872.415L1392.69 896.104ZM1442.98 904.289C1455.66 906.211 1468.64 908.422 1481.92 910.925L1486.37 887.339C1472.82 884.787 1459.56 882.527 1446.58 880.56L1442.98 904.289ZM1472.56 896.01L1455.35 959.875L1478.53 966.118L1495.73 902.254L1472.56 896.01ZM1468.79 951.141C1415.99 942.884 1359.8 929.519 1300.2 911.002L1293.07 933.921C1353.62 952.731 1410.96 966.389 1465.09 974.853L1468.79 951.141ZM1300.33 911.046C1294.79 909.25 1291.68 907.074 1289.97 905.132C1288.42 903.37 1287.45 901.168 1287.34 897.857L1263.35 898.657C1263.63 907.011 1266.4 914.676 1271.95 920.982C1277.34 927.108 1284.68 931.202 1292.94 933.877L1300.33 911.046ZM1287.35 898.094L1285.3 747.619L1261.31 747.945L1263.35 898.42L1287.35 898.094ZM1426.45 771.695C1426.45 752.614 1424.52 732.641 1420.71 711.797L1397.1 716.111C1400.68 735.705 1402.45 754.226 1402.45 771.695H1426.45ZM1408.91 701.954C1400.83 701.954 1393.87 702.351 1388.27 703.284L1392.22 726.957C1395.95 726.335 1401.43 725.954 1408.91 725.954V701.954ZM1388.27 703.284C1383.13 704.142 1378 705.318 1372.89 706.808L1379.61 729.848C1383.83 728.617 1388.03 727.655 1392.22 726.957L1388.27 703.284ZM1372.89 706.808C1367.97 708.243 1362.97 709.875 1357.89 711.704L1366.02 734.285C1370.66 732.614 1375.19 731.136 1379.61 729.848L1372.89 706.808ZM1357.93 711.689C1346.59 715.728 1337.22 719.778 1331.78 724.074L1346.65 742.911C1348.59 741.374 1354.39 738.426 1365.98 734.299L1357.93 711.689ZM1327.21 733.492V785.984H1351.21V733.492H1327.21ZM1340.51 797.914L1415.74 789.749L1413.15 765.889L1337.92 774.054L1340.51 797.914ZM1426.45 777.819V771.695H1402.45V777.819H1426.45Z" fill="black"/>
<path d="M462.325 1268.54L536.979 1256.59V1315.2L534.646 1396.56C541.84 1395.4 548.644 1394.13 555.06 1392.77L574.015 1388.11C580.236 1386.55 586.36 1384.8 592.387 1382.86L611.634 1376.15C620.771 1347.18 625.34 1311.8 625.34 1270C625.34 1254.45 624.562 1244.63 623.007 1240.55C597.344 1232.38 550.491 1227.33 482.447 1225.38C464.949 1225 448.716 1224.51 433.746 1223.93L444.828 1155.1C536.591 1158.6 603.76 1165.41 646.336 1175.52C653.141 1177.27 661.015 1182.61 669.958 1191.56C686.871 1208.47 696.009 1222.08 697.37 1232.38C698.925 1242.49 699.703 1256.88 699.703 1275.54C699.703 1294.01 697.273 1316.18 692.412 1342.03C687.552 1367.89 679.678 1393.55 668.791 1419.02C664.514 1429.13 654.793 1435.35 639.629 1437.68L536.396 1456.06L532.897 1537.42L467.574 1543.83L462.325 1268.54ZM929.498 1218.39L879.34 1223.93L879.923 1347.57L871.466 1482.88L924.833 1484.93L919.875 1545.29C850.859 1544.32 795.354 1540.14 753.361 1532.75L759.193 1478.22L809.643 1480.26L805.269 1228.59C787.383 1229.37 769.497 1230.34 751.611 1231.51L746.07 1175.52C778.926 1170.27 812.754 1166.57 847.554 1164.44L921.625 1159.48L929.498 1218.39ZM1068.02 1472.97L1209.45 1494.26L1194 1557.83L1149.96 1552C1085.22 1543.05 1036.62 1534.21 1004.15 1525.46L1000.36 1189.22C1068.99 1171.73 1134.31 1159.96 1196.33 1153.94L1206.54 1223.34L1066.85 1239.38L1069.77 1326.58L1195.16 1321.33L1190.5 1389.86L1070.35 1385.77L1068.02 1472.97ZM1311.52 1519.34C1303.55 1516.42 1298.59 1514.28 1296.65 1512.92C1294.7 1511.37 1292.95 1509.42 1291.4 1507.09C1282.65 1493.87 1276.33 1454.6 1272.44 1389.27C1271.47 1374.69 1270.98 1360.4 1270.98 1346.41C1270.98 1332.41 1271.28 1319.48 1271.86 1307.62C1272.44 1295.57 1273.22 1284.19 1274.19 1273.5C1276.33 1249.39 1278.27 1234.91 1280.02 1230.05L1283.52 1218.97C1286.63 1209.64 1293.73 1202.74 1304.81 1198.26C1309.67 1196.32 1315.99 1194.08 1323.77 1191.56L1349.43 1182.81C1358.96 1179.89 1368.87 1176.98 1379.17 1174.06L1408.92 1165.31C1428.94 1159.67 1445.86 1155.4 1459.66 1152.48L1475.41 1223.34C1470.55 1224.51 1464.62 1225.77 1457.62 1227.13L1386.47 1240.55L1366.34 1244.63C1360.51 1245.99 1356.14 1247.06 1353.22 1247.84C1347.78 1269.61 1345.06 1301.21 1345.06 1342.62C1345.06 1396.66 1348.36 1436.52 1354.97 1462.18C1363.14 1464.12 1371.98 1466.07 1381.51 1468.01L1441.58 1480.26L1469.87 1485.51L1453.54 1552.87C1436.04 1549.76 1420.1 1546.46 1405.71 1542.96C1351.08 1529.93 1319.68 1522.06 1311.52 1519.34ZM1606.35 1472.97L1747.78 1494.26L1732.33 1557.83L1688.29 1552C1623.55 1543.05 1574.95 1534.21 1542.48 1525.46L1538.69 1189.22C1607.32 1171.73 1672.64 1159.96 1734.66 1153.94L1744.86 1223.34L1605.18 1239.38L1608.1 1326.58L1733.49 1321.33L1728.83 1389.86L1608.68 1385.77L1606.35 1472.97Z" fill="#FAFF00"/>
<path d="M462.325 1268.54L460.269 1255.71L449.112 1257.49L449.327 1268.79L462.325 1268.54ZM536.979 1256.59H549.979V1241.34L534.924 1243.75L536.979 1256.59ZM536.979 1315.2L549.974 1315.58L549.979 1315.39V1315.2H536.979ZM534.646 1396.56L521.652 1396.19L521.201 1411.91L536.727 1409.4L534.646 1396.56ZM555.06 1392.77L557.757 1405.49L557.963 1405.45L558.167 1405.4L555.06 1392.77ZM574.015 1388.11L577.122 1400.73L577.145 1400.73L577.168 1400.72L574.015 1388.11ZM592.387 1382.86L596.378 1395.23L596.522 1395.18L596.665 1395.13L592.387 1382.86ZM611.634 1376.15L615.912 1388.43L622.07 1386.28L624.032 1380.06L611.634 1376.15ZM623.007 1240.55L635.155 1235.92L632.923 1230.06L626.949 1228.16L623.007 1240.55ZM482.447 1225.38L482.818 1212.39L482.777 1212.39L482.735 1212.39L482.447 1225.38ZM433.746 1223.93L420.912 1221.86L418.579 1236.35L433.24 1236.92L433.746 1223.93ZM444.828 1155.1L445.323 1142.11L433.823 1141.68L431.993 1153.04L444.828 1155.1ZM646.336 1175.52L649.574 1162.93L649.457 1162.9L649.34 1162.87L646.336 1175.52ZM669.958 1191.56L660.765 1200.75L669.958 1191.56ZM697.37 1232.38L684.482 1234.09L684.5 1234.22L684.521 1234.36L697.37 1232.38ZM668.791 1419.02L656.838 1413.91L656.828 1413.93L656.819 1413.95L668.791 1419.02ZM639.629 1437.68L637.652 1424.83L637.502 1424.86L637.351 1424.88L639.629 1437.68ZM536.396 1456.06L534.118 1443.26L523.856 1445.08L523.408 1455.5L536.396 1456.06ZM532.897 1537.42L534.167 1550.35L545.4 1549.25L545.885 1537.98L532.897 1537.42ZM467.574 1543.83L454.576 1544.08L454.845 1558.15L468.845 1556.77L467.574 1543.83ZM464.381 1281.38L539.035 1269.42L534.924 1243.75L460.269 1255.71L464.381 1281.38ZM523.979 1256.59V1315.2H549.979V1256.59H523.979ZM523.985 1314.83L521.652 1396.19L547.641 1396.94L549.974 1315.58L523.985 1314.83ZM536.727 1409.4C544.105 1408.2 551.116 1406.9 557.757 1405.49L552.362 1380.06C546.172 1381.37 539.575 1382.6 532.565 1383.73L536.727 1409.4ZM558.167 1405.4L577.122 1400.73L570.908 1375.48L551.952 1380.15L558.167 1405.4ZM577.168 1400.72C583.668 1399.09 590.071 1397.27 596.378 1395.23L588.396 1370.49C582.649 1372.34 576.805 1374.01 570.862 1375.5L577.168 1400.72ZM596.665 1395.13L615.912 1388.43L607.356 1363.88L588.109 1370.58L596.665 1395.13ZM624.032 1380.06C633.687 1349.45 638.34 1312.67 638.34 1270H612.34C612.34 1310.94 607.856 1344.91 599.236 1372.24L624.032 1380.06ZM638.34 1270C638.34 1262.05 638.143 1255.33 637.716 1249.95C637.321 1244.95 636.651 1239.85 635.155 1235.92L610.859 1245.18C610.815 1245.06 610.982 1245.5 611.207 1246.84C611.417 1248.09 611.622 1249.79 611.797 1252C612.148 1256.43 612.34 1262.4 612.34 1270H638.34ZM626.949 1228.16C599.335 1219.37 550.781 1214.33 482.818 1212.39L482.075 1238.38C550.201 1240.33 595.354 1245.39 619.065 1252.94L626.949 1228.16ZM482.735 1212.39C465.299 1212 449.139 1211.52 434.252 1210.94L433.24 1236.92C448.293 1237.5 464.6 1237.99 482.158 1238.38L482.735 1212.39ZM446.581 1225.99L457.662 1157.17L431.993 1153.04L420.912 1221.86L446.581 1225.99ZM444.332 1168.09C535.96 1171.59 602.063 1178.37 643.333 1188.17L649.34 1162.87C605.457 1152.45 537.221 1145.62 445.323 1142.11L444.332 1168.09ZM643.099 1188.11C646.488 1188.98 652.337 1192.32 660.765 1200.75L679.15 1182.36C669.693 1172.91 659.794 1165.56 649.574 1162.93L643.099 1188.11ZM660.765 1200.75C668.872 1208.86 674.764 1215.83 678.703 1221.7C682.734 1227.7 684.172 1231.74 684.482 1234.09L710.258 1230.68C709.207 1222.72 705.396 1214.81 700.289 1207.2C695.091 1199.46 687.957 1191.17 679.15 1182.36L660.765 1200.75ZM684.521 1234.36C685.925 1243.49 686.703 1257.1 686.703 1275.54H712.703C712.703 1256.66 711.925 1241.5 710.219 1230.41L684.521 1234.36ZM686.703 1275.54C686.703 1292.95 684.405 1314.26 679.636 1339.63L705.189 1344.43C710.141 1318.09 712.703 1295.08 712.703 1275.54H686.703ZM679.636 1339.63C674.959 1364.51 667.372 1389.27 656.838 1413.91L680.745 1424.13C691.984 1397.84 700.144 1371.27 705.189 1344.43L679.636 1339.63ZM656.819 1413.95C654.952 1418.37 650.318 1422.89 637.652 1424.83L641.606 1450.53C659.269 1447.81 674.076 1439.89 680.764 1424.08L656.819 1413.95ZM637.351 1424.88L534.118 1443.26L538.674 1468.85L641.907 1450.48L637.351 1424.88ZM523.408 1455.5L519.909 1536.86L545.885 1537.98L549.384 1456.61L523.408 1455.5ZM531.626 1524.48L466.303 1530.89L468.845 1556.77L534.167 1550.35L531.626 1524.48ZM480.572 1543.58L475.323 1268.3L449.327 1268.79L454.576 1544.08L480.572 1543.58ZM929.498 1218.39L930.926 1231.31L944.146 1229.85L942.384 1216.66L929.498 1218.39ZM879.34 1223.93L877.913 1211.01L866.285 1212.29L866.34 1223.99L879.34 1223.93ZM879.923 1347.57L892.898 1348.38L892.925 1347.95L892.923 1347.51L879.923 1347.57ZM871.466 1482.88L858.492 1482.07L857.661 1495.37L870.969 1495.87L871.466 1482.88ZM924.833 1484.93L937.789 1485.99L938.901 1472.45L925.329 1471.93L924.833 1484.93ZM919.875 1545.29L919.692 1558.29L931.837 1558.46L932.831 1546.35L919.875 1545.29ZM753.361 1532.75L740.434 1531.37L739.142 1543.45L751.108 1545.55L753.361 1532.75ZM759.193 1478.22L759.719 1465.23L747.561 1464.74L746.267 1476.84L759.193 1478.22ZM809.643 1480.26L809.117 1493.25L822.88 1493.81L822.641 1480.03L809.643 1480.26ZM805.269 1228.59L818.267 1228.37L818.035 1215.03L804.704 1215.6L805.269 1228.59ZM751.611 1231.51L738.674 1232.79L739.912 1245.3L752.457 1244.48L751.611 1231.51ZM746.07 1175.52L744.019 1162.68L731.927 1164.61L733.133 1176.8L746.07 1175.52ZM847.554 1164.44L848.351 1177.41L848.386 1177.41L848.422 1177.41L847.554 1164.44ZM921.625 1159.48L934.51 1157.76L932.898 1145.7L920.757 1146.51L921.625 1159.48ZM928.071 1205.46L877.913 1211.01L880.767 1236.85L930.926 1231.31L928.071 1205.46ZM866.34 1223.99L866.923 1347.63L892.923 1347.51L892.34 1223.87L866.34 1223.99ZM866.949 1346.76L858.492 1482.07L884.441 1483.69L892.898 1348.38L866.949 1346.76ZM870.969 1495.87L924.336 1497.92L925.329 1471.93L871.963 1469.89L870.969 1495.87ZM911.876 1483.86L906.919 1544.23L932.831 1546.35L937.789 1485.99L911.876 1483.86ZM920.058 1532.29C851.367 1531.32 796.637 1527.16 755.613 1519.95L751.108 1545.55C794.071 1553.11 850.35 1557.31 919.692 1558.29L920.058 1532.29ZM766.287 1534.13L772.119 1479.6L746.267 1476.84L740.434 1531.37L766.287 1534.13ZM758.667 1491.21L809.117 1493.25L810.169 1467.27L759.719 1465.23L758.667 1491.21ZM822.641 1480.03L818.267 1228.37L792.271 1228.82L796.645 1480.49L822.641 1480.03ZM804.704 1215.6C786.724 1216.39 768.744 1217.36 750.765 1218.54L752.457 1244.48C770.249 1243.32 788.041 1242.35 805.833 1241.58L804.704 1215.6ZM764.548 1230.23L759.007 1174.24L733.133 1176.8L738.674 1232.79L764.548 1230.23ZM748.121 1188.35C780.542 1183.18 813.951 1179.53 848.351 1177.41L846.756 1151.46C811.556 1153.62 777.31 1157.36 744.019 1162.68L748.121 1188.35ZM848.422 1177.41L922.493 1172.45L920.757 1146.51L846.685 1151.47L848.422 1177.41ZM908.739 1161.2L916.613 1220.11L942.384 1216.66L934.51 1157.76L908.739 1161.2ZM1068.02 1472.97L1055.02 1472.62L1054.71 1484.11L1066.08 1485.82L1068.02 1472.97ZM1209.45 1494.26L1222.08 1497.33L1225.44 1483.52L1211.39 1481.4L1209.45 1494.26ZM1194 1557.83L1192.29 1570.72L1203.87 1572.25L1206.63 1560.9L1194 1557.83ZM1149.96 1552L1148.18 1564.88L1148.22 1564.88L1148.26 1564.89L1149.96 1552ZM1004.15 1525.46L991.154 1525.61L991.265 1535.45L1000.77 1538.01L1004.15 1525.46ZM1000.36 1189.22L997.15 1176.63L987.247 1179.15L987.363 1189.37L1000.36 1189.22ZM1196.33 1153.94L1209.19 1152.05L1207.39 1139.8L1195.07 1141L1196.33 1153.94ZM1206.54 1223.34L1208.02 1236.26L1221.35 1234.73L1219.4 1221.45L1206.54 1223.34ZM1066.85 1239.38L1065.37 1226.47L1053.46 1227.83L1053.86 1239.82L1066.85 1239.38ZM1069.77 1326.58L1056.77 1327.01L1057.21 1340.11L1070.31 1339.56L1069.77 1326.58ZM1195.16 1321.33L1208.13 1322.21L1209.12 1307.73L1194.62 1308.34L1195.16 1321.33ZM1190.5 1389.86L1190.06 1402.85L1202.61 1403.28L1203.47 1390.74L1190.5 1389.86ZM1070.35 1385.77L1070.79 1372.78L1057.71 1372.34L1057.36 1385.43L1070.35 1385.77ZM1066.08 1485.82L1207.52 1507.11L1211.39 1481.4L1069.95 1460.11L1066.08 1485.82ZM1196.82 1491.19L1181.36 1554.76L1206.63 1560.9L1222.08 1497.33L1196.82 1491.19ZM1195.7 1544.94L1151.67 1539.11L1148.26 1564.89L1192.29 1570.72L1195.7 1544.94ZM1151.74 1539.12C1087.14 1530.2 1039.19 1521.44 1007.54 1512.91L1000.77 1538.01C1034.05 1546.98 1083.31 1555.91 1148.18 1564.88L1151.74 1539.12ZM1017.15 1525.31L1013.36 1189.08L987.363 1189.37L991.154 1525.61L1017.15 1525.31ZM1003.57 1201.82C1071.64 1184.47 1136.31 1172.83 1197.59 1166.88L1195.07 1141C1132.31 1147.1 1066.33 1158.99 997.15 1176.63L1003.57 1201.82ZM1183.47 1155.83L1193.67 1225.23L1219.4 1221.45L1209.19 1152.05L1183.47 1155.83ZM1205.05 1210.43L1065.37 1226.47L1068.33 1252.3L1208.02 1236.26L1205.05 1210.43ZM1053.86 1239.82L1056.77 1327.01L1082.76 1326.14L1079.84 1238.95L1053.86 1239.82ZM1070.31 1339.56L1195.71 1334.32L1194.62 1308.34L1069.22 1313.59L1070.31 1339.56ZM1182.19 1320.44L1177.53 1388.97L1203.47 1390.74L1208.13 1322.21L1182.19 1320.44ZM1190.94 1376.87L1070.79 1372.78L1069.91 1398.77L1190.06 1402.85L1190.94 1376.87ZM1057.36 1385.43L1055.02 1472.62L1081.01 1473.32L1083.35 1386.12L1057.36 1385.43ZM1311.52 1519.34L1307.05 1531.54L1307.23 1531.61L1307.41 1531.67L1311.52 1519.34ZM1296.65 1512.92L1288.53 1523.07L1288.85 1523.33L1289.19 1523.57L1296.65 1512.92ZM1291.4 1507.09L1280.56 1514.26L1280.57 1514.28L1280.58 1514.3L1291.4 1507.09ZM1272.44 1389.27L1285.42 1388.5L1285.42 1388.46L1285.41 1388.41L1272.44 1389.27ZM1271.86 1307.62L1284.84 1308.26L1284.84 1308.25L1271.86 1307.62ZM1274.19 1273.5L1287.14 1274.68L1287.14 1274.66L1287.14 1274.65L1274.19 1273.5ZM1280.02 1230.05L1292.26 1234.45L1292.34 1234.21L1292.42 1233.97L1280.02 1230.05ZM1283.52 1218.97L1271.19 1214.86L1271.16 1214.96L1271.13 1215.05L1283.52 1218.97ZM1304.81 1198.26L1299.98 1186.19L1299.97 1186.2L1299.95 1186.21L1304.81 1198.26ZM1323.77 1191.56L1327.79 1203.92L1327.87 1203.89L1327.96 1203.86L1323.77 1191.56ZM1349.43 1182.81L1345.62 1170.38L1345.43 1170.44L1345.23 1170.5L1349.43 1182.81ZM1379.17 1174.06L1382.71 1186.57L1382.78 1186.55L1382.84 1186.53L1379.17 1174.06ZM1408.92 1165.31L1405.4 1152.8L1405.32 1152.82L1405.25 1152.84L1408.92 1165.31ZM1459.66 1152.48L1472.35 1149.66L1469.56 1137.1L1456.97 1139.76L1459.66 1152.48ZM1475.41 1223.34L1478.44 1235.98L1490.87 1233L1488.1 1220.52L1475.41 1223.34ZM1457.62 1227.13L1460.03 1239.91L1460.07 1239.9L1460.1 1239.9L1457.62 1227.13ZM1386.47 1240.55L1384.06 1227.77L1383.97 1227.79L1383.88 1227.81L1386.47 1240.55ZM1366.34 1244.63L1363.76 1231.89L1363.57 1231.93L1363.39 1231.97L1366.34 1244.63ZM1353.22 1247.84L1349.87 1235.28L1342.47 1237.25L1340.61 1244.69L1353.22 1247.84ZM1354.97 1462.18L1342.38 1465.42L1344.34 1473.01L1351.96 1474.83L1354.97 1462.18ZM1381.51 1468.01L1378.91 1480.75L1378.91 1480.75L1381.51 1468.01ZM1441.58 1480.26L1438.98 1493L1439.1 1493.02L1439.21 1493.04L1441.58 1480.26ZM1469.87 1485.51L1482.5 1488.57L1485.74 1475.23L1472.24 1472.73L1469.87 1485.51ZM1453.54 1552.87L1451.26 1565.67L1463.29 1567.81L1466.17 1555.94L1453.54 1552.87ZM1405.71 1542.96L1408.78 1530.33L1408.76 1530.32L1408.73 1530.31L1405.71 1542.96ZM1315.99 1507.13C1312.12 1505.71 1309.14 1504.54 1306.97 1503.61C1304.54 1502.56 1303.89 1502.13 1304.1 1502.27L1289.19 1523.57C1291.34 1525.08 1294.14 1526.39 1296.67 1527.48C1299.47 1528.69 1302.95 1530.04 1307.05 1531.54L1315.99 1507.13ZM1304.77 1502.77C1303.99 1502.15 1303.12 1501.24 1302.21 1499.88L1280.58 1514.3C1282.79 1517.61 1285.41 1520.58 1288.53 1523.07L1304.77 1502.77ZM1302.24 1499.91C1301.12 1498.23 1299.53 1494.77 1297.79 1488.7C1296.1 1482.81 1294.46 1475.17 1292.93 1465.65C1289.87 1446.63 1287.35 1420.97 1285.42 1388.5L1259.47 1390.05C1261.42 1422.9 1264 1449.54 1267.26 1469.78C1268.89 1479.91 1270.72 1488.64 1272.8 1495.88C1274.82 1502.93 1277.3 1509.34 1280.56 1514.26L1302.24 1499.91ZM1285.41 1388.41C1284.46 1374.1 1283.98 1360.1 1283.98 1346.41H1257.98C1257.98 1360.7 1258.48 1375.28 1259.47 1390.14L1285.41 1388.41ZM1283.98 1346.41C1283.98 1332.59 1284.27 1319.87 1284.84 1308.26L1258.87 1306.98C1258.28 1319.09 1257.98 1332.23 1257.98 1346.41H1283.98ZM1284.84 1308.25C1285.42 1296.36 1286.19 1285.17 1287.14 1274.68L1261.25 1272.32C1260.25 1283.22 1259.47 1294.78 1258.87 1306.99L1284.84 1308.25ZM1287.14 1274.65C1288.2 1262.68 1289.2 1253.25 1290.14 1246.29C1291.13 1238.87 1291.92 1235.38 1292.26 1234.45L1267.79 1225.65C1266.38 1229.58 1265.32 1235.76 1264.37 1242.83C1263.36 1250.35 1262.32 1260.21 1261.24 1272.35L1287.14 1274.65ZM1292.42 1233.97L1295.92 1222.88L1271.13 1215.05L1267.63 1226.14L1292.42 1233.97ZM1295.86 1223.08C1297.51 1218.13 1301.3 1213.7 1309.68 1210.32L1299.95 1186.21C1286.16 1191.77 1275.76 1201.14 1271.19 1214.86L1295.86 1223.08ZM1309.64 1210.33C1314.13 1208.54 1320.15 1206.4 1327.79 1203.92L1319.75 1179.19C1311.83 1181.77 1305.22 1184.1 1299.98 1186.19L1309.64 1210.33ZM1327.96 1203.86L1353.62 1195.11L1345.23 1170.5L1319.57 1179.25L1327.96 1203.86ZM1353.23 1195.24C1362.67 1192.35 1372.49 1189.46 1382.71 1186.57L1375.63 1161.55C1365.25 1164.49 1355.24 1167.43 1345.62 1170.38L1353.23 1195.24ZM1382.84 1186.53L1412.59 1177.78L1405.25 1152.84L1375.51 1161.59L1382.84 1186.53ZM1412.44 1177.82C1432.31 1172.23 1448.92 1168.04 1462.35 1165.2L1456.97 1139.76C1442.79 1142.76 1425.58 1147.11 1405.4 1152.8L1412.44 1177.82ZM1446.97 1155.3L1462.72 1226.16L1488.1 1220.52L1472.35 1149.66L1446.97 1155.3ZM1472.38 1210.7C1467.76 1211.81 1462.02 1213.03 1455.14 1214.37L1460.1 1239.9C1467.21 1238.51 1473.34 1237.21 1478.44 1235.98L1472.38 1210.7ZM1455.21 1214.36L1384.06 1227.77L1388.87 1253.32L1460.03 1239.91L1455.21 1214.36ZM1383.88 1227.81L1363.76 1231.89L1368.93 1257.37L1389.05 1253.29L1383.88 1227.81ZM1363.39 1231.97C1357.53 1233.34 1352.99 1234.45 1349.87 1235.28L1356.57 1260.4C1359.28 1259.68 1363.5 1258.65 1369.3 1257.29L1363.39 1231.97ZM1340.61 1244.69C1334.78 1268.02 1332.06 1300.88 1332.06 1342.62H1358.06C1358.06 1301.54 1360.78 1271.21 1365.83 1250.99L1340.61 1244.69ZM1332.06 1342.62C1332.06 1396.87 1335.34 1438.09 1342.38 1465.42L1367.56 1458.94C1361.38 1434.94 1358.06 1396.45 1358.06 1342.62H1332.06ZM1351.96 1474.83C1360.28 1476.81 1369.27 1478.78 1378.91 1480.75L1384.11 1455.27C1374.7 1453.35 1365.99 1451.44 1357.98 1449.53L1351.96 1474.83ZM1378.91 1480.75L1438.98 1493L1444.18 1467.52L1384.1 1455.27L1378.91 1480.75ZM1439.21 1493.04L1467.5 1498.29L1472.24 1472.73L1443.95 1467.48L1439.21 1493.04ZM1457.23 1482.45L1440.9 1549.81L1466.17 1555.94L1482.5 1488.57L1457.23 1482.45ZM1455.81 1540.07C1438.53 1537 1422.86 1533.75 1408.78 1530.33L1402.64 1555.59C1417.34 1559.16 1433.55 1562.52 1451.26 1565.67L1455.81 1540.07ZM1408.73 1530.31C1353.72 1517.2 1323.1 1509.49 1315.63 1507L1307.41 1531.67C1316.27 1534.62 1348.44 1542.67 1402.7 1555.6L1408.73 1530.31ZM1606.35 1472.97L1593.35 1472.62L1593.04 1484.11L1604.41 1485.82L1606.35 1472.97ZM1747.78 1494.26L1760.41 1497.33L1763.77 1483.52L1749.72 1481.4L1747.78 1494.26ZM1732.33 1557.83L1730.62 1570.72L1742.2 1572.25L1744.96 1560.9L1732.33 1557.83ZM1688.29 1552L1686.51 1564.88L1686.55 1564.88L1686.58 1564.89L1688.29 1552ZM1542.48 1525.46L1529.48 1525.61L1529.59 1535.45L1539.1 1538.01L1542.48 1525.46ZM1538.69 1189.22L1535.48 1176.63L1525.58 1179.15L1525.69 1189.37L1538.69 1189.22ZM1734.66 1153.94L1747.52 1152.05L1745.72 1139.8L1733.4 1141L1734.66 1153.94ZM1744.86 1223.34L1746.35 1236.26L1759.68 1234.73L1757.73 1221.45L1744.86 1223.34ZM1605.18 1239.38L1603.7 1226.47L1591.79 1227.83L1592.19 1239.82L1605.18 1239.38ZM1608.1 1326.58L1595.1 1327.01L1595.54 1340.11L1608.64 1339.56L1608.1 1326.58ZM1733.49 1321.33L1746.46 1322.21L1747.45 1307.73L1732.95 1308.34L1733.49 1321.33ZM1728.83 1389.86L1728.38 1402.85L1740.94 1403.28L1741.8 1390.74L1728.83 1389.86ZM1608.68 1385.77L1609.12 1372.78L1596.03 1372.34L1595.68 1385.43L1608.68 1385.77ZM1604.41 1485.82L1745.85 1507.11L1749.72 1481.4L1608.28 1460.11L1604.41 1485.82ZM1735.15 1491.19L1719.69 1554.76L1744.96 1560.9L1760.41 1497.33L1735.15 1491.19ZM1734.03 1544.94L1690 1539.11L1686.58 1564.89L1730.62 1570.72L1734.03 1544.94ZM1690.07 1539.12C1625.47 1530.2 1577.52 1521.44 1545.86 1512.91L1539.1 1538.01C1572.38 1546.98 1621.64 1555.91 1686.51 1564.88L1690.07 1539.12ZM1555.48 1525.31L1551.69 1189.08L1525.69 1189.37L1529.48 1525.61L1555.48 1525.31ZM1541.9 1201.82C1609.97 1184.47 1674.64 1172.83 1735.92 1166.88L1733.4 1141C1670.64 1147.1 1604.66 1158.99 1535.48 1176.63L1541.9 1201.82ZM1721.8 1155.83L1732 1225.23L1757.73 1221.45L1747.52 1152.05L1721.8 1155.83ZM1743.38 1210.43L1603.7 1226.47L1606.66 1252.3L1746.35 1236.26L1743.38 1210.43ZM1592.19 1239.82L1595.1 1327.01L1621.09 1326.14L1618.17 1238.95L1592.19 1239.82ZM1608.64 1339.56L1734.04 1334.32L1732.95 1308.34L1607.55 1313.59L1608.64 1339.56ZM1720.52 1320.44L1715.86 1388.97L1741.8 1390.74L1746.46 1322.21L1720.52 1320.44ZM1729.27 1376.87L1609.12 1372.78L1608.24 1398.77L1728.38 1402.85L1729.27 1376.87ZM1595.68 1385.43L1593.35 1472.62L1619.34 1473.32L1621.67 1386.12L1595.68 1385.43Z" fill="black"/>
<circle cx="180" cy="205" r="64" fill="url(#paint0_linear_0_1)"/>
<circle cx="1970" cy="205" r="64" fill="url(#paint1_linear_0_1)"/>
<circle cx="1997" cy="1963" r="64" fill="url(#paint2_linear_0_1)"/>
<circle cx="180" cy="1963" r="64" fill="url(#paint3_linear_0_1)"/>
<defs>
<linearGradient id="paint0_linear_0_1" x1="116" y1="141" x2="202.5" y2="269" gradientUnits="userSpaceOnUse">
<stop stop-color="#D9D9D9"/>
<stop offset="1" stop-color="#A6A6A6" stop-opacity="0"/>
</linearGradient>
<linearGradient id="paint1_linear_0_1" x1="1906" y1="141" x2="1992.5" y2="269" gradientUnits="userSpaceOnUse">
<stop stop-color="#D9D9D9"/>
<stop offset="1" stop-color="#A6A6A6" stop-opacity="0"/>
</linearGradient>
<linearGradient id="paint2_linear_0_1" x1="1933" y1="1899" x2="2019.5" y2="2027" gradientUnits="userSpaceOnUse">
<stop stop-color="#D9D9D9"/>
<stop offset="1" stop-color="#A6A6A6" stop-opacity="0"/>
</linearGradient>
<linearGradient id="paint3_linear_0_1" x1="116" y1="1899" x2="202.5" y2="2027" gradientUnits="userSpaceOnUse">
<stop stop-color="#D9D9D9"/>
<stop offset="1" stop-color="#A6A6A6" stop-opacity="0"/>
</linearGradient>
</defs>
</svg>
